<svg width="141" height="71" viewBox="0 0 141 71" fill="none" xmlns="http://www.w3.org/2000/svg">
<path d="M53.822 64.45C53.822 64.45 53.422 64.39 52.682 64.28C52.592 64.27 52.492 64.25 52.392 64.24C52.282 64.22 52.172 64.21 52.052 64.19C51.822 64.15 51.562 64.11 51.282 64.07C51.002 64.03 50.712 63.98 50.402 63.93C50.092 63.88 49.752 63.83 49.402 63.77C47.992 63.54 46.292 63.24 44.342 62.86C43.852 62.77 43.352 62.66 42.832 62.56C42.312 62.46 41.782 62.34 41.232 62.23C40.962 62.17 40.682 62.11 40.402 62.05C40.262 62.02 40.122 61.99 39.982 61.96C39.842 61.93 39.702 61.9 39.552 61.86C39.262 61.8 38.972 61.73 38.682 61.67C38.392 61.6 38.092 61.53 37.792 61.46C36.602 61.18 35.362 60.88 34.082 60.55C32.802 60.22 31.482 59.86 30.132 59.46C27.432 58.67 24.602 57.76 21.722 56.66C20.282 56.11 18.822 55.52 17.362 54.87C15.902 54.22 14.442 53.52 12.992 52.74C12.272 52.35 11.552 51.95 10.832 51.52L10.562 51.36L10.292 51.19C10.112 51.08 9.94201 50.97 9.76201 50.86C9.41201 50.63 9.06202 50.41 8.71202 50.16C8.36202 49.93 8.02201 49.68 7.67201 49.43L7.16202 49.05C7.07202 48.99 6.99202 48.92 6.91202 48.85L6.66202 48.65C5.99202 48.12 5.34202 47.55 4.71202 46.95C4.08202 46.34 3.48201 45.7 2.92201 45C2.36201 44.3 1.85202 43.56 1.41202 42.75C1.38202 42.7 1.35201 42.65 1.33201 42.6L1.25201 42.45L1.10202 42.14L1.06201 42.06L1.02202 41.98L0.952009 41.82L0.81201 41.5C0.772009 41.39 0.73202 41.28 0.68202 41.17C0.64202 41.06 0.60201 40.95 0.56201 40.84L0.452009 40.5L0.402006 40.33C0.382006 40.27 0.372018 40.22 0.352018 40.16C0.112018 39.25 -0.0179881 38.3 0.00201193 37.35V37.22V37.15V37L0.0220162 36.85C0.0220162 36.84 0.0220162 36.83 0.0220162 36.81V36.76L0.0320107 36.66L0.052015 36.47V36.38C0.052015 36.38 0.0720193 36.32 0.0720193 36.29L0.122007 35.94V35.85L0.152006 35.76L0.192014 35.59L0.232008 35.42C0.242008 35.36 0.262016 35.31 0.272016 35.25C0.302016 35.14 0.332013 35.03 0.362013 34.92L0.462019 34.59C0.602019 34.16 0.762019 33.73 0.962019 33.33L1.03201 33.18C1.05201 33.13 1.08201 33.08 1.11201 33.03L1.26201 32.74L1.42201 32.45L1.50201 32.31L1.59201 32.17L1.76201 31.89L1.94201 31.62L2.03201 31.49L2.12201 31.36L2.31201 31.1C2.57201 30.76 2.83201 30.44 3.11201 30.13C3.66201 29.51 4.24201 28.95 4.84201 28.42C6.04201 27.38 7.30202 26.5 8.57202 25.72C9.84202 24.95 11.122 24.27 12.382 23.67C14.912 22.47 17.372 21.55 19.662 20.78C21.952 20.02 24.082 19.42 25.982 18.94C27.872 18.46 29.542 18.08 30.912 17.8C32.282 17.51 33.362 17.31 34.102 17.17C34.842 17.04 35.232 16.96 35.232 16.96C35.232 16.96 34.842 17.06 34.122 17.25C33.402 17.44 32.332 17.73 30.992 18.12C29.652 18.51 28.032 19.01 26.192 19.63C24.352 20.25 22.292 21 20.102 21.92C17.912 22.84 15.572 23.93 13.232 25.27C12.062 25.94 10.892 26.68 9.76201 27.49C8.63201 28.31 7.53201 29.21 6.54201 30.21C6.052 30.71 5.58202 31.24 5.16202 31.8C4.95202 32.08 4.75202 32.36 4.57202 32.65L4.44201 32.87L4.37201 32.98L4.31201 33.09L4.18202 33.31L4.06201 33.54L4.00201 33.65L3.95201 33.76L3.84201 33.99L3.74202 34.22C3.74202 34.22 3.71201 34.3 3.69201 34.34L3.65201 34.46C3.53201 34.77 3.44201 35.08 3.36201 35.4L3.31201 35.64L3.27202 35.88C3.27202 35.88 3.25201 35.96 3.25201 36V36.12L3.22201 36.24V36.3L3.21202 36.36L3.19201 36.6C3.19201 36.6 3.19201 36.64 3.19201 36.65V36.7V36.8V36.85V36.88C3.19201 36.88 3.19201 36.9 3.19201 36.91V37.06V37.21V37.28V37.31C3.27201 38.57 3.71202 39.8 4.46202 40.92C5.20202 42.05 6.20202 43.08 7.32202 44.01C7.88202 44.47 8.48201 44.91 9.09201 45.33L9.32202 45.49C9.40202 45.54 9.47202 45.59 9.55202 45.64L10.022 45.94C10.342 46.13 10.662 46.33 10.982 46.51C11.302 46.7 11.642 46.88 11.962 47.06C12.132 47.15 12.292 47.23 12.462 47.32L12.712 47.45L12.962 47.58C13.632 47.92 14.322 48.23 15.012 48.54C16.392 49.15 17.792 49.7 19.192 50.19C20.592 50.69 22.002 51.14 23.402 51.55C26.192 52.37 28.942 53.03 31.572 53.59C32.882 53.87 34.172 54.11 35.412 54.34C36.652 54.57 37.862 54.76 39.022 54.94C39.312 54.98 39.602 55.03 39.882 55.07C40.162 55.11 40.452 55.15 40.722 55.19C40.862 55.21 41.002 55.23 41.132 55.25C41.272 55.27 41.402 55.29 41.542 55.31C41.812 55.35 42.082 55.38 42.352 55.42C42.882 55.49 43.402 55.56 43.902 55.62C44.402 55.68 44.892 55.74 45.372 55.79C47.272 56.01 48.932 56.17 50.292 56.29C50.632 56.32 50.962 56.35 51.262 56.37C51.562 56.4 51.852 56.42 52.112 56.44C52.372 56.46 52.622 56.48 52.842 56.5C52.952 56.5 53.062 56.52 53.162 56.52C53.262 56.52 53.362 56.53 53.462 56.54C54.212 56.59 54.612 56.62 54.612 56.62L53.772 64.41L53.822 64.45Z" fill="white"/>
<path d="M52.0219 50L69.002 61.59L50.4819 70.51L52.0219 50Z" fill="white"/>
<path d="M109.292 17.83C109.292 17.83 109.402 17.8499 109.602 17.8999C109.812 17.9399 110.112 18.0099 110.512 18.0999C111.312 18.2799 112.482 18.54 113.972 18.92C115.462 19.3 117.252 19.7799 119.302 20.4299C120.322 20.7499 121.402 21.12 122.532 21.53C123.102 21.74 123.672 21.96 124.262 22.19C124.852 22.43 125.452 22.68 126.062 22.94C126.672 23.21 127.292 23.4899 127.912 23.7899C128.532 24.0899 129.162 24.4199 129.802 24.7599C131.072 25.4499 132.352 26.24 133.612 27.17C134.242 27.63 134.862 28.1299 135.462 28.6799C136.062 29.2299 136.652 29.82 137.202 30.4799C137.332 30.65 137.472 30.8099 137.602 30.9799C137.672 31.07 137.732 31.15 137.802 31.24C137.862 31.33 137.932 31.4199 137.992 31.5099C138.052 31.5999 138.112 31.69 138.182 31.78L138.272 31.92C138.272 31.92 138.332 32.01 138.362 32.06C138.422 32.15 138.482 32.2499 138.532 32.3499C138.592 32.4499 138.642 32.55 138.702 32.64C138.922 33.04 139.122 33.45 139.292 33.88C139.462 34.31 139.612 34.76 139.732 35.22C139.852 35.68 139.932 36.16 139.982 36.64C139.992 36.76 140.012 36.88 140.012 37V37.1799L140.032 37.27C140.032 37.3 140.032 37.27 140.032 37.34V37.38V37.5399V37.6199C140.032 37.6199 140.032 37.65 140.032 37.66V37.7099V37.91V38.0099V38.0999C139.982 39.0799 139.792 40.07 139.472 41C139.152 41.93 138.712 42.81 138.202 43.63C137.692 44.45 137.112 45.21 136.482 45.92C135.852 46.63 135.182 47.29 134.492 47.91C134.142 48.22 133.792 48.52 133.422 48.81C133.062 49.1 132.692 49.39 132.322 49.66C130.832 50.76 129.272 51.7299 127.682 52.6199C126.882 53.07 126.082 53.49 125.272 53.89C124.462 54.3 123.642 54.68 122.822 55.05C121.182 55.79 119.522 56.47 117.862 57.09C114.542 58.34 111.232 59.38 108.002 60.27C104.772 61.16 101.612 61.9 98.612 62.53C95.612 63.16 92.752 63.67 90.112 64.09C87.472 64.5099 85.042 64.8399 82.882 65.0999C80.722 65.3599 78.842 65.5599 77.282 65.7099C75.732 65.8599 74.502 65.96 73.672 66.02C72.842 66.08 72.392 66.1199 72.392 66.1199L72.092 57.16C72.092 57.16 72.522 57.16 73.322 57.16C74.122 57.16 75.302 57.16 76.802 57.14C78.302 57.12 80.122 57.07 82.212 56.99C84.302 56.9 86.652 56.77 89.212 56.58C91.772 56.38 94.542 56.11 97.462 55.74C100.382 55.37 103.452 54.91 106.592 54.3C109.742 53.7 112.962 52.9599 116.172 52.0399C117.782 51.5799 119.382 51.07 120.962 50.5C121.752 50.22 122.542 49.92 123.322 49.61C124.102 49.3 124.872 48.9699 125.632 48.6199C127.152 47.9299 128.632 47.1599 130.022 46.2899C131.412 45.4299 132.712 44.4699 133.832 43.3999C134.952 42.3299 135.872 41.13 136.442 39.84C136.722 39.2 136.912 38.53 137.002 37.86V37.8L137.012 37.74V37.63L137.032 37.5999C137.032 37.5999 137.032 37.5799 137.032 37.5699V37.49L137.042 37.33V37.2899V37.2299V37.0999C137.042 37.0099 137.042 36.93 137.042 36.84C137.042 36.5 137.002 36.1599 136.942 35.8199C136.882 35.4799 136.802 35.15 136.702 34.81C136.602 34.48 136.472 34.15 136.322 33.83C136.282 33.75 136.252 33.67 136.212 33.59C136.172 33.51 136.132 33.4299 136.092 33.3499C136.072 33.3099 136.052 33.2699 136.032 33.2299L135.962 33.11C135.922 33.03 135.882 32.95 135.832 32.88C135.782 32.8 135.742 32.7299 135.692 32.6499C135.642 32.5699 135.592 32.5 135.552 32.42C135.452 32.27 135.352 32.12 135.252 31.97C134.832 31.38 134.362 30.8199 133.872 30.2899C133.372 29.7599 132.842 29.2599 132.302 28.7899C131.212 27.8399 130.062 27 128.902 26.24C128.322 25.86 127.742 25.5 127.162 25.16C126.582 24.82 126.012 24.5 125.442 24.19C124.872 23.89 124.302 23.5899 123.752 23.3199C123.192 23.0499 122.642 22.7799 122.112 22.5399C121.032 22.0399 120.002 21.6 119.022 21.2C117.062 20.4 115.312 19.77 113.872 19.28C112.422 18.79 111.282 18.43 110.492 18.19C110.102 18.07 109.802 17.98 109.592 17.92C109.392 17.86 109.282 17.83 109.282 17.83H109.292Z" fill="white"/>
<path d="M33.042 38.01C34.372 38.81 37.412 40.29 40.462 40.29C44.342 40.29 46.302 38.13 46.302 35.34C46.302 31.7 43.162 30.04 39.872 30.04H36.822V23.83H39.722C42.222 23.77 45.422 22.69 45.422 19.56C45.422 17.34 43.852 15.69 40.702 15.69C38.102 15.69 35.352 17 34.022 17.91L32.502 11.65C34.422 10.23 38.252 8.85999 42.372 8.85999C49.202 8.85999 52.982 13.02 52.982 18.09C52.982 22.02 51.062 25.09 47.142 26.69V26.8C50.972 27.6 54.062 30.96 54.062 35.8C54.062 42.35 49.102 47.13 41.002 47.13C36.872 47.13 33.392 45.88 31.522 44.51L33.042 38.02V38.01Z" fill="white"/>
<path d="M31.5419 44.49C33.2719 45.75 36.662 47.1 40.992 47.1C48.792 47.1 54.032 42.55 54.032 35.79C54.032 31.28 51.2519 27.67 47.1219 26.81H47.102V26.66H47.112C50.922 25.11 52.9419 22.14 52.9419 18.08C52.9419 13.5 49.672 8.87999 42.352 8.87999C38.142 8.87999 34.372 10.27 32.502 11.66L34.0119 17.88C35.2319 17.05 37.972 15.67 40.682 15.67C42.182 15.67 43.4119 16.05 44.2319 16.78C45.0119 17.46 45.422 18.43 45.422 19.57C45.422 22.64 42.342 23.8 39.702 23.86H36.822V30.02H39.8419C41.5819 30.02 43.162 30.48 44.302 31.31C45.602 32.26 46.2919 33.65 46.2919 35.34C46.2919 36.78 45.782 38 44.822 38.88C43.792 39.82 42.272 40.32 40.432 40.32C37.022 40.32 33.722 38.47 33.032 38.05L31.522 44.5L31.5419 44.49ZM41.002 47.15C36.642 47.15 33.2419 45.79 31.5119 44.53H31.502L33.032 37.99L33.062 38.01C33.692 38.39 37.022 40.28 40.462 40.28C43.902 40.28 46.282 38.39 46.282 35.35C46.282 31.46 42.8319 30.08 39.8719 30.08H36.802V23.83H39.722C42.342 23.77 45.392 22.62 45.392 19.58C45.392 17.21 43.592 15.73 40.702 15.73C37.9819 15.73 35.232 17.12 34.032 17.95L34.002 17.97L32.472 11.66H32.4819C34.3519 10.26 38.1319 8.85999 42.3719 8.85999C45.6119 8.85999 48.342 9.79999 50.252 11.58C52.022 13.23 53.002 15.55 53.002 18.11C53.002 20.1 52.512 21.85 51.552 23.3C50.562 24.79 49.082 25.94 47.162 26.73V26.81C49.082 27.21 50.822 28.27 52.052 29.8C53.382 31.44 54.082 33.52 54.082 35.83C54.082 37.46 53.782 38.98 53.182 40.37C52.582 41.75 51.712 42.96 50.582 43.97C48.232 46.07 44.912 47.19 40.992 47.19L41.002 47.15Z" fill="white"/>
<path d="M75.2821 34.2C75.2821 30.78 73.7121 27.82 70.5221 27.82C68.5121 27.82 66.8421 29.24 66.1021 31.12C65.9021 31.58 65.8121 32.26 65.8121 33.28C65.9621 37.21 67.5821 40.74 70.9721 40.74C73.6221 40.74 75.2921 37.95 75.2921 34.19L75.2821 34.2ZM79.3521 15.63C78.5121 15.57 77.6321 15.63 76.4521 15.74C69.8221 16.37 66.8721 20.3 66.0421 24.62H66.1921C67.7621 22.74 69.9721 21.66 72.9721 21.66C78.3221 21.66 82.8421 26.04 82.8421 33.73C82.8421 41.42 77.9821 47.11 71.0521 47.11C62.5521 47.11 58.3821 39.76 58.3821 30.94C58.3821 23.99 60.5921 18.18 64.0321 14.48C67.2221 11.12 71.3521 9.30001 76.3621 9.01001C77.7421 8.90001 78.6221 8.90001 79.3621 8.95001V15.61L79.3521 15.63Z" fill="white"/>
<path d="M70.5121 27.84C68.6221 27.84 66.8921 29.13 66.1121 31.13C65.9121 31.59 65.8221 32.28 65.8221 33.29C65.9021 35.34 66.3821 37.18 67.1821 38.48C68.0921 39.95 69.3921 40.73 70.9521 40.73C72.2221 40.73 73.3121 40.09 74.0921 38.88C74.8421 37.71 75.2521 36.05 75.2521 34.21C75.2521 32.37 74.8321 30.88 74.0721 29.75C73.2321 28.51 72.0021 27.85 70.5121 27.85V27.84ZM70.9521 40.77C69.3721 40.77 68.0521 39.99 67.1421 38.5C66.3421 37.2 65.8521 35.34 65.7721 33.29C65.7721 32.28 65.8621 31.59 66.0721 31.12C66.8621 29.11 68.6021 27.8 70.5121 27.8C72.0121 27.8 73.2621 28.46 74.1121 29.72C74.8821 30.85 75.3021 32.44 75.3021 34.2C75.3021 36.05 74.882 37.72 74.132 38.9C73.342 40.13 72.2521 40.78 70.9621 40.78L70.9521 40.77ZM78.3421 8.94998C77.7721 8.94998 77.1321 8.97998 76.3621 9.03998C71.3621 9.31998 67.2221 11.16 64.0521 14.5C60.4621 18.36 58.412 24.35 58.412 30.94C58.412 40.75 63.3821 47.09 71.0621 47.09C77.7721 47.09 82.8321 41.35 82.8321 33.73C82.8321 26.64 78.7821 21.68 72.9821 21.68C70.1321 21.68 67.862 22.67 66.222 24.63H66.0421V24.6C66.5021 22.22 67.5321 20.25 69.0821 18.76C70.8921 17.02 73.382 15.99 76.472 15.7C77.202 15.63 77.9821 15.56 78.6821 15.56C78.9121 15.56 79.1321 15.56 79.3421 15.58V8.95998C79.0221 8.93998 78.7021 8.91998 78.3521 8.91998L78.3421 8.94998ZM71.0521 47.15C68.9921 47.15 67.1221 46.72 65.4821 45.86C63.9321 45.05 62.6021 43.88 61.5121 42.36C60.4721 40.92 59.6821 39.18 59.1421 37.21C58.6221 35.29 58.3521 33.19 58.3521 30.95C58.3521 27.57 58.8721 24.38 59.8921 21.5C60.8721 18.73 62.2521 16.37 64.0121 14.48C67.1921 11.13 71.3421 9.28998 76.3521 9.00998C77.1221 8.94998 77.7721 8.91998 78.3321 8.91998C78.6921 8.91998 79.0221 8.92998 79.3521 8.95998H79.3721V15.67H79.3521C79.1321 15.65 78.9121 15.65 78.6721 15.65C77.9721 15.65 77.1921 15.72 76.4621 15.79C68.7921 16.51 66.6621 21.63 66.0721 24.63H66.1821C67.8321 22.67 70.112 21.67 72.972 21.67C75.682 21.67 78.1521 22.79 79.9321 24.83C81.8521 27.03 82.8621 30.11 82.8621 33.76C82.8621 37.41 81.6921 40.74 79.5621 43.22C77.3821 45.76 74.3621 47.16 71.0521 47.16V47.15Z" fill="white"/>
<path d="M93.252 28.05C93.202 36.53 94.9719 40.58 97.8719 40.58C100.772 40.58 102.342 36.37 102.342 27.94C102.342 19.51 100.822 15.41 97.8219 15.41C95.0719 15.41 93.202 19.45 93.252 28.05ZM109.802 27.82C109.802 39.27 105.822 47.12 97.6719 47.12C89.5219 47.12 85.7819 38.52 85.7419 28.04C85.7419 17.33 89.6719 8.84998 97.9219 8.84998C106.172 8.84998 109.812 17.68 109.812 27.81L109.802 27.82Z" fill="white"/>
<path d="M97.8219 15.43C97.0819 15.43 96.4119 15.73 95.8319 16.31C94.1319 18.02 93.242 22.08 93.282 28.05C93.262 31.06 93.4819 33.59 93.9119 35.55C94.3319 37.44 94.962 38.82 95.782 39.64C96.382 40.24 97.0819 40.55 97.8719 40.55C99.3119 40.55 100.422 39.49 101.172 37.4C101.932 35.28 102.322 32.09 102.322 27.93C102.322 23.77 101.942 20.7 101.192 18.6C100.432 16.49 99.3019 15.43 97.8319 15.43H97.8219ZM97.8719 40.6C97.0719 40.6 96.3519 40.29 95.7419 39.68C94.9219 38.85 94.2819 37.47 93.8619 35.56C93.4219 33.59 93.2119 31.06 93.2319 28.05C93.2019 22.07 94.0819 18 95.8019 16.28C96.3919 15.69 97.0719 15.39 97.8219 15.39C99.3219 15.39 100.462 16.47 101.222 18.59C101.972 20.7 102.362 23.84 102.362 27.94C102.362 32.04 101.972 35.3 101.212 37.43C100.452 39.54 99.3319 40.61 97.8719 40.61V40.6ZM97.9219 8.88002C94.0519 8.88002 90.882 10.81 88.752 14.45C86.792 17.81 85.7619 22.52 85.7619 28.05C85.7919 33.54 86.7819 38.19 88.6519 41.51C90.7419 45.22 93.7819 47.11 97.6719 47.11C101.562 47.11 104.672 45.31 106.772 41.76C108.742 38.45 109.782 33.63 109.782 27.83C109.782 22.41 108.832 17.82 107.042 14.56C104.982 10.8 101.912 8.89001 97.9119 8.89001L97.9219 8.88002ZM97.6719 47.15C95.6719 47.15 93.8719 46.64 92.3219 45.64C90.8619 44.7 89.6119 43.32 88.6119 41.53C86.7419 38.21 85.7419 33.55 85.7219 28.05C85.7219 22.51 86.7619 17.8 88.7219 14.43C89.7619 12.65 91.042 11.27 92.532 10.33C94.112 9.34002 95.9219 8.83002 97.9319 8.83002C99.9419 8.83002 101.832 9.35001 103.402 10.37C104.862 11.32 106.112 12.72 107.092 14.52C108.882 17.79 109.832 22.39 109.832 27.81C109.832 33.62 108.792 38.44 106.822 41.77C105.792 43.5 104.522 44.83 103.022 45.73C101.472 46.67 99.6719 47.14 97.6719 47.14V47.15Z" fill="white"/>
<path d="M114.952 5.52997C114.952 7.48997 113.362 9.08997 111.392 9.08997C109.422 9.08997 107.832 7.49997 107.832 5.52997C107.832 3.55997 109.422 1.96997 111.392 1.96997C113.362 1.96997 114.952 3.55997 114.952 5.52997Z" fill="white"/>
<path d="M111.392 3.31999C110.172 3.31999 109.182 4.31 109.182 5.53C109.182 6.75 110.172 7.74001 111.392 7.74001C112.612 7.74001 113.602 6.75 113.602 5.53C113.602 4.31 112.612 3.31999 111.392 3.31999ZM111.392 10.43C108.692 10.43 106.492 8.23 106.492 5.53C106.492 2.83 108.692 0.630005 111.392 0.630005C114.092 0.630005 116.292 2.83 116.292 5.53C116.292 8.23 114.092 10.43 111.392 10.43Z" fill="white"/>
</svg>
