<svg width="25" height="24" viewBox="0 0 25 24" fill="none" xmlns="http://www.w3.org/2000/svg">
<path d="M2.17001 17.38C2.17001 15.82 3.44001 14.55 5.00001 14.55C6.56001 14.55 7.83001 15.82 7.83001 17.38C7.83001 18.94 6.56001 20.21 5.00001 20.21C3.44001 20.21 2.17001 18.94 2.17001 17.38ZM18.84 3.72998C18.84 3.97998 18.64 4.19 18.38 4.19C18.12 4.19 17.92 3.98998 17.92 3.72998V1.60999C17.92 1.35999 18.12 1.15002 18.38 1.15002C18.64 1.15002 18.84 1.34999 18.84 1.60999V3.72998ZM8.45 3.72998C8.45 3.97998 8.25001 4.19 7.99001 4.19C7.73001 4.19 7.53001 3.98998 7.53001 3.72998V1.60999C7.53001 1.35999 7.73001 1.15002 7.99001 1.15002C8.25001 1.15002 8.45 1.34999 8.45 1.60999V3.72998ZM21.92 2.25H19.75V1.60999C19.75 0.859985 19.14 0.23999 18.38 0.23999C17.62 0.23999 17.01 0.849985 17.01 1.60999V2.25H9.35001V1.60999C9.35001 0.859985 8.74 0.23999 7.98 0.23999C7.22 0.23999 6.61001 0.849985 6.61001 1.60999V2.26001C6.61001 2.26001 6.53001 2.23999 6.49001 2.23999H4.67001C3.41001 2.23999 2.39001 3.26002 2.39001 4.52002V12.28C2.39001 12.53 2.59001 12.74 2.85001 12.74C3.11001 12.74 3.31001 12.54 3.31001 12.28V6.92999H19.74C19.99 6.92999 20.2 6.72997 20.2 6.46997C20.2 6.20997 20 6.01001 19.74 6.01001H3.31001V4.51001C3.31001 3.76001 3.92001 3.14001 4.68001 3.14001H6.50001C6.50001 3.14001 6.58001 3.14 6.62001 3.12V3.71002C6.62001 4.46002 7.23001 5.08002 7.99001 5.08002C8.75001 5.08002 9.36001 4.47002 9.36001 3.71002V3.14001H17.02V3.71002C17.02 4.46002 17.63 5.08002 18.39 5.08002C19.15 5.08002 19.76 4.47002 19.76 3.71002V3.14001H21.93C22.68 3.14001 23.3 3.75001 23.3 4.51001V21.83C23.3 22.28 22.93 22.65 22.48 22.65C22.03 22.65 21.66 22.28 21.66 21.83V20.65C21.66 20.4 21.46 20.19 21.2 20.19H15.9C15.65 20.19 15.44 20.39 15.44 20.65C15.44 20.91 15.64 21.11 15.9 21.11H20.75V21.83C20.75 22.13 20.83 22.41 20.96 22.65H2.62001C2.17001 22.65 1.80001 22.28 1.80001 21.83V21.11H12C12.25 21.11 12.46 20.91 12.46 20.65C12.46 20.39 12.26 20.19 12 20.19H7.45C8.25 19.5 8.75001 18.49 8.75001 17.36C8.75001 15.3 7.07001 13.62 5.01001 13.62C2.95001 13.62 1.27 15.3 1.27 17.36C1.27 18.49 1.78001 19.51 2.57001 20.19H1.34C1.09 20.19 0.880005 20.39 0.880005 20.65V21.83C0.880005 22.78 1.66001 23.56 2.61001 23.56H22.48C23.44 23.56 24.21 22.78 24.21 21.83V4.51001C24.21 3.25001 23.19 2.22998 21.93 2.22998L21.92 2.25Z" fill="#0B050C"/>
<path d="M21.89 6.95007C22.01 6.95007 22.13 6.90007 22.21 6.82007C22.29 6.74007 22.34 6.62006 22.34 6.50006C22.34 6.38006 22.29 6.26005 22.21 6.18005C22.13 6.10005 22.01 6.05005 21.89 6.05005C21.77 6.05005 21.65 6.10005 21.57 6.18005C21.49 6.26005 21.44 6.38006 21.44 6.50006C21.44 6.62006 21.49 6.74007 21.57 6.82007C21.65 6.90007 21.77 6.95007 21.89 6.95007Z" fill="#0B050C"/>
<path d="M13.83 20.35C13.75 20.44 13.7 20.55 13.7 20.67C13.7 20.79 13.75 20.91 13.83 20.99C13.91 21.07 14.03 21.12 14.15 21.12C14.27 21.12 14.39 21.07 14.47 20.99C14.55 20.9 14.6 20.79 14.6 20.67C14.6 20.55 14.55 20.43 14.47 20.35C14.39 20.27 14.27 20.22 14.15 20.22C14.03 20.22 13.91 20.27 13.83 20.35Z" fill="#0B050C"/>
<path d="M11.18 15.0099C11.63 15.0099 12 15.3799 12 15.8299C12 16.2799 11.63 16.6499 11.18 16.6499C10.73 16.6499 10.36 16.2799 10.36 15.8299C10.36 15.3799 10.73 15.0099 11.18 15.0099ZM11.18 17.5699C12.13 17.5699 12.91 16.7899 12.91 15.8399C12.91 14.8899 12.13 14.1099 11.18 14.1099C10.23 14.1099 9.45001 14.8899 9.45001 15.8399C9.45001 16.7899 10.23 17.5699 11.18 17.5699Z" fill="#0B050C"/>
<path d="M15.43 15.0099C15.88 15.0099 16.25 15.3799 16.25 15.8299C16.25 16.2799 15.88 16.6499 15.43 16.6499C14.98 16.6499 14.61 16.2799 14.61 15.8299C14.61 15.3799 14.98 15.0099 15.43 15.0099ZM15.43 17.5699C16.38 17.5699 17.16 16.7899 17.16 15.8399C17.16 14.8899 16.38 14.1099 15.43 14.1099C14.48 14.1099 13.7 14.8899 13.7 15.8399C13.7 16.7899 14.48 17.5699 15.43 17.5699Z" fill="#0B050C"/>
<path d="M19.69 15.0099C20.14 15.0099 20.51 15.3799 20.51 15.8299C20.51 16.2799 20.14 16.6499 19.69 16.6499C19.24 16.6499 18.87 16.2799 18.87 15.8299C18.87 15.3799 19.24 15.0099 19.69 15.0099ZM19.69 17.5699C20.64 17.5699 21.42 16.7899 21.42 15.8399C21.42 14.8899 20.64 14.1099 19.69 14.1099C18.74 14.1099 17.96 14.8899 17.96 15.8399C17.96 16.7899 18.74 17.5699 19.69 17.5699Z" fill="#0B050C"/>
<path d="M6.10001 11.0899C6.10001 10.6399 6.47001 10.2699 6.92001 10.2699C7.37001 10.2699 7.74002 10.6399 7.74002 11.0899C7.74002 11.5399 7.37001 11.9099 6.92001 11.9099C6.47001 11.9099 6.10001 11.5399 6.10001 11.0899ZM8.66002 11.0899C8.66002 10.1399 7.88002 9.35986 6.93002 9.35986C5.98002 9.35986 5.20001 10.1399 5.20001 11.0899C5.20001 12.0399 5.98002 12.8199 6.93002 12.8199C7.88002 12.8199 8.66002 12.0399 8.66002 11.0899Z" fill="#0B050C"/>
<path d="M15.43 10.2701C15.88 10.2701 16.25 10.6401 16.25 11.0901C16.25 11.5401 15.88 11.9101 15.43 11.9101C14.98 11.9101 14.61 11.5401 14.61 11.0901C14.61 10.6401 14.98 10.2701 15.43 10.2701ZM15.43 12.8301C16.38 12.8301 17.16 12.0501 17.16 11.1001C17.16 10.1501 16.38 9.37012 15.43 9.37012C14.48 9.37012 13.7 10.1501 13.7 11.1001C13.7 12.0501 14.48 12.8301 15.43 12.8301Z" fill="#0B050C"/>
<path d="M19.69 10.2701C20.14 10.2701 20.51 10.6401 20.51 11.0901C20.51 11.5401 20.14 11.9101 19.69 11.9101C19.24 11.9101 18.87 11.5401 18.87 11.0901C18.87 10.6401 19.24 10.2701 19.69 10.2701ZM19.69 12.8301C20.64 12.8301 21.42 12.0501 21.42 11.1001C21.42 10.1501 20.64 9.37012 19.69 9.37012C18.74 9.37012 17.96 10.1501 17.96 11.1001C17.96 12.0501 18.74 12.8301 19.69 12.8301Z" fill="#0B050C"/>
<path d="M11.18 10.2701C11.63 10.2701 12 10.6401 12 11.0901C12 11.5401 11.63 11.9101 11.18 11.9101C10.73 11.9101 10.36 11.5401 10.36 11.0901C10.36 10.6401 10.73 10.2701 11.18 10.2701ZM11.18 12.8301C12.13 12.8301 12.91 12.0501 12.91 11.1001C12.91 10.1501 12.13 9.37012 11.18 9.37012C10.23 9.37012 9.45001 10.1501 9.45001 11.1001C9.45001 12.0501 10.23 12.8301 11.18 12.8301Z" fill="#0B050C"/>
<path d="M4.16002 18.72C4.25002 18.81 4.36002 18.85 4.48002 18.85C4.60002 18.85 4.72002 18.8 4.80002 18.72L6.61002 16.91C6.79002 16.73 6.79002 16.44 6.61002 16.27C6.43002 16.09 6.14002 16.09 5.97002 16.27L4.49002 17.75L3.98002 17.24C3.80002 17.06 3.51002 17.06 3.34002 17.24C3.16002 17.42 3.16002 17.71 3.34002 17.88L4.17002 18.71L4.16002 18.72Z" fill="#0B050C"/>
</svg>
