<svg width="23" height="23" viewBox="0 0 23 23" fill="none" xmlns="http://www.w3.org/2000/svg">
<path d="M18.8223 11.5C18.8223 11.8225 18.5608 12.084 18.2383 12.084H12.084V18.2383C12.084 18.5608 11.8225 18.8223 11.5 18.8223C11.1775 18.8223 10.916 18.5608 10.916 18.2383V12.084H4.76176C4.43922 12.084 4.17778 11.8225 4.17778 11.5C4.17778 11.1775 4.43922 10.916 4.76176 10.916H10.916V4.76176C10.916 4.43922 11.1775 4.17778 11.5 4.17778C11.8225 4.17778 12.084 4.43922 12.084 4.76176V10.916H18.2383C18.5608 10.916 18.8223 11.1775 18.8223 11.5ZM23 3.97559V19.0245C23 21.2166 21.2166 23 19.0244 23H3.97559C1.78344 23 0 21.2166 0 19.0245V3.97559C0 1.78344 1.78344 0 3.97559 0H19.0244C21.2166 0 23 1.78344 23 3.97559ZM21.832 3.97559C21.832 2.42744 20.5726 1.16797 19.0244 1.16797H3.97559C2.42744 1.16797 1.16797 2.42744 1.16797 3.97559V19.0245C1.16797 20.5726 2.42744 21.832 3.97559 21.832H19.0244C20.5726 21.832 21.832 20.5726 21.832 19.0245V3.97559Z" fill="black"/>
</svg>
