<?xml version="1.0" encoding="UTF-8"?>
<svg id="Layer_1" data-name="Layer 1" xmlns="http://www.w3.org/2000/svg" viewBox="0 0 48 48">
  <path d="M43.183,31.046c-2.252-1.577-5.445-1.915-7.719-1.915h-.498l-7.938-3.703c-.991-.46-2.084-.704-3.176-.704h-7.01c-.679,0-1.341.135-1.966.401l-7.272,3.121c-.396.169-.822.257-1.257.257h-.485c-1.021,0-1.847.831-1.847,1.847v4.003c0,.877.628,1.645,1.493,1.814l2.332.456c.287,1.776,1.835,3.138,3.691,3.138,1.388,0,2.602-.759,3.248-1.885h19.955c.645,1.126,1.86,1.885,3.248,1.885s2.602-.759,3.248-1.885h1.164c1.021,0,1.847-.831,1.847-1.852v-2.944c0-.806-.392-1.565-1.054-2.033h-.004ZM23.848,25.904c.919,0,1.847.207,2.678.595l5.648,2.632h-8.41l-2.767-3.231h2.851v.004ZM19.445,25.904l2.771,3.231h-1c-.38,0-.738-.164-.987-.451l-2.383-2.78h1.599ZM37.982,38.583c-1.409,0-2.56-1.143-2.56-2.56s1.147-2.56,2.56-2.56,2.56,1.147,2.56,2.56-1.143,2.56-2.56,2.56ZM43.06,36.023c0,.371-.299.671-.671.671h-.734c.038-.215.063-.443.063-.671s-.021-.451-.063-.671h1.405v.671ZM43.06,34.176h-1.835c-.645-1.126-1.856-1.89-3.248-1.89s-2.602.763-3.248,1.89h-1.156c-.329,0-.59.262-.59.586s.266.586.59.586h.73c-.038.219-.063.443-.063.671s.021.456.063.671H15.206c.038-.215.063-.443.063-.671,0-.253-.025-.502-.076-.747-.067-.316-.375-.527-.692-.46s-.527.375-.46.692c.03.169.051.342.051.515,0,1.413-1.147,2.56-2.56,2.56s-2.56-1.143-2.56-2.56,1.143-2.56,2.56-2.56c.359,0,.704.072,1.025.211.299.131.645,0,.776-.299.127-.299-.004-.645-.304-.776-.472-.207-.979-.312-1.497-.312-1.856,0-3.404,1.362-3.691,3.138l-2.109-.405c-.312-.063-.544-.342-.544-.658v-2.151h.671c.329,0,.586-.266.586-.59s-.262-.586-.586-.586h-.671v-.671c0-.367.299-.666.671-.666h.485c.59,0,1.173-.118,1.721-.354l7.272-3.121c.316-.135.65-.224.991-.27l3.003,3.505c.472.553,1.156.865,1.881.865h14.248c1.573,0,4.382.186,6.466,1.341h-.169c-.321,0-.586.262-.586.586s.266.586.586.586h1.278c.017.084.025.164.025.249v1.097Z" fill="silver"/>
  <path d="M32.174,29.135h-8.41l-2.767-3.231h2.851c.919,0,1.847.207,2.678.595l5.648,2.632v.004Z" fill="#f6c42d"/>
  <path d="M31.052,34.176h-7.892l-1.333-1.78c-.346-.464-.898-.738-1.48-.738h-2.518c-.224,0-.426.127-.527.325-.101.198-.08.439.055.616l1.51,2.016c.346.464.898.738,1.48.738h10.709c.325,0,.59-.266.59-.59s-.266-.59-.59-.59l-.004.004ZM20.347,34.176c-.211,0-.409-.101-.536-.27l-.806-1.071h1.341c.211,0,.409.101.536.27l.806,1.071h-1.341Z" fill="silver"/>
  <path d="M11.528,34.804c-.671,0-1.219.548-1.219,1.219s.548,1.219,1.219,1.219,1.219-.548,1.219-1.219-.548-1.219-1.219-1.219Z" fill="silver"/>
  <path d="M37.982,34.804c-.671,0-1.219.548-1.219,1.219s.548,1.219,1.219,1.219,1.219-.548,1.219-1.219-.548-1.219-1.219-1.219Z" fill="silver"/>
  <path d="M13.675,23.028c-.422,0-.814-.19-1.08-.519l-1.902-2.396c-.11-.139-.283-.224-.46-.224h-4.703c-.979,0-1.771-.793-1.771-1.771v-8.107c0-.979.793-1.771,1.771-1.771h2.712c.325,0,.59.266.59.59s-.266.59-.59.59h-2.712c-.325,0-.59.266-.59.59v8.107c0,.325.266.59.59.59h4.703c.544,0,1.05.245,1.388.671l1.902,2.396c.051.063.131.08.156.076.034,0,.101-.008.148-.072l1.902-2.4c.333-.418.852-.671,1.388-.671h11.789c.325,0,.59-.266.59-.59v-8.107c0-.325-.266-.59-.59-.59H10.996c-.325,0-.59-.266-.59-.59s.266-.59.59-.59h17.909c.979,0,1.771.793,1.771,1.771v8.107c0,.979-.793,1.771-1.771,1.771h-11.789c-.177,0-.35.084-.46.224l-1.902,2.396c-.257.329-.65.519-1.071.519h-.008Z" fill="#db7469"/>
  <g>
    <rect x="21.487" y="15.959" width="1.205" height="1.054" fill="#db7469"/>
    <rect x="19.813" y="15.959" width="1.205" height="1.054" fill="#db7469"/>
    <path d="M24.053,11.07v3.15h-.83c-.33,0-.57-.03-.72-.07-.16-.05-.3-.14-.42-.28.03-.15.04-.29.04-.43v-2.45h-1.17v2.27c0,.29-.08.52-.24.69-.16.18-.35.27-.57.27h-6.04c-.44,0-.81-.02-1.1-.07.27-.23.48-.48.64-.76.15-.28.23-.56.23-.83,0-.3-.11-.58-.31-.84-.21-.27-.49-.49-.85-.65-.35-.17-.72-.25-1.13-.25-.33,0-.66.05-.98.14-.33.09-.7.23-1.13.41l-.26,1.09c.26.44.49.81.7,1.1.21.3.45.59.72.86-.42.21-.74.45-.95.73-.2.27-.3.63-.3,1.08,0,.27.09.59.28.95h1.25v-.02c-.13-.17-.22-.32-.28-.44-.06-.12-.08-.28-.08-.47,0-.21.04-.39.13-.53.08-.15.21-.28.37-.4.17-.12.4-.26.7-.41.68.21,1.46.31,2.35.31v-.01q.01.01.02.01h6.37c.27,0,.51-.05.73-.17.22-.11.4-.26.55-.46.19.23.39.39.6.49.21.09.5.14.85.14h2v-4.15h-1.17ZM12.403,13.46c-.2.22-.46.42-.77.59-.25-.22-.5-.5-.74-.83-.25-.33-.46-.64-.61-.94.48-.22.9-.33,1.24-.33.33,0,.61.07.83.22.23.15.35.35.35.6,0,.23-.1.46-.3.69Z" fill="#db7469"/>
    <rect x="23.982" y="15.959" width="1.205" height="1.054" fill="#db7469"/>
  </g>
</svg>