<svg width="108" height="108" viewBox="0 0 108 108" fill="none" xmlns="http://www.w3.org/2000/svg">
<g clip-path="url(#clip0_976_69)">
<path d="M0 108H43.3853L108 43.3801V0L0 108Z" fill="#EC6D64"/>
<path d="M36.2208 98.6326C34.995 99.8584 33.5798 100.468 31.9691 100.456C30.3644 100.445 28.9669 99.8465 27.7885 98.6682C26.6101 97.4898 26.012 96.0923 26.0002 94.4875C25.9883 92.8828 26.5982 91.4616 27.824 90.2359C28.5642 89.4957 29.4228 88.9923 30.3999 88.7259C31.3769 88.4594 32.3362 88.4535 33.2837 88.7081L32.8929 90.1885C32.2119 89.9753 31.5131 89.9635 30.7907 90.153C30.0683 90.3425 29.4228 90.7214 28.8721 91.2721C27.9365 92.2078 27.4806 93.2677 27.4924 94.4579C27.5042 95.6482 27.9602 96.6963 28.8603 97.5964C29.7544 98.4905 30.7966 98.9465 31.9928 98.9583C33.183 98.9702 34.243 98.5083 35.1786 97.5786C35.7352 97.022 36.1083 96.3824 36.2977 95.66C36.4932 94.9376 36.4813 94.2388 36.2741 93.5638L37.7426 93.1611C38.0032 94.1026 38.0032 95.0619 37.7426 96.0449C37.4761 97.0279 36.9728 97.8924 36.2326 98.6326H36.2208Z" fill="#F3F3F3"/>
<path d="M44.8011 88.2931C44.7952 89.4715 44.3629 90.49 43.5161 91.3368C42.6693 92.1835 41.6568 92.6099 40.4784 92.6158C39.3 92.6217 38.2874 92.1954 37.4288 91.3368C36.5702 90.4781 36.1438 89.4655 36.1497 88.2872C36.1497 87.1088 36.5761 86.1021 37.4288 85.2494C38.2815 84.3967 39.2881 83.9763 40.4725 83.9644C41.6508 83.9585 42.6693 84.3789 43.528 85.2376C44.3866 86.0962 44.807 87.1088 44.8011 88.2931ZM42.5391 90.3538C43.1194 89.7735 43.4036 89.0925 43.4036 88.3049C43.4036 87.5173 43.1075 86.8305 42.5272 86.2442C41.9469 85.658 41.2541 85.3678 40.4665 85.3678C39.679 85.3678 38.998 85.658 38.4177 86.2324C37.8374 86.8068 37.5591 87.4818 37.5591 88.2694C37.5591 89.057 37.8551 89.7438 38.4354 90.3301C39.0157 90.9163 39.7086 91.2065 40.4961 91.2065C41.2837 91.2065 41.9588 90.9222 42.5331 90.3479L42.5391 90.3538Z" fill="#F3F3F3"/>
<path d="M47.9277 74.7626C48.5731 74.1171 49.3074 73.8033 50.1305 73.821C50.9536 73.8388 51.7234 74.2059 52.4399 74.9224L56.0402 78.5227L55.0335 79.5294L51.4688 75.9646C51.0187 75.5205 50.5569 75.2836 50.0831 75.2718C49.6035 75.254 49.1712 75.4435 48.7863 75.8284C48.354 76.2607 48.1527 76.7522 48.1823 77.297C48.2119 77.8418 48.5258 78.4161 49.1179 79.0083L52.3333 82.2237L51.3267 83.2304L47.7619 79.6656C47.3178 79.2215 46.8559 78.9787 46.394 78.955C45.9262 78.9254 45.5058 79.103 45.1268 79.482C44.7004 79.9084 44.4991 80.4058 44.505 80.9802C44.5169 81.5546 44.8189 82.1349 45.3992 82.7211L48.6146 85.9365L47.6079 86.9432L41.8226 81.1578L42.8292 80.1512L43.605 80.9269C43.3799 79.9143 43.6464 79.032 44.4044 78.28C45.1623 77.5279 46.0802 77.2614 47.0868 77.5634C46.8322 76.5094 47.1105 75.5738 47.9218 74.7626H47.9277Z" fill="#F3F3F3"/>
<path d="M52.1773 69.4875C51.9819 69.6829 51.7569 69.7777 51.4963 69.7777C51.2358 69.7777 51.0108 69.6829 50.8272 69.4994C50.6436 69.3158 50.5489 69.0908 50.543 68.8243C50.543 68.5578 50.6318 68.3269 50.8272 68.1374C51.0108 67.9538 51.2358 67.8591 51.5023 67.865C51.7687 67.865 51.9937 67.9657 52.1773 68.1492C52.3609 68.3328 52.4556 68.5578 52.4556 68.8184C52.4556 69.0789 52.3609 69.3039 52.1773 69.4875ZM58.5015 76.8302L52.7162 71.0449L53.7228 70.0382L59.5082 75.8236L58.5015 76.8302Z" fill="#F3F3F3"/>
<path d="M57.9922 65.473C58.6732 64.792 59.4252 64.4663 60.2661 64.4841C61.101 64.5019 61.8886 64.8808 62.617 65.6151L66.1699 69.168L65.1632 70.1747L61.6695 66.681C61.2017 66.2132 60.7102 65.9763 60.195 65.9704C59.6799 65.9704 59.2002 66.1895 58.7561 66.6336C58.2528 67.1369 58.0041 67.6936 58.01 68.3153C58.01 68.9371 58.3416 69.5707 58.987 70.2161L62.0544 73.2776L61.0477 74.2843L55.2624 68.4989L56.2691 67.4922L57.104 68.3272C56.8553 67.2613 57.1514 66.3138 57.9922 65.473Z" fill="#F3F3F3"/>
<path d="M66.5904 57.1769L67.5852 56.1821L73.1277 61.7247C73.9864 62.5833 74.3594 63.5367 74.2528 64.5848C74.1462 65.6388 73.6903 66.5685 72.885 67.3798C72.2395 68.0252 71.5585 68.4634 70.842 68.6944C70.1314 68.9194 69.4268 68.9253 68.734 68.7121L69.1129 67.3383C70.0781 67.6699 71.0315 67.3679 71.9671 66.4264C72.5711 65.8224 72.885 65.1947 72.9086 64.5374C72.9323 63.8801 72.6777 63.2761 72.127 62.7254L71.3039 61.9023C71.5645 63.1814 71.2269 64.2947 70.2854 65.2303C69.4623 66.0534 68.4675 66.4619 67.3128 66.4442C66.1581 66.4264 65.1573 66.0001 64.3165 65.1592C63.4756 64.3183 63.0493 63.3235 63.0374 62.1688C63.0256 61.0141 63.4342 60.0252 64.2573 59.2021C65.2047 58.2547 66.312 57.9112 67.5793 58.1718L66.5844 57.1769H66.5904ZM67.3838 65.0348C68.1714 65.0348 68.8583 64.7447 69.4445 64.1585C70.0308 63.5722 70.3209 62.8853 70.3209 62.0978C70.3209 61.3102 70.0308 60.6233 69.4445 60.0371C68.8583 59.4508 68.1833 59.1725 67.3957 59.1725C66.6081 59.1725 65.9212 59.4686 65.335 60.0548C64.7487 60.6411 64.4527 61.328 64.4586 62.1155C64.4586 62.9031 64.7488 63.5841 65.3231 64.1644C65.9094 64.7506 66.5963 65.0408 67.3838 65.0408V65.0348Z" fill="#F3F3F3"/>
<path d="M80.6541 54.9799C79.8961 55.7379 79.073 56.2057 78.1848 56.3833C77.2965 56.5669 76.432 56.4544 75.597 56.0517L75.9879 54.595C77.2847 55.2582 78.4927 55.0273 79.6178 53.9022C80.1744 53.3456 80.4823 52.8067 80.5475 52.2915C80.6126 51.7704 80.4586 51.3204 80.0797 50.9414C79.7007 50.5624 79.2566 50.4144 78.771 50.5151C78.2854 50.6157 77.5926 50.9 76.6866 51.3678C76.2366 51.5869 75.8872 51.7586 75.6503 51.877C75.4076 51.9954 75.0878 52.1198 74.691 52.2501C74.2884 52.3803 73.9509 52.4396 73.6785 52.4277C73.4061 52.4159 73.0981 52.3448 72.7665 52.2205C72.4349 52.0961 72.1152 51.8829 71.825 51.5928C71.1263 50.894 70.8124 50.0887 70.8953 49.1827C70.9782 48.2767 71.3691 47.4714 72.0796 46.7608C72.7192 46.1213 73.4357 45.7245 74.2351 45.5765C75.0345 45.4284 75.8161 45.4995 76.5859 45.7897L76.207 47.2108C75.0286 46.7253 73.9982 46.9207 73.1218 47.803C72.6836 48.2412 72.4349 48.7031 72.3816 49.1886C72.3284 49.6742 72.4823 50.1005 72.8554 50.4736C73.2284 50.8467 73.6074 50.971 74.0456 50.9C74.4838 50.8289 75.1174 50.5861 75.9405 50.1598C76.2366 50.0176 76.4497 49.917 76.58 49.8578C76.7103 49.7985 76.9057 49.7038 77.1722 49.5735C77.4386 49.4492 77.64 49.3604 77.7821 49.313C77.9242 49.2656 78.1137 49.2064 78.3565 49.1353C78.5993 49.0643 78.8006 49.0287 78.9546 49.0287C79.1085 49.0287 79.2921 49.0287 79.5112 49.0406C79.7244 49.0465 79.9139 49.088 80.0797 49.159C80.2395 49.2301 80.4172 49.3189 80.6008 49.4373C80.7843 49.5558 80.962 49.6979 81.1337 49.8637C81.8443 50.5743 82.1522 51.3974 82.0515 52.333C81.9568 53.2686 81.489 54.1568 80.66 54.9858L80.6541 54.9799Z" fill="#F3F3F3"/>
<path d="M88.7606 45.1149C88.7546 46.2932 88.3224 47.3117 87.4756 48.1585C86.6288 49.0053 85.6162 49.4317 84.4378 49.4376C83.2595 49.4376 82.2469 49.0172 81.3882 48.1585C80.5296 47.2999 80.1092 46.2873 80.1092 45.1089C80.1092 43.9305 80.5415 42.9239 81.3882 42.0712C82.235 41.2244 83.2476 40.798 84.4319 40.7862C85.6103 40.7803 86.6288 41.2007 87.4874 42.0593C88.3461 42.918 88.7665 43.9305 88.7606 45.1149ZM86.4926 47.1755C87.0729 46.5952 87.3572 45.9143 87.3572 45.1267C87.3572 44.3391 87.067 43.6522 86.4808 43.066C85.8945 42.4798 85.2076 42.1896 84.4201 42.1896C83.6325 42.1896 82.9515 42.4798 82.3712 43.0541C81.7909 43.6285 81.5126 44.3036 81.5126 45.0912C81.5126 45.8787 81.8087 46.5656 82.389 47.1519C82.9693 47.7381 83.6621 48.0283 84.4497 48.0283C85.2372 48.0283 85.9123 47.744 86.4867 47.1696L86.4926 47.1755Z" fill="#F3F3F3"/>
<path d="M95.7244 38.1573C95.7185 39.3357 95.2862 40.3542 94.4394 41.201C93.5926 42.0478 92.58 42.4741 91.4016 42.4801C90.2233 42.4801 89.2107 42.0596 88.3521 41.201C87.4934 40.3424 87.073 39.3298 87.073 38.1514C87.073 36.973 87.5053 35.9664 88.3521 35.1137C89.1988 34.2669 90.2114 33.8405 91.3957 33.8287C92.5741 33.8228 93.5926 34.2432 94.4512 35.1018C95.3099 35.9604 95.7303 36.973 95.7244 38.1573ZM93.4564 40.2121C94.0367 39.6318 94.321 38.9508 94.321 38.1632C94.321 37.3757 94.0308 36.6888 93.4446 36.1026C92.8583 35.5163 92.1715 35.2262 91.3839 35.2262C90.5963 35.2262 89.9153 35.5163 89.335 36.0907C88.7666 36.6592 88.4764 37.3402 88.4764 38.1277C88.4764 38.9153 88.7725 39.6022 89.3528 40.1884C89.939 40.7747 90.6259 41.0648 91.4135 41.0648C92.2011 41.0648 92.8761 40.7806 93.4505 40.2062L93.4564 40.2121Z" fill="#F3F3F3"/>
<path d="M95.4816 27.9896C96.1626 27.3086 96.9205 26.9829 97.7555 27.0007C98.5904 27.0185 99.378 27.3974 100.112 28.1258L103.665 31.6787L102.659 32.6854L99.1648 29.1917C98.697 28.7239 98.2055 28.487 97.6903 28.4811C97.1752 28.4811 96.6955 28.7002 96.2514 29.1443C95.7481 29.6476 95.4994 30.2042 95.5053 30.826C95.5053 31.4478 95.8369 32.0814 96.4823 32.7268L99.5438 35.7942L98.5371 36.8009L92.7518 31.0155L93.7584 30.0088L94.5934 30.8438C94.3447 29.7779 94.6407 28.8245 95.4816 27.9896Z" fill="#F3F3F3"/>
</g>
<defs>
<clipPath id="clip0_976_69">
<rect width="108" height="108" fill="white"/>
</clipPath>
</defs>
</svg>
