<?xml version="1.0" encoding="UTF-8"?>
<svg id="Layer_1" data-name="Layer 1" xmlns="http://www.w3.org/2000/svg" viewBox="0 0 48 48">
  <path d="M33.007,25.801c1.487,0,2.911-.297,4.195-.845v7.528l.845,2.316h.36c.657,0,1.205.532,1.205,1.205s-.532,1.205-1.205,1.205H7.214c-.657,0-1.205-.532-1.205-1.205s.532-1.205,1.205-1.205h.36l.845-2.316v-9.688c0-6.386,4.148-11.801,9.907-13.679.689-1.816,2.442-3.115,4.492-3.115,1.111,0,2.129.376,2.942,1.002-2.176,1.972-3.537,4.821-3.537,7.998,0,5.963,4.836,10.799,10.799,10.799h-.016ZM22.803,42c2.316,0,4.195-1.878,4.195-4.195h-8.405c0,2.316,1.878,4.195,4.195,4.195h.016ZM32.506,6c-.548,0-1.017.36-1.158.876l-.344,1.283c-.704.282-1.362.657-1.941,1.143l-1.252-.329c-.532-.141-1.08.094-1.346.563l-1.096,1.925c-.266.47-.188,1.049.188,1.424l.923.955c-.063.376-.094.767-.094,1.158s.031.783.094,1.158l-.923.955c-.376.376-.438.97-.188,1.424l1.096,1.925c.266.47.814.704,1.346.564l1.252-.329c.579.47,1.236.861,1.941,1.143l.344,1.283c.141.516.61.876,1.158.876h2.191c.548,0,1.017-.36,1.158-.876l.344-1.283c.704-.282,1.362-.657,1.941-1.143l1.252.329c.532.141,1.08-.094,1.346-.564l1.096-1.925c.266-.47.188-1.049-.188-1.424l-.923-.955c.063-.376.094-.767.094-1.158s-.031-.783-.094-1.158l.923-.955c.376-.376.438-.97.188-1.424l-1.096-1.925c-.266-.47-.814-.704-1.346-.563l-1.252.329c-.579-.47-1.236-.861-1.941-1.143l-.344-1.283c-.141-.516-.61-.876-1.158-.876h-2.191ZM37.202,15.001c0,1.988-1.612,3.6-3.6,3.6s-3.6-1.612-3.6-3.6,1.612-3.6,3.6-3.6,3.6,1.612,3.6,3.6Z" fill="#fff"/>
</svg>