<?xml version="1.0" encoding="UTF-8"?>
<svg id="Layer_1" data-name="Layer 1" xmlns="http://www.w3.org/2000/svg" viewBox="0 0 55 15">
  <path d="M55,0H0v15h55V0Z" fill="silver"/>
  <path d="M17.41,10.41h-.34l-.54-.75c-.13.12-.27.23-.42.34-.15.1-.3.19-.47.27-.16.08-.33.14-.5.18-.17.04-.35.07-.53.07-.39,0-.75-.06-1.09-.19-.34-.13-.64-.32-.89-.57s-.46-.55-.6-.91c-.15-.36-.22-.77-.22-1.22,0-.43.07-.82.22-1.18.15-.36.35-.66.6-.92.25-.26.55-.46.89-.6.34-.14.7-.21,1.09-.21.18,0,.35.02.53.07.17.04.34.11.51.18.16.08.32.17.47.28.15.11.29.22.42.34l.54-.65h.34v5.48l-.01-.01ZM16,7.62c0-.19-.04-.38-.11-.56-.07-.18-.17-.34-.3-.48-.13-.14-.27-.25-.44-.33s-.35-.13-.54-.13-.37.03-.54.1c-.17.06-.32.16-.44.29s-.22.28-.29.47c-.07.19-.11.4-.11.64s.04.45.11.64c.07.19.17.34.29.47s.27.22.44.29c.17.06.35.1.54.1s.37-.04.54-.13c.17-.08.32-.19.44-.33.13-.14.23-.3.3-.48.07-.18.11-.36.11-.56Z" fill="#363636"/>
  <path d="M19.87,10.41h-1.4v-5.49h.34l.46.65c.23-.2.48-.36.77-.47.29-.11.58-.17.89-.17h1.23v1.39h-1.23c-.15,0-.29.03-.41.08-.13.05-.24.13-.34.23-.1.1-.17.21-.23.34-.05.13-.08.27-.08.41v3.03Z" fill="#363636"/>
  <path d="M25.77,10.41h-3.2v-1.39h3.2c.1,0,.18-.03.25-.1s.1-.15.1-.25-.03-.16-.1-.19c-.07-.03-.15-.05-.25-.05h-1.45c-.24,0-.47-.05-.68-.14-.21-.09-.4-.22-.55-.38-.16-.16-.28-.34-.37-.56-.09-.21-.14-.44-.14-.68s.05-.47.14-.68c.09-.21.21-.4.37-.55.16-.15.34-.28.55-.37.21-.09.44-.14.68-.14h2.83v1.39h-2.83c-.1,0-.18.03-.25.1-.07.07-.1.15-.1.25s.03.18.1.25c.07.07.15.11.25.11h1.45c.24,0,.46.04.68.12.21.08.4.19.55.34.16.14.28.32.37.52s.14.42.14.66-.05.47-.14.68-.22.39-.37.55c-.16.16-.34.28-.55.37-.21.09-.44.14-.68.14Z" fill="#363636"/>
  <path d="M5.96,8.48s-.08-.07-.11-.11c-.21-.21-.38-.46-.5-.74-.12-.28-.19-.59-.19-.91s.06-.63.19-.91c.12-.29.29-.53.5-.75.21-.21.46-.38.75-.5.28-.12.59-.18.92-.18s.63.06.91.18c.12.05.23.11.33.17l1.05-.09-.09-1.03c-.09-.06-.18-.13-.28-.18-.28-.16-.58-.29-.91-.38-.33-.09-.66-.14-1.01-.14s-.69.05-1.01.14c-.32.09-.63.22-.91.38-.28.16-.54.36-.77.6-.23.23-.43.49-.6.77-.17.28-.29.58-.39.91-.09.33-.14.66-.14,1.01s.05.69.14,1.01c.09.32.22.62.38.9v.01c.08.14.18.28.28.41.1.13.2.25.32.36.09.09.19.18.29.26l-.06-.67-.04-.45.45-.04.51-.04-.01.01Z" fill="#363636"/>
  <path d="M11.18,5.71c-.07-.25-.16-.49-.27-.71-.03-.07-.07-.13-.11-.2-.05-.08-.09-.15-.14-.23-.13-.19-.28-.37-.45-.54l.05.58.04.45-.45.04-.6.05c.18.19.32.42.43.67.12.29.18.59.18.91s-.06.62-.18.91c-.12.28-.29.53-.5.74s-.46.38-.75.5-.59.18-.91.18-.63-.06-.92-.18l-1.1.09.09,1.04c.28.17.59.29.91.39.32.09.66.14,1.01.14h.13s.09,0,.14-.01l.88,1.33h1.68l-1.14-1.71c.32-.16.61-.36.88-.6.26-.24.49-.51.67-.8.18-.3.33-.62.43-.96.1-.34.15-.7.15-1.06s-.05-.69-.14-1.01l-.01-.01Z" fill="#363636"/>
  <path d="M30.91,5.27c0-.3.06-.59.17-.86.12-.27.27-.5.47-.7.2-.2.43-.36.7-.47.27-.12.55-.17.86-.17h3.37v1.47h-3.37c-.1,0-.2.02-.29.06-.09.04-.17.09-.23.16-.06.07-.12.14-.16.23-.04.09-.06.18-.06.29s.02.2.06.29c.04.09.09.17.16.24.07.07.14.12.23.16.09.04.18.06.29.06h1.47c.3,0,.59.06.86.17.27.11.5.27.7.47.2.2.36.43.47.7.11.27.17.55.17.86s-.06.59-.17.86c-.11.27-.27.5-.47.7-.2.2-.43.36-.7.47-.27.12-.55.17-.86.17h-3.26v-1.47h3.26c.1,0,.2-.02.29-.06s.17-.09.23-.16c.07-.07.12-.14.16-.23s.06-.18.06-.29-.02-.2-.06-.29-.09-.17-.16-.23c-.07-.06-.14-.12-.23-.16s-.18-.06-.29-.06h-1.47c-.3,0-.59-.06-.86-.17-.27-.12-.5-.27-.7-.47-.2-.2-.36-.43-.47-.7-.12-.27-.17-.55-.17-.86v-.01Z" fill="#363636"/>
  <path d="M38.96,12.5h-1.41v-7.58h.34l.56.66c.13-.12.26-.23.41-.34.15-.11.31-.2.47-.27.16-.08.33-.14.5-.18.17-.04.35-.07.53-.07.39,0,.75.07,1.09.21.34.14.64.33.89.59.25.25.46.56.6.91.15.36.22.75.22,1.19s-.07.86-.22,1.22c-.15.36-.35.67-.6.92s-.55.44-.89.58c-.34.13-.7.2-1.09.2-.12,0-.25-.01-.37-.04-.12-.03-.24-.06-.36-.11-.12-.05-.23-.1-.35-.16-.11-.06-.22-.12-.33-.18v2.46l.01-.01ZM41.76,7.62c0-.23-.04-.44-.11-.63-.07-.18-.17-.34-.3-.47-.13-.13-.27-.23-.45-.29-.17-.07-.35-.1-.54-.1s-.37.03-.54.1c-.17.07-.32.17-.44.29-.13.13-.23.28-.3.47-.07.18-.11.39-.11.63s.04.43.11.61c.07.18.17.34.3.47.13.13.27.23.44.3.17.07.35.11.54.11s.37-.04.54-.11c.17-.07.32-.17.45-.3s.23-.29.3-.47c.07-.18.11-.39.11-.61Z" fill="#363636"/>
  <path d="M45.58,3.43c0,.13-.02.25-.07.36-.05.11-.12.21-.2.29-.09.08-.19.15-.3.2-.11.05-.24.07-.37.07s-.25-.02-.37-.07c-.11-.05-.21-.12-.3-.2-.08-.08-.15-.18-.2-.29-.05-.11-.07-.23-.07-.36s.02-.25.07-.36c.05-.11.12-.21.2-.3.08-.09.18-.15.3-.2.11-.05.24-.07.37-.07s.25.02.37.07c.11.05.21.12.3.2.09.08.15.18.2.3.05.11.07.23.07.36ZM45.34,10.41h-1.41v-5.49h1.41v5.49Z" fill="#363636"/>
  <path d="M47.81,10.41h-1.4v-5.49h.34l.46.53c.23-.2.48-.36.77-.47.29-.11.58-.17.89-.17.33,0,.65.06.95.19.3.13.56.3.78.53.22.22.4.48.53.78.13.3.19.62.19.96v3.14h-1.4v-3.14c0-.14-.03-.28-.08-.41-.05-.13-.13-.24-.23-.34-.1-.1-.21-.17-.33-.23-.13-.05-.26-.08-.4-.08s-.29.03-.41.08c-.13.05-.24.13-.34.23-.1.1-.17.21-.23.34-.05.13-.08.26-.08.41v3.14h-.01Z" fill="#363636"/>
</svg>