<?xml version="1.0" encoding="UTF-8"?>
<svg id="Layer_1" data-name="Layer 1" xmlns="http://www.w3.org/2000/svg" viewBox="0 0 48 48">
  <g>
    <g>
      <path d="M43.184,31.042c-2.255-1.578-5.446-1.914-7.723-1.914h-.5l-7.94-3.704c-.99-.46-2.087-.703-3.178-.703h-7.011c-.681,0-1.344.137-1.967.402l-7.276,3.121c-.398.168-.822.256-1.255.256h-.486c-1.021,0-1.848.831-1.848,1.848v4.005c0,.88.628,1.644,1.494,1.813l2.334.455c.287,1.777,1.835,3.139,3.691,3.139,1.388,0,2.604-.76,3.249-1.888h19.964c.646,1.127,1.861,1.888,3.249,1.888s2.604-.76,3.249-1.888h1.163c1.021,0,1.848-.831,1.848-1.852v-2.944c0-.804-.394-1.565-1.057-2.033ZM23.844,25.897c.92,0,1.848.208,2.679.597l5.65,2.635h-8.413l-2.767-3.231h2.851ZM19.436,25.897l2.772,3.231h-.999c-.38,0-.738-.164-.986-.451l-2.383-2.781h1.596ZM37.981,38.58c-1.41,0-2.56-1.145-2.56-2.56s1.149-2.56,2.56-2.56,2.56,1.149,2.56,2.56-1.145,2.56-2.56,2.56ZM43.065,36.02c0,.371-.301.672-.672.672h-.734c.04-.217.062-.442.062-.672s-.022-.451-.062-.672h1.406v.672ZM43.065,34.172h-1.835c-.645-1.127-1.857-1.892-3.249-1.892s-2.604.765-3.249,1.892h-1.158c-.327,0-.592.261-.592.588s.265.588.592.588h.729c-.04.221-.062.442-.062.672s.022.455.062.672H15.197c.04-.217.062-.442.062-.672,0-.252-.027-.504-.075-.747-.066-.318-.376-.526-.694-.46-.318.066-.526.376-.46.694.031.168.049.34.049.513,0,1.415-1.149,2.56-2.56,2.56s-2.56-1.145-2.56-2.56,1.145-2.56,2.56-2.56c.358,0,.703.071,1.026.212.301.133.645-.004.778-.301.128-.301-.004-.646-.305-.778-.473-.208-.977-.314-1.499-.314-1.857,0-3.404,1.361-3.691,3.139l-2.109-.407c-.314-.062-.544-.34-.544-.659v-2.153h.672c.327,0,.588-.265.588-.592,0-.323-.261-.588-.588-.588h-.672v-.672c0-.367.301-.668.672-.668h.486c.592,0,1.171-.119,1.72-.354l7.276-3.121c.318-.137.65-.225.99-.27l3.006,3.506c.473.553,1.158.867,1.883.867h14.252c1.574,0,4.385.186,6.468,1.344h-.168c-.323,0-.588.261-.588.588s.265.588.588.588h1.278c.018.084.027.164.027.247v1.096Z" fill="silver"/>
      <path d="M32.173,29.128h-8.413l-2.767-3.231h2.851c.92,0,1.848.208,2.679.597l5.65,2.635Z" fill="#f6c42d"/>
    </g>
    <path d="M31.051,34.171h-7.897l-1.335-1.78c-.348-.463-.901-.74-1.48-.74h-2.52c-.224,0-.428.126-.527.326-.1.2-.078.439.056.617l1.512,2.017c.347.463.9.74,1.48.74h10.712c.325,0,.589-.264.589-.589s-.264-.59-.589-.59h0ZM20.34,34.171c-.21,0-.411-.1-.536-.268l-.805-1.073h1.341c.21,0,.41.1.536.268l.805,1.073h-1.341ZM20.34,34.171" fill="silver"/>
    <path d="M11.518,34.801c-.672,0-1.22.547-1.22,1.22s.547,1.219,1.22,1.219,1.22-.547,1.22-1.219-.547-1.22-1.22-1.22h0ZM11.518,34.801" fill="silver"/>
    <path d="M37.982,34.801c-.672,0-1.22.547-1.22,1.22s.547,1.219,1.22,1.219,1.219-.547,1.219-1.219-.547-1.22-1.219-1.22h0ZM37.982,34.801" fill="silver"/>
  </g>
  <path d="M13.668,23.01c-.418,0-.808-.188-1.068-.516l-1.903-2.399c-.116-.145-.288-.229-.474-.229h-4.706c-.969,0-1.758-.789-1.758-1.758v-8.112c0-.969.789-1.757,1.758-1.757h2.714c.318,0,.576.258.576.576s-.258.576-.576.576h-2.714c-.334,0-.605.271-.605.605v8.112c0,.334.272.605.605.605h4.706c.539,0,1.041.242,1.377.664l1.903,2.399c.11.139.221.139.331,0l1.903-2.398c.335-.423.837-.665,1.377-.665h11.794c.334,0,.605-.272.605-.605v-8.112c0-.334-.272-.605-.605-.605H10.987c-.318,0-.576-.258-.576-.576s.258-.576.576-.576h17.92c.969,0,1.758.788,1.758,1.757v8.112c0,.969-.789,1.758-1.758,1.758h-11.794c-.186,0-.359.083-.474.229l-1.903,2.398c-.26.328-.65.516-1.068.516Z" fill="#ec6d64"/>
  <path d="M13.605,17.268c-.068,0-.138-.012-.205-.038-.298-.114-.447-.446-.334-.744l1.952-5.127c.112-.274.364-.443.646-.444h.001c.282,0,.534.168.642.429l1.941,5.144c.112.298-.038.631-.336.743-.299.113-.631-.038-.743-.336l-1.507-3.992-1.521,3.994c-.088.23-.307.372-.539.372Z" fill="#ec6d64"/>
  <path d="M17.111,15.991h-2.897c-.318,0-.576-.258-.576-.576s.258-.576.576-.576h2.897c.318,0,.576.258.576.576s-.258.576-.576.576Z" fill="#ec6d64"/>
  <path d="M20.578,17.191c-.57,0-.605-.006-.647-.013-.276-.048-.477-.288-.477-.568v-5.195c0-.318.258-.576.576-.576s.576.258.576.576v4.626c.511-.002,1.241-.007,1.242-.007.35-.008.578.255.58.573.002.318-.255.578-.573.58-.594.003-.999.005-1.277.005Z" fill="#ec6d64"/>
  <path d="M26.47,17.191h-2.171c-.318,0-.576-.258-.576-.576v-5.153c0-.318.258-.576.576-.576h2.171c.318,0,.576.258.576.576s-.258.576-.576.576h-1.595v4h1.595c.318,0,.576.258.576.576s-.258.576-.576.576Z" fill="#ec6d64"/>
  <path d="M26.31,14.615h-2.011c-.318,0-.576-.258-.576-.576s.258-.576.576-.576h2.011c.318,0,.576.258.576.576s-.258.576-.576.576Z" fill="#ec6d64"/>
  <path d="M10.081,17.229c-.857,0-1.694-.359-2.239-.96-.214-.236-.196-.601.04-.814.235-.214.599-.196.814.04.33.364.848.582,1.385.582.541,0,.924-.332.981-.652.079-.441-.483-.699-.729-.79-.814-.301-1.548-.628-1.548-.628-.604-.385-.874-.985-.785-1.607.096-.666.584-1.208,1.274-1.417,1.382-.419,2.523.523,2.571.563.244.205.275.568.07.812-.204.243-.566.276-.809.072-.013-.01-.722-.578-1.499-.344-.374.113-.45.371-.465.477-.025.174.045.335.187.43h0c.015,0,.676.291,1.403.559,1.269.468,1.589,1.378,1.464,2.074-.166.929-1.056,1.602-2.116,1.602Z" fill="#ec6d64"/>
</svg>