<?xml version="1.0" encoding="UTF-8"?>
<svg id="Layer_1" data-name="Layer 1" xmlns="http://www.w3.org/2000/svg" viewBox="0 0 70 30">
  <path d="M35.502,14.438c-.344-.222-.764-.333-1.258-.333-.513,0-1.133.163-1.863.49.227.445.524.913.894,1.403.369.491.738.904,1.107,1.239.445-.218.829-.494,1.151-.83.323-.336.484-.692.484-1.069s-.172-.678-.516-.9Z" fill="#f6c42d"/>
  <path d="M55.057,14.167c-.261,0-.528.029-.806.088v3.26h2.089c.168-.579.252-1.12.252-1.623,0-1.149-.512-1.725-1.535-1.725Z" fill="#f6c42d"/>
  <path d="M65,0H5C2.23,0,0,2.24,0,5v20C0,27.76,2.23,30,5,30h60c2.76,0,5-2.24,5-5V5c0-2.76-2.24-5-5-5ZM49.534,10.128h1.812v1.586h-1.812v-1.586ZM47.017,10.128h1.812v1.586h-1.812v-1.586ZM17.193,10.128h1.812v1.586h-1.812v-1.586ZM14.676,10.128h1.812v1.586h-1.812v-1.586ZM41.115,21.718h-1.812v-1.586h1.812v1.586ZM41.166,19.024h-3.008c-.008,0-.008-.006-.015-.007-.009,0-.013.007-.023.007-1.342,0-2.529-.155-3.561-.466-1.226.311-2.626.466-4.203.466-.003,0-.004-.002-.008-.003-.003,0-.003.003-.006.003h-10.595c-.714,0-1.259-.218-1.636-.654-.378-.436-.566-1.027-.566-1.774v-2.341c-.294-.059-.559-.088-.793-.088-1.023,0-1.535.575-1.535,1.725,0,.503.132.899.396,1.188.264.29.644.435,1.139.435h.654l-.68,1.51h-.252c-.578,0-1.103-.13-1.572-.39s-.839-.63-1.107-1.107c-.269-.479-.403-1.032-.403-1.661,0-.604.143-1.151.429-1.643.284-.49.686-.874,1.201-1.151.516-.276,1.114-.415,1.793-.415.579,0,1.414.084,2.505.252l-.013,3.41c0,.437.081.744.245.925s.404.271.724.271h10.066s.003.002.006.003c.003,0,.004-.003.008-.003.939,0,1.656-.042,2.151-.126-.478-.554-1.057-1.393-1.736-2.517l.391-1.636c.646-.277,1.212-.484,1.698-.623s.981-.208,1.485-.208c.604,0,1.17.124,1.698.371.528.248.95.573,1.265.976s.472.826.472,1.271c0,.411-.117.828-.352,1.252-.235.424-.554.803-.957,1.139.403.067.952.101,1.648.101.01,0,.014.006.023.007.007,0,.007-.007.015-.007h1.259v-4.731h1.749v6.241ZM57.662,19.024h-5.927s0,0,0,0c-.529-.008-.951-.082-1.27-.22-.318-.139-.621-.384-.906-.736-.218.302-.492.537-.824.704-.331.168-.698.252-1.101.252h-2.441c-.713,0-1.259-.22-1.636-.66-.378-.44-.566-1.03-.566-1.769v-7.21h1.762v6.934c0,.437.082.744.245.925.164.181.404.271.724.271h1.385c.335,0,.623-.132.861-.396.239-.265.359-.614.359-1.051v-3.41h1.762v3.688c0,.209-.021.428-.063.654.185.201.395.337.63.408.234.071.595.107,1.082.107h.754v-4.605c1.091-.168,1.926-.252,2.504-.252.68,0,1.277.139,1.794.415.516.277.916.661,1.201,1.151.285.491.428,1.038.428,1.643,0,.788-.251,1.842-.755,3.158Z" fill="#f6c42d"/>
</svg>