<?xml version="1.0" encoding="UTF-8"?>
<svg id="Layer_1" data-name="Layer 1" xmlns="http://www.w3.org/2000/svg" viewBox="0 0 48 48">
  <g>
    <path d="M21.233,30.485h1.148c.123,0,.224-.1.224-.224v-2.237c0-.123-.1-.224-.224-.224h-1.148c-.123,0-.224.1-.224.224v2.237c0,.123.1.224.224.224h0ZM21.456,28.248h.701v1.79h-.701v-1.79ZM21.456,28.248" fill="#ec6d64"/>
    <path d="M17.653,26.906h-4.728c-.617,0-1.119.502-1.119,1.119v2.237c0,.617.502,1.119,1.119,1.119h4.728c.617,0,1.119-.502,1.119-1.119v-2.237c0-.617-.502-1.119-1.119-1.119h0ZM17.653,30.933h-4.728c-.37,0-.671-.301-.671-.671.187.14.419.224.671.224h4.728c.252,0,.484-.084.671-.224,0,.371-.301.672-.671.672h0ZM17.653,30.038h-4.728c-.37,0-.671-.301-.671-.671v-1.342c0-.37.301-.671.671-.671h4.728c.37,0,.671.301.671.671v1.342c0,.37-.301.671-.671.671h0ZM17.653,30.038" fill="#ec6d64"/>
    <path d="M23.723,24.668h-2.484c-.104-.51-.556-.895-1.096-.895h-4.982c-.617,0-1.119.502-1.119,1.119,0,.123.1.224.224.224h9.456c.54,0,.992.385,1.096.895h-14.333c.104-.51.556-.895,1.096-.895h1.79c.123,0,.224-.1.224-.224s-.1-.224-.224-.224h-1.79c-.864,0-1.566.703-1.566,1.566v7.159c0,.864.703,1.566,1.566,1.566h4.07c.112,1.005.966,1.79,2.001,1.79s1.889-.784,2.001-1.79h4.07c.864,0,1.566-.703,1.566-1.566v-7.159c0-.864-.703-1.566-1.566-1.566h0ZM14.529,24.668c.092-.26.341-.447.633-.447h4.982c.292,0,.541.187.633.447h-6.247ZM23.276,26.906h-2.938c-.123,0-.224.1-.224.224v4.698h-9.65v-5.369h14.378v5.369h-1.342v-4.698c0-.123-.1-.224-.224-.224h0ZM23.052,32.723h-2.491v-5.369h2.491v5.369ZM20.561,33.17h2.491v.447h-2.491v-.447ZM17.653,36.302c-.864,0-1.566-.703-1.566-1.566s.703-1.566,1.566-1.566,1.566.703,1.566,1.566-.703,1.566-1.566,1.566h0ZM23.723,34.512h-4.07c-.112-1.005-.966-1.79-2.001-1.79s-1.889.784-2.001,1.79h-4.07c-.617,0-1.119-.502-1.119-1.119v-1.119h9.65v1.566c0,.123.1.224.224.224h2.938c.123,0,.224-.1.224-.224v-1.566h1.342v1.119c0,.617-.502,1.119-1.119,1.119h0ZM23.723,34.512" fill="#ec6d64"/>
    <path d="M17.653,33.618c-.617,0-1.119.502-1.119,1.119s.502,1.119,1.119,1.119,1.119-.502,1.119-1.119-.502-1.119-1.119-1.119h0ZM17.653,35.407c-.37,0-.671-.301-.671-.671s.301-.671.671-.671.671.301.671.671-.301.671-.671.671h0ZM17.653,35.407" fill="#ec6d64"/>
  </g>
  <g>
    <rect x="7.047" y="37.574" width="33.804" height="1.827" fill="#ec6d64"/>
    <g>
      <path d="M39.373,24.17c.284,0,.513-.229.513-.511v-4.791h.752c.47,0,.854-.383.854-.854v-4.989c0-.847-.691-1.537-1.537-1.537h-.41v-1.128c0-.659-.537-1.195-1.196-1.195h-3.658c.004-.193-.052-.385-.166-.546-.169-.238-.446-.38-.738-.38h-3.159c-.282,0-.513.229-.513.513,0,.282.231.511.513.511h2.992l-1.285,3.735H14.381l1.285-3.735h12.571c.282,0,.511-.229.511-.511,0-.284-.229-.513-.511-.513h-12.657c-.385,0-.731.245-.855.61l-.109.315h-4.964c-.659,0-1.196.536-1.196,1.195v1.128h-.41c-.847,0-1.537.691-1.537,1.537v4.989c0,.471.384.854.854.854h.752v18.022h-.752c-.47,0-.854.384-.854.854v1.162c0,.471.384.854.854.854h33.277c.47,0,.854-.383.854-.854v-1.162c0-.47-.384-.854-.854-.854h-.752v-10.84c0-.284-.229-.513-.513-.513-.282,0-.511.229-.511.513v10.84h-5.125v-5.671h1.332c.47,0,.854-.384.854-.854v-3.143c0-.471-.384-.854-.854-.854h-1.332v-4.715h5.125v2.006c0,.282.229.511.511.511ZM34.386,10.19h3.963c.095,0,.171.077.171.171v1.128h-4.58l.447-1.298ZM9.481,10.36c0-.093.076-.171.171-.171h4.612l-.447,1.298h-4.335v-1.128ZM9.1,36.823v-17.909h5.158v17.909h-5.158ZM15.26,36.823v-17.909h5.158v17.909h-5.158ZM21.421,36.823v-17.909h5.158v17.909h-5.158ZM32.711,21.653v4.715h-1.331c-.471,0-.855.383-.855.854v3.143c0,.47.384.854.855.854h1.331v5.671h-5.123v-15.237h5.123ZM27.588,20.629v-1.761h5.123v1.761h-5.123ZM32.711,27.393v2.801h-1.161v-2.801h1.161ZM40.466,38.736H7.534v-.821h32.933v.821ZM34.899,27.393v2.801h-1.162v-2.801h1.162ZM7.534,17.842v-4.817c0-.282.229-.511.511-.511h5.419l-.107.311c-.095.277-.05.583.119.82.169.238.446.381.738.381h18.207c.385,0,.731-.246.855-.612l.311-.9h6.368c.282,0,.511.229.511.511v4.817H7.534ZM33.737,20.629v-1.761h5.125v1.761h-5.125Z" fill="silver"/>
      <rect x="31.55" y="27.393" width="1.161" height="2.801" fill="#75c9fc"/>
      <rect x="33.737" y="27.393" width="1.162" height="2.801" fill="#75c9fc"/>
      <path d="M14.263,10.19l-.447,1.298h-4.335v-1.128c0-.093.076-.171.171-.171h4.612Z" fill="#3ad690"/>
      <path d="M38.519,10.36v1.128h-4.58l.447-1.298h3.963c.095,0,.171.077.171.171Z" fill="#3ad690"/>
      <path d="M17.653,11.132c0,.283.229.512.512.512h11.669c.283,0,.512-.229.512-.512s-.23-.512-.512-.512h-11.669c-.283,0-.512.229-.512.512Z" fill="silver"/>
      <path d="M38.622,14.29h-2.938c-.283,0-.512.23-.512.512s.23.512.512.512h2.938c.283,0,.512-.229.512-.512s-.23-.512-.512-.512Z" fill="silver"/>
    </g>
  </g>
</svg>