<?xml version="1.0" encoding="UTF-8"?>
<svg id="Layer_1" data-name="Layer 1" xmlns="http://www.w3.org/2000/svg" viewBox="0 0 48 48">
  <g id="Layer_2" data-name="Layer 2">
    <g>
      <path d="M40.992,11.5H7.008c-.972,0-1.76.788-1.76,1.76v21.481c0,.972.788,1.76,1.759,1.76h33.984c.972,0,1.76-.788,1.76-1.759h0V13.262c.001-.972-.785-1.761-1.757-1.762,0,0-.002,0-.003,0h0ZM39.004,28.054c0,.525-.425.95-.95.95h0c-1.539.008-2.786,1.251-2.8,2.79,0,.525-.425.95-.95.95H13.694c-.525,0-.95-.425-.95-.95h0c-.008-1.543-1.257-2.792-2.8-2.8-.525,0-.95-.425-.95-.95h0v-8.094c0-.525.425-.95.95-.95h0c1.54-.007,2.789-1.25,2.803-2.79,0-.525.425-.95.95-.95h20.611c.525,0,.95.425.95.95h0c.008,1.543,1.257,2.792,2.8,2.8.525,0,.95.425.95.95h0s-.005,8.094-.005,8.094Z" fill="#fff"/>
      <ellipse cx="24" cy="24.003" rx="3.75" ry="5.002" fill="#fff"/>
      <circle cx="14.622" cy="24.003" r="1.875" fill="#fff"/>
      <circle cx="33.378" cy="24.003" r="1.875" fill="#fff"/>
    </g>
  </g>
</svg>