<?xml version="1.0" encoding="UTF-8"?>
<svg id="Layer_1" data-name="Layer 1" xmlns="http://www.w3.org/2000/svg" viewBox="0 0 48 48">
  <path d="M35.802,6H12.188c-3.419,0-6.188,2.779-6.188,6.188v23.623c0,3.409,2.769,6.188,6.188,6.188h23.623c3.409,0,6.188-2.779,6.188-6.188V12.188c0-3.409-2.779-6.188-6.188-6.188h-.01ZM19.496,9.379h1.69c.92,0,1.69.75,1.69,1.69s-.76,1.689-1.69,1.689h-1.69c-.93,0-1.69-.75-1.69-1.689s.75-1.69,1.69-1.69ZM29.144,23.085c.29.21.47.55.47.91s-.18.71-.47.92l-7.868,5.618c-.2.14-.43.2-.65.2-.18,0-.36-.03-.52-.12-.37-.19-.61-.57-.61-1v-11.247c0-.42.24-.8.61-.99.37-.19.82-.17,1.17.08l7.868,5.618v.01ZM13.868,38.611h-1.69c-.93,0-1.69-.75-1.69-1.69s.75-1.69,1.69-1.69h1.69c.92,0,1.689.75,1.689,1.69s-.76,1.69-1.689,1.69ZM13.868,12.748h-1.69c-.93,0-1.69-.75-1.69-1.69s.75-1.69,1.69-1.69h1.69c.92,0,1.689.75,1.689,1.69s-.76,1.69-1.689,1.69ZM21.186,38.611h-1.69c-.93,0-1.69-.75-1.69-1.69s.75-1.69,1.69-1.69h1.69c.92,0,1.69.75,1.69,1.69s-.76,1.69-1.69,1.69ZM28.494,38.611h-1.69c-.93,0-1.69-.75-1.69-1.69s.75-1.69,1.69-1.69h1.69c.92,0,1.689.75,1.689,1.69s-.76,1.69-1.689,1.69ZM28.494,12.748h-1.69c-.93,0-1.69-.75-1.69-1.69s.75-1.69,1.69-1.69h1.69c.92,0,1.689.75,1.689,1.69s-.76,1.69-1.689,1.69ZM35.802,38.611h-1.689c-.93,0-1.69-.75-1.69-1.69s.75-1.69,1.69-1.69h1.689c.92,0,1.69.75,1.69,1.69s-.77,1.69-1.69,1.69ZM35.802,12.748h-1.689c-.93,0-1.69-.75-1.69-1.69s.75-1.69,1.69-1.69h1.689c.92,0,1.69.75,1.69,1.69s-.77,1.69-1.69,1.69Z" fill="#fff"/>
</svg>