<?xml version="1.0" encoding="UTF-8"?>
<svg id="Layer_1" data-name="Layer 1" xmlns="http://www.w3.org/2000/svg" viewBox="0 0 48 48">
  <g>
    <path d="M26.513,15.564l-1.352,1.596c-.066.076-.158.116-.251.116-.074,0-.149-.026-.211-.079-.139-.116-.156-.322-.039-.461l1.354-1.596c.116-.138.322-.155.461-.037.138.116.155.324.037.461Z" fill="silver"/>
    <path d="M29.868,19.325c.325.324.774.521,1.268.521s.943-.198,1.268-.521h-2.536ZM33.479,18.361c-.007.053-.016.107-.027.16-.059.291-.17.562-.328.804-.254.394-.623.709-1.067.897-.291.123-.6.186-.92.186s-.629-.063-.921-.186c-.444-.188-.814-.503-1.067-.897-.156-.242-.269-.513-.328-.804-.01-.053-.02-.107-.027-.16h-.659c.01.097.026.195.044.291.049.235.123.461.224.673.312.668.864,1.206,1.559,1.5.373.158.768.238,1.176.238s.802-.08,1.175-.238c.695-.294,1.246-.832,1.559-1.5.1-.212.176-.438.224-.673.02-.096.034-.193.044-.291h-.659ZM32.238,18.361c-.136.483-.58.831-1.102.831s-.966-.348-1.103-.831h-.672c.066.375.248.709.507.964.325.324.774.521,1.268.521s.943-.198,1.268-.521c.259-.255.44-.589.506-.964h-.672ZM30.293,18.361l.026.042c.156.254.428.405.726.405.159,0,.315-.044.45-.129.13-.082.232-.192.302-.318h-1.504ZM27.139,17.637c-.178-.032-.348.086-.38.265-.027.149-.05.302-.066.458h.658c.016-.117.033-.232.053-.344.032-.178-.087-.348-.265-.38ZM20.504,19.325c.014.079.024.127.027.139.033.15.166.256.32.256h6.111c.182,0,.328-.146.328-.328v-.067h-6.785ZM18.852,19.325c-.254.394-.623.709-1.067.897-.292.123-.602.186-.921.186s-.629-.063-.92-.186c-.444-.188-.814-.503-1.067-.897-.158-.242-.269-.514-.328-.805-.011-.052-.02-.105-.027-.159h-.659c.01.097.024.195.044.291.047.235.123.461.224.673.312.668.864,1.206,1.559,1.5.373.158.768.238,1.175.238s.804-.08,1.176-.238c.695-.294,1.246-.832,1.559-1.5h-.746ZM15.596,19.325c.325.324.774.521,1.268.521.487,0,.938-.196,1.268-.521h-2.536Z" fill="silver"/>
    <path d="M34.151,17.892c0-.017-.001-.034-.003-.05l-.003-.037c-.001-.02-.003-.04-.004-.06-.003-.027-.007-.056-.01-.085l-.004-.023c-.001-.011-.003-.024-.004-.034-.006-.039-.011-.076-.019-.115v-.004c-.003-.009-.004-.016-.006-.023-.007-.042-.017-.083-.027-.126-.001-.004-.001-.009-.003-.013-.01-.042-.021-.085-.034-.126,0-.003-.001-.006-.001-.007-.216-.731-.696-1.348-1.351-1.739-.003-.001-.006-.003-.007-.004-.04-.023-.082-.047-.126-.07l-.023-.011c-.037-.02-.075-.039-.112-.056-.009-.004-.017-.007-.024-.011l-.013-.006c-.034-.014-.069-.03-.102-.043-.013-.006-.024-.01-.037-.014l-.01-.004c-.032-.013-.064-.024-.097-.036l-.052-.017c-.032-.011-.064-.021-.096-.03-.019-.006-.037-.011-.056-.016-.032-.009-.063-.017-.095-.024h-.004c-.019-.004-.036-.009-.054-.013-.033-.007-.064-.013-.096-.019l-.016-.003c-.014-.003-.03-.006-.044-.009-.03-.004-.06-.009-.092-.013l-.024-.003c-.014-.001-.029-.003-.043-.004-.036-.004-.072-.007-.109-.01h-.014c-.011-.001-.024-.003-.037-.003-.112-.007-.208-.007-.324,0-.011,0-.023.001-.034.001h-.017c-.036.004-.072.007-.107.011-.014.001-.029.003-.043.004l-.023.003c-.032.004-.062.009-.092.013-.016.003-.032.006-.047.009l-.013.003c-.033.006-.064.011-.097.019-.02.004-.039.009-.057.013-.033.007-.064.016-.096.024-.011.003-.024.007-.036.01l-.262-.423c.493-.176.966-.249,1.332-.278.004,0,.01-.001.016-.001.652-.085,1.053-.49,1.046-1.062,0-.01,0-.022-.001-.033-.011-.099-.023-.186-.036-.268-.001-.009-.003-.017-.004-.026-.016-.062-.02-.099-.021-.119-.001-.013-.003-.024-.004-.037-.562-3.046-3.045-4.546-3.151-4.608-.126-.075-.285-.057-.391.043-.862.814-1.216,1.398-1.115,1.84.04.175.148.294.254.361.418.516.562.966.427,1.337-.011.029-.023.057-.037.086l-.431-.696c-.07-.115-.201-.171-.328-.152.019-.075.029-.152.029-.232,0-.533-.434-.967-.967-.967s-.967.434-.967.967c0,.096.014.189.04.277-.821-.272-1.583-.282-2.275-.027-1.159.427-1.777,1.476-2.022,1.994-.764-.274-.937-.523-.976-.615-.526-1.254-1.645-1.529-3.953-1.672-1.095-.079-1.509.348-1.658.61-.242.421.044.834.297,1.009.007.006.016.011.024.016l3.291,1.871c.158.089.357.034.447-.123.089-.156.034-.357-.123-.446l-3.269-1.86c-.053-.044-.102-.112-.102-.136,0,0,0-.001.003-.007.123-.213.513-.32,1.047-.281,2.331.145,3.029.405,3.391,1.271.213.509.921.908,2.158,1.216-.387.335-.693.706-.914,1.112l-1.341-.762c-.158-.09-.357-.034-.447.122-.089.158-.034.358.123.447l1.405.799c-.013.039-.024.077-.036.116-.014.033-.029.064-.042.097l-1.354.527c-.252-.4-.596-.735-1.004-.979-.001-.001-.003-.001-.004-.003-.042-.024-.085-.049-.128-.072l-.024-.013c-.037-.019-.073-.037-.112-.054-.007-.004-.016-.007-.024-.011l-.011-.006c-.034-.014-.069-.03-.102-.043-.014-.006-.029-.011-.042-.017h-.006c-.033-.014-.066-.026-.099-.037-.017-.007-.033-.013-.05-.017-.032-.011-.064-.021-.096-.03-.019-.006-.037-.011-.056-.016-.032-.009-.063-.017-.095-.024-.02-.004-.039-.009-.06-.013-.032-.007-.063-.013-.096-.019l-.014-.003c-.014-.003-.03-.006-.044-.009-.032-.004-.062-.009-.093-.013l-.023-.003c-.014-.001-.029-.003-.043-.006-.036-.003-.072-.006-.109-.009h-.014c-.013-.001-.024-.003-.037-.004-.113-.006-.208-.006-.324.001-.011,0-.024.001-.036.001h-.016c-.036.004-.072.007-.107.01-.014.003-.029.004-.043.006l-.023.003c-.032.004-.062.009-.093.013-.014.003-.03.006-.044.009l-.016.003c-.032.006-.063.011-.096.019-.02.004-.04.009-.059.013-.032.007-.063.016-.095.024-.019.004-.037.01-.056.016-.032.009-.064.019-.096.03-.017.006-.034.01-.052.017-.033.011-.066.023-.099.036h-.004c-.014.007-.027.013-.039.017-.036.014-.07.03-.106.046l-.01.004c-.009.004-.017.007-.026.011-.037.017-.075.036-.11.054l-.024.013c-.044.023-.086.047-.128.072-.001.001-.003.001-.004.003-.656.391-1.136,1.009-1.352,1.739v.003c-.013.043-.024.087-.036.133l-.003.011c-.01.042-.02.083-.027.123-.001.009-.003.017-.004.026v.003c-.009.037-.014.076-.02.113-.001.011-.003.023-.004.036l-.003.016c-.004.032-.007.062-.01.092-.003.019-.004.037-.006.056l-.003.04c-.001.017-.003.034-.003.052-.003.052-.004.102-.004.152,0,.106.006.212.017.317h.659c-.014-.105-.021-.211-.021-.317,0-.039.001-.079.003-.117,0-.011.001-.023.003-.033l.003-.049c.001-.011.001-.023.003-.036.003-.023.006-.046.009-.069l.003-.026c.001-.006.001-.011.003-.019.004-.029.01-.057.016-.09l.003-.019c.007-.033.014-.066.021-.097l.003-.01c.009-.034.017-.069.027-.103h0s.001-.003.001-.003c.168-.572.543-1.054,1.056-1.361.001,0,.003-.001.004-.003.033-.019.067-.037.102-.056l.017-.01c.03-.014.059-.029.089-.043l.029-.013c.026-.011.053-.023.082-.036.01-.003.02-.007.029-.011h.006c.026-.011.052-.02.077-.03.013-.004.026-.009.04-.013.024-.009.049-.016.075-.023.014-.004.029-.009.043-.013.024-.007.05-.013.076-.019.014-.004.03-.007.044-.01.024-.006.05-.01.074-.014l.017-.004c.01-.001.02-.003.032-.004.023-.004.047-.007.07-.01l.027-.004c.009-.001.017-.001.026-.003.029-.003.056-.004.083-.007h.026c.006-.003.011-.003.016-.003.09-.004.165-.004.255,0,.004,0,.01,0,.016.001h.024c.029.004.057.006.086.009.009.001.016.001.024.003l.027.004c.024.003.047.006.072.01.01.001.02.003.03.004l.017.004c.026.004.05.009.074.013.014.004.03.007.047.011.024.006.049.011.073.019.014.004.029.009.044.013.024.007.049.014.075.023.013.004.026.009.04.013.026.01.052.019.077.029h.004c.01.006.019.01.03.014.027.01.054.023.08.034l.029.013c.03.014.06.029.089.043l.019.01c.034.019.069.037.1.056.001.001.003.003.004.003.282.169.524.393.713.659l-.544.212c-.064-.077-.136-.149-.213-.215-.017-.014-.036-.03-.053-.043l-.009-.007c-.017-.013-.036-.027-.054-.04-.001,0-.004-.003-.006-.004l-.004-.003c-.019-.013-.037-.026-.056-.037-.001-.001-.003-.003-.004-.003l-.006-.004c-.019-.011-.037-.024-.057-.036-.001,0-.003-.001-.006-.003h-.001c-.085-.05-.172-.093-.264-.128-.006-.003-.011-.004-.016-.006-.016-.006-.03-.011-.05-.019l-.032-.01c-.014-.004-.029-.009-.042-.013-.013-.004-.026-.007-.037-.01-.014-.004-.029-.007-.044-.011-.013-.003-.027-.007-.042-.01-.013-.003-.026-.006-.04-.009-.014-.003-.03-.004-.046-.007h-.007c-.01-.003-.02-.004-.03-.006-.017-.003-.033-.004-.05-.007h-.009c-.009-.001-.019-.003-.029-.004l-.056-.004h-.03c-.057-.004-.115-.004-.178-.001h-.027c-.019.003-.037.004-.057.006-.009.001-.019.003-.027.003h-.009c-.016.004-.033.006-.05.009-.01.001-.019.003-.029.004h-.009c-.016.004-.03.006-.046.009-.013.003-.026.006-.04.009-.014.003-.029.007-.042.01-.016.004-.03.007-.043.011-.013.003-.026.006-.037.01-.014.004-.029.009-.046.013l-.027.01s-.004.001-.006.001c-.014.006-.03.011-.043.016-.007.003-.013.004-.019.007-.09.034-.179.077-.262.126-.001,0-.001.001-.003.001-.001.001-.003.001-.006.003-.019.011-.039.023-.057.036l-.006.004s-.003.001-.004.003c-.019.011-.037.024-.059.039l-.006.006c-.019.013-.037.027-.056.04l-.006.006c-.019.014-.037.03-.056.044-.294.251-.497.58-.586.954-.009.033-.016.066-.021.099v.003s-.001.003-.001.006c-.006.029-.01.059-.014.093v.013c-.004.027-.007.056-.009.086-.001.006-.001.013-.001.019-.003.036-.003.069-.003.103,0,.03,0,.062.001.092.004.076.013.152.026.225.066.375.248.709.507.964h2.536c.16-.158.292-.347.384-.559l.249.024.332.033c-.062.178-.145.345-.245.501h.746c.066-.139.12-.285.165-.436l.683.067c.02.155.04.279.057.368h6.785c.003-.337.023-.659.062-.964h-.658c-.029.228-.046.463-.053.705h-5.516c-.019-.123-.04-.284-.056-.471-.001-.024-.004-.049-.006-.073-.001-.016-.003-.032-.003-.046-.001-.024-.004-.047-.006-.072,0-.014-.001-.029-.001-.043h0c-.001-.032-.003-.062-.004-.093-.001-.009-.001-.019-.001-.027-.001-.042-.003-.083-.004-.126v-.162c0-.043,0-.086.001-.13v-.004c.003-.097.007-.199.016-.301.03-.41.107-.841.262-1.245.001-.003.001-.006.001-.007.027-.069.056-.136.087-.202,0-.001.001-.003.001-.004.059-.125.125-.246.202-.361.384-.579.969-.943,1.738-1.08,1.814-.327,3.694-.758,4.791-1.51.003-.001.007-.004.01-.007.037-.024.072-.05.106-.076.003-.001.006-.003.007-.004.03-.023.059-.046.087-.069.01-.007.02-.016.03-.024.026-.021.05-.042.075-.063.013-.011.024-.021.036-.033.016-.014.032-.029.047-.044.007-.007.016-.014.024-.021,0-.001.001-.003.001-.004.205-.202.357-.424.446-.669.225-.619.03-1.302-.58-2.032-.021-.026-.047-.047-.075-.066.013-.086.106-.378.736-1.007.579.415,2.211,1.761,2.632,4.01.006.057.016.12.033.192.01.064.019.135.029.212-.001.096-.024.327-.468.387-1.165.092-3.252.586-4.202,2.87-.069.168.01.358.176.428.168.069.36-.01.428-.176.225-.542.527-.966.867-1.299l.277.446c-.288.328-.501.715-.625,1.133-.001.003-.001.004-.003.007-.013.044-.024.086-.034.129l-.003.011c-.01.042-.019.083-.027.123-.001.007-.003.016-.004.023v.006c-.007.037-.014.076-.02.113-.001.011-.003.023-.004.036l-.003.017c-.003.03-.007.06-.01.092-.003.019-.004.039-.004.057l-.003.033c-.001.02-.003.039-.004.056-.003.052-.004.102-.004.152,0,.106.006.212.017.317h.659c-.014-.105-.021-.211-.021-.317,0-.039.001-.079.004-.119,0-.013.001-.023.001-.036l.003-.042c.001-.013.003-.026.003-.037.003-.024.006-.047.009-.07l.004-.027c0-.006.001-.01.001-.016.004-.03.01-.06.016-.089l.004-.023c.006-.032.013-.064.021-.096v-.011c.01-.034.02-.067.03-.102,0-.003,0-.004.001-.006h0c.077-.261.199-.507.36-.725l.328.527c-.079.142-.138.292-.175.451-.007.032-.014.063-.02.095-.001.004-.001.009-.003.013-.004.029-.009.057-.013.09v.013c-.004.029-.007.056-.01.087,0,.007,0,.013-.001.019-.001.034-.003.069-.003.103,0,.03.001.062.003.092.004.076.013.152.026.225h.672c-.026-.082-.04-.169-.044-.258,0-.02-.001-.04-.001-.059,0-.023.001-.044.003-.066v-.014c.001-.017.003-.034.006-.052v-.011s.003-.009.003-.013l.294.473h1.504c.14-.261.142-.589-.024-.858l-.354-.572s.01.003.016.004c.009.001.016.004.024.006.01.004.02.007.027.009l.02.007c.011.004.021.007.032.011l.01.004c.057.022.113.049.166.079.003.001.004.003.007.004.013.007.024.014.036.021l.006.004c.011.009.023.016.037.026l.004.003.034.026.004.004c.013.009.024.019.036.029.188.159.317.368.374.607.004.02.009.04.013.06,0,.003.001.006.001.009.003.019.006.037.009.056v.011c.003.017.004.034.006.053v.013c.003.022.003.043.003.066,0,.019,0,.039-.001.059-.004.089-.019.176-.044.258h.672c.013-.073.021-.149.026-.225.003-.03.003-.062.003-.092,0-.034-.001-.067-.003-.103,0-.006-.001-.013-.001-.023-.003-.027-.004-.054-.007-.079l-.003-.02c-.004-.03-.009-.06-.013-.089,0-.001-.001-.004-.001-.006v-.003c-.007-.033-.013-.066-.021-.099-.089-.374-.292-.703-.586-.954-.019-.014-.037-.03-.054-.043-.003-.003-.006-.006-.01-.009-.017-.013-.034-.026-.056-.042l-.006-.004c-.019-.013-.037-.024-.056-.037-.001-.001-.003-.001-.004-.003l-.006-.004c-.019-.011-.039-.024-.057-.036-.001,0-.006-.003-.009-.004-.083-.049-.172-.092-.262-.126-.006-.003-.013-.004-.017-.007-.016-.006-.033-.011-.05-.017h-.006c-.007-.004-.016-.007-.024-.01-.014-.004-.029-.009-.043-.013-.013-.004-.026-.007-.036-.01-.014-.004-.03-.007-.044-.011-.014-.003-.027-.007-.042-.01-.014-.003-.027-.006-.04-.009-.016-.003-.032-.006-.047-.007h-.006c-.01-.003-.02-.004-.032-.006-.016-.003-.032-.004-.05-.007h-.007c-.01-.001-.019-.003-.029-.004-.019-.001-.037-.003-.057-.004h-.029c-.059-.004-.115-.004-.178-.001h-.027c-.009.003-.016.003-.024.003l-.322-.52c.013-.003.026-.006.04-.009l.016-.003c.01-.001.021-.003.032-.004.024-.004.047-.007.072-.01l.027-.004c.009-.001.016-.001.024-.003.029-.003.057-.004.085-.007.009,0,.017-.001.026-.001.006-.001.01-.001.016-.001.09-.004.165-.004.254,0,.006,0,.011,0,.017.001.009,0,.017.001.024.001.027.003.056.004.085.007.009.001.017.001.026.003l.027.004c.024.003.047.006.07.01.01.001.02.003.03.004l.019.004c.024.004.049.009.073.013.014.004.027.007.042.01h.006c.024.007.049.013.075.02.014.004.029.009.043.013.026.007.05.014.075.023.014.004.027.009.04.013.026.009.052.019.077.029l.009.003c.009.004.017.007.027.011.027.01.053.023.079.034l.03.013c.03.014.059.029.089.044l.017.009c.034.019.069.037.1.056.003.001.004.003.007.004.509.305.883.784,1.053,1.355.001.003.001.004.003.007.01.034.019.069.029.106,0,0,.001.006.001.007.007.032.014.064.021.097l.003.022c.006.029.011.059.016.089.001.006.001.011.003.017l.003.03c.003.021.006.043.009.066.001.013.001.026.003.039l.003.044c.001.011.001.022.003.032.001.04.003.08.003.119,0,.106-.007.212-.021.317h.659c.011-.105.017-.211.017-.317,0-.05-.001-.1-.004-.152ZM16.864,19.192c-.522,0-.966-.348-1.102-.831-.026-.082-.04-.169-.044-.258-.001-.02-.001-.039-.001-.059,0-.021,0-.044.003-.069v-.011c.001-.017.003-.036.006-.053v-.01c.003-.02.006-.039.009-.057h.001v-.004c.004-.021.009-.043.013-.063.057-.238.186-.448.374-.607.011-.01.023-.019.036-.029l.004-.004c.011-.009.023-.017.032-.023l.009-.007c.011-.007.023-.016.036-.023l.006-.004c.011-.007.024-.016.036-.023.003-.001.006-.003.007-.004.053-.03.109-.057.166-.079l.01-.004c.01-.004.02-.007.03-.01l.02-.007c.01-.003.02-.006.032-.01.007-.001.014-.004.023-.006.009-.003.017-.004.026-.007.009-.001.017-.004.026-.006.009-.001.017-.004.026-.006.01-.001.019-.003.027-.004l.026-.004c.011-.001.021-.003.032-.004l.023-.003c.011-.001.024-.001.037-.003h.019c.037-.003.077-.003.112-.001h.02c.013.003.024.003.037.004l.021.003c.01.001.021.003.032.004l.026.004c.01.001.019.003.029.004.009.001.017.004.026.006.009.001.017.004.026.006.009.003.017.004.027.007.007.001.014.004.023.007.01.003.02.006.029.007l.021.009c.01.003.02.006.029.01l.011.004c.056.022.112.049.165.079l.009.004c.011.007.023.014.034.021l.007.006c.011.007.023.016.039.026h.001c.013.01.024.019.034.027.003.001.004.003.007.004,0,.001.001.003.003.003l-.44.172c-.195.076-.714.279-.709.703.001.142.062.255.14.342.132.146.317.222.37.241.027.01.053.016.082.019l.789.077c-.211.302-.559.494-.944.494ZM20.392,18.294l-1.665-.163-.404-.04-1.087-.106c.037-.019.083-.037.138-.059l.87-.34h.001l1.143-.446,1.128-.44c-.122.564-.142,1.125-.123,1.593ZM26.663,10.56c.172,0,.312.14.312.312s-.14.312-.312.312-.312-.14-.312-.312.14-.312.312-.312ZM22.076,13.309c.228-.451.739-1.254,1.616-1.575.791-.291,1.725-.135,2.781.461-.514.075-1.328.231-2.188.532-.59.205-1.112.45-1.562.729-.241-.049-.456-.097-.648-.148ZM23.238,13.972c-.053.01-.105.02-.156.032,1.394-.854,3.205-1.13,3.795-1.201l.11.179c-1.262.543-3,.855-3.749.99ZM27.576,12.69l-.251-.405h0s-.138-.224-.138-.224c.11-.075.224-.143.342-.208l.38.613c-.1.077-.212.152-.334.224ZM31.215,17.847c.057.095.029.218-.064.277-.033.02-.067.03-.106.03-.07,0-.133-.036-.17-.095l-.652-1.054-.668-1.077-.454-.735c.113-.076.228-.145.342-.208l.635,1.027.473.762.665,1.073Z" fill="silver"/>
    <path d="M26.976,10.872c0,.172-.14.312-.312.312s-.312-.14-.312-.312.14-.312.312-.312.312.14.312.312Z" fill="#ec6d64"/>
  </g>
  <g>
    <path d="M16.76,29.045c-.188-.188-.493-.188-.682,0l-2.672,2.673c-.189.189-.189.493,0,.681.093.095.218.142.34.142.123,0,.246-.047.341-.142l2.673-2.673c.189-.188.189-.493,0-.681ZM17.454,30.618c-.189-.189-.494-.189-.683,0l-1.384,1.384c-.186.188-.186.493,0,.681.096.095.218.142.341.142.125,0,.248-.047.341-.142l1.385-1.384c.188-.188.188-.493,0-.681ZM22.576,29.909c-.266,0-.483.215-.483.48v.95c0,.264.216.48.483.48.264,0,.48-.216.48-.48v-.95c0-.265-.216-.48-.48-.48ZM25.424,29.909c-.264,0-.48.215-.48.48v.95c0,.264.216.48.48.48.266,0,.483-.216.483-.48v-.95c0-.265-.216-.48-.483-.48ZM33.902,29.045c-.188-.188-.493-.189-.681,0l-2.675,2.673c-.188.189-.188.493,0,.681.095.095.218.142.342.142.123,0,.246-.047.341-.142l2.672-2.673c.188-.188.188-.493,0-.681ZM34.594,30.618c-.188-.189-.493-.189-.681,0l-1.384,1.384c-.188.188-.188.493,0,.681.095.095.218.142.341.142s.245-.047.34-.142l1.384-1.384c.189-.188.189-.493,0-.681ZM17.454,30.618c-.189-.189-.494-.189-.683,0l-1.384,1.384c-.186.188-.186.493,0,.681.096.095.218.142.341.142.125,0,.248-.047.341-.142l1.385-1.384c.188-.188.188-.493,0-.681ZM16.76,29.045c-.188-.188-.493-.188-.682,0l-2.672,2.673c-.189.189-.189.493,0,.681.093.095.218.142.34.142.123,0,.246-.047.341-.142l2.673-2.673c.189-.188.189-.493,0-.681ZM22.576,29.909c-.266,0-.483.215-.483.48v.95c0,.264.216.48.483.48.264,0,.48-.216.48-.48v-.95c0-.265-.216-.48-.48-.48ZM25.424,29.909c-.264,0-.48.215-.48.48v.95c0,.264.216.48.48.48.266,0,.483-.216.483-.48v-.95c0-.265-.216-.48-.483-.48ZM34.594,30.618c-.188-.189-.493-.189-.681,0l-1.384,1.384c-.188.188-.188.493,0,.681.095.095.218.142.341.142s.245-.047.34-.142l1.384-1.384c.189-.188.189-.493,0-.681ZM33.902,29.045c-.188-.188-.493-.189-.681,0l-2.675,2.673c-.188.189-.188.493,0,.681.095.095.218.142.342.142.123,0,.246-.047.341-.142l2.672-2.673c.188-.188.188-.493,0-.681ZM16.76,29.045c-.188-.188-.493-.188-.682,0l-2.672,2.673c-.189.189-.189.493,0,.681.093.095.218.142.34.142.123,0,.246-.047.341-.142l2.673-2.673c.189-.188.189-.493,0-.681ZM17.454,30.618c-.189-.189-.494-.189-.683,0l-1.384,1.384c-.186.188-.186.493,0,.681.096.095.218.142.341.142.125,0,.248-.047.341-.142l1.385-1.384c.188-.188.188-.493,0-.681ZM22.576,29.909c-.266,0-.483.215-.483.48v.95c0,.264.216.48.483.48.264,0,.48-.216.48-.48v-.95c0-.265-.216-.48-.48-.48ZM25.424,29.909c-.264,0-.48.215-.48.48v.95c0,.264.216.48.48.48.266,0,.483-.216.483-.48v-.95c0-.265-.216-.48-.483-.48ZM33.902,29.045c-.188-.188-.493-.189-.681,0l-2.675,2.673c-.188.189-.188.493,0,.681.095.095.218.142.342.142.123,0,.246-.047.341-.142l2.672-2.673c.188-.188.188-.493,0-.681ZM34.594,30.618c-.188-.189-.493-.189-.681,0l-1.384,1.384c-.188.188-.188.493,0,.681.095.095.218.142.341.142s.245-.047.34-.142l1.384-1.384c.189-.188.189-.493,0-.681ZM17.454,30.618c-.189-.189-.494-.189-.683,0l-1.384,1.384c-.186.188-.186.493,0,.681.096.095.218.142.341.142.125,0,.248-.047.341-.142l1.385-1.384c.188-.188.188-.493,0-.681ZM16.76,29.045c-.188-.188-.493-.188-.682,0l-2.672,2.673c-.189.189-.189.493,0,.681.093.095.218.142.34.142.123,0,.246-.047.341-.142l2.673-2.673c.189-.188.189-.493,0-.681ZM22.576,29.909c-.266,0-.483.215-.483.48v.95c0,.264.216.48.483.48.264,0,.48-.216.48-.48v-.95c0-.265-.216-.48-.48-.48ZM25.424,29.909c-.264,0-.48.215-.48.48v.95c0,.264.216.48.48.48.266,0,.483-.216.483-.48v-.95c0-.265-.216-.48-.483-.48ZM34.594,30.618c-.188-.189-.493-.189-.681,0l-1.384,1.384c-.188.188-.188.493,0,.681.095.095.218.142.341.142s.245-.047.34-.142l1.384-1.384c.189-.188.189-.493,0-.681ZM33.902,29.045c-.188-.188-.493-.189-.681,0l-2.675,2.673c-.188.189-.188.493,0,.681.095.095.218.142.342.142.123,0,.246-.047.341-.142l2.672-2.673c.188-.188.188-.493,0-.681ZM16.76,29.045c-.188-.188-.493-.188-.682,0l-2.672,2.673c-.189.189-.189.493,0,.681.093.095.218.142.34.142.123,0,.246-.047.341-.142l2.673-2.673c.189-.188.189-.493,0-.681ZM17.454,30.618c-.189-.189-.494-.189-.683,0l-1.384,1.384c-.186.188-.186.493,0,.681.096.095.218.142.341.142.125,0,.248-.047.341-.142l1.385-1.384c.188-.188.188-.493,0-.681ZM22.576,29.909c-.266,0-.483.215-.483.48v.95c0,.264.216.48.483.48.264,0,.48-.216.48-.48v-.95c0-.265-.216-.48-.48-.48ZM25.424,29.909c-.264,0-.48.215-.48.48v.95c0,.264.216.48.48.48.266,0,.483-.216.483-.48v-.95c0-.265-.216-.48-.483-.48ZM33.902,29.045c-.188-.188-.493-.189-.681,0l-2.675,2.673c-.188.189-.188.493,0,.681.095.095.218.142.342.142.123,0,.246-.047.341-.142l2.672-2.673c.188-.188.188-.493,0-.681ZM34.594,30.618c-.188-.189-.493-.189-.681,0l-1.384,1.384c-.188.188-.188.493,0,.681.095.095.218.142.341.142s.245-.047.34-.142l1.384-1.384c.189-.188.189-.493,0-.681ZM17.454,30.618c-.189-.189-.494-.189-.683,0l-1.384,1.384c-.186.188-.186.493,0,.681.096.095.218.142.341.142.125,0,.248-.047.341-.142l1.385-1.384c.188-.188.188-.493,0-.681ZM16.76,29.045c-.188-.188-.493-.188-.682,0l-2.672,2.673c-.189.189-.189.493,0,.681.093.095.218.142.34.142.123,0,.246-.047.341-.142l2.673-2.673c.189-.188.189-.493,0-.681ZM22.576,29.909c-.266,0-.483.215-.483.48v.95c0,.264.216.48.483.48.264,0,.48-.216.48-.48v-.95c0-.265-.216-.48-.48-.48ZM25.424,29.909c-.264,0-.48.215-.48.48v.95c0,.264.216.48.48.48.266,0,.483-.216.483-.48v-.95c0-.265-.216-.48-.483-.48ZM34.594,30.618c-.188-.189-.493-.189-.681,0l-1.384,1.384c-.188.188-.188.493,0,.681.095.095.218.142.341.142s.245-.047.34-.142l1.384-1.384c.189-.188.189-.493,0-.681ZM33.902,29.045c-.188-.188-.493-.189-.681,0l-2.675,2.673c-.188.189-.188.493,0,.681.095.095.218.142.342.142.123,0,.246-.047.341-.142l2.672-2.673c.188-.188.188-.493,0-.681ZM34.594,30.618c-.188-.189-.493-.189-.681,0l-1.384,1.384c-.188.188-.188.493,0,.681.095.095.218.142.341.142s.245-.047.34-.142l1.384-1.384c.189-.188.189-.493,0-.681ZM33.902,29.045c-.188-.188-.493-.189-.681,0l-2.675,2.673c-.188.189-.188.493,0,.681.095.095.218.142.342.142.123,0,.246-.047.341-.142l2.672-2.673c.188-.188.188-.493,0-.681ZM25.424,29.909c-.264,0-.48.215-.48.48v.95c0,.264.216.48.48.48.266,0,.483-.216.483-.48v-.95c0-.265-.216-.48-.483-.48ZM22.576,29.909c-.266,0-.483.215-.483.48v.95c0,.264.216.48.483.48.264,0,.48-.216.48-.48v-.95c0-.265-.216-.48-.48-.48ZM17.454,30.618c-.189-.189-.494-.189-.683,0l-1.384,1.384c-.186.188-.186.493,0,.681.096.095.218.142.341.142.125,0,.248-.047.341-.142l1.385-1.384c.188-.188.188-.493,0-.681ZM16.76,29.045c-.188-.188-.493-.188-.682,0l-2.672,2.673c-.189.189-.189.493,0,.681.093.095.218.142.34.142.123,0,.246-.047.341-.142l2.673-2.673c.189-.188.189-.493,0-.681ZM33.902,29.045c-.188-.188-.493-.189-.681,0l-2.675,2.673c-.188.189-.188.493,0,.681.095.095.218.142.342.142.123,0,.246-.047.341-.142l2.672-2.673c.188-.188.188-.493,0-.681ZM34.594,30.618c-.188-.189-.493-.189-.681,0l-1.384,1.384c-.188.188-.188.493,0,.681.095.095.218.142.341.142s.245-.047.34-.142l1.384-1.384c.189-.188.189-.493,0-.681ZM25.424,29.909c-.264,0-.48.215-.48.48v.95c0,.264.216.48.48.48.266,0,.483-.216.483-.48v-.95c0-.265-.216-.48-.483-.48ZM22.576,29.909c-.266,0-.483.215-.483.48v.95c0,.264.216.48.483.48.264,0,.48-.216.48-.48v-.95c0-.265-.216-.48-.48-.48ZM16.76,29.045c-.188-.188-.493-.188-.682,0l-2.672,2.673c-.189.189-.189.493,0,.681.093.095.218.142.34.142.123,0,.246-.047.341-.142l2.673-2.673c.189-.188.189-.493,0-.681ZM17.454,30.618c-.189-.189-.494-.189-.683,0l-1.384,1.384c-.186.188-.186.493,0,.681.096.095.218.142.341.142.125,0,.248-.047.341-.142l1.385-1.384c.188-.188.188-.493,0-.681ZM34.594,30.618c-.188-.189-.493-.189-.681,0l-1.384,1.384c-.188.188-.188.493,0,.681.095.095.218.142.341.142s.245-.047.34-.142l1.384-1.384c.189-.188.189-.493,0-.681ZM33.902,29.045c-.188-.188-.493-.189-.681,0l-2.675,2.673c-.188.189-.188.493,0,.681.095.095.218.142.342.142.123,0,.246-.047.341-.142l2.672-2.673c.188-.188.188-.493,0-.681ZM25.424,29.909c-.264,0-.48.215-.48.48v.95c0,.264.216.48.48.48.266,0,.483-.216.483-.48v-.95c0-.265-.216-.48-.483-.48ZM22.576,29.909c-.266,0-.483.215-.483.48v.95c0,.264.216.48.483.48.264,0,.48-.216.48-.48v-.95c0-.265-.216-.48-.48-.48ZM17.454,30.618c-.189-.189-.494-.189-.683,0l-1.384,1.384c-.186.188-.186.493,0,.681.096.095.218.142.341.142.125,0,.248-.047.341-.142l1.385-1.384c.188-.188.188-.493,0-.681ZM16.76,29.045c-.188-.188-.493-.188-.682,0l-2.672,2.673c-.189.189-.189.493,0,.681.093.095.218.142.34.142.123,0,.246-.047.341-.142l2.673-2.673c.189-.188.189-.493,0-.681ZM33.902,29.045c-.188-.188-.493-.189-.681,0l-2.675,2.673c-.188.189-.188.493,0,.681.095.095.218.142.342.142.123,0,.246-.047.341-.142l2.672-2.673c.188-.188.188-.493,0-.681ZM34.594,30.618c-.188-.189-.493-.189-.681,0l-1.384,1.384c-.188.188-.188.493,0,.681.095.095.218.142.341.142s.245-.047.34-.142l1.384-1.384c.189-.188.189-.493,0-.681ZM25.424,29.909c-.264,0-.48.215-.48.48v.95c0,.264.216.48.48.48.266,0,.483-.216.483-.48v-.95c0-.265-.216-.48-.483-.48ZM22.576,29.909c-.266,0-.483.215-.483.48v.95c0,.264.216.48.483.48.264,0,.48-.216.48-.48v-.95c0-.265-.216-.48-.48-.48ZM16.76,29.045c-.188-.188-.493-.188-.682,0l-2.672,2.673c-.189.189-.189.493,0,.681.093.095.218.142.34.142.123,0,.246-.047.341-.142l2.673-2.673c.189-.188.189-.493,0-.681ZM17.454,30.618c-.189-.189-.494-.189-.683,0l-1.384,1.384c-.186.188-.186.493,0,.681.096.095.218.142.341.142.125,0,.248-.047.341-.142l1.385-1.384c.188-.188.188-.493,0-.681ZM34.594,30.618c-.188-.189-.493-.189-.681,0l-1.384,1.384c-.188.188-.188.493,0,.681.095.095.218.142.341.142s.245-.047.34-.142l1.384-1.384c.189-.188.189-.493,0-.681ZM33.902,29.045c-.188-.188-.493-.189-.681,0l-2.675,2.673c-.188.189-.188.493,0,.681.095.095.218.142.342.142.123,0,.246-.047.341-.142l2.672-2.673c.188-.188.188-.493,0-.681ZM25.424,29.909c-.264,0-.48.215-.48.48v.95c0,.264.216.48.48.48.266,0,.483-.216.483-.48v-.95c0-.265-.216-.48-.483-.48ZM22.576,29.909c-.266,0-.483.215-.483.48v.95c0,.264.216.48.483.48.264,0,.48-.216.48-.48v-.95c0-.265-.216-.48-.48-.48ZM17.454,30.618c-.189-.189-.494-.189-.683,0l-1.384,1.384c-.186.188-.186.493,0,.681.096.095.218.142.341.142.125,0,.248-.047.341-.142l1.385-1.384c.188-.188.188-.493,0-.681ZM16.76,29.045c-.188-.188-.493-.188-.682,0l-2.672,2.673c-.189.189-.189.493,0,.681.093.095.218.142.34.142.123,0,.246-.047.341-.142l2.673-2.673c.189-.188.189-.493,0-.681ZM16.76,29.045c-.188-.188-.493-.188-.682,0l-2.672,2.673c-.189.189-.189.493,0,.681.093.095.218.142.34.142.123,0,.246-.047.341-.142l2.673-2.673c.189-.188.189-.493,0-.681ZM17.454,30.618c-.189-.189-.494-.189-.683,0l-1.384,1.384c-.186.188-.186.493,0,.681.096.095.218.142.341.142.125,0,.248-.047.341-.142l1.385-1.384c.188-.188.188-.493,0-.681ZM22.576,29.909c-.266,0-.483.215-.483.48v.95c0,.264.216.48.483.48.264,0,.48-.216.48-.48v-.95c0-.265-.216-.48-.48-.48ZM25.424,29.909c-.264,0-.48.215-.48.48v.95c0,.264.216.48.48.48.266,0,.483-.216.483-.48v-.95c0-.265-.216-.48-.483-.48ZM33.902,29.045c-.188-.188-.493-.189-.681,0l-2.675,2.673c-.188.189-.188.493,0,.681.095.095.218.142.342.142.123,0,.246-.047.341-.142l2.672-2.673c.188-.188.188-.493,0-.681ZM34.594,30.618c-.188-.189-.493-.189-.681,0l-1.384,1.384c-.188.188-.188.493,0,.681.095.095.218.142.341.142s.245-.047.34-.142l1.384-1.384c.189-.188.189-.493,0-.681ZM16.76,29.045c-.188-.188-.493-.188-.682,0l-2.672,2.673c-.189.189-.189.493,0,.681.093.095.218.142.34.142.123,0,.246-.047.341-.142l2.673-2.673c.189-.188.189-.493,0-.681ZM17.454,30.618c-.189-.189-.494-.189-.683,0l-1.384,1.384c-.186.188-.186.493,0,.681.096.095.218.142.341.142.125,0,.248-.047.341-.142l1.385-1.384c.188-.188.188-.493,0-.681ZM25.424,29.909c-.264,0-.48.215-.48.48v.95c0,.264.216.48.48.48.266,0,.483-.216.483-.48v-.95c0-.265-.216-.48-.483-.48ZM22.576,29.909c-.266,0-.483.215-.483.48v.95c0,.264.216.48.483.48.264,0,.48-.216.48-.48v-.95c0-.265-.216-.48-.48-.48ZM34.594,30.618c-.188-.189-.493-.189-.681,0l-1.384,1.384c-.188.188-.188.493,0,.681.095.095.218.142.341.142s.245-.047.34-.142l1.384-1.384c.189-.188.189-.493,0-.681ZM33.902,29.045c-.188-.188-.493-.189-.681,0l-2.675,2.673c-.188.189-.188.493,0,.681.095.095.218.142.342.142.123,0,.246-.047.341-.142l2.672-2.673c.188-.188.188-.493,0-.681Z" fill="silver"/>
    <path d="M28.178,18.652c-.019-.096-.034-.193-.044-.291h-.782c-.039.305-.059.628-.062.964h1.112c-.1-.212-.175-.438-.224-.673ZM28.178,18.652c-.019-.096-.034-.193-.044-.291h-.782c-.039.305-.059.628-.062.964h1.112c-.1-.212-.175-.438-.224-.673ZM28.178,18.652c-.019-.096-.034-.193-.044-.291h-.782c-.039.305-.059.628-.062.964h1.112c-.1-.212-.175-.438-.224-.673ZM30.293,18.361l.026.042c.156.254.428.405.726.405.159,0,.315-.044.45-.129.13-.082.232-.192.302-.318h-1.504ZM28.178,18.652c-.019-.096-.034-.193-.044-.291h-.782c-.039.305-.059.628-.062.964h1.112c-.1-.212-.175-.438-.224-.673ZM28.82,18.521c-.01-.053-.02-.107-.027-.16h-1.441c-.039.305-.059.628-.062.964h1.858c-.156-.242-.269-.513-.328-.804ZM41.194,38.201l-1.148-1.149v-14.561c.516-.195.884-.693.884-1.278v-2.37c0-.267-.213-.483-.48-.483h-6.972c-.007.053-.016.107-.027.16-.059.291-.17.562-.328.804h6.844v1.888c0,.222-.181.404-.403.404H8.435c-.222,0-.403-.182-.403-.404v-1.888h6.844c-.158-.242-.269-.514-.328-.805-.011-.052-.02-.105-.027-.159h-6.972c-.265,0-.48.216-.48.483v2.37c0,.585.368,1.083.884,1.277v14.562l-1.148,1.149c-.092.09-.142.213-.142.341v.735c0,.267.216.483.483.483h33.706c.266,0,.483-.216.483-.483v-.735c0-.128-.05-.251-.142-.341ZM8.916,22.58h30.167v14.19h-2.014v-11.351c0-.787-.639-1.427-1.426-1.427H12.356c-.787,0-1.426.64-1.426,1.427v11.351h-2.014v-14.19ZM36.106,25.418v11.351h-7.07v-11.814h6.608c.255,0,.463.208.463.463ZM28.072,24.956v11.814h-3.589v-11.814h3.589ZM23.517,24.956v11.814h-3.589v-11.814h3.589ZM18.964,24.956v11.814h-7.07v-11.351c0-.255.208-.463.463-.463h6.608ZM40.373,38.797H7.627v-.056l1.007-1.009h30.732l1.007,1.009v.056ZM29.148,19.325c-.156-.242-.269-.513-.328-.804-.01-.053-.02-.107-.027-.16h-1.441c-.039.305-.059.628-.062.964h1.858ZM28.82,18.521c-.01-.053-.02-.107-.027-.16h-1.441c-.039.305-.059.628-.062.964h1.858c-.156-.242-.269-.513-.328-.804ZM32.238,18.361c-.136.483-.58.831-1.102.831s-.966-.348-1.103-.831h-.672c.066.375.248.709.507.964h2.536c.259-.255.44-.589.506-.964h-.672ZM28.178,18.652c-.019-.096-.034-.193-.044-.291h-.782c-.039.305-.059.628-.062.964h1.112c-.1-.212-.175-.438-.224-.673ZM28.82,18.521c-.01-.053-.02-.107-.027-.16h-1.441c-.039.305-.059.628-.062.964h1.858c-.156-.242-.269-.513-.328-.804ZM28.178,18.652c-.019-.096-.034-.193-.044-.291h-.782c-.039.305-.059.628-.062.964h1.112c-.1-.212-.175-.438-.224-.673ZM28.178,18.652c-.019-.096-.034-.193-.044-.291h-.782c-.039.305-.059.628-.062.964h1.112c-.1-.212-.175-.438-.224-.673Z" fill="silver"/>
    <path d="M39.968,19.325v1.888c0,.222-.181.404-.403.404H8.435c-.222,0-.403-.182-.403-.404v-1.888h6.098c.312.668.864,1.206,1.559,1.5.373.158.768.238,1.175.238s.804-.08,1.176-.238c.695-.294,1.246-.832,1.559-1.5.066-.139.12-.285.165-.436l.683.067c.02.155.04.279.057.368.014.079.024.127.027.139.033.15.166.256.32.256h6.111c.182,0,.328-.146.328-.328v-.067h1.112c.312.668.864,1.206,1.559,1.5.373.158.768.238,1.176.238s.802-.08,1.175-.238c.695-.294,1.246-.832,1.559-1.5h6.098Z" fill="#75c9fc"/>
    <polygon points="40.373 38.741 40.373 38.797 7.627 38.797 7.627 38.741 8.634 37.733 39.366 37.733 40.373 38.741" fill="#ec6d64"/>
    <path d="M31.76,13.189c-.017-.072-.027-.135-.033-.192-.421-2.249-2.053-3.595-2.632-4.01-.63.629-.724.921-.736,1.007.027.019.053.04.075.066.61.729.805,1.413.58,2.032-.089.245-.241.467-.446.669,0,.001-.001.003-.001.004-.009.007-.017.014-.024.021-.016.016-.032.03-.047.044-.011.011-.023.021-.036.033-.024.021-.049.042-.075.063-.01.009-.02.017-.03.024-.029.023-.057.046-.087.069-.001.001-.004.003-.007.004-.034.026-.069.052-.106.076-.003.003-.007.006-.01.007-1.097.752-2.977,1.183-4.791,1.51-.769.138-1.354.501-1.738,1.08-.077.115-.143.236-.202.361,0,.001-.001.003-.001.004-.032.066-.06.133-.087.202,0,.001,0,.004-.001.007-.155.404-.232.835-.262,1.245-.009.102-.013.203-.016.301v.004c-.001.044-.001.087-.001.13v.162c.001.043.003.085.004.126,0,.009,0,.019.001.027.001.032.003.062.004.092h0c0,.016.001.03.001.044.001.024.004.047.006.072,0,.014.001.03.003.046.001.024.004.049.006.073.016.188.037.348.056.471h5.516c.007-.242.024-.477.053-.705.016-.156.039-.309.066-.458.032-.179.202-.297.38-.265.178.032.297.202.265.38-.02.112-.037.226-.053.344h.782c-.011-.105-.017-.211-.017-.317,0-.05.001-.1.004-.152.001-.017.003-.036.004-.056l.003-.033c0-.019.001-.039.004-.057.003-.032.007-.062.01-.092l.003-.017c.001-.013.003-.024.004-.036.006-.037.013-.076.02-.113v-.006c.001-.007.003-.016.004-.023.009-.04.017-.082.027-.123l.003-.011c.01-.043.021-.085.034-.129.001-.003.001-.004.003-.007.123-.418.337-.805.625-1.133l-.277-.446c-.34.334-.642.758-.867,1.299-.069.166-.261.245-.428.176-.166-.07-.245-.261-.176-.428.95-2.284,3.037-2.778,4.202-2.87.444-.06.467-.291.468-.387-.01-.077-.019-.148-.029-.212ZM26.513,15.564l-1.352,1.596c-.066.076-.158.116-.251.116-.074,0-.149-.026-.211-.079-.139-.116-.156-.322-.039-.461l1.354-1.596c.116-.138.322-.155.461-.037.138.116.155.324.037.461Z" fill="#f6c42d"/>
  </g>
</svg>