<?xml version="1.0" encoding="UTF-8"?>
<svg id="Layer_1" data-name="Layer 1" xmlns="http://www.w3.org/2000/svg" viewBox="0 0 48 48">
  <path d="M16.321,20.174c0-.289-.237-.526-.526-.526h-3.813c-.289,0-.526.237-.526.526v3.813c0,.289.237.526.526.526h3.813c.289,0,.526-.237.526-.526v-3.813ZM15.243,23.461h-2.761v-2.761h2.761v2.761ZM23.106,20.174c0-.289-.237-.526-.526-.526h-3.813c-.289,0-.526.237-.526.526v3.813c0,.289.237.526.526.526h3.813c.289,0,.526-.237.526-.526v-3.813ZM22.054,23.461h-2.761v-2.761h2.761v2.761ZM29.917,20.174c0-.289-.237-.526-.526-.526h-3.813c-.289,0-.526.237-.526.526v3.813c0,.289.237.526.526.526h3.813c.289,0,.526-.237.526-.526v-3.813ZM28.865,23.461h-2.761v-2.761h2.761v2.761ZM32.389,24.513h3.813c.289,0,.526-.237.526-.526v-3.813c0-.289-.237-.526-.526-.526h-3.813c-.289,0-.526.237-.526.526v3.813c0,.289.237.526.526.526ZM32.915,20.7h2.761v2.761h-2.761v-2.761ZM16.321,27.09c0-.289-.237-.526-.526-.526h-3.813c-.289,0-.526.237-.526.526v3.813c0,.289.237.526.526.526h3.813c.289,0,.526-.237.526-.526v-3.813ZM15.243,30.377h-2.761v-2.761h2.761v2.761ZM23.106,27.09c0-.289-.237-.526-.526-.526h-3.813c-.289,0-.526.237-.526.526v3.813c0,.289.237.526.526.526h3.813c.289,0,.526-.237.526-.526v-3.813ZM22.054,30.377h-2.761v-2.761h2.761v2.761ZM29.917,27.09c0-.289-.237-.526-.526-.526h-3.813c-.289,0-.526.237-.526.526v3.813c0,.289.237.526.526.526h3.813c.289,0,.526-.237.526-.526v-3.813ZM28.865,30.377h-2.761v-2.761h2.761v2.761ZM31.863,30.903c0,.289.237.526.526.526h3.813c.289,0,.526-.237.526-.526v-3.813c0-.289-.237-.526-.526-.526h-3.813c-.289,0-.526.237-.526.526v3.813ZM32.915,27.616h2.761v2.761h-2.761v-2.761ZM15.769,33.454h-3.813c-.289,0-.526.237-.526.526v3.813c0,.289.237.526.526.526h3.813c.289,0,.526-.237.526-.526v-3.813c0-.289-.237-.526-.526-.526ZM15.243,37.267h-2.761v-2.761h2.761v2.761ZM22.58,33.454h-3.813c-.289,0-.526.237-.526.526v3.813c0,.289.237.526.526.526h3.813c.289,0,.526-.237.526-.526v-3.813c0-.289-.237-.526-.526-.526ZM22.054,37.267h-2.761v-2.761h2.761v2.761ZM29.391,33.454h-3.813c-.289,0-.526.237-.526.526v3.813c0,.289.237.526.526.526h3.813c.289,0,.526-.237.526-.526v-3.813c0-.289-.237-.526-.526-.526ZM28.865,37.267h-2.761v-2.761h2.761v2.761ZM31.863,37.819c0,.289.237.526.526.526h3.813c.289,0,.526-.237.526-.526v-3.813c0-.289-.237-.526-.526-.526h-3.813c-.289,0-.526.236-.526.526v3.813ZM32.915,34.532h2.761v2.761h-2.761v-2.761ZM38.989,9.944h-.657v-2.025c0-1.052-.868-1.92-1.92-1.92s-1.92.868-1.92,1.92v2.025h-2.367v-2.025c0-1.052-.868-1.92-1.92-1.92s-1.92.868-1.92,1.92v2.025h-2.367v-2.025c0-1.052-.868-1.92-1.92-1.92s-1.92.868-1.92,1.92v2.025h-2.367v-2.025c0-1.052-.868-1.92-1.92-1.92s-1.92.868-1.92,1.92v2.025h-2.367v-2.025c0-1.052-.868-1.92-1.92-1.92s-1.92.868-1.92,1.92v2.025h-.657c-1.21,0-2.183.973-2.183,2.183v27.69c0,1.21.973,2.183,2.183,2.183h20.327c.289,0,.526-.237.526-.526s-.237-.526-.526-.526H9.011c-.631,0-1.131-.5-1.131-1.131v-22.72h6.785c.289,0,.526-.237.526-.526s-.237-.526-.526-.526h-6.785v-3.918c0-.631.5-1.131,1.131-1.131h.657v.789c0,1.052.868,1.92,1.92,1.92s1.92-.868,1.92-1.92v-.789h2.367v.789c0,1.052.868,1.92,1.92,1.92s1.92-.868,1.92-1.92v-.789h2.367v.789c0,1.052.868,1.92,1.92,1.92s1.92-.868,1.92-1.92v-.789h2.367v.789c0,1.052.868,1.92,1.92,1.92s1.92-.868,1.92-1.92v-.789h2.367v.789c0,1.052.868,1.92,1.92,1.92s1.92-.868,1.92-1.92v-.789h.657c.631,0,1.131.5,1.131,1.131v3.918h-23.167c-.289,0-.526.237-.526.526s.237.526.526.526h23.167v22.72c0,.631-.5,1.131-1.131,1.131h-7.363c-.289,0-.526.237-.526.526s.237.526.526.526h7.363c1.21,0,2.183-.973,2.183-2.183V12.127c0-1.21-.973-2.183-2.183-2.183ZM12.587,11.785c0,.473-.368.842-.841.842s-.841-.368-.841-.842v-3.866c0-.473.368-.842.841-.842s.841.368.841.842v3.866ZM18.767,11.785c0,.473-.368.842-.841.842s-.841-.368-.841-.842v-3.866c0-.473.368-.842.841-.842s.841.368.841.842v3.866ZM24.92,11.785c0,.473-.368.842-.841.842s-.841-.368-.841-.842v-3.866c0-.473.368-.842.841-.842s.841.368.841.842v3.866ZM31.1,11.785c0,.473-.368.842-.841.842s-.841-.368-.841-.842v-3.866c0-.473.368-.842.841-.842s.841.368.841.842v3.866ZM37.28,11.785c0,.473-.368.842-.841.842s-.841-.368-.841-.842v-3.866c0-.473.368-.842.841-.842s.841.368.841.842v3.866Z" fill="silver"/>
</svg>