<?xml version="1.0" encoding="UTF-8"?>
<svg id="Layer_1" data-name="Layer 1" xmlns="http://www.w3.org/2000/svg" viewBox="0 0 48 48">
  <path d="M33.774,30.215c-1.725,0-3.279.745-4.357,1.93l-9.701-6.008c.259-.663.403-1.383.403-2.137s-.144-1.474-.403-2.137l9.701-6.009c1.079,1.185,2.633,1.93,4.357,1.93,3.249,0,5.893-2.643,5.893-5.893s-2.643-5.892-5.893-5.892-5.893,2.643-5.893,5.893c0,.753.144,1.474.403,2.137l-9.701,6.008c-1.079-1.185-2.633-1.93-4.357-1.93-3.249,0-5.893,2.644-5.893,5.893s2.643,5.893,5.893,5.893c1.725,0,3.279-.745,4.357-1.93l9.701,6.008c-.259.663-.403,1.383-.403,2.137,0,3.249,2.643,5.892,5.893,5.892s5.893-2.643,5.893-5.892-2.643-5.893-5.893-5.893ZM30.03,11.893c0-2.064,1.68-3.744,3.744-3.744s3.744,1.68,3.744,3.744-1.68,3.744-3.744,3.744-3.744-1.68-3.744-3.744ZM14.226,27.744c-2.065,0-3.744-1.68-3.744-3.744s1.68-3.744,3.744-3.744,3.744,1.68,3.744,3.744-1.679,3.744-3.744,3.744ZM30.03,36.107c0-2.064,1.68-3.744,3.744-3.744s3.744,1.68,3.744,3.744-1.68,3.744-3.744,3.744-3.744-1.68-3.744-3.744Z" fill="#fff"/>
</svg>