<?xml version="1.0" encoding="UTF-8"?>
<svg id="Layer_1" data-name="Layer 1" xmlns="http://www.w3.org/2000/svg" viewBox="0 0 42 15">
  <path d="M0,0h42v15H0V0Z" fill="#6dd295"/>
  <g>
    <rect x="7.547" y="11.814" width=".947" height="1.018" fill="#fff"/>
    <rect x="5.654" y="11.814" width=".947" height="1.018" fill="#fff"/>
    <rect x="24.927" y="3.81" width=".947" height="1.017" fill="#fff"/>
    <rect x="34.855" y="3.81" width=".947" height="1.017" fill="#fff"/>
    <rect x="33.929" y="2.168" width=".896" height=".977" fill="#fff"/>
    <path d="M37.353,5.391v4.49h-.978c-.255,0-.503-.054-.745-.161-.241-.106-.439-.251-.594-.433s-.238-.379-.252-.594v-2.88h-.876v2.738c0,.383-.119.7-.357.952-.238.251-.542.377-.911.377h-.846v-4.067h-.887v4.067h-1.269c-.631,0-1.039-.251-1.229-.755l-.553-1.39c-.242-.61-.576-1.101-1.002-1.47-.428-.369-.955-.555-1.586-.555-.363,0-.668.036-.916.106-.25.07-.531.183-.847.337l.333.735c.395-.215.801-.322,1.217-.322.477,0,.869.114,1.174.343.305.228.555.58.75,1.057l.574,1.37c0-.014.01.01.031.07-.82.315-1.73.473-2.73.473h-2.043c-.551,0-.95-.194-1.198-.584.147-.322.222-.688.222-1.098,0-.442-.101-.854-.302-1.233-.202-.379-.502-.683-.901-.911s-.878-.343-1.435-.343c-.597,0-1.169.12-1.717.358s-1.153.578-1.817,1.021v-1.278h-.876v4.067h-1.44c-.282,0-.492-.07-.629-.211-.138-.142-.206-.373-.206-.695v-4.239h-1.792c-.47,0-.881.101-1.234.303-.352.201-.623.478-.811.83s-.282.747-.282,1.184v2.829h-2.125c-.55,0-.958-.126-1.223-.377-.266-.252-.398-.576-.398-.972v-2.85h-.876v2.92c0,.631.208,1.135.625,1.511.416.376.98.563,1.691.563h3.182v-3.555c0-.456.134-.836.403-1.138s.675-.453,1.218-.453h.745v3.504c0,.49.127.887.383,1.188.255.302.645.453,1.168.453h6.233c.759,0,1.363-.262,1.812-.785.423.523.95.785,1.581.785h2.043c.504,0,1.027-.061,1.572-.182.543-.12,1.033-.298,1.469-.533.377.477.957.715,1.742.715h3.162c.369,0,.694-.086.977-.257s.507-.395.675-.67c.215.31.488.541.82.695s.703.231,1.113.231h1.843v-5.286h-.876ZM20.507,9.453c-.282.285-.685.428-1.208.428h-3.635v-1.963c.671-.483,1.269-.84,1.792-1.067.523-.229,1.067-.343,1.631-.343.389,0,.721.079.997.236.275.158.483.368.625.63s.215.547.221.855c0,.53-.141.938-.423,1.224Z" fill="#fff"/>
    <rect x="32.963" y="3.81" width=".946" height="1.017" fill="#fff"/>
  </g>
</svg>