<?xml version="1.0" encoding="UTF-8"?>
<svg id="Layer_1" data-name="Layer 1" xmlns="http://www.w3.org/2000/svg" viewBox="0 0 48 48">
  <path d="M33.532,18.692c-.074.107-.193.164-.313.164-.075,0-.15-.022-.217-.068l-.823-.571c-.103-.071-.164-.188-.164-.313v-2.073c0-.211.17-.381.381-.381s.381.171.381.381v1.873l.659.457c.173.12.216.358.096.531Z" fill="#3ad690"/>
  <path d="M37.365,17.916c0,.039,0,.077-.001.115,0,.01,0,.021,0,.031,0,.021-.001.042-.002.063,0,.01,0,.019-.001.029,0,.021-.002.043-.003.064-.001.02-.002.04-.004.059-.002.028-.004.057-.007.085-.002.019-.003.039-.005.058-.004.043-.009.086-.015.129-.003.021-.005.042-.008.062-.003.02-.006.04-.009.061-.001.006-.002.012-.003.018-.003.022-.007.045-.011.067-.005.028-.01.057-.015.085-.002.012-.005.025-.007.037-.003.014-.005.027-.008.041-.003.014-.005.027-.008.04-.003.016-.007.032-.01.048-.003.015-.007.03-.01.045,0,.003-.001.005-.002.008-.003.013-.006.025-.009.038-.004.016-.008.032-.012.049,0,.001,0,.002,0,.003-.005.019-.01.037-.015.056,0,.004-.002.009-.003.013-.005.019-.011.039-.016.058-.004.014-.008.029-.012.043-.006.021-.012.042-.019.063-.004.014-.009.028-.013.042-.006.019-.012.037-.018.056-.02.062-.042.124-.065.185-.131.348-.299.676-.5.982-.022.033-.044.066-.067.099,0,.001-.002.002-.002.003-.298.426-.663.805-1.086,1.121-.116-.161-.238-.317-.366-.467-.034-.04-.069-.081-.105-.121.393-.296.733-.66,1.002-1.074.012-.018.024-.037.036-.056.002-.003.004-.006.006-.009.097-.153.183-.313.26-.478.25-.541.385-1.139.385-1.761,0-2.318-1.891-4.204-4.216-4.204-.54,0-1.056.102-1.53.287-.003.001-.005.002-.008.003-.017.006-.034.013-.051.02-.006.003-.013.005-.019.008-.006.003-.013.005-.019.008,0,0,0,0,0,0-.004.002-.008.003-.012.005-.012.005-.024.01-.036.015-.021.009-.042.019-.064.028-.016.008-.033.015-.049.023-.015.007-.029.013-.043.021-.015.007-.031.015-.046.022-.03.015-.061.03-.091.047-.013.007-.025.013-.038.02-.011.006-.022.012-.033.018-.01.006-.021.011-.031.017-.011.006-.021.012-.032.018-.011.006-.022.012-.032.019-.012.007-.023.014-.035.02-.011.007-.021.013-.032.019-.021.013-.042.026-.063.039-.014.009-.028.018-.042.027-.014.009-.028.018-.041.027-.027.018-.054.037-.081.056-.013.01-.027.019-.04.029-.027.019-.053.039-.079.059-.013.01-.026.02-.039.03-.015.012-.03.023-.044.035-.015.012-.029.024-.044.036-.014.011-.027.022-.04.034-.009.007-.018.015-.026.022-.005.004-.009.008-.013.012-.002.002-.004.003-.006.005-.003.002-.005.005-.008.007-.007.006-.013.012-.02.018-.017.015-.034.03-.051.045-.002.002-.004.003-.006.005-.001.001-.002.002-.003.003-.001.001-.002.002-.003.003-.01.009-.02.018-.029.027-.013.012-.027.025-.04.038-.002.002-.004.004-.006.006-.012.012-.024.023-.036.036-.003.003-.005.006-.008.008-.024.024-.048.048-.071.073-.006.006-.012.012-.018.018-.008.009-.017.017-.025.026-.01.011-.02.022-.03.033l-.007.008c-.01.011-.02.022-.03.033-.005.006-.01.011-.015.017-.006.007-.012.014-.018.021-.007.008-.014.016-.021.024-.015.017-.029.033-.042.05-.021.025-.042.051-.062.076-.01.013-.02.026-.03.039-.01.013-.02.026-.03.039-.02.026-.039.052-.058.079-.01.013-.019.027-.028.04-.01.013-.019.027-.028.04-.009.014-.019.027-.027.041-.003.005-.007.01-.01.015,0,0,0,.001-.002.002-.003.004-.005.008-.008.013,0,0,0,0,0,0-.002.002-.003.005-.005.007-.001.002-.002.003-.003.005-.001.002-.002.003-.003.005-.004.005-.007.011-.011.017-.004.006-.007.011-.011.017-.005.007-.009.014-.013.021,0,.001-.002.002-.002.003-.003.004-.006.009-.008.013-.012.019-.024.039-.036.059-.002.003-.003.005-.005.008-.003.005-.006.01-.009.015-.002.003-.004.007-.006.011-.002.003-.003.006-.005.009-.003.004-.005.009-.008.013-.006.011-.013.022-.019.034-.001.002-.002.005-.004.007,0,.001-.002.003-.002.004,0,0,0,0,0,.001,0,0,0,0,0,.001-.002.003-.003.006-.005.009,0,.002-.002.003-.002.005-.007.013-.015.027-.022.04,0,.001-.001.002-.002.003,0,.002-.002.003-.003.005-.001.003-.003.005-.004.008-.005.008-.009.017-.013.025-.009.017-.018.034-.026.05-.017.034-.034.068-.05.102-.26.547-.405,1.159-.405,1.805,0,.197.013.391.04.581.018.133.043.264.074.393h-.78c-.026-.129-.046-.261-.062-.393-.022-.191-.034-.385-.034-.581,0-.061.001-.121.003-.181.008-.239.034-.473.075-.702.006-.033.012-.065.019-.098.003-.017.007-.035.011-.052.004-.02.008-.039.013-.059.004-.02.009-.039.013-.059.005-.021.01-.042.015-.062.005-.018.009-.037.014-.055.005-.019.01-.038.015-.056h0s0-.002,0-.003c.003-.012.007-.024.01-.035.006-.02.011-.039.017-.059.004-.013.008-.026.012-.039.004-.012.008-.024.011-.037.012-.039.025-.077.038-.115.006-.018.012-.036.019-.054.008-.022.015-.043.024-.065,0-.002.002-.004.002-.007.008-.022.016-.043.025-.065.008-.02.015-.039.023-.059.005-.012.009-.024.014-.035.01-.024.02-.048.03-.072.007-.017.015-.035.023-.052.01-.023.02-.045.031-.068.006-.012.012-.025.017-.037.02-.041.04-.082.06-.123.01-.019.02-.038.029-.057.004-.007.008-.015.012-.022.004-.007.008-.015.012-.022.013-.025.027-.051.041-.076.019-.033.038-.066.057-.099.01-.017.02-.034.03-.051.005-.008.01-.017.015-.025.005-.008.01-.017.015-.025.021-.033.042-.066.063-.099.021-.033.043-.065.065-.097.011-.016.022-.032.034-.048.017-.024.034-.048.051-.071.017-.024.035-.047.052-.07.012-.015.024-.031.036-.046.024-.031.048-.061.073-.091.012-.015.025-.03.037-.045.038-.045.076-.089.115-.132.044-.049.089-.097.135-.144.03-.031.061-.062.093-.093.031-.03.063-.061.095-.091.016-.015.032-.03.049-.044s.033-.029.049-.044c.017-.015.035-.03.052-.045.01-.009.021-.018.032-.027.012-.01.025-.021.037-.031.006-.005.011-.009.017-.014.007-.006.014-.011.02-.017.012-.01.025-.02.037-.03s.025-.02.038-.03c.027-.021.053-.041.08-.061.015-.012.031-.023.047-.034.022-.016.044-.032.067-.048.015-.01.03-.021.045-.031.018-.013.037-.025.056-.037.048-.032.097-.063.146-.093.013-.008.025-.016.038-.023.028-.017.055-.033.083-.049.014-.008.028-.016.042-.024.018-.01.037-.021.056-.031.019-.01.037-.02.056-.03.008-.004.015-.008.023-.012.023-.012.046-.024.069-.036.015-.008.03-.015.046-.023.021-.01.042-.02.063-.03.011-.005.021-.01.032-.015.103-.048.207-.092.313-.133.017-.007.035-.013.052-.02.014-.005.028-.01.042-.015.019-.007.037-.013.056-.02.023-.008.046-.016.07-.024.015-.005.031-.01.046-.015.017-.005.033-.011.05-.016.002,0,.003-.001.005-.002.006-.002.011-.003.017-.005.009-.003.017-.005.026-.008.008-.003.017-.005.025-.007,0,0,.002,0,.003,0,.003,0,.007-.002.01-.003.031-.009.062-.018.093-.026.012-.003.024-.007.037-.01,0,0,0,0,.001,0,.005-.001.009-.003.014-.004.015-.004.03-.008.045-.011.014-.003.028-.007.043-.01h.003c.011-.003.021-.006.032-.008.003,0,.005-.001.008-.002,0,0,0,0,0,0,.033-.008.067-.015.1-.022.016-.003.033-.007.049-.01.017-.003.034-.007.05-.01,0,0,.002,0,.002,0,.003,0,.007-.001.011-.002.015-.003.03-.005.045-.008.003,0,.005-.001.008-.002.017-.003.034-.006.052-.009.017-.003.034-.005.051-.008.025-.004.051-.007.076-.011.025-.003.051-.007.076-.01.011-.002.023-.003.034-.004.013-.002.026-.003.039-.004.004,0,.007,0,.011-.001.058-.006.117-.011.175-.015.015-.001.029-.002.044-.003.012,0,.025-.002.037-.002.016,0,.031-.002.047-.002.016,0,.032-.001.048-.002.012,0,.024,0,.036-.001.038,0,.077-.001.115-.001,2.747,0,4.975,2.227,4.975,4.975Z" fill="#ec6d64"/>
  <path d="M36.239,23.37c-.108-.252-.229-.498-.362-.737-.147-.264-.308-.518-.483-.761-.116-.161-.238-.317-.366-.467-.034-.04-.069-.081-.105-.121-.994-1.119-2.74-2.392-5.542-2.392h-4.264c-.127-.6-.523-1.212-1.113-1.701-.598-.494-1.669-1.083-3.374-1.083h-7.291c-1.134,0-2.057,1.016-2.057,2.266v.518h-.033c-.976,0-1.769.795-1.769,1.769v8.16c-.315.153-.533.475-.533.849v1.335c0,.374.219.697.533.85v2.662c0,.976.794,1.769,1.769,1.769h1.893c.205,1.936,1.847,3.45,3.838,3.45s3.632-1.514,3.837-3.45h11.069l1.623,2.89c.199.352.627.583,1.031.583.085,0,.169-.011.25-.032.224-.058.742-.292.742-1.193v-2.297c.779-.186,1.36-.886,1.36-1.721v-8.006c0-1.075-.229-2.154-.652-3.142ZM10.298,23.289h3.31c.082,0,.151.067.151.149v3.591c0,.082-.07.15-.151.15h-3.31v-3.89ZM9.889,31.131c-.067,0-.124-.058-.124-.127v-1.335c0-.069.057-.127.124-.127h1.209c.069,0,.125.058.125.127v1.335c0,.069-.057.127-.125.127h-1.209ZM16.981,38.918c-1.677,0-3.042-1.365-3.042-3.041s1.365-3.043,3.042-3.043,3.041,1.365,3.041,3.043-1.365,3.041-3.041,3.041ZM20.818,35.467s-.001,0-.001-.001c-.206-1.936-1.847-3.45-3.837-3.45s-3.632,1.514-3.838,3.45h-.001s-1.082.001-1.082.001c.208-2.532,2.336-4.53,4.921-4.53s4.713,1.998,4.921,4.53h-1.083ZM24.538,25.521c-.069-.008-.123-.069-.123-.137v-.817c0-.074.064-.137.138-.137h6.509c.043,0,.081.02.107.052.019.024.031.053.031.085v.817c0,.076-.063.138-.137.138h-6.509s-.011-.001-.015-.001ZM34.712,38.535c0,.169-.034.376-.13.401-.117.031-.308-.067-.36-.161l-1.398-2.488h1.888v2.248ZM36.073,34.517c0,.524-.427.951-.951.951h-3.491v-3.741c0-.226-.182-.409-.409-.409-.226,0-.409.183-.409.409v3.741h-5.85v-9.127h5.85v3.497c0,.226.183.409.409.409.227,0,.409-.183.409-.409v-3.686c.235-.175.389-.454.389-.769v-.816c0-.376-.217-.701-.532-.858-.128-.064-.273-.1-.425-.1h-6.509c-.528,0-.957.429-.957.958v.816c0,.378.221.71.548.863v9.221h-1.42c-.21-2.985-2.706-5.349-5.743-5.349s-5.531,2.364-5.742,5.348c-.519-.006-.94-.429-.94-.95v-2.568h.8c.52,0,.945-.423.945-.945v-1.335c0-.52-.425-.945-.945-.945h-.8v-.726h3.31c.535,0,.97-.435.97-.97v-3.591c0-.535-.435-.969-.97-.969h-3.31v-1.809c0-.524.427-.95.951-.95h5.793c.059,0,.114-.012.165-.035.144-.063.244-.207.244-.375,0-.227-.183-.41-.409-.41h-4.941v-.518c0-.798.556-1.448,1.238-1.448h7.291c1.462,0,2.358.487,2.853.896.43.356.672.745.783,1.069h-5.334c-.226,0-.409.183-.409.41,0,.167.101.311.244.375.05.022.106.035.165.035h10.449c2.278,0,4.007.963,5.135,2.354.064.079.127.16.187.242.04.054.079.108.117.164h-1.161c-.464,0-.841.377-.841.841v3.847c0,.464.377.841.841.841h2.414v6.519ZM36.073,27.179h-2.414c-.011,0-.022-.011-.022-.021v-3.847c0-.012.012-.022.022-.022h1.647c.018.036.035.071.053.107.004.009.009.018.013.027.01.021.02.042.03.063.004.009.008.018.012.026.005.011.01.021.015.032.005.01.009.02.014.031.005.012.011.024.016.036.005.012.011.024.016.036.007.015.013.031.02.046,0,.002.001.003.002.005.003.007.006.015.009.022.006.014.012.029.018.043,0,.002.001.003.002.005.005.012.01.024.015.036.003.007.005.014.008.02.003.007.005.014.008.02.006.015.012.031.018.046.005.012.009.024.014.036.004.01.008.021.012.031.007.019.014.038.021.056.004.012.009.024.013.036.005.013.009.026.014.038.005.013.009.026.014.039.001.003.002.007.004.01.004.012.008.024.012.036.004.013.009.026.013.039.005.015.01.029.015.044.005.014.009.028.014.042.002.006.004.013.006.019.009.028.018.056.027.085.002.007.004.014.006.021.008.027.016.053.024.08.003.012.007.023.01.035.003.012.007.023.01.035.003.012.006.023.01.035.019.069.037.139.054.209.002.009.004.018.007.027,0,.003.001.006.002.009.003.013.006.027.009.04.005.021.01.041.014.062.002.009.004.019.006.028.002.009.004.018.006.027.012.055.023.109.033.164.002.009.003.017.005.026.002.009.003.017.005.026.001.008.003.016.004.024.008.047.016.093.024.14.002.012.004.024.006.036.003.02.006.04.009.06,0,.005.002.01.002.015,0,0,0,0,0,.001,0,.005.001.009.002.014,0,.006.002.013.003.019.001.009.002.017.004.026.002.018.005.035.007.053.002.014.003.027.005.041.002.016.004.033.006.049.001.013.003.025.004.038,0,.009.002.017.003.026,0,.006.001.012.002.018.002.014.003.029.004.043,0,.005,0,.009.001.014,0,.005,0,.009.001.014.003.027.005.055.007.082,0,.007.001.014.002.022,0,.011.002.023.003.034,0,.011.002.021.002.032,0,.01.001.021.002.031,0,.01.001.02.002.03,0,.014.002.028.002.042.001.019.002.039.003.058,0,.01.001.021.001.031,0,.011,0,.021.001.032,0,.011,0,.021.001.032,0,.009,0,.019,0,.028,0,.012,0,.025.001.037,0,.007,0,.013,0,.02,0,.011,0,.021,0,.032,0,.011,0,.021,0,.032,0,.014,0,.029,0,.043,0,.014,0,.029,0,.043v.667Z" fill="silver"/>
  <g>
    <path d="M18.523,19.301c0,.167.101.311.244.375h-1.561c.144-.063.244-.207.244-.375,0-.227-.183-.41-.409-.41h-4.941v-.518c0-.798.556-1.448,1.238-1.448h7.291c1.462,0,2.358.487,2.853.896.43.356.672.745.783,1.069h-5.334c-.226,0-.409.183-.409.41Z" fill="#3ad690"/>
    <path d="M20.976,22.431h-4.077c-.451,0-.818.367-.818.82v3.9c0,.453.367.82.818.82h4.077c.451,0,.818-.367.818-.82v-3.9c0-.453-.367-.82-.818-.82ZM20.976,27.149h-1.342l-2.735.002v-3.898h4.076l.002,3.54v.357Z" fill="#75c9fc"/>
    <path d="M26,29.898c-.226,0-.409.183-.409.409v.453c0,.226.183.409.409.409s.409-.183.409-.409v-.453c0-.226-.183-.409-.409-.409Z" fill="silver"/>
    <path d="M16.98,34.141c-.956,0-1.734.779-1.734,1.736s.778,1.733,1.734,1.733,1.735-.778,1.735-1.733-.778-1.736-1.735-1.736ZM16.98,36.792c-.505,0-.915-.41-.915-.915s.411-.917.915-.917.916.411.916.917-.411.915-.916.915Z" fill="silver"/>
    <path d="M29.018,21.748c0,.226-.183.409-.409.409h-1.085c-.226,0-.409-.183-.409-.409s.183-.409.409-.409h1.085c.226,0,.409.183.409.409Z" fill="#ec6d64"/>
  </g>
  <path d="M36.073,26.512v.667h-2.414c-.011,0-.022-.011-.022-.021v-3.847c0-.012.012-.022.022-.022h1.647c.018.036.035.071.053.107.004.009.009.018.013.027.01.021.02.042.03.063.004.009.008.018.012.026.005.011.01.021.015.032.005.01.009.02.014.031.005.012.011.024.016.036.005.012.011.024.016.036.007.015.013.031.02.046,0,.002.001.003.002.005.003.007.006.015.009.022.006.014.012.029.018.043,0,.002.001.003.002.005.005.012.01.024.015.036.003.007.005.014.008.02.003.007.005.014.008.02.006.015.012.031.018.046.005.012.009.024.014.036.004.01.008.021.012.031.007.019.014.038.021.056.004.012.009.024.013.036.005.013.009.026.014.038.005.013.009.026.014.039.001.003.002.007.004.01.004.012.008.024.012.036.004.013.009.026.013.039.005.015.01.029.015.044.005.014.009.028.014.042.002.006.004.013.006.019.009.028.018.056.027.085.002.007.004.014.006.021.008.027.016.053.024.08.003.012.007.023.01.035.003.012.007.023.01.035.003.012.006.023.01.035.019.069.037.139.054.209.002.009.004.018.007.027,0,.003.001.006.002.009.003.013.006.027.009.04.005.021.01.041.014.062.002.009.004.019.006.028.002.009.004.018.006.027.012.055.023.109.033.164.002.009.003.017.005.026.002.009.003.017.005.026.001.008.003.016.004.024.008.047.016.093.024.14.002.012.004.024.006.036.003.02.006.04.009.06,0,.005.002.01.002.015,0,0,0,0,0,.001,0,.005.001.009.002.014,0,.006.002.013.003.019.001.009.002.017.004.026.002.018.005.035.007.053.002.014.003.027.005.041.002.016.004.033.006.049.001.013.003.025.004.038,0,.009.002.017.003.026,0,.006.001.012.002.018.002.014.003.029.004.043,0,.005,0,.009.001.014,0,.005,0,.009.001.014.003.027.005.055.007.082,0,.007.001.014.002.022,0,.011.002.023.003.034,0,.011.002.021.002.032,0,.01.001.021.002.031,0,.01.001.02.002.03,0,.014.002.028.002.042.001.019.002.039.003.058,0,.01.001.021.001.031,0,.011,0,.021.001.032,0,.011,0,.021.001.032,0,.009,0,.019,0,.028,0,.012,0,.025.001.037,0,.007,0,.013,0,.02,0,.011,0,.021,0,.032,0,.011,0,.021,0,.032,0,.014,0,.029,0,.043,0,.014,0,.029,0,.043Z" fill="#f6c42d"/>
  <path d="M37.172,13.289l.815-1.101c.119-.161.167-.359.137-.557-.03-.198-.136-.372-.296-.489l-.674-.495c-.331-.245-.801-.175-1.047.156l-.829,1.12h0c-.097-.046-.195-.091-.294-.133-.445-.188-.914-.329-1.402-.417v-.743h.64c.421,0,.764-.342.764-.762v-.867c0-.42-.343-.762-.764-.762h-3.658c-.42,0-.763.342-.763.762v.867c0,.42.342.762.763.762h.641v.742c-2.239.402-4.09,1.923-4.954,3.964-.337.797-.524,1.673-.524,2.593,0,.326.023.647.069.961h.801c-.054-.321-.083-.651-.083-.988,0-.811.164-1.584.462-2.287.892-2.109,2.98-3.589,5.414-3.589.811,0,1.584.164,2.287.462,2.109.892,3.589,2.98,3.589,5.414,0,.811-.164,1.584-.462,2.287-.279.661-.676,1.259-1.164,1.77-.009.01-.018.019-.027.029,0,0-.002.002-.003.003-.009.009-.018.018-.027.028-.009.009-.019.019-.028.028,0,0-.001.001-.002.002-.009.009-.019.019-.028.028-.01.01-.019.019-.029.029,0,0,0,0-.001.001-.009.009-.019.018-.028.027-.012.012-.024.023-.036.035-.008.007-.015.014-.023.022,0,0,0,0,0,0-.009.009-.018.017-.028.026-.002.002-.003.003-.005.005-.009.008-.017.016-.026.024,0,0-.001.001-.002.002-.009.009-.019.017-.028.026-.023.021-.047.042-.071.063-.007.006-.014.013-.022.019-.001.001-.002.002-.004.003-.007.006-.014.012-.022.019-.005.004-.01.009-.016.013-.013.011-.026.022-.039.033-.006.005-.012.01-.019.016-.031.026-.063.051-.095.076-.008.007-.017.013-.025.02-.043.034-.087.067-.131.1.133.239.254.485.362.737,1.006-.713,1.805-1.697,2.291-2.846.337-.797.524-1.673.524-2.593,0-1.804-.717-3.441-1.882-4.641ZM30.564,9.868h0s0-.865,0-.865h3.66s-.002.865-.002.865h-3.658ZM32.82,11.281c-.142-.009-.285-.014-.429-.014-.142,0-.283.004-.423.013v-.65h.853v.651ZM35.95,12.297l.761-1.029.653.48-.758,1.023c-.209-.171-.428-.329-.657-.474Z" fill="#ec6d64"/>
</svg>