<?xml version="1.0" encoding="UTF-8"?>
<svg id="Layer_1" data-name="Layer 1" xmlns="http://www.w3.org/2000/svg" viewBox="0 0 48 48">
  <path d="M28.616,13.66c-.324-.187-.658-.353-1.002-.511-1.129-.481-2.337-.726-3.604-.726-1.286,0-2.494.246-3.624.736-1.109.481-2.091,1.139-2.926,1.964-.835.834-1.503,1.816-1.984,2.936-.491,1.129-.736,2.347-.736,3.614s.245,2.474.736,3.584c.275.648.619,1.247,1.021,1.797l-2.366.206.187,2.229c-.049-.059-.108-.128-.157-.197-.334-.432-.638-.884-.913-1.355-.56-.943-.972-1.934-1.267-2.975-.295-1.051-.442-2.16-.442-3.29,0-1.139.147-2.249.442-3.309.294-1.061.726-2.062,1.257-2.975.55-.913,1.208-1.768,1.964-2.524.756-.756,1.61-1.414,2.533-1.944.913-.54,1.914-.962,2.975-1.257,1.051-.295,2.16-.442,3.3-.442s2.249.147,3.299.442c1.07.294,2.072.717,2.985,1.257.177.108.363.216.55.334l.187,2.199-2.416.206h0ZM31.777,10.714c-.323-.235-.648-.442-.991-.648-.992-.579-2.062-1.031-3.211-1.345-1.149-.324-2.337-.481-3.564-.481-1.238,0-2.426.157-3.565.481-1.139.314-2.209.766-3.211,1.345-.991.58-1.905,1.287-2.729,2.101-.815.825-1.522,1.728-2.111,2.72-.579.992-1.031,2.062-1.355,3.211-.324,1.149-.481,2.337-.481,3.574,0,1.227.157,2.415.481,3.555.314,1.129.756,2.18,1.335,3.172l.02.039c.304.511.628.992.991,1.453.344.442.717.874,1.12,1.276.334.324.668.629,1.021.923l-.197-2.366-.137-1.571,1.571-.138,1.797-.147c-.138-.128-.275-.256-.412-.383-.746-.746-1.335-1.62-1.767-2.622-.442-.992-.658-2.062-.658-3.191,0-1.139.216-2.209.658-3.221.432-1.011,1.021-1.885,1.767-2.631.756-.736,1.63-1.326,2.632-1.767,1.002-.432,2.082-.648,3.231-.648,1.129,0,2.209.216,3.211.648.412.176.805.383,1.168.608l3.702-.314-.315-3.633h0Z" fill="silver"/>
  <path d="M35.96,25.13c-.324,1.108-.806,2.17-1.405,3.129-.599.973-1.346,1.86-2.188,2.634-.865.784-1.828,1.441-2.869,1.972l-1,.491,3.62,5.421h-3.544l-3.17-4.751-.608.086c-.131.009-.239.018-.347.018h-.441c-1.139,0-2.247-.144-3.301-.441-.901-.252-1.756-.599-2.562-1.031l-.184-2.179,2.652-.225c1.058.432,2.197.648,3.395.648,1.27,0,2.477-.257,3.607-.739,1.117-.477,2.107-1.148,2.931-1.981.828-.833,1.495-1.815,1.977-2.927.482-1.108.725-2.315.725-3.584s-.243-2.486-.725-3.611c-.176-.396-.365-.779-.581-1.139l2.918-.248-.118-1.315.018.032c.118.202.235.419.352.644.365.73.671,1.513.896,2.328.292,1.063.45,2.171.45,3.31,0,1.18-.167,2.337-.5,3.458h0ZM36.965,18.097c-.248-.883-.572-1.716-.973-2.504-.117-.243-.247-.468-.382-.707-.158-.275-.338-.54-.513-.802-.473-.68-1-1.319-1.59-1.918l-.018-.018.176,2.062.135,1.571-1.571.135-2.121.18c.63.684,1.13,1.472,1.513,2.355.432,1.013.648,2.08.648,3.219,0,1.13-.216,2.202-.648,3.193-.432.999-1.022,1.873-1.765,2.621-.747.747-1.621,1.346-2.634,1.778-.999.432-2.08.649-3.21.649-1.148,0-2.229-.216-3.229-.649l-.009-.009-3.873.333.315,3.67.018.022c1.004.59,2.076,1.04,3.215,1.355,1.139.324,2.324.482,3.562.482h.441c.149,0,.315-.014.482-.032l3.112,4.674h5.912l-4.025-6.02c1.139-.567,2.171-1.274,3.094-2.121.923-.842,1.711-1.788,2.369-2.837.648-1.04,1.157-2.17,1.508-3.377.356-1.207.541-2.454.541-3.733,0-1.238-.167-2.422-.477-3.575h0Z" fill="silver"/>
  <path d="M36.46,21.672c0,1.18-.167,2.337-.5,3.458-.324,1.108-.806,2.17-1.405,3.129-.599.973-1.346,1.86-2.188,2.634-.865.784-1.828,1.441-2.869,1.972l-1,.491,3.62,5.421h-3.544l-3.17-4.751-.608.086c-.131.009-.239.018-.347.018h-.441c-1.139,0-2.247-.144-3.301-.441-.901-.252-1.756-.599-2.562-1.031l-.184-2.179,2.652-.225c1.058.432,2.197.648,3.395.648,1.27,0,2.477-.257,3.607-.739,1.117-.477,2.107-1.148,2.931-1.981.828-.833,1.495-1.815,1.977-2.927.482-1.108.725-2.315.725-3.584s-.243-2.486-.725-3.611c-.176-.396-.365-.779-.581-1.139l2.918-.248-.118-1.315.018.032c.118.202.235.419.352.644.365.73.671,1.513.896,2.328.292,1.063.45,2.171.45,3.31h0Z" fill="#f6c42d"/>
</svg>