<?xml version="1.0" encoding="UTF-8"?>
<svg id="Layer_1" data-name="Layer 1" xmlns="http://www.w3.org/2000/svg" viewBox="0 0 42 15">
  <path d="M0,0h42v15H0V0Z" fill="#88c6f6"/>
  <g>
    <rect x="15.925" y="2.888" width=".947" height="1.017" fill="#fff"/>
    <path d="M17.874,5.133c-.393-.229-.878-.343-1.455-.343-.591,0-1.16.12-1.707.358s-1.149.575-1.808,1.012v-1.269h-.876v5.87h-1.581c-.543,0-.95-.128-1.218-.383s-.403-.58-.403-.977v-2.155h-.876v2.226c0,.631.208,1.135.625,1.511.416.376.98.563,1.691.563h2.638v-1.792h5.508c.167-.349.314-.752.438-1.208.124-.457.187-.876.187-1.259,0-.457-.096-.873-.287-1.249s-.483-.678-.876-.906ZM17.798,8.959h-4.894v-1.974c.671-.477,1.271-.829,1.798-1.057.527-.229,1.062-.343,1.606-.343.611,0,1.065.168,1.364.504.299.335.452.741.458,1.218,0,.584-.111,1.135-.333,1.651Z" fill="#fff"/>
    <path d="M33.758,6.044c-.194-.379-.49-.683-.886-.911-.396-.229-.876-.343-1.44-.343-.409,0-.99.071-1.742.212v3.957h-.815c-.006,0-.006.005-.012.005-.007,0-.01-.005-.018-.005-.759,0-1.387-.036-1.884-.11.423-.282.772-.626,1.048-1.032s.412-.811.412-1.213c0-.35-.113-.679-.342-.987s-.542-.558-.941-.745-.838-.282-1.314-.282c-.785,0-1.631.256-2.537.766l-.242.956c.658,1.095,1.282,1.938,1.873,2.528-.456.08-1.198.12-2.226.12-.002,0-.001.003-.003.003-.003,0-.003-.003-.007-.003-.296,0-.532-.065-.71-.196s-.327-.313-.448-.549v-3.322h-.876v4.884c0,.496-.111.862-.332,1.098-.222.234-.574.382-1.058.442l.353.796c1.275-.249,1.913-1.041,1.913-2.377v-.442c.329.309.715.463,1.158.463.003,0,.004-.003.007-.003.002,0,.001.003.003.003,1.424,0,2.551-.131,3.384-.393.825.262,1.749.393,2.77.393.008,0,.011-.005.019-.005.005,0,.005.005.011.005h4.552c.167-.349.313-.752.438-1.208.124-.457.187-.876.187-1.259,0-.45-.098-.864-.292-1.244ZM25.905,8.739c-.322-.249-.693-.651-1.113-1.209-.419-.557-.736-1.047-.951-1.47.705-.396,1.339-.595,1.903-.595.483,0,.902.107,1.259.322.355.215.533.534.533.957,0,.383-.161.752-.483,1.107-.322.356-.705.651-1.147.887ZM32.822,8.959h-2.256v-3.282c.269-.061.558-.091.866-.091.591,0,1.023.161,1.299.483s.413.735.413,1.238c0,.564-.107,1.114-.322,1.651Z" fill="#fff"/>
  </g>
</svg>