<?xml version="1.0" encoding="UTF-8"?>
<svg id="Layer_1" data-name="Layer 1" xmlns="http://www.w3.org/2000/svg" viewBox="0 0 48 48">
  <path d="M37.452,20.903c-.09.129-.232.198-.378.198-.09,0-.181-.026-.262-.082l-.997-.692c-.125-.086-.198-.228-.198-.378v-2.51c0-.254.206-.46.46-.46s.46.206.46.46v2.27l.799.554c.211.146.262.434.116.645v-.004Z" fill="#6dd295"/>
  <path d="M41.862,14.361l.989-1.337c.146-.193.202-.434.168-.675-.039-.241-.163-.451-.361-.593l-.817-.597c-.4-.297-.971-.211-1.268.189l-1.006,1.358-.009.013c-.64-.309-1.328-.533-2.046-.666v-.916h.774c.512,0,.924-.413.924-.924v-1.049c0-.507-.417-.924-.924-.924h-4.432c-.507,0-.924.413-.924.924v1.049c0,.507.413.924.924.924h.778v.894c-3.697.662-6.516,3.847-6.62,7.711v.219c0,.236.009.473.03.705.043.481.125.954.249,1.41h.963c-.142-.451-.236-.924-.284-1.41-.021-.232-.034-.469-.034-.705,0-3.942,3.194-7.135,7.135-7.135s7.135,3.194,7.135,7.135c0,.739-.112,1.449-.318,2.119h-.013c-.481,1.539-1.483,2.88-2.876,3.795h.06l1.388.047c1.161-1.032,1.986-2.364,2.39-3.847h.013c.185-.675.284-1.388.284-2.119,0-2.175-.864-4.152-2.265-5.601l-.009.004ZM33.858,10.213v-1.049h4.436v1.049h-4.436ZM36.592,11.937c-.344-.021-.688-.021-1.032,0v-.804h1.032v.804ZM41.17,13.742c-.254-.206-.52-.4-.795-.576l.009-.013.924-1.247.791.58-.92,1.242-.009.009v.004Z" fill="#db7469"/>
  <path d="M42.098,19.962v.365c0,.026,0,.047-.004.073,0,.034-.004.069-.009.103,0,.021,0,.047-.009.069-.004.052-.013.103-.017.155,0,.026-.004.052-.009.077,0,.026-.009.047-.009.073v.021c0,.026-.009.056-.013.082-.004.034-.013.069-.017.103,0,.013-.004.03-.009.043,0,.017-.004.034-.009.047,0,.017-.009.034-.009.047,0,.017-.009.039-.013.056,0,.017-.009.039-.013.056v.009c0,.017-.009.03-.013.047-.004.021-.009.039-.013.06-.004.021-.013.043-.017.069v.017c-.004.021-.013.047-.021.069-.004.017-.009.034-.013.052-.009.026-.013.052-.021.077-.004.017-.009.034-.017.052-.009.021-.013.047-.021.069-.026.077-.052.15-.077.224-.159.421-.361.821-.606,1.191-.026.039-.052.082-.082.12-.572.817-1.354,1.496-2.287,1.951v.017l-.236-.92c.748-.408,1.384-.997,1.844-1.706.013-.021.03-.043.043-.069,0,0,.004-.009.009-.013.116-.185.224-.378.314-.58.301-.653.469-1.38.469-2.132,0-2.807-2.291-5.094-5.106-5.094-.653,0-1.281.125-1.853.348h-.009c-.021.009-.043.017-.06.026-.009,0-.017.004-.021.009-.004.004-.017.004-.021.009-.004,0-.009,0-.013.004-.013.004-.03.013-.043.017-.026.013-.052.021-.077.034-.021.009-.039.017-.06.026-.017.009-.034.017-.052.026-.017.009-.039.017-.056.026-.039.017-.073.039-.112.056-.017.009-.03.017-.047.026-.013.009-.026.013-.039.021-.013.009-.026.013-.039.021s-.026.013-.039.021c-.013.009-.026.013-.039.021s-.03.017-.043.026-.026.017-.039.021c-.026.017-.052.03-.077.047-.017.009-.034.021-.052.034-.017.013-.034.021-.052.034-.034.021-.064.043-.099.069-.017.013-.034.021-.047.034-.034.021-.064.047-.095.073-.017.013-.03.026-.047.034-.017.013-.034.03-.052.043-.017.013-.034.03-.052.043s-.034.026-.047.043c-.009.009-.021.017-.03.026-.004.004-.013.009-.017.013,0,0-.004,0-.009.004,0,0-.004.004-.009.009-.009.009-.017.013-.026.021-.021.017-.043.034-.06.056,0,0-.004,0-.009.004-.013.013-.026.021-.034.034-.017.013-.034.03-.047.047l-.009.009-.043.043-.009.009c-.03.03-.06.056-.086.086-.009.009-.013.013-.021.021-.009.009-.021.021-.03.03-.013.013-.026.026-.039.039l-.009.009s-.026.026-.034.039c-.009.009-.013.013-.017.021-.009.009-.013.017-.021.026-.009.009-.017.021-.026.03-.017.021-.034.039-.052.06-.026.03-.052.06-.073.09-.013.017-.026.03-.039.047-.013.017-.026.03-.034.047-.026.03-.047.064-.069.095-.013.017-.021.03-.034.047-.013.017-.021.034-.034.047-.013.017-.021.034-.034.047,0,.004-.009.013-.013.017,0,.004-.004.009-.009.017,0,0,0,.004-.004.009v.009c-.004.009-.009.013-.013.021-.004.009-.009.013-.013.021-.004.009-.013.017-.017.026,0,.004-.009.013-.009.017-.013.021-.03.047-.043.073,0,0,0,.004-.004.009,0,.004-.009.013-.013.017,0,0-.004.009-.009.013,0,0,0,.009-.004.009,0,.004-.004.009-.009.017-.009.013-.017.026-.021.043,0,0,0,.004-.004.009v.004s0,.009-.004.013v.004c-.009.017-.017.034-.026.047v.004s0,.004-.004.009c-.004.009-.013.021-.017.03-.013.021-.021.039-.03.06-.021.043-.043.082-.06.125-.314.662-.49,1.406-.49,2.188,0,.241.017.473.047.705.069.494.206.971.408,1.41h-.997c-.168-.447-.284-.92-.34-1.41-.026-.232-.043-.464-.043-.705v-.219c.009-.288.043-.572.09-.851.009-.039.013-.077.021-.12,0-.021.009-.043.013-.064.004-.026.009-.047.017-.073.004-.026.013-.047.017-.073.004-.026.013-.052.017-.077.004-.021.013-.043.017-.064.004-.021.013-.047.017-.069,0-.013.009-.03.013-.043.009-.026.013-.047.021-.073.004-.017.009-.03.013-.047.004-.013.009-.03.013-.043.013-.047.03-.095.047-.138.009-.021.013-.043.021-.064.009-.026.017-.052.03-.077v-.009c.009-.026.021-.052.03-.077s.017-.047.03-.073c.004-.013.013-.03.017-.043.013-.03.026-.06.039-.086.009-.021.017-.043.026-.064.013-.026.026-.056.039-.082.009-.013.013-.03.021-.043.026-.052.047-.099.073-.15.013-.021.026-.047.034-.069.004-.009.009-.017.013-.026.004-.009.009-.017.013-.026.017-.03.034-.06.052-.09.021-.039.047-.082.069-.12.013-.021.026-.043.039-.06.004-.009.013-.021.017-.03.004-.009.013-.021.017-.03.026-.039.052-.082.077-.12s.052-.077.077-.116c.013-.021.026-.039.039-.056.021-.03.043-.056.06-.086.021-.03.043-.056.064-.086.013-.017.03-.039.043-.056.03-.039.06-.073.09-.112.013-.017.03-.034.043-.056.047-.056.09-.107.138-.159.052-.06.107-.116.163-.176.039-.039.073-.077.112-.112.039-.039.077-.073.116-.112.021-.017.039-.034.06-.056.021-.017.039-.034.06-.052.021-.017.043-.039.064-.056.013-.013.026-.021.039-.03.013-.013.03-.026.043-.039.009-.004.013-.013.021-.017.009-.009.017-.013.026-.021.013-.013.03-.026.047-.034.017-.013.03-.026.047-.034.03-.026.064-.052.099-.073.017-.013.039-.026.056-.043.026-.021.056-.039.082-.056.017-.013.034-.026.056-.039.021-.017.043-.03.069-.047.06-.039.116-.077.176-.112.017-.009.03-.017.047-.03.034-.021.069-.039.099-.06.017-.009.034-.021.052-.03.021-.013.043-.026.069-.039.021-.013.047-.026.069-.039.009-.004.017-.009.03-.013.026-.013.056-.03.086-.043.017-.009.039-.017.056-.026.026-.013.052-.026.077-.039.013-.004.026-.013.039-.017.125-.056.249-.112.378-.159.021-.009.043-.017.064-.026.017-.004.034-.013.052-.017.021-.009.047-.017.069-.026.03-.009.056-.021.086-.03.017-.004.039-.013.056-.017.021-.009.039-.013.06-.017h.004c.009,0,.013,0,.021-.004.009,0,.021-.004.03-.009.009,0,.021-.004.03-.009h.013c.039-.013.073-.021.112-.03.013,0,.03-.009.043-.013.004,0,.013,0,.017-.004.017-.004.034-.009.056-.013.017,0,.034-.009.052-.013.013,0,.026-.004.039-.009h.009c.039-.009.082-.017.12-.026.021,0,.039-.009.06-.013.021,0,.039-.009.06-.013h.013c.017,0,.034-.004.056-.009h.009c.021,0,.043-.009.064-.009s.043-.009.06-.009c.03-.004.06-.009.09-.013.03,0,.06-.009.09-.013.013,0,.026,0,.043-.004.017,0,.03,0,.047-.004h.013c.069-.009.142-.013.211-.017h.391c3.327,0,6.026,2.699,6.026,6.026l-.069.021Z" fill="#db7469"/>
  <path d="M38.673,30.166h-2.669c-.636,0-1.148.516-1.148,1.148v.554c0,.632.512,1.148,1.148,1.148h2.317c.632,0,1.143-.516,1.143-1.148v-.911c0-.438-.352-.791-.787-.791h-.004ZM38.539,31.868c0,.12-.099.219-.219.219h-2.317c-.125,0-.224-.099-.224-.219v-.554c0-.12.103-.224.224-.224h2.536v.778ZM23.327,30.166h-2.669c-.438,0-.787.357-.787.791v.911c0,.632.512,1.148,1.143,1.148h2.317c.636,0,1.148-.516,1.148-1.148v-.554c0-.632-.512-1.148-1.148-1.148h-.004ZM23.551,31.868c0,.12-.099.219-.224.219h-2.317c-.12,0-.219-.099-.219-.219v-.778h2.536c.12,0,.224.103.224.224v.554ZM37.404,26.972l-.275-1.075-.228-.894-.133-.516c-.133-.529-.374-.718-.916-.718h-4.999c-.254,0-.46.206-.46.46,0,.021,0,.039.004.06.021.181.146.322.305.378.052.017.099.026.15.026h5.012s.034.146.099.374c.06.241.146.572.232.924.095.365.193.757.284,1.1.112.443.202.795.232.911.309-.026.619-.069.92-.125l-.228-.894v-.013ZM23.327,30.166h-2.669c-.438,0-.787.357-.787.791v.911c0,.632.512,1.148,1.143,1.148h2.317c.636,0,1.148-.516,1.148-1.148v-.554c0-.632-.512-1.148-1.148-1.148h-.004ZM23.551,31.868c0,.12-.099.219-.224.219h-2.317c-.12,0-.219-.099-.219-.219v-.778h2.536c.12,0,.224.103.224.224v.554ZM38.673,30.166h-2.669c-.636,0-1.148.516-1.148,1.148v.554c0,.632.512,1.148,1.148,1.148h2.317c.632,0,1.143-.516,1.143-1.148v-.911c0-.438-.352-.791-.787-.791h-.004ZM38.539,31.868c0,.12-.099.219-.219.219h-2.317c-.125,0-.224-.099-.224-.219v-.554c0-.12.103-.224.224-.224h2.536v.778ZM38.673,30.166h-2.669c-.636,0-1.148.516-1.148,1.148v.554c0,.632.512,1.148,1.148,1.148h2.317c.632,0,1.143-.516,1.143-1.148v-.911c0-.438-.352-.791-.787-.791h-.004ZM38.539,31.868c0,.12-.099.219-.219.219h-2.317c-.125,0-.224-.099-.224-.219v-.554c0-.12.103-.224.224-.224h2.536v.778ZM23.327,30.166h-2.669c-.438,0-.787.357-.787.791v.911c0,.632.512,1.148,1.143,1.148h2.317c.636,0,1.148-.516,1.148-1.148v-.554c0-.632-.512-1.148-1.148-1.148h-.004ZM23.551,31.868c0,.12-.099.219-.224.219h-2.317c-.12,0-.219-.099-.219-.219v-.778h2.536c.12,0,.224.103.224.224v.554ZM23.327,30.166h-2.669c-.438,0-.787.357-.787.791v.911c0,.632.512,1.148,1.143,1.148h2.317c.636,0,1.148-.516,1.148-1.148v-.554c0-.632-.512-1.148-1.148-1.148h-.004ZM23.551,31.868c0,.12-.099.219-.224.219h-2.317c-.12,0-.219-.099-.219-.219v-.778h2.536c.12,0,.224.103.224.224v.554ZM38.673,30.166h-2.669c-.636,0-1.148.516-1.148,1.148v.554c0,.632.512,1.148,1.148,1.148h2.317c.632,0,1.143-.516,1.143-1.148v-.911c0-.438-.352-.791-.787-.791h-.004ZM38.539,31.868c0,.12-.099.219-.219.219h-2.317c-.125,0-.224-.099-.224-.219v-.554c0-.12.103-.224.224-.224h2.536v.778ZM38.673,30.166h-2.669c-.636,0-1.148.516-1.148,1.148v.554c0,.632.512,1.148,1.148,1.148h2.317c.632,0,1.143-.516,1.143-1.148v-.911c0-.438-.352-.791-.787-.791h-.004ZM38.539,31.868c0,.12-.099.219-.219.219h-2.317c-.125,0-.224-.099-.224-.219v-.554c0-.12.103-.224.224-.224h2.536v.778ZM23.327,30.166h-2.669c-.438,0-.787.357-.787.791v.911c0,.632.512,1.148,1.143,1.148h2.317c.636,0,1.148-.516,1.148-1.148v-.554c0-.632-.512-1.148-1.148-1.148h-.004ZM23.551,31.868c0,.12-.099.219-.224.219h-2.317c-.12,0-.219-.099-.219-.219v-.778h2.536c.12,0,.224.103.224.224v.554ZM41.393,33.94v-3.103c0-.726-.279-1.388-.735-1.883h.4c.847,0,1.539-.688,1.539-1.539,0-.701-.477-1.298-1.126-1.479-.009-.004-.017-.004-.03-.009l-1.393-.043h-.06l-1.122-.004-.129-.512v-.017l-.232-.903v-.013l-.099-.37c-.309-1.216-1.148-1.913-2.36-1.982h-12.749c-1.212.069-2.046.765-2.36,1.982l-.464,1.81h-2.188c-.847,0-1.535.688-1.535,1.535s.688,1.535,1.535,1.535h.383c-.456.499-.735,1.165-.735,1.891v3.103c-.477.073-.842.481-.842.976v.963c0,.469.327.86.765.963v1.865c0,.58.473,1.053,1.057,1.053h3.284c.58,0,1.057-.473,1.057-1.053v-1.835h5.167c.254,0,.46-.206.46-.464s-.206-.46-.46-.46h-10.342c-.03,0-.064-.03-.064-.069v-.963c0-.034.03-.064.064-.064h23.168c.03,0,.064.026.064.064v.963c0,.034-.03.069-.064.069h-10.505c-.254,0-.46.202-.46.46s.206.464.46.464h5.326v1.835c0,.58.473,1.053,1.057,1.053h3.284c.585,0,1.057-.473,1.057-1.053v-1.865c.438-.103.765-.494.765-.963v-.963c0-.494-.37-.907-.842-.976h.004ZM18.784,36.871h3.55v1.835c0,.073-.06.129-.129.129h-3.284c-.073,0-.133-.06-.133-.129v-1.835h-.004ZM41.062,26.8c.34,0,.61.275.61.61s-.275.619-.61.619h-1.633l-.172-.666-.146-.563h1.951ZM21.836,24.294c.224-.868.769-1.294,1.668-1.294h12.349c.894,0,1.44.421,1.663,1.294l.133.524.228.894.275,1.075.232.894c-.249.073-.494.133-.752.185l-.228-.894-.275-1.075-.228-.894-.133-.516c-.133-.529-.374-.718-.916-.718h-4.999c-.254,0-.46.206-.46.46,0,.021,0,.039.004.06.021.181.146.322.305.378.052.017.099.026.15.026h5.012s.034.146.099.374c.06.241.146.572.232.924.095.365.193.757.284,1.1.112.443.202.795.232.911.004.021.009.034.009.034h-14.099s.855-3.331.86-3.34h5.046c.254,0,.46-.206.46-.464s-.206-.46-.46-.46h-5.029c-.546,0-.782.185-.92.718l-.911,3.55h-.795l.959-3.74.004-.009ZM18.29,28.021c-.34,0-.61-.275-.61-.61s.275-.61.61-.61h1.951l-.314,1.225h-1.633l-.004-.004ZM28.077,33.931h-.628l-.894-2.149c-.056-.125-.06-.34.039-.486.09-.133.271-.206.533-.206h.95v2.841ZM30.325,33.931h-1.32v-2.841h1.32v2.841ZM32.775,31.782l-.898,2.149h-.632v-2.841h.954c.262,0,.443.073.533.206.099.15.095.361.039.486h.004ZM40.465,33.931h-7.587l.748-1.792c.138-.331.189-.881-.125-1.354-.262-.395-.726-.619-1.298-.619h-5.076c-.572,0-1.036.219-1.298.619-.314.473-.267,1.027-.125,1.354l.748,1.792h-7.591v-3.095c0-.907.649-1.668,1.509-1.848.125-.026.258-.034.383-.034h17.825c1.045,0,1.891.842,1.891,1.883v3.095h-.004ZM40.547,38.707c0,.073-.064.129-.133.129h-3.284c-.073,0-.133-.06-.133-.129v-1.835h3.555v1.835h-.004ZM38.673,30.166h-2.669c-.636,0-1.148.516-1.148,1.148v.554c0,.632.512,1.148,1.148,1.148h2.317c.632,0,1.143-.516,1.143-1.148v-.911c0-.438-.352-.791-.787-.791h-.004ZM38.539,31.868c0,.12-.099.219-.219.219h-2.317c-.125,0-.224-.099-.224-.219v-.554c0-.12.103-.224.224-.224h2.536v.778ZM23.327,30.166h-2.669c-.438,0-.787.357-.787.791v.911c0,.632.512,1.148,1.143,1.148h2.317c.636,0,1.148-.516,1.148-1.148v-.554c0-.632-.512-1.148-1.148-1.148h-.004ZM23.551,31.868c0,.12-.099.219-.224.219h-2.317c-.12,0-.219-.099-.219-.219v-.778h2.536c.12,0,.224.103.224.224v.554ZM23.327,30.166h-2.669c-.438,0-.787.357-.787.791v.911c0,.632.512,1.148,1.143,1.148h2.317c.636,0,1.148-.516,1.148-1.148v-.554c0-.632-.512-1.148-1.148-1.148h-.004ZM23.551,31.868c0,.12-.099.219-.224.219h-2.317c-.12,0-.219-.099-.219-.219v-.778h2.536c.12,0,.224.103.224.224v.554ZM38.673,30.166h-2.669c-.636,0-1.148.516-1.148,1.148v.554c0,.632.512,1.148,1.148,1.148h2.317c.632,0,1.143-.516,1.143-1.148v-.911c0-.438-.352-.791-.787-.791h-.004ZM38.539,31.868c0,.12-.099.219-.219.219h-2.317c-.125,0-.224-.099-.224-.219v-.554c0-.12.103-.224.224-.224h2.536v.778ZM38.673,30.166h-2.669c-.636,0-1.148.516-1.148,1.148v.554c0,.632.512,1.148,1.148,1.148h2.317c.632,0,1.143-.516,1.143-1.148v-.911c0-.438-.352-.791-.787-.791h-.004ZM38.539,31.868c0,.12-.099.219-.219.219h-2.317c-.125,0-.224-.099-.224-.219v-.554c0-.12.103-.224.224-.224h2.536v.778ZM23.327,30.166h-2.669c-.438,0-.787.357-.787.791v.911c0,.632.512,1.148,1.143,1.148h2.317c.636,0,1.148-.516,1.148-1.148v-.554c0-.632-.512-1.148-1.148-1.148h-.004ZM23.551,31.868c0,.12-.099.219-.224.219h-2.317c-.12,0-.219-.099-.219-.219v-.778h2.536c.12,0,.224.103.224.224v.554ZM23.327,30.166h-2.669c-.438,0-.787.357-.787.791v.911c0,.632.512,1.148,1.143,1.148h2.317c.636,0,1.148-.516,1.148-1.148v-.554c0-.632-.512-1.148-1.148-1.148h-.004ZM23.551,31.868c0,.12-.099.219-.224.219h-2.317c-.12,0-.219-.099-.219-.219v-.778h2.536c.12,0,.224.103.224.224v.554ZM38.673,30.166h-2.669c-.636,0-1.148.516-1.148,1.148v.554c0,.632.512,1.148,1.148,1.148h2.317c.632,0,1.143-.516,1.143-1.148v-.911c0-.438-.352-.791-.787-.791h-.004ZM38.539,31.868c0,.12-.099.219-.219.219h-2.317c-.125,0-.224-.099-.224-.219v-.554c0-.12.103-.224.224-.224h2.536v.778ZM38.673,30.166h-2.669c-.636,0-1.148.516-1.148,1.148v.554c0,.632.512,1.148,1.148,1.148h2.317c.632,0,1.143-.516,1.143-1.148v-.911c0-.438-.352-.791-.787-.791h-.004ZM38.539,31.868c0,.12-.099.219-.219.219h-2.317c-.125,0-.224-.099-.224-.219v-.554c0-.12.103-.224.224-.224h2.536v.778ZM23.327,30.166h-2.669c-.438,0-.787.357-.787.791v.911c0,.632.512,1.148,1.143,1.148h2.317c.636,0,1.148-.516,1.148-1.148v-.554c0-.632-.512-1.148-1.148-1.148h-.004ZM23.551,31.868c0,.12-.099.219-.224.219h-2.317c-.12,0-.219-.099-.219-.219v-.778h2.536c.12,0,.224.103.224.224v.554ZM38.673,30.166h-2.669c-.636,0-1.148.516-1.148,1.148v.554c0,.632.512,1.148,1.148,1.148h2.317c.632,0,1.143-.516,1.143-1.148v-.911c0-.438-.352-.791-.787-.791h-.004ZM38.539,31.868c0,.12-.099.219-.219.219h-2.317c-.125,0-.224-.099-.224-.219v-.554c0-.12.103-.224.224-.224h2.536v.778ZM23.327,30.166h-2.669c-.438,0-.787.357-.787.791v.911c0,.632.512,1.148,1.143,1.148h2.317c.636,0,1.148-.516,1.148-1.148v-.554c0-.632-.512-1.148-1.148-1.148h-.004ZM23.551,31.868c0,.12-.099.219-.224.219h-2.317c-.12,0-.219-.099-.219-.219v-.778h2.536c.12,0,.224.103.224.224v.554ZM38.673,30.166h-2.669c-.636,0-1.148.516-1.148,1.148v.554c0,.632.512,1.148,1.148,1.148h2.317c.632,0,1.143-.516,1.143-1.148v-.911c0-.438-.352-.791-.787-.791h-.004ZM38.539,31.868c0,.12-.099.219-.219.219h-2.317c-.125,0-.224-.099-.224-.219v-.554c0-.12.103-.224.224-.224h2.536v.778ZM23.327,30.166h-2.669c-.438,0-.787.357-.787.791v.911c0,.632.512,1.148,1.143,1.148h2.317c.636,0,1.148-.516,1.148-1.148v-.554c0-.632-.512-1.148-1.148-1.148h-.004ZM23.551,31.868c0,.12-.099.219-.224.219h-2.317c-.12,0-.219-.099-.219-.219v-.778h2.536c.12,0,.224.103.224.224v.554ZM37.404,26.972l-.275-1.075-.228-.894-.133-.516c-.133-.529-.374-.718-.916-.718h-4.999c-.254,0-.46.206-.46.46,0,.021,0,.039.004.06.021.181.146.322.305.378.052.017.099.026.15.026h5.012s.034.146.099.374c.06.241.146.572.232.924.095.365.193.757.284,1.1.112.443.202.795.232.911.309-.026.619-.069.92-.125l-.228-.894v-.013ZM31.425,22.076h-3.129l3.134.004s-.004-.004-.004-.004ZM23.327,30.166h-2.669c-.438,0-.787.357-.787.791v.911c0,.632.512,1.148,1.143,1.148h2.317c.636,0,1.148-.516,1.148-1.148v-.554c0-.632-.512-1.148-1.148-1.148h-.004ZM23.551,31.868c0,.12-.099.219-.224.219h-2.317c-.12,0-.219-.099-.219-.219v-.778h2.536c.12,0,.224.103.224.224v.554ZM38.673,30.166h-2.669c-.636,0-1.148.516-1.148,1.148v.554c0,.632.512,1.148,1.148,1.148h2.317c.632,0,1.143-.516,1.143-1.148v-.911c0-.438-.352-.791-.787-.791h-.004ZM38.539,31.868c0,.12-.099.219-.219.219h-2.317c-.125,0-.224-.099-.224-.219v-.554c0-.12.103-.224.224-.224h2.536v.778Z" fill="silver"/>
  <path d="M38.539,31.09v.778c0,.12-.099.219-.219.219h-2.317c-.125,0-.224-.099-.224-.219v-.554c0-.12.103-.224.224-.224h2.536Z" fill="#f6c42d"/>
  <path d="M23.551,31.314v.554c0,.12-.099.219-.224.219h-2.317c-.12,0-.219-.099-.219-.219v-.778h2.536c.12,0,.224.103.224.224Z" fill="#f6c42d"/>
  <path d="M28.077,31.09v2.841h-.628l-.894-2.149c-.056-.125-.06-.34.039-.486.09-.133.271-.206.533-.206h.95Z" fill="#fff"/>
  <path d="M30.325,31.09h-1.32v2.841h1.32v-2.841Z" fill="#fff"/>
  <path d="M32.775,31.782l-.898,2.149h-.632v-2.841h.954c.262,0,.443.073.533.206.099.15.095.361.039.486h.004Z" fill="#fff"/>
  <path d="M10.432,26.727h-2.669c-.438,0-.787.357-.787.791v.911c0,.632.512,1.148,1.143,1.148h2.317c.636,0,1.148-.516,1.148-1.148v-.554c0-.632-.512-1.148-1.148-1.148h-.004ZM10.656,28.429c0,.12-.099.219-.224.219h-2.317c-.12,0-.219-.099-.219-.219v-.778h2.536c.12,0,.224.103.224.224v.554ZM18.53,18.638h-3.129,3.134-.004ZM24.006,21.561l-.138-.52c-.133-.524-.374-.714-.916-.714h-4.999c-.254,0-.46.206-.46.46,0,.021,0,.039.004.06.021.181.146.322.305.378.047.017.099.026.15.026h5.012s.034.146.099.374c.034.129.073.292.116.464.039,0,.077-.004.116-.009h.838l-.133-.52h.004ZM10.432,26.727h-2.669c-.438,0-.787.357-.787.791v.911c0,.632.512,1.148,1.143,1.148h2.317c.636,0,1.148-.516,1.148-1.148v-.554c0-.632-.512-1.148-1.148-1.148h-.004ZM10.656,28.429c0,.12-.099.219-.224.219h-2.317c-.12,0-.219-.099-.219-.219v-.778h2.536c.12,0,.224.103.224.224v.554ZM10.432,26.727h-2.669c-.438,0-.787.357-.787.791v.911c0,.632.512,1.148,1.143,1.148h2.317c.636,0,1.148-.516,1.148-1.148v-.554c0-.632-.512-1.148-1.148-1.148h-.004ZM10.656,28.429c0,.12-.099.219-.224.219h-2.317c-.12,0-.219-.099-.219-.219v-.778h2.536c.12,0,.224.103.224.224v.554ZM10.432,26.727h-2.669c-.438,0-.787.357-.787.791v.911c0,.632.512,1.148,1.143,1.148h2.317c.636,0,1.148-.516,1.148-1.148v-.554c0-.632-.512-1.148-1.148-1.148h-.004ZM10.656,28.429c0,.12-.099.219-.224.219h-2.317c-.12,0-.219-.099-.219-.219v-.778h2.536c.12,0,.224.103.224.224v.554ZM10.432,26.727h-2.669c-.438,0-.787.357-.787.791v.911c0,.632.512,1.148,1.143,1.148h2.317c.636,0,1.148-.516,1.148-1.148v-.554c0-.632-.512-1.148-1.148-1.148h-.004ZM10.656,28.429c0,.12-.099.219-.224.219h-2.317c-.12,0-.219-.099-.219-.219v-.778h2.536c.12,0,.224.103.224.224v.554ZM10.432,26.727h-2.669c-.438,0-.787.357-.787.791v.911c0,.632.512,1.148,1.143,1.148h2.317c.636,0,1.148-.516,1.148-1.148v-.554c0-.632-.512-1.148-1.148-1.148h-.004ZM10.656,28.429c0,.12-.099.219-.224.219h-2.317c-.12,0-.219-.099-.219-.219v-.778h2.536c.12,0,.224.103.224.224v.554ZM10.432,26.727h-2.669c-.438,0-.787.357-.787.791v.911c0,.632.512,1.148,1.143,1.148h2.317c.636,0,1.148-.516,1.148-1.148v-.554c0-.632-.512-1.148-1.148-1.148h-.004ZM10.656,28.429c0,.12-.099.219-.224.219h-2.317c-.12,0-.219-.099-.219-.219v-.778h2.536c.12,0,.224.103.224.224v.554ZM10.432,26.727h-2.669c-.438,0-.787.357-.787.791v.911c0,.632.512,1.148,1.143,1.148h2.317c.636,0,1.148-.516,1.148-1.148v-.554c0-.632-.512-1.148-1.148-1.148h-.004ZM10.656,28.429c0,.12-.099.219-.224.219h-2.317c-.12,0-.219-.099-.219-.219v-.778h2.536c.12,0,.224.103.224.224v.554ZM10.432,26.727h-2.669c-.438,0-.787.357-.787.791v.911c0,.632.512,1.148,1.143,1.148h2.317c.636,0,1.148-.516,1.148-1.148v-.554c0-.632-.512-1.148-1.148-1.148h-.004ZM10.656,28.429c0,.12-.099.219-.224.219h-2.317c-.12,0-.219-.099-.219-.219v-.778h2.536c.12,0,.224.103.224.224v.554ZM24.006,21.561l-.138-.52c-.133-.524-.374-.714-.916-.714h-4.999c-.254,0-.46.206-.46.46,0,.021,0,.039.004.06.021.181.146.322.305.378.047.017.099.026.15.026h5.012s.034.146.099.374c.034.129.073.292.116.464.039,0,.077-.004.116-.009h.838l-.133-.52h.004ZM24.006,21.561l-.138-.52c-.133-.524-.374-.714-.916-.714h-4.999c-.254,0-.46.206-.46.46,0,.021,0,.039.004.06.021.181.146.322.305.378.047.017.099.026.15.026h5.012s.034.146.099.374c.034.129.073.292.116.464.039,0,.077-.004.116-.009h.838l-.133-.52h.004ZM24.006,21.561l-.138-.52c-.133-.524-.374-.714-.916-.714h-4.999c-.254,0-.46.206-.46.46,0,.021,0,.039.004.06.021.181.146.322.305.378.047.017.099.026.15.026h5.012s.034.146.099.374c.034.129.073.292.116.464.039,0,.077-.004.116-.009h.838l-.133-.52h.004ZM24.006,21.561l-.138-.52c-.133-.524-.374-.714-.916-.714h-4.999c-.254,0-.46.206-.46.46,0,.021,0,.039.004.06.021.181.146.322.305.378.047.017.099.026.15.026h5.012s.034.146.099.374c.034.129.073.292.116.464.039,0,.077-.004.116-.009h.838l-.133-.52h.004ZM25.846,21.926v-.017l-.232-.903v-.013l-.099-.37c-.009-.039-.021-.077-.03-.112-.021-.073-.047-.146-.069-.215-.013-.034-.026-.069-.039-.103-.043-.103-.086-.198-.138-.292-.417-.769-1.135-1.204-2.08-1.259h-12.749c-.683.039-1.242.275-1.659.692-.047.047-.09.095-.133.146-.043.052-.086.103-.125.159-.039.056-.077.112-.112.172-.142.236-.254.507-.331.812l-.464,1.81h-2.188c-.847,0-1.535.688-1.535,1.535s.688,1.535,1.535,1.535h.383c-.456.499-.735,1.165-.735,1.891v3.103c-.06.009-.116.021-.172.043-.056.021-.107.043-.159.069-.052.026-.099.06-.142.095-.021.017-.043.039-.064.056-.021.021-.043.043-.06.064-.039.043-.073.09-.103.138-.047.077-.086.163-.107.258-.013.047-.021.099-.026.15-.004.034-.004.069-.004.103v.963c0,.236.082.451.219.619.017.021.034.043.056.06.133.138.301.236.49.284v1.865c0,.58.473,1.053,1.057,1.053h3.284c.292,0,.554-.12.748-.309.047-.047.09-.099.129-.155.017-.03.039-.056.052-.086.034-.06.06-.125.082-.189.009-.034.017-.064.026-.099.013-.069.021-.142.021-.211v-1.835h5.188c.241-.013.434-.215.434-.464s-.206-.46-.46-.46H5.192c-.03,0-.064-.03-.064-.069v-.963c0-.039.03-.064.064-.064h12.753v-.58c0-.537.155-1.04.417-1.47v-.421h-.064c-.318,0-.615-.099-.86-.262v1.81h-1.32v-2.841h.662c-.013-.077-.017-.159-.017-.241,0-.245.056-.477.159-.683h-2.682c-.572,0-1.036.219-1.298.615-.314.473-.266,1.027-.125,1.354l.748,1.792h-7.591v-3.095c0-.907.649-1.668,1.509-1.848.125-.026.258-.034.383-.034h12.71l.236-.924h-11.077s.855-3.331.86-3.34h5.046c.254,0,.46-.206.46-.464s-.206-.46-.46-.46h-5.029c-.546,0-.782.185-.92.714l-.911,3.55h-.795l.959-3.74c.228-.868.769-1.294,1.668-1.294h12.349c.898,0,1.44.426,1.663,1.294l.133.524.181.705h.954l-.039-.155-.009.009ZM5.889,33.433h3.55v1.835c0,.073-.06.129-.129.129h-3.284c-.073,0-.138-.06-.138-.129v-1.835ZM13.699,27.858c.09-.138.271-.206.533-.206h.95v2.841h-.623l-.898-2.149c-.056-.125-.06-.34.039-.486ZM7.028,24.582h-1.633c-.34,0-.615-.275-.615-.615s.275-.61.615-.61h1.951l-.314,1.225h-.004ZM24.006,21.561l-.138-.52c-.133-.524-.374-.714-.916-.714h-4.999c-.254,0-.46.206-.46.46,0,.021,0,.039.004.06.021.181.146.322.305.378.047.017.099.026.15.026h5.012s.034.146.099.374c.034.129.073.292.116.464.039,0,.077-.004.116-.009h.838l-.133-.52h.004ZM24.006,21.561l-.138-.52c-.133-.524-.374-.714-.916-.714h-4.999c-.254,0-.46.206-.46.46,0,.021,0,.039.004.06.021.181.146.322.305.378.047.017.099.026.15.026h5.012s.034.146.099.374c.034.129.073.292.116.464.039,0,.077-.004.116-.009h.838l-.133-.52h.004ZM24.006,21.561l-.138-.52c-.133-.524-.374-.714-.916-.714h-4.999c-.254,0-.46.206-.46.46,0,.021,0,.039.004.06.021.181.146.322.305.378.047.017.099.026.15.026h5.012s.034.146.099.374c.034.129.073.292.116.464.039,0,.077-.004.116-.009h.838l-.133-.52h.004ZM24.006,21.561l-.138-.52c-.133-.524-.374-.714-.916-.714h-4.999c-.254,0-.46.206-.46.46,0,.021,0,.039.004.06.021.181.146.322.305.378.047.017.099.026.15.026h5.012s.034.146.099.374c.034.129.073.292.116.464.039,0,.077-.004.116-.009h.838l-.133-.52h.004ZM17.847,32.509c-.254,0-.46.202-.46.46s.193.451.434.464h.112v-.924h-.09.004ZM10.432,26.727h-2.669c-.438,0-.787.357-.787.791v.911c0,.632.512,1.148,1.143,1.148h2.317c.636,0,1.148-.516,1.148-1.148v-.554c0-.632-.512-1.148-1.148-1.148h-.004ZM10.656,28.429c0,.12-.099.219-.224.219h-2.317c-.12,0-.219-.099-.219-.219v-.778h2.536c.12,0,.224.103.224.224v.554ZM10.432,26.727h-2.669c-.438,0-.787.357-.787.791v.911c0,.632.512,1.148,1.143,1.148h2.317c.636,0,1.148-.516,1.148-1.148v-.554c0-.632-.512-1.148-1.148-1.148h-.004ZM10.656,28.429c0,.12-.099.219-.224.219h-2.317c-.12,0-.219-.099-.219-.219v-.778h2.536c.12,0,.224.103.224.224v.554ZM10.432,26.727h-2.669c-.438,0-.787.357-.787.791v.911c0,.632.512,1.148,1.143,1.148h2.317c.636,0,1.148-.516,1.148-1.148v-.554c0-.632-.512-1.148-1.148-1.148h-.004ZM10.656,28.429c0,.12-.099.219-.224.219h-2.317c-.12,0-.219-.099-.219-.219v-.778h2.536c.12,0,.224.103.224.224v.554ZM10.432,26.727h-2.669c-.438,0-.787.357-.787.791v.911c0,.632.512,1.148,1.143,1.148h2.317c.636,0,1.148-.516,1.148-1.148v-.554c0-.632-.512-1.148-1.148-1.148h-.004ZM10.656,28.429c0,.12-.099.219-.224.219h-2.317c-.12,0-.219-.099-.219-.219v-.778h2.536c.12,0,.224.103.224.224v.554ZM10.432,26.727h-2.669c-.438,0-.787.357-.787.791v.911c0,.632.512,1.148,1.143,1.148h2.317c.636,0,1.148-.516,1.148-1.148v-.554c0-.632-.512-1.148-1.148-1.148h-.004ZM10.656,28.429c0,.12-.099.219-.224.219h-2.317c-.12,0-.219-.099-.219-.219v-.778h2.536c.12,0,.224.103.224.224v.554ZM24.006,21.561l-.138-.52c-.133-.524-.374-.714-.916-.714h-4.999c-.254,0-.46.206-.46.46,0,.021,0,.039.004.06.021.181.146.322.305.378.047.017.099.026.15.026h5.012s.034.146.099.374c.034.129.073.292.116.464.039,0,.077-.004.116-.009h.838l-.133-.52h.004ZM10.432,26.727h-2.669c-.438,0-.787.357-.787.791v.911c0,.632.512,1.148,1.143,1.148h2.317c.636,0,1.148-.516,1.148-1.148v-.554c0-.632-.512-1.148-1.148-1.148h-.004ZM10.656,28.429c0,.12-.099.219-.224.219h-2.317c-.12,0-.219-.099-.219-.219v-.778h2.536c.12,0,.224.103.224.224v.554Z" fill="silver"/>
  <path d="M10.656,27.875v.554c0,.12-.099.219-.224.219h-2.317c-.12,0-.219-.099-.219-.219v-.778h2.536c.12,0,.224.103.224.224Z" fill="#f6c42d"/>
  <path d="M15.182,27.651v2.841h-.628l-.894-2.149c-.056-.125-.06-.34.039-.486.09-.133.271-.206.533-.206h.95Z" fill="#fff"/>
  <path d="M17.43,28.683v1.81h-1.32v-2.841h.662c.069.43.314.799.658,1.032Z" fill="#fff"/>
  <path d="M18.672,28.945c-.12.129-.224.271-.318.421v-.421h.318Z" fill="#fff"/>
</svg>