<?xml version="1.0" encoding="UTF-8"?>
<svg id="Layer_1" data-name="Layer 1" xmlns="http://www.w3.org/2000/svg" viewBox="0 0 48 48">
  <g>
    <path d="M25.107,16.108l1.027-.872c.42-.352.644-.868.626-1.411-.018-.548-.283-1.046-.721-1.365l-1.48-1.087c-.42-.306-.964-.333-1.402-.1l-.274-.817c-.023-.069-.069-.128-.132-.169l-1.402-.904c-.082-.644-.63-1.142-1.297-1.142-.722,0-1.311.584-1.311,1.306s.589,1.311,1.311,1.311c.123,0,.237-.018.352-.046l.859.603.137.406c-.548-.237-1.128-.365-1.722-.379-.178-.004-.329.137-.333.315-.005.178.137.324.315.329.516.014,1.014.128,1.489.333l.977.42c.119.055.26.027.352-.064l.831-.817c.233-.233.603-.256.868-.064l.977.717-1.091.274c-.53.137-.863.594-.831,1.137.027.543.411.959.954,1.037l1,.137-2.493,2.11c-.374.32-.685.699-.922,1.119l-.48-.795c-.785-1.297-2.005-2.274-3.438-2.758l-1.023-.338c-.169-.059-.352.032-.411.201-.055.169.037.352.205.411l1.018.342c1.292.429,2.393,1.311,3.096,2.475l.712,1.183c-.142.416-.215.854-.215,1.302,0,.338-.269.607-.607.607h-.813l.667-.667c.128-.128.128-.329,0-.457-.123-.128-.329-.128-.457,0l-1.123,1.123h-.827l.667-.667c.128-.128.128-.329,0-.457s-.329-.128-.457,0l-1.114,1.11s-.004.009-.009.014h-1.374c-.11,0-.151-.078-.164-.11-.009-.037-.032-.119.05-.192l1.21-1.087c.178-.155.274-.379.274-.612v-1.448c0-.297-.16-.571-.416-.717l-6.562-3.694c.772-.502,1.763-.594,2.617-.215l2.128.941c.53.233,1.151.087,1.516-.361.484-.594,1.128-1.037,1.859-1.274.173-.059.265-.242.21-.411-.055-.169-.237-.26-.411-.206-.639.21-1.224.557-1.717,1.009-.26-.402-.644-.712-1.1-.886l-3.795-1.411c-.114-.041-.237-.037-.352.014-.11.05-.196.142-.237.256l-.05.128c-.174.47-.164.973.018,1.425-.502.123-.977.361-1.379.703-.105.087-.155.219-.142.356.009.132.087.251.205.32l3.626,2.041-.516.909c-.548-.279-1.164-.425-1.785-.425-.397,0-.79.059-1.169.173-.169.05-.265.233-.215.402.055.174.233.269.406.215.315-.096.644-.146.977-.146.507,0,1.014.119,1.466.342l-.457.804c-.315-.146-.662-.224-1.009-.224-1.32,0-2.393,1.064-2.393,2.375s1.073,2.379,2.393,2.379c.84,0,1.621-.448,2.055-1.164l.986.105c-.525,1.192-1.717,1.977-3.041,1.977-1.831,0-3.32-1.48-3.32-3.297,0-1.041.502-2.028,1.347-2.649.142-.105.173-.31.068-.452-.11-.146-.31-.173-.452-.068-1.009.74-1.607,1.927-1.607,3.169,0,2.174,1.776,3.941,3.964,3.941,1.648,0,3.128-1.023,3.708-2.553l.648.068h.027c.142.123.329.196.53.196h4.84c.256,0,.493-.078.69-.206.251.63.667,1.196,1.206,1.626.699.562,1.58.868,2.484.868,2.183,0,3.964-1.767,3.964-3.941,0-2.142-1.726-3.886-3.863-3.941ZM20.052,10.213c-.365,0-.662-.301-.662-.667s.297-.662.662-.662.662.297.662.662-.297.667-.662.667ZM22.189,12.149l-.347-1.041c-.023-.064-.064-.123-.123-.16l-.712-.507c.096-.105.178-.224.237-.356l1.064.685.32.95-.438.429ZM24.272,14.418c-.278-.041-.388-.251-.397-.434-.009-.183.078-.406.347-.475l1.585-.402c.187.201.301.457.31.74.009.292-.091.571-.283.786l-1.562-.215ZM11.435,11.053l3.617,1.347c.379.142.685.416.868.772-.183.206-.48.269-.731.16l-2.133-.945c-.484-.215-1.009-.306-1.525-.283-.178-.324-.21-.699-.096-1.05ZM16.426,17.455c.05.027.087.087.087.151v.443c-.082,0-.16.004-.237.018-.014,0-.023.005-.032.005l-1.566.393.859-1.512.89.502ZM13.741,15.944l1.233.694-1.164,2.046-1.9.475,1.831-3.215ZM10.873,21.78c-.964,0-1.744-.776-1.744-1.731s.781-1.731,1.744-1.731c.237,0,.47.05.69.142l-.521.918-.274.068c-.146.037-.246.164-.246.31v.964c0,.164.128.301.292.32l1.375.146c-.329.374-.808.594-1.315.594ZM15.239,20.268c-.164.151-.26.352-.269.562l-3.799-.402v-.416l5.215-1.311c.041-.005.082-.009.128-.009v.361c0,.05-.023.096-.059.132l-1.215,1.082ZM24.326,16.77l1.123,3.347c.023.073.018.146-.014.21-.032.069-.091.119-.16.142-.146.046-.301-.032-.347-.173l-1.055-3.142.452-.384ZM24.317,20.501c.128.384.489.626.872.626.096,0,.192-.014.288-.046.233-.078.425-.242.534-.461.114-.224.128-.47.05-.708l-.507-1.502c.699.228,1.192.886,1.192,1.639,0,.954-.781,1.731-1.74,1.731s-1.744-.776-1.744-1.731c0-.461.178-.886.498-1.21l.557,1.662ZM25.007,23.346c-.767,0-1.484-.251-2.082-.726-.548-.443-.945-1.05-1.128-1.722.055-.141.087-.292.087-.452,0-.416.073-.822.215-1.206.005-.009.009-.023.014-.032.205-.539.548-1.027,1-1.411l.228-.196.196.575c-.58.448-.922,1.142-.922,1.872,0,1.311,1.073,2.379,2.393,2.379s2.388-1.068,2.388-2.379c0-1.192-.895-2.201-2.078-2.356l-.315-.941h.005c1.827,0,3.315,1.48,3.315,3.297s-1.489,3.297-3.315,3.297Z" fill="silver"/>
    <path d="M20.714,9.546c0,.365-.297.667-.662.667s-.662-.301-.662-.667.297-.662.662-.662.662.297.662.662Z" fill="#ec6d64"/>
    <path d="M16.515,18.695v.361c0,.05-.023.096-.059.132l-1.215,1.082c-.165.151-.26.352-.27.562l-3.799-.402v-.416l5.215-1.311c.041-.005.082-.009.128-.009Z" fill="#3ad690"/>
    <path d="M26.119,13.85c.009.292-.091.571-.283.785l-1.562-.215c-.278-.041-.388-.251-.397-.434s.078-.406.347-.475l1.584-.402c.187.201.301.457.311.74Z" fill="#f6c42d"/>
  </g>
  <g>
    <path d="M32.443,35.609c.161,0,.312-.1.369-.261l.552-1.554c.072-.204-.034-.428-.238-.501-.204-.072-.428.034-.501.238l-.552,1.554c-.072.204.034.428.238.501.043.015.088.023.131.023h0Z" fill="silver"/>
    <path d="M31.366,35.527c.161,0,.312-.1.369-.261l.552-1.554c.072-.204-.034-.428-.238-.501-.204-.072-.428.034-.501.238l-.552,1.554c-.072.204.034.428.238.501.043.015.088.023.131.023h0Z" fill="silver"/>
    <path d="M30.289,35.445c.161,0,.312-.1.369-.261l.552-1.554c.072-.204-.034-.428-.238-.501-.204-.072-.428.034-.501.238l-.552,1.554c-.072.204.034.428.238.501.043.015.088.023.131.023h0Z" fill="silver"/>
    <path d="M32.526,27.552c.155,0,.302-.093.364-.246l.105-.261c.081-.201-.017-.429-.218-.51-.201-.081-.429.017-.51.218l-.105.261c-.081.201.017.429.218.51.048.019.097.028.146.028h0Z" fill="silver"/>
    <path d="M31.644,27.198c.155,0,.302-.093.364-.246l.105-.261c.081-.201-.017-.429-.218-.51-.201-.081-.429.017-.51.218l-.105.261c-.081.201.017.429.218.51.048.019.097.028.146.028h0Z" fill="silver"/>
    <g>
      <path d="M30.762,26.844c.155,0,.302-.093.364-.246l.105-.261c.081-.201-.017-.429-.218-.51-.201-.081-.429.017-.51.218l-.105.261c-.081.201.017.429.218.51.048.019.097.028.146.028h0Z" fill="silver"/>
      <path d="M39.92,32.641c.195-.029.371-.136.484-.301.134-.194.163-.441.078-.662-.262-.686-.994-1.255-1.988-1.578.301-.177.618-.341.95-.492.07-.031.129-.084.17-.149l.663-1.062c.213-.341.219-.768.015-1.114-.293-.496-.935-1.448-1.955-2.266-1.247-1.001-2.671-1.509-4.229-1.509-.169,0-.319.108-.372.268-.054.159,0,.336.136.437l1.302.977c-.465.148-.861.353-1.186.615-.22-.203-.471-.372-.744-.5-.373-.175-.759-.34-1.15-.49-.202-.078-.429.023-.507.224-.077.203.023.43.225.507.373.144.743.301,1.098.469.441.206.803.56,1.019.992.062.122.11.249.147.379l-.757.649c-.178.153-.286.357-.321.572l-1.666.469c-.013,0-.025-.002-.038-.002h-1.896c-.016-.017-.032-.033-.051-.047l-3.095-2.379c.004-.007.007-.015.011-.022l.058-.136c.028-.066.058-.128.089-.188.598-1.158,1.901-1.754,3.169-1.45.261.063.526.133.789.208.207.061.425-.06.485-.267.06-.208-.06-.426-.268-.485-.274-.079-.55-.153-.823-.218-1.511-.363-3.061.276-3.883,1.565-.3-.469-.782-.799-1.351-.905l-1.953-.365c-.414-.077-.836-.024-1.211.142v-.726c0-.197-.146-.362-.34-.388l-4.864-.654c-.17-.023-.335.068-.407.222-.072.156-.036.34.09.455l5.137,4.718c.075.068.17.103.265.103.106,0,.211-.042.289-.127.146-.159.136-.407-.023-.554l-4.22-3.873,3.289.441v1.472c0,.191.138.353.326.385l.937.163,1.969,2.683h-.918l-.228-.209c-.159-.147-.408-.136-.554.023-.147.159-.136.407.023.554l.796.731.073,1.719c.005.104.05.202.126.272l.237.217c-.023.012-.047.023-.07.034-.587-.614-1.691-1.423-3.403-1.377-.259.007-.492.156-.608.388-.032.066-.054.135-.065.205-.225-.036-.453-.056-.684-.056-2.319,0-4.205,1.886-4.205,4.205s1.886,4.205,4.205,4.205c2.132,0,3.906-1.588,4.17-3.669l2.24-.244c-.278.351-.636.675-1.076.97-.109.072-.173.195-.173.326v.849c0,.216.175.392.391.392h4.942c.006.023.014.045.024.068.066.135.203.22.352.22h4.416c.065,0,.128-.017.184-.047.775.728,1.792,1.135,2.874,1.135,2.319,0,4.205-1.886,4.205-4.205,0-1.11-.425-2.143-1.17-2.914ZM39.71,31.865h-3.07l-.073-.24c.319-.339.669-.653,1.05-.94,1.021.185,1.822.638,2.094,1.18ZM37.717,35.355l-.196-.635c.252.192.413.495.413.836,0,.578-.471,1.049-1.049,1.049s-1.049-.471-1.049-1.049c0-.109.018-.215.049-.317l.193.622c.03.1.099.182.191.231.057.03.12.045.183.045.039,0,.078-.005.115-.017l.891-.275c.206-.065.322-.284.258-.49ZM36.711,35.255l-.854-2.766c.036-.05.072-.1.11-.149l.886,2.87-.142.044ZM39.012,28.942c-.147.068-.291.141-.432.214h-.49l.311-.45h.759l-.148.236ZM35.972,25.801c.247.235.39.565.39.909,0,.265-.085.516-.231.723l-.638-.744c-.14-.164-.387-.184-.552-.043l-.225.193c-.025-.062-.054-.122-.084-.183-.042-.085-.09-.168-.141-.249.366-.292.862-.495,1.48-.607ZM33.831,28.63l1.323-1.134.222.259-1.323,1.134c-.047.04-.098.043-.124.04-.026-.002-.076-.012-.116-.059-.062-.071-.053-.179.019-.241ZM31.449,29.858l1.755-.494c.005.006.009.012.014.017.188.22.456.334.725.334.22,0,.441-.075.621-.23l.539-.463v.685c0,.216.176.392.392.392s.391-.176.391-.392v-1.111c.752-.313,1.259-1.057,1.259-1.885,0-.638-.304-1.247-.815-1.631l-.833-.626c2.296.551,3.613,2.369,4.12,3.228.044.074.051.162.023.243h-1.446c-.129,0-.249.063-.323.168l-.852,1.234c-.083.12-.093.276-.024.405.063.121.185.199.319.208-1.146.833-2.063,1.883-2.721,3.119l-3.677-2.825c.125-.176.307-.311.531-.374ZM21.541,25.317c.265-.159.582-.219.891-.161l1.953.365c.291.055.544.203.729.416l-3.573-.619ZM22.958,26.358l2.108.366,3.058,2.35h-.042c-.104,0-.204.041-.277.115l-.776.775-1.265-1.028c-.07-.057-.158-.088-.248-.088h-.732l-1.828-2.49ZM25.378,29.631l1.431,1.164c.072.059.16.087.248.087.101,0,.201-.038.277-.114l.911-.911h1.977c-.258.408-.349.923-.214,1.438.045.173.064.445-.298.807-.463.463-1.083.728-1.844.788-.145.012-.265.1-.324.223l-3.792-3.482h1.629ZM27.598,34.698l.315.367-.204.009-3.927-3.604-.032-.773,3.754,3.447v.299c0,.094.033.184.094.255ZM22.549,32.551c-.434.209-.882.424-1.322.634l-1.149-1.591c1.168.013,1.975.507,2.47.957ZM18.54,38.976c-1.886,0-3.421-1.535-3.421-3.421s1.534-3.421,3.421-3.421c.373,0,.739.061,1.089.178l.879,1.216c-.352.167-.688.328-.995.474-.292-.183-.624-.279-.972-.279-1.011,0-1.832.822-1.832,1.832s.822,1.832,1.832,1.832c.703,0,1.335-.402,1.642-1.02l1.722-.188c-.294,1.6-1.694,2.797-3.364,2.797ZM18.083,36.252c.189.17.434.263.687.263.034,0,.069,0,.105-.005l.129-.015c-.141.069-.298.109-.463.109-.578,0-1.049-.471-1.049-1.049,0-.544.417-.993.948-1.044-.038.019-.075.036-.111.053-.355.168-.585.532-.585.926,0,.29.123.566.339.761ZM18.791,35.73c-.09.01-.154-.034-.184-.061-.029-.027-.079-.086-.079-.179s.054-.178.137-.218c1.019-.483,3.53-1.676,5.326-2.548l1.639,1.504c-.03.269-.095.528-.192.777l-6.647.725ZM29.445,37.601h-4.96v-.252c1.123-.806,1.621-1.719,1.824-2.497l.991.909c.072.067.167.104.265.104.005,0,.011,0,.017,0l.98-.042,1.19,1.387-.306.392ZM36.885,38.976c-1.05,0-2.026-.472-2.68-1.294.007-.384.042-.936.16-1.581.039-.213-.101-.418-.314-.457-.213-.039-.417.102-.457.315-.153.829-.179,1.514-.176,1.929h-3.204l.351-.451c.115-.147.111-.354-.011-.496l-2.268-2.643v-.669c.785-.127,1.463-.459,1.975-.971.592-.593.603-1.169.505-1.552l3.481,2.675c-.083.195-.161.393-.233.596-.071.204.035.428.24.5.043.015.087.023.13.023.161,0,.313-.101.37-.262.156-.443.341-.864.555-1.262l.275.89c-.34.341-.532.802-.532,1.29,0,1.011.822,1.832,1.832,1.832s1.832-.822,1.832-1.832c0-.893-.632-1.642-1.495-1.801l-.341-1.106h1.809c1.013.63,1.616,1.713,1.616,2.907,0,1.886-1.535,3.421-3.421,3.421Z" fill="silver"/>
      <path d="M22.549,32.551c-.434.209-.882.424-1.322.634l-1.149-1.591c1.168.013,1.975.507,2.47.957Z" fill="#ec6d64"/>
      <path d="M39.16,28.707l-.148.236c-.147.068-.291.141-.432.214h-.49l.311-.45h.759Z" fill="#f6c42d"/>
      <path d="M39.641,27.923h-1.446c-.129,0-.249.063-.323.168l-.852,1.234c-.083.12-.093.276-.024.405.063.121.185.199.319.208-1.146.833-2.063,1.883-2.721,3.119l-3.677-2.825c.125-.176.307-.311.531-.374l1.755-.494c.005.006.009.012.014.017.188.22.456.334.725.334.22,0,.441-.075.621-.23l.539-.463v.685c0,.216.176.392.392.392s.391-.176.391-.392v-1.111c.752-.313,1.259-1.057,1.259-1.885,0-.638-.304-1.247-.815-1.631l-.833-.626c2.296.551,3.613,2.369,4.12,3.228.044.074.051.162.023.243Z" fill="#3ad690"/>
    </g>
    <path d="M28.88,30.957h.014c.216,0,.392-.175.392-.392s-.175-.392-.392-.392h-.014c-.216,0-.392.175-.392.392s.175.392.392.392h0Z" fill="silver"/>
    <path d="M28.88,31.881h.014c.216,0,.392-.175.392-.392s-.175-.392-.392-.392h-.014c-.216,0-.392.175-.392.392s.175.392.392.392h0Z" fill="silver"/>
    <path d="M21.521,35.155c.016,0,.032,0,.049-.003l2.865-.354c.215-.027.367-.222.341-.437-.027-.215-.222-.367-.437-.341l-2.865.354c-.215.027-.367.222-.341.437.025.198.193.344.388.344h0Z" fill="silver"/>
  </g>
</svg>