<?xml version="1.0" encoding="UTF-8"?>
<svg id="Layer_1" data-name="Layer 1" xmlns="http://www.w3.org/2000/svg" viewBox="0 0 48 48">
  <path d="M24.824,6.593l3.692,11.141c.264.824,1.022,1.351,1.879,1.351h11.899c.857,0,1.22,1.088.527,1.582l-9.592,6.856c-.692.494-.989,1.417-.725,2.208l3.659,11.108c.264.824-.659,1.483-1.351.989l-9.658-6.889c-.692-.494-1.615-.494-2.307,0l-9.658,6.889c-.692.494-1.615-.198-1.351-.989l3.659-11.108c.264-.824,0-1.714-.725-2.208l-9.592-6.856c-.692-.494-.33-1.582.527-1.582h11.899c.857,0,1.615-.56,1.879-1.351l3.692-11.141c.264-.791,1.417-.791,1.681,0h-.033Z" fill="silver"/>
</svg>