<?xml version="1.0" encoding="UTF-8"?>
<svg id="Layer_1" data-name="Layer 1" xmlns="http://www.w3.org/2000/svg" viewBox="0 0 48 48">
  <g>
    <path d="M32.661,8.24c-2.49,0-4.516,2.026-4.516,4.516s2.026,4.516,4.516,4.516,4.516-2.026,4.516-4.516-2.026-4.516-4.516-4.516h0ZM32.661,9.106c2.012,0,3.65,1.637,3.65,3.65,0,.672-.183,1.302-.501,1.843-.41-.707-1.041-1.25-1.789-1.549.294-.325.474-.756.474-1.228,0-1.01-.822-1.833-1.833-1.833s-1.833.822-1.833,1.833c0,.472.18.902.474,1.228-.748.299-1.38.841-1.789,1.549-.318-.541-.502-1.171-.502-1.843,0-2.013,1.637-3.65,3.65-3.65h0ZM32.661,12.789c-.533,0-.967-.434-.967-.967s.434-.967.967-.967.967.434.967.967-.434.967-.967.967h0ZM30.103,15.355c.429-1.026,1.428-1.7,2.559-1.7s2.129.674,2.559,1.7c-.659.649-1.563,1.05-2.559,1.05s-1.9-.401-2.559-1.05h0ZM30.103,15.355" fill="#75c9fc"/>
    <path d="M20.378,14.122h2.343c-.036.123-.054.252-.054.383,0,.365.142.708.4.966.258.258.601.4.966.4s.708-.142.966-.4l1.75-1.75c.258-.258.4-.601.4-.966s-.142-.708-.4-.966l-1.75-1.75c-.258-.258-.601-.4-.966-.4s-.708.142-.966.4c-.258.258-.4.601-.4.966,0,.132.019.26.054.383h-2.343c-.753,0-1.366.613-1.366,1.366s.613,1.366,1.366,1.366h0ZM20.378,12.256h3.152c.175,0,.333-.105.4-.267.067-.162.03-.348-.094-.472l-.157-.157c-.094-.094-.146-.22-.146-.354s.052-.259.146-.354c.095-.094.22-.146.354-.146s.259.052.354.146l1.75,1.75c.094.094.146.22.146.354s-.052.259-.146.354l-1.75,1.75c-.094.094-.22.147-.354.147s-.259-.052-.354-.147c-.094-.094-.146-.22-.146-.354s.052-.259.146-.354l.157-.157c.124-.124.161-.31.094-.472-.067-.162-.225-.267-.4-.267h-3.152c-.276,0-.5-.224-.5-.5s.224-.5.5-.5h0ZM20.378,12.256" fill="silver"/>
    <path d="M18.128,12.756c0-.797-.211-1.581-.61-2.266-.12-.207-.385-.277-.592-.156-.207.12-.277.385-.156.592.322.553.492,1.186.492,1.831,0,.672-.183,1.302-.502,1.843-.409-.707-1.041-1.25-1.789-1.549.294-.325.474-.756.474-1.228,0-1.011-.822-1.833-1.833-1.833s-1.833.822-1.833,1.833c0,.472.18.902.474,1.227-.748.299-1.38.841-1.79,1.549-.318-.541-.502-1.171-.502-1.843,0-2.012,1.637-3.65,3.65-3.65.672,0,1.329.184,1.9.533.204.124.471.06.595-.144.125-.204.06-.471-.144-.595-.707-.431-1.52-.659-2.351-.659-2.49,0-4.516,2.026-4.516,4.516s2.026,4.516,4.516,4.516,4.516-2.026,4.516-4.516h0ZM13.612,10.856c.533,0,.967.434.967.967s-.434.967-.967.967-.967-.434-.967-.967.434-.967.967-.967h0ZM13.612,13.655c1.131,0,2.13.674,2.559,1.7-.659.649-1.563,1.05-2.558,1.05s-1.9-.401-2.559-1.05c.429-1.026,1.428-1.7,2.559-1.7h0ZM13.612,13.655" fill="#ec6d64"/>
  </g>
  <g>
    <path d="M33.703,29.149l1.383-1.174c.566-.473.867-1.168.842-1.9-.024-.738-.381-1.408-.971-1.838l-1.992-1.463c-.566-.412-1.297-.449-1.887-.135l-.369-1.101c-.031-.092-.092-.172-.178-.227l-1.887-1.217c-.111-.867-.849-1.537-1.746-1.537-.971,0-1.764.787-1.764,1.758s.793,1.765,1.764,1.765c.166,0,.32-.025.473-.062l1.156.811.184.547c-.738-.32-1.519-.492-2.318-.51-.24-.006-.443.184-.449.424-.006.24.184.437.424.443.695.018,1.365.172,2.004.449l1.316.566c.16.074.35.037.473-.086l1.119-1.101c.314-.314.812-.344,1.168-.086l1.316.965-1.469.369c-.713.184-1.162.799-1.119,1.531.037.732.553,1.291,1.285,1.396l1.346.184-3.357,2.84c-.504.43-.922.941-1.242,1.506l-.646-1.07c-1.057-1.746-2.699-3.062-4.629-3.713l-1.377-.455c-.227-.08-.473.043-.553.27-.074.228.049.473.277.553l1.371.461c1.74.578,3.221,1.764,4.168,3.332l.959,1.592c-.191.559-.289,1.15-.289,1.752,0,.455-.363.818-.818.818h-1.094l.898-.898c.172-.172.172-.443,0-.615-.166-.172-.442-.172-.615,0l-1.512,1.512h-1.113l.898-.898c.172-.172.172-.443,0-.615s-.443-.172-.615,0l-1.5,1.494c-.006.006-.006.012-.012.018h-1.85c-.148,0-.203-.104-.221-.148-.012-.049-.043-.16.068-.258l1.629-1.463c.24-.209.369-.51.369-.824v-1.949c0-.4-.215-.769-.56-.965l-8.835-4.974c1.039-.676,2.373-.799,3.523-.289l2.865,1.267c.713.313,1.549.117,2.041-.486.652-.799,1.519-1.396,2.502-1.715.234-.08.356-.326.283-.553-.074-.228-.32-.35-.553-.277-.861.283-1.648.75-2.312,1.359-.35-.541-.867-.959-1.482-1.193l-5.109-1.9c-.154-.055-.32-.049-.473.018-.148.068-.264.191-.32.344l-.068.172c-.234.633-.221,1.31.025,1.918-.676.166-1.316.486-1.857.947-.141.117-.209.295-.191.48.012.178.117.338.277.43l4.881,2.748-.695,1.223c-.738-.375-1.568-.572-2.404-.572-.535,0-1.064.08-1.574.234-.227.068-.357.314-.289.541.074.234.314.363.547.289.424-.129.867-.197,1.316-.197.682,0,1.365.16,1.973.461l-.615,1.082c-.424-.197-.891-.301-1.359-.301-1.777,0-3.222,1.432-3.222,3.197s1.445,3.203,3.222,3.203c1.131,0,2.183-.602,2.767-1.568l1.328.142c-.707,1.605-2.312,2.662-4.095,2.662-2.465,0-4.47-1.992-4.47-4.439,0-1.402.676-2.73,1.814-3.566.191-.141.234-.418.092-.609-.148-.197-.418-.234-.609-.092-1.359.996-2.164,2.594-2.164,4.267,0,2.926,2.392,5.306,5.336,5.306,2.219,0,4.211-1.377,4.992-3.437l.873.092h.037c.191.166.443.264.713.264h6.517c.344,0,.664-.105.928-.277.338.849.898,1.611,1.623,2.189.941.756,2.127,1.168,3.344,1.168,2.939,0,5.336-2.379,5.336-5.306,0-2.883-2.324-5.232-5.201-5.306ZM26.897,21.211c-.492,0-.891-.406-.891-.898s.4-.891.891-.891.892.4.892.891-.4.898-.892.898ZM29.775,23.818l-.467-1.402c-.031-.086-.086-.166-.166-.215l-.959-.682c.129-.141.24-.301.32-.48l1.432.922.43,1.279-.59.578ZM32.578,26.874c-.375-.055-.522-.338-.535-.584-.012-.246.104-.547.467-.639l2.133-.541c.252.27.406.615.418.996.012.394-.123.769-.381,1.058l-2.103-.289ZM15.296,22.343l4.869,1.814c.51.191.922.559,1.168,1.039-.246.277-.646.363-.984.215l-2.871-1.273c-.652-.289-1.359-.412-2.053-.381-.24-.436-.283-.941-.129-1.414ZM22.016,30.962c.068.037.117.117.117.203v.596c-.111,0-.215.006-.32.024-.018,0-.031.006-.043.006l-2.109.529,1.156-2.035,1.199.676ZM18.401,28.927l1.66.935-1.568,2.754-2.558.639,2.466-4.328ZM14.54,36.784c-1.297,0-2.349-1.045-2.349-2.33s1.051-2.33,2.349-2.33c.32,0,.633.068.928.191l-.701,1.236-.369.092c-.197.049-.332.221-.332.418v1.297c0,.221.172.406.393.43l1.851.197c-.443.504-1.088.799-1.771.799ZM20.417,34.749c-.221.203-.35.473-.363.756l-5.115-.541v-.56l7.021-1.764c.055-.006.111-.012.172-.012v.486c0,.068-.031.129-.08.178l-1.635,1.457ZM32.652,30.04l1.512,4.506c.031.098.025.197-.018.283-.043.092-.123.16-.215.191-.197.062-.406-.043-.467-.234l-1.42-4.23.609-.516ZM32.64,35.063c.172.516.658.842,1.174.842.129,0,.258-.018.387-.061.314-.105.572-.326.719-.621.154-.301.172-.633.068-.953l-.682-2.023c.941.307,1.605,1.193,1.605,2.207,0,1.285-1.051,2.33-2.342,2.33s-2.349-1.045-2.349-2.33c0-.621.24-1.193.67-1.629l.75,2.238ZM33.568,38.893c-1.033,0-1.998-.338-2.804-.978-.738-.596-1.273-1.414-1.519-2.318.074-.19.117-.393.117-.608,0-.56.098-1.107.289-1.623.006-.012.012-.031.018-.043.277-.725.738-1.383,1.347-1.9l.307-.264.264.775c-.781.602-1.242,1.537-1.242,2.521,0,1.765,1.445,3.203,3.222,3.203s3.215-1.439,3.215-3.203c0-1.605-1.205-2.963-2.797-3.172l-.424-1.266h.006c2.459,0,4.463,1.992,4.463,4.439s-2.004,4.439-4.463,4.439Z" fill="silver"/>
    <path d="M27.789,20.314c0,.492-.4.898-.892.898s-.891-.406-.891-.898.4-.891.891-.891.892.4.892.891Z" fill="#ec6d64"/>
    <path d="M22.135,32.631v.486c0,.068-.031.129-.08.178l-1.635,1.457c-.222.203-.351.473-.363.756l-5.115-.541v-.559l7.021-1.764c.055-.006.111-.012.172-.012Z" fill="#3ad690"/>
    <path d="M35.065,26.108c.012.393-.123.769-.381,1.058l-2.103-.289c-.375-.055-.523-.338-.535-.584s.104-.547.467-.639l2.133-.541c.252.27.406.615.418.996Z" fill="#f6c42d"/>
  </g>
</svg>