<?xml version="1.0" encoding="UTF-8"?>
<svg id="Layer_1" data-name="Layer 1" xmlns="http://www.w3.org/2000/svg" viewBox="0 0 48 48">
  <path d="M20.249,33.76c-.208,0-.408-.1-.532-.266l-.799-1.065h1.331c.208,0,.407.1.532.266l.799,1.065h-1.331ZM30.877,33.76h-7.835l-1.325-1.766c-.345-.46-.894-.734-1.468-.734h-2.501c-.222,0-.424.125-.523.324-.099.198-.078.436.055.612l1.5,2.001c.345.46.893.734,1.468.734h10.629c.323,0,.585-.262.585-.585s-.262-.585-.585-.585h0Z" fill="silver"/>
  <g>
    <path d="M42.798,34.216h-1.82c-.64-1.118-1.842-1.877-3.224-1.877s-2.584.759-3.224,1.877h-1.149c-.325,0-.588.259-.588.583s.263.583.588.583h.724c-.039.219-.061.439-.061.667s.022.452.061.667H15.146c.04-.215.062-.439.062-.667,0-.25-.026-.5-.075-.741-.066-.316-.373-.522-.689-.456s-.522.373-.456.689c.031.167.048.338.048.509,0,1.404-1.141,2.54-2.54,2.54s-2.54-1.136-2.54-2.54,1.136-2.54,2.54-2.54c.355,0,.697.07,1.018.211.298.132.64-.004.772-.298.127-.298-.004-.641-.303-.772-.469-.206-.969-.311-1.487-.311-1.842,0-3.378,1.351-3.663,3.114l-2.092-.404c-.311-.061-.54-.338-.54-.654v-2.136h.667c.325,0,.583-.263.583-.588,0-.32-.259-.583-.583-.583h-.667v-.667c0-.364.298-.662.667-.662h.483c.588,0,1.162-.118,1.706-.351l7.22-3.097c.316-.136.645-.224.983-.267l2.983,3.478c.469.548,1.149.86,1.869.86h14.142c1.562,0,4.351.184,6.417,1.333h-.167c-.32,0-.583.259-.583.583s.263.583.583.583h1.268c.018.083.026.162.026.246v1.088h0ZM42.798,36.049c0,.368-.298.667-.667.667h-.728c.039-.215.061-.439.061-.667s-.022-.447-.061-.667h1.395v.667h0ZM37.753,38.589c-1.399,0-2.54-1.136-2.54-2.54s1.14-2.54,2.54-2.54,2.54,1.14,2.54,2.54-1.136,2.54-2.54,2.54h0ZM19.353,26.004l2.75,3.206h-.991c-.377,0-.732-.162-.978-.447l-2.364-2.759h1.584ZM23.726,26.004c.912,0,1.833.206,2.658.592l5.606,2.614h-8.347l-2.746-3.206h2.829ZM42.916,31.11c-2.237-1.566-5.404-1.899-7.663-1.899h-.496l-7.878-3.676c-.982-.456-2.07-.697-3.154-.697h-6.957c-.675,0-1.333.136-1.952.399l-7.22,3.097c-.395.167-.816.254-1.246.254h-.483c-1.013,0-1.834.825-1.834,1.833v3.974c0,.873.623,1.632,1.483,1.798l2.316.452c.285,1.763,1.82,3.114,3.663,3.114,1.377,0,2.584-.754,3.224-1.873h19.809c.64,1.119,1.847,1.873,3.224,1.873s2.584-.754,3.224-1.873h1.154c1.013,0,1.834-.825,1.834-1.838v-2.921c0-.798-.39-1.553-1.048-2.018h0Z" fill="silver"/>
    <path d="M31.99,29.211h-8.347l-2.746-3.206h2.829c.912,0,1.833.206,2.658.592l5.606,2.614h0Z" fill="#f6c42d"/>
    <path d="M11.496,34.839c-.667,0-1.21.543-1.21,1.211s.543,1.21,1.21,1.21,1.21-.543,1.21-1.21-.543-1.211-1.21-1.211h0Z" fill="silver"/>
    <path d="M37.754,34.839c-.667,0-1.21.543-1.21,1.211s.543,1.21,1.21,1.21,1.21-.543,1.21-1.21-.543-1.211-1.21-1.211h0Z" fill="silver"/>
  </g>
  <g>
    <path d="M33.923,18.375c.611-1.462,2.034-2.421,3.645-2.421s3.033.96,3.644,2.421c-.939.924-2.226,1.496-3.644,1.496s-2.706-.571-3.645-1.496h0ZM37.568,14.72c-.76,0-1.377-.618-1.377-1.377s.618-1.377,1.377-1.377,1.377.618,1.377,1.377-.618,1.377-1.377,1.377h0ZM37.568,9.474c2.866,0,5.198,2.332,5.198,5.199,0,.957-.261,1.854-.714,2.625-.583-1.008-1.483-1.78-2.548-2.206.418-.463.675-1.076.675-1.749,0-1.439-1.172-2.61-2.611-2.61s-2.611,1.171-2.611,2.61c0,.673.256,1.286.675,1.749-1.066.426-1.966,1.199-2.549,2.206-.453-.771-.715-1.668-.715-2.625,0-2.867,2.332-5.199,5.199-5.199h0ZM37.568,8.24c-3.547,0-6.433,2.885-6.433,6.433s2.886,6.432,6.433,6.432,6.432-2.885,6.432-6.432-2.886-6.433-6.432-6.433h0Z" fill="#7ec6ee"/>
    <path d="M20.07,13.96h4.49c.25,0,.475-.15.57-.381.095-.231.042-.496-.134-.672l-.223-.223c-.135-.134-.209-.314-.209-.504s.074-.369.209-.504c.135-.135.314-.209.504-.209s.369.074.504.209l2.493,2.493c.134.135.209.314.209.504s-.074.369-.209.504l-2.493,2.493c-.134.135-.313.209-.504.209s-.369-.074-.504-.209c-.135-.134-.209-.313-.209-.504s.074-.369.209-.504l.224-.223c.176-.176.229-.442.134-.672-.096-.23-.32-.381-.57-.381h-4.49c-.393,0-.712-.32-.712-.712s.319-.713.712-.713h0ZM20.07,16.619h3.338c-.051.175-.078.359-.078.546,0,.52.203,1.009.57,1.376.367.367.856.57,1.376.57s1.009-.202,1.376-.57l2.492-2.493c.368-.368.57-.856.57-1.376s-.202-1.009-.57-1.376l-2.492-2.492c-.367-.368-.856-.57-1.376-.57s-1.008.202-1.376.57c-.368.367-.57.857-.57,1.376,0,.188.027.371.078.546h-3.338c-1.073,0-1.946.873-1.946,1.946s.873,1.946,1.946,1.946h0Z" fill="silver"/>
    <path d="M10.433,15.954c1.611,0,3.034.96,3.645,2.421-.939.924-2.226,1.496-3.644,1.496s-2.706-.572-3.645-1.496c.611-1.462,2.034-2.421,3.644-2.421h0ZM10.433,11.966c.76,0,1.377.618,1.377,1.377s-.618,1.377-1.377,1.377-1.377-.618-1.377-1.377.618-1.377,1.377-1.377h0ZM16.865,14.672c0-1.136-.3-2.252-.868-3.228-.171-.294-.549-.394-.843-.223-.294.171-.394.549-.223.843.459.788.701,1.689.701,2.608,0,.957-.261,1.854-.715,2.625-.583-1.008-1.483-1.78-2.548-2.206.419-.463.675-1.076.675-1.748,0-1.44-1.171-2.611-2.611-2.611s-2.611,1.171-2.611,2.611c0,.672.257,1.285.675,1.748-1.066.426-1.966,1.199-2.549,2.206-.453-.771-.714-1.668-.714-2.625,0-2.866,2.332-5.199,5.199-5.199.957,0,1.893.262,2.706.759.291.177.67.085.848-.206.177-.291.085-.67-.205-.848-1.007-.614-2.165-.939-3.349-.939-3.547,0-6.433,2.885-6.433,6.432s2.886,6.433,6.433,6.433,6.432-2.886,6.432-6.433h0Z" fill="#ec6c64"/>
  </g>
</svg>