<?xml version="1.0" encoding="UTF-8"?>
<svg id="Layer_1" data-name="Layer 1" xmlns="http://www.w3.org/2000/svg" viewBox="0 0 48 48">
  <path d="M41.069,25.241c-.686,0-1.241.556-1.241,1.241v-1.241c0-.686-.556-1.241-1.241-1.241s-1.241.556-1.241,1.241v-1.241c0-.686-.556-1.241-1.241-1.241s-1.241.556-1.241,1.241v-6.207c0-.686-.556-1.241-1.241-1.241s-1.241.556-1.241,1.241v13.069c0,.385-.09.765-.262,1.11l-.359.717h-.621l-.697-3.489c-.317-1.58-1.704-2.718-3.315-2.718-.527,0-.953.426-.953.953,0,.188.056.372.16.529l.639.959c.291.436.476.935.542,1.456l.44,3.52c.053.429.218.836.477,1.181l1.466,1.955v1.862h11.172v-1.862l.98-1.958c.172-.345.262-.725.262-1.11v-7.483c0-.686-.556-1.241-1.241-1.241h0ZM41.069,25.241" fill="#fff"/>
  <rect x="29.276" y="40.138" width="12.414" height="1.862" fill="#fff"/>
  <path d="M31.138,19.655v-1.862c0-.6.222-1.143.578-1.573-1.515-1.261-2.7-2.838-3.476-4.65-.136-.316-.205-.652-.205-.996,0-.725.27-1.377.741-1.848l.864-.864c.8-.8,2.197-.8,2.997,0l1.094,1.094c.329.329.511.767.511,1.233v.082c0,.664-.369,1.262-.964,1.559-.171.086-.278.258-.278.449v.082c0,.134.052.26.147.355l.583.583c.095.096.221.148.356.148h.082c.192,0,.364-.106.449-.278.297-.594.895-.964,1.559-.964h.082c.466,0,.904.181,1.232.511l1.095,1.094c.4.4.621.932.621,1.498s-.22,1.099-.621,1.498l-.864.864c-.431.431-1.013.682-1.619.725v1.258h3.724c1.027,0,1.862-.835,1.862-1.862V7.862c0-1.027-.835-1.862-1.862-1.862h-12.414c-1.027,0-1.862.835-1.862,1.862v9.931c0,1.027.835,1.862,1.862,1.862h3.724ZM31.138,19.655" fill="#fff"/>
  <path d="M32.722,10.721c.171-.086.278-.258.278-.449v-.082c0-.134-.052-.26-.147-.355l-1.094-1.095c-.326-.326-.915-.326-1.241,0l-.864.864c-.24.24-.377.572-.377.911,0,.234.036.405.104.566.745,1.737,1.904,3.236,3.377,4.393.27-.101.559-.163.864-.163,1.145,0,2.102.784,2.388,1.84.31-.02.615-.134.836-.355l.864-.865c.163-.163.257-.39.257-.621s-.094-.457-.257-.621l-1.094-1.094c-.095-.095-.221-.147-.356-.147h-.082c-.192,0-.364.106-.449.278-.297.594-.895.964-1.559.964h-.082c-.466,0-.904-.181-1.232-.511l-.584-.583c-.33-.329-.512-.767-.512-1.233v-.082c0-.664.369-1.262.964-1.559h0ZM32.722,10.721" fill="#fff"/>
  <path d="M19.966,25.862H7.552c-1.027,0-1.862.835-1.862,1.862v9.931c0,1.027.835,1.862,1.862,1.862h12.414c1.027,0,1.862-.835,1.862-1.862v-9.931c0-1.027-.835-1.862-1.862-1.862h0ZM20.586,37.034H6.931v-8.69h13.655v8.69ZM20.586,37.034" fill="#fff"/>
  <path d="M8.172,30.464v4.658l2.588-2.071-2.588-2.587ZM8.172,30.464" fill="#fff"/>
  <path d="M15.439,32.614l3.028-3.028h-9.417l3.028,3.028c.898.897,2.463.897,3.36,0h0ZM15.439,32.614" fill="#fff"/>
  <path d="M19.345,35.122v-4.658l-2.588,2.588,2.588,2.07ZM19.345,35.122" fill="#fff"/>
  <path d="M13.759,34.552c-.752,0-1.467-.23-2.069-.653l-2.368,1.894h8.875l-2.368-1.894c-.602.423-1.318.653-2.069.653h0ZM13.759,34.552" fill="#fff"/>
  <path d="M13.759,10.966c-.685,0-1.241.557-1.241,1.241v1.241c0,.685.557,1.241,1.241,1.241s1.241-.557,1.241-1.241v-1.241c0-.685-.557-1.241-1.241-1.241h0ZM13.759,10.966" fill="#fff"/>
  <path d="M19.966,6H7.552c-1.027,0-1.862.835-1.862,1.862v9.931c0,1.027.835,1.862,1.862,1.862h12.414c1.027,0,1.862-.835,1.862-1.862V7.862c0-1.027-.835-1.862-1.862-1.862h0ZM18.724,15.31c0,1.027-.835,1.862-1.862,1.862-.937,0-1.708-.698-1.836-1.601-.373.223-.803.36-1.268.36-1.369,0-2.483-1.114-2.483-2.483v-1.241c0-1.369,1.114-2.483,2.483-2.483s2.483,1.114,2.483,2.483v3.103c0,.342.279.621.621.621s.621-.279.621-.621v-3.103c0-2.054-1.67-3.724-3.724-3.724s-3.724,1.67-3.724,3.724v1.241c0,2.054,1.67,3.724,3.724,3.724v1.241c-2.738,0-4.966-2.228-4.966-4.966v-1.241c0-2.738,2.228-4.966,4.966-4.966s4.966,2.228,4.966,4.966v3.103ZM18.724,15.31" fill="#fff"/>
</svg>