<?xml version="1.0" encoding="UTF-8"?>
<svg id="Layer_1" data-name="Layer 1" xmlns="http://www.w3.org/2000/svg" viewBox="0 0 60 15">
  <path d="M0,0h60v15H0V0Z" fill="#da7469"/>
  <g>
    <rect x="8.315" y="11.625" width=".94" height="1.01" fill="#fff"/>
    <rect x="6.435" y="11.625" width=".94" height="1.01" fill="#fff"/>
    <rect x="12.235" y="11.625" width=".94" height="1.01" fill="#fff"/>
    <path d="M15.715,8.955l-.55-1.38c-.234-.606-.563-1.094-.99-1.46-.427-.367-.954-.55-1.58-.55-.354,0-.655.034-.905.104s-.532.182-.845.335l.34.73c.393-.214.793-.32,1.2-.32.473,0,.862.113,1.165.34s.555.577.755,1.05l.56,1.36.03.07c-.813.313-1.717.47-2.71.47h-1.99c-.827,0-1.374-.227-1.64-.68.053-.193.08-.381.08-.561v-2.84h-.87v2.76c0,.38-.117.695-.35.945s-.533.375-.9.375h-.9c-.293,0-.528-.065-.705-.195s-.325-.312-.445-.545v-3.3h-.87v4.85c0,.493-.11.856-.33,1.09s-.57.381-1.05.44l.35.79c1.267-.247,1.9-1.033,1.9-2.36v-.439c.326.307.71.46,1.15.46h1.06c.34,0,.646-.075.92-.226.273-.149.497-.352.67-.604.22.287.48.497.78.63.3.134.683.2,1.15.2h1.99c.5,0,1.018-.062,1.555-.186.537-.123,1.025-.298,1.465-.524.367.439.83.677,1.39.71l.34-.771c-.634-.053-1.04-.31-1.22-.77Z" fill="#fff"/>
    <path d="M19.525,3.275h-.92c-.093-.061-.14-.15-.14-.271,0-.093.031-.161.095-.205.063-.043.135-.064.215-.064.106,0,.26.026.46.08l.15-.511c-.28-.093-.507-.14-.68-.14-.233,0-.415.07-.545.21s-.195.316-.195.53c0,.113.033.236.1.37h-.37l-.14.52h1.97v-.52Z" fill="#fff"/>
    <rect x="23.095" y="3.675" width=".94" height="1.01" fill="#fff"/>
    <rect x="21.215" y="3.675" width=".94" height="1.01" fill="#fff"/>
    <path d="M29.395,9.705h-1.26c-.593,0-1.007-.22-1.24-.66.053-.167.08-.36.08-.58V2.835h-.87v5.55c0,.38-.117.695-.35.945s-.534.375-.9.375h-.2c-.827,0-1.374-.227-1.64-.68.053-.193.08-.381.08-.561v-2.84h-.87v2.76c0,.38-.117.695-.35.945s-.533.375-.9.375h-1.1c-.28,0-.488-.07-.625-.21-.137-.141-.205-.37-.205-.69v-4.47h-.87v4.53c0,.486.126.88.38,1.18s.64.45,1.16.45h1.42c.34,0,.646-.075.92-.226.273-.149.497-.352.67-.604.22.287.48.497.78.63.3.134.683.2,1.15.2h.36c.653,0,1.173-.26,1.56-.78.414.521.934.78,1.56.78h2.13V2.835h-.87v6.87Z" fill="#fff"/>
    <rect x="36.315" y="4.535" width=".939" height="1.01" fill="#fff"/>
    <path d="M38.475,11.495h-1.57c-.54,0-.943-.127-1.21-.38-.267-.254-.4-.577-.4-.971v-2.14h-.87v2.21c0,.627.207,1.127.62,1.5s.974.561,1.681.561h2.619v-6.61h-.869v5.83Z" fill="#fff"/>
    <rect x="45.595" y="3.675" width=".939" height="1.01" fill="#fff"/>
    <path d="M44.84,5.91c-.39.229-.688.53-.895.899-.207.37-.311.766-.311,1.186,0,.366.072.698.216.995.143.297.352.535.625.715h-1.81c-.28,0-.488-.07-.625-.21-.137-.141-.205-.37-.205-.69V2.835h-.88v6.03c0,.486.128.88.385,1.18s.645.45,1.165.45h5.419v-4.71c-.746-.146-1.319-.22-1.72-.22-.52,0-.975.114-1.365.345ZM47.055,9.705h-.921c-.326,0-.609-.073-.85-.22s-.424-.342-.55-.585c-.127-.244-.19-.509-.19-.796,0-.506.144-.925.431-1.255.286-.33.68-.495,1.18-.495.267,0,.566.04.9.12v3.23Z" fill="#fff"/>
    <path d="M57.139,6.67c-.43-.403-1.074-.604-1.935-.604h-2.11l3.08-3.23h-1.1l-2.92,3.23.35.789h2.59c.627,0,1.084.134,1.37.4.287.267.431.634.431,1.1,0,.414-.104.864-.311,1.351h-4.919c-.294,0-.528-.065-.705-.195s-.325-.312-.445-.545v-3.3h-.87v4.85c0,.493-.109.856-.329,1.09-.221.233-.57.381-1.051.44l.351.79c1.267-.247,1.899-1.033,1.899-2.36v-.439c.327.306.709.46,1.149.46,0,0,0,0,0,0h5.5c.413-.86.62-1.587.62-2.18,0-.693-.215-1.242-.646-1.646Z" fill="#fff"/>
  </g>
</svg>