<?xml version="1.0" encoding="UTF-8"?>
<svg id="Layer_1" data-name="Layer 1" xmlns="http://www.w3.org/2000/svg" viewBox="0 0 48 48">
  <path d="M32.28,38.673H15.745v-.792h16.535v.792ZM40.494,38.699h-1.532v-.792h1.532c.211,0,.396-.079.528-.211s.211-.343.211-.528v-2.641c-.396-1.77-.845-3.407-8.743-4.2-.079,0-.158-.026-.211-.079-7.026-5.547-14.633-5.203-20.84.951,0,0-.202.071-.608.211-.766.158-2.536.528-3.936,1.004-.079,0-.132.079-.132.185v4.2l1.189,1.136h1.083v.792h-1.241s-.211-.053-.264-.106l-1.426-1.347s-.132-.185-.132-.291v-4.358c0-.423.264-.792.66-.924,1.426-.475,3.249-.845,4.015-1.03.106,0,.211-.053.291-.053,3.354-3.302,7.052-4.992,10.961-5.071,3.592-.053,7.316,1.347,10.75,4.041,7.818.792,8.769,2.43,9.324,4.834v2.773c0,.423-.158.792-.449,1.083-.291.291-.687.449-1.109.449l.079-.026Z" fill="silver" fill-rule="evenodd"/>
  <path d="M12.417,35.317c-1.638,0-2.958,1.321-2.958,2.958s1.321,2.958,2.958,2.958,2.958-1.321,2.958-2.958-1.321-2.958-2.958-2.958ZM12.417,42c-2.06,0-3.724-1.664-3.724-3.724s1.664-3.724,3.724-3.724,3.724,1.664,3.724,3.724-1.664,3.724-3.724,3.724Z" fill="silver" fill-rule="evenodd"/>
  <path d="M35.634,35.317c-1.611,0-2.958,1.321-2.958,2.958s1.321,2.958,2.958,2.958,2.958-1.321,2.958-2.958-1.321-2.958-2.958-2.958ZM35.634,42c-2.06,0-3.724-1.664-3.724-3.724s1.664-3.724,3.724-3.724,3.724,1.664,3.724,3.724-1.664,3.724-3.724,3.724Z" fill="silver" fill-rule="evenodd"/>
  <path d="M19.706,30.247c1.189,0,1.955.211,2.853.423,1.453.37,3.249.819,7.845.475.106,0,.158-.079.158-.132s0-.132-.079-.211c-5.732-3.988-11.173-4.015-16.191-.106-.106.079-.079.185-.053.211,0,.053.079.132.211.106,2.456-.581,4.041-.792,5.23-.792l.026.026ZM27.366,32.043c-2.562,0-3.883-.343-5.019-.634-1.717-.449-2.958-.766-7.739.37-.449.106-.898-.106-1.083-.528-.211-.423-.079-.898.264-1.189,2.668-2.087,5.52-3.117,8.479-3.064,2.826.053,5.732,1.109,8.664,3.143.343.238.502.66.37,1.057-.106.396-.449.687-.872.713-1.189.079-2.219.132-3.09.132h.026Z" fill="silver" fill-rule="evenodd"/>
  <path d="M22.057,31.329c-.158,0-.317-.106-.37-.264l-1.268-3.46c-.079-.211.026-.423.238-.502.211-.079.423.026.502.238l1.268,3.46c.079.211-.026.423-.238.502h-.132v.026Z" fill="silver" fill-rule="evenodd"/>
  <path d="M41.048,34.869c-1.638,0-2.324-.555-2.588-1.057-.396-.713-.238-1.664.475-2.694.132-.185.37-.211.555-.106.185.132.211.37.106.555-.528.74-.687,1.426-.449,1.849.291.502,1.162.74,2.456.634.211,0,.396.158.423.37s-.158.396-.37.423h-.608v.026Z" fill="silver" fill-rule="evenodd"/>
  <path d="M30.298,36.69h-12.546c-.158,0-.317-.106-.37-.264-.317-.845-.845-1.611-1.558-2.219-.158-.132-.185-.396-.053-.555.132-.158.396-.185.555-.053.74.634,1.294,1.4,1.664,2.271h12.282c.211,0,.396.185.396.396s-.185.396-.396.396l.026.027Z" fill="silver" fill-rule="evenodd"/>
  <path d="M24.118,33.892h-1.136c-.211,0-.396-.185-.396-.396s.185-.396.396-.396h1.162c.211,0,.396.185.396.396s-.185.396-.396.396h-.026Z" fill="silver" fill-rule="evenodd"/>
  <path d="M31.672,34.763s-.211-.053-.264-.106c-.158-.158-.158-.396,0-.555,1.136-1.136,2.615-1.77,4.226-1.77.211,0,.396.185.396.396s-.185.396-.396.396c-1.373,0-2.694.528-3.671,1.532-.079.079-.185.132-.291.132v-.026Z" fill="silver" fill-rule="evenodd"/>
  <path d="M12.416,37.087c-.66,0-1.189.528-1.189,1.189s.528,1.189,1.189,1.189,1.189-.528,1.189-1.189-.528-1.189-1.189-1.189ZM12.416,40.23c-1.083,0-1.955-.872-1.955-1.955s.872-1.955,1.955-1.955,1.955.872,1.955,1.955-.872,1.955-1.955,1.955Z" fill="silver" fill-rule="evenodd"/>
  <path d="M35.633,37.087c-.66,0-1.189.528-1.189,1.189s.528,1.189,1.189,1.189,1.189-.528,1.189-1.189-.528-1.189-1.189-1.189ZM35.633,40.23c-1.083,0-1.955-.872-1.955-1.955s.872-1.955,1.955-1.955,1.955.872,1.955,1.955-.872,1.955-1.955,1.955Z" fill="silver" fill-rule="evenodd"/>
  <path d="M9.828,31.594c-.132,0-.264-.079-.343-.185-1.532-2.589-2.324-5.547-2.324-8.558,0-9.297,7.554-16.852,16.852-16.852s16.852,7.554,16.852,16.852c0,2.932-.766,5.811-2.192,8.32-.106.185-.343.264-.528.159-.185-.106-.264-.344-.158-.529,1.373-2.403,2.087-5.15,2.087-7.95,0-8.848-7.211-16.059-16.059-16.059S7.953,14.003,7.953,22.878c0,2.879.766,5.705,2.219,8.162.106.185.053.423-.132.528-.053.026-.132.053-.211.053v-.027Z" fill="silver" fill-rule="evenodd"/>
  <path d="M35.026,30.616s-.158,0-.211-.079c-.185-.132-.238-.37-.106-.555,1.426-2.113,2.166-4.596,2.166-7.158,0-7.079-5.758-12.837-12.837-12.837s-12.837,5.758-12.837,12.863c0,2.298.608,4.569,1.796,6.55.106.185.053.423-.132.528s-.423.053-.528-.132c-1.241-2.087-1.902-4.49-1.902-6.947,0-7.528,6.128-13.629,13.629-13.629s13.629,6.128,13.629,13.629c0,2.721-.792,5.335-2.298,7.581-.079.106-.211.158-.343.158l-.026.026Z" fill="silver" fill-rule="evenodd"/>
  <path d="M24.038,13.738c-.819,0-1.479-.66-1.479-1.506v-2.588c0-.211.185-.396.396-.396s.396.185.396.396v2.588c0,.396.317.713.713.713s.713-.317.713-.713v-2.588c0-.211.185-.396.396-.396s.396.185.396.396v2.588c0,.819-.66,1.506-1.479,1.506h-.053Z" fill="silver" fill-rule="evenodd"/>
  <path d="M31.514,16.828c-.37,0-.766-.132-1.057-.449-.581-.581-.581-1.532,0-2.113l1.823-1.823c.158-.158.396-.158.555,0,.158.158.158.396,0,.555l-1.823,1.823c-.264.264-.264.713,0,1.004.264.264.713.264,1.004,0l1.823-1.823c.158-.158.396-.158.555,0,.158.158.158.396,0,.555l-1.823,1.823c-.291.291-.66.449-1.057.449Z" fill="silver" fill-rule="evenodd"/>
  <path d="M37.219,24.33h-2.588c-.819,0-1.506-.66-1.506-1.506s.66-1.506,1.506-1.506h2.588c.211,0,.396.185.396.396s-.185.396-.396.396h-2.588c-.396,0-.713.317-.713.713s.317.713.713.713h2.588c.211,0,.396.185.396.396,0,.238-.158.396-.396.396Z" fill="silver" fill-rule="evenodd"/>
  <path d="M16.537,16.828c-.37,0-.766-.132-1.057-.449l-1.823-1.823c-.158-.158-.158-.396,0-.555.158-.158.396-.158.555,0l1.822,1.823c.264.264.713.264,1.004,0,.264-.264.264-.713,0-1.004l-1.823-1.823c-.158-.158-.158-.396,0-.555.158-.158.396-.158.555,0l1.823,1.823c.581.581.581,1.532,0,2.113-.291.291-.66.449-1.057.449Z" fill="silver" fill-rule="evenodd"/>
  <path d="M13.42,24.33h-2.588c-.211,0-.396-.185-.396-.396s.185-.396.396-.396h2.588c.396,0,.713-.317.713-.713s-.317-.713-.713-.713h-2.588c-.211,0-.396-.185-.396-.396s.185-.396.396-.396h2.588c.819,0,1.506.66,1.506,1.506s-.66,1.479-1.506,1.479v.026Z" fill="silver" fill-rule="evenodd"/>
  <path d="M26.521,26.972h-.106c-.211-.079-.317-.291-.264-.502l2.06-6.55-5.732,6.234c-.158.158-.396.185-.555,0-.158-.158-.158-.396,0-.555l6.92-7.501c.132-.132.317-.158.502-.079.158.079.238.291.185.449l-2.562,8.215c-.053.158-.211.264-.37.264l-.079.026Z" fill="silver" fill-rule="evenodd"/>
  <path d="M6.421,34.579c-.211,0-.37-.158-.396-.343,0-.211.132-.396.343-.423,1.321-.158,2.034-.924,2.219-2.456,0-.211.211-.37.449-.343.211,0,.37.211.343.449-.291,2.377-1.743,3.011-2.905,3.143h-.053v-.026Z" fill="silver" fill-rule="evenodd"/>
</svg>