<?xml version="1.0" encoding="UTF-8"?>
<svg id="Layer_1" data-name="Layer 1" xmlns="http://www.w3.org/2000/svg" viewBox="0 0 48 48">
  <path d="M24.045,29.979c-3.296,0-5.969-2.672-5.969-5.969s2.672-5.969,5.969-5.969,5.969,2.672,5.969,5.969-2.672,5.969-5.969,5.969ZM4.596,23.475l5.495-5.598c7.615-7.739,20.026-7.842,27.785-.268l5.557,5.495c.391.391.391,1.029,0,1.42l-5.495,5.598c-7.615,7.739-20.047,7.842-27.785.268l-5.598-5.495c-.391-.391-.37-1.029.041-1.42ZM24.107,31.975c4.404-.021,7.965-3.622,7.924-8.027-.041-4.404-3.622-7.965-8.027-7.924-4.404.021-7.965,3.622-7.924,8.027v.021c.041,4.404,3.622,7.924,8.027,7.903Z" fill="silver"/>
</svg>