<?xml version="1.0" encoding="UTF-8"?>
<svg id="Layer_1" data-name="Layer 1" xmlns="http://www.w3.org/2000/svg" viewBox="0 0 48 48">
  <path d="M39.297,16.629c-.833,0-1.511-.678-1.511-1.511,0-.256-.207-.463-.463-.463s-.463.207-.463.463c0,.833-.678,1.511-1.511,1.511-.256,0-.463.207-.463.463s.207.463.463.463c.834,0,1.511.678,1.511,1.511,0,.256.207.463.463.463s.463-.207.463-.463c0-.833.678-1.511,1.511-1.511.256,0,.463-.207.463-.463s-.207-.463-.463-.463h0ZM37.323,17.638c-.152-.21-.337-.395-.547-.547.21-.152.395-.337.547-.547.153.21.337.395.547.547-.21.152-.394.337-.547.547h0Z" fill="#7ec6ee"/>
  <path d="M10.214,19.065c0,.256.207.463.463.463s.463-.207.463-.463c0-.833.678-1.511,1.511-1.511.256,0,.463-.207.463-.463s-.207-.463-.463-.463c-.833,0-1.511-.678-1.511-1.511,0-.256-.207-.463-.463-.463s-.463.207-.463.463c0,.833-.678,1.511-1.511,1.511-.255,0-.463.207-.463.463s.207.463.463.463c.833,0,1.511.678,1.511,1.511h0ZM10.677,16.545c.152.21.337.395.547.547-.21.152-.395.337-.547.547-.152-.21-.337-.395-.547-.547.21-.152.395-.337.547-.547h0Z" fill="#7ec6ee"/>
  <path d="M21.533,11.633c1.105,0,2.005.899,2.005,2.005,0,.256.207.463.463.463s.463-.207.463-.463c0-1.105.899-2.005,2.005-2.005.256,0,.463-.207.463-.463s-.207-.463-.463-.463c-1.105,0-2.005-.899-2.005-2.005,0-.256-.207-.463-.463-.463s-.463.207-.463.463c0,1.105-.899,2.005-2.005,2.005-.255,0-.463.207-.463.463s.207.463.463.463h0ZM24,10.281c.229.356.533.66.889.889-.356.229-.66.533-.889.889-.229-.356-.533-.66-.889-.889.356-.229.66-.532.889-.889h0Z" fill="#7ec6ee"/>
  <path d="M32.953,25.264c.081-.115.102-.262.055-.394l-1.684-4.771c-.126-.357-.465-.597-.844-.597h-13.084c-.379,0-.718.24-.844.597l-1.684,4.771c-.098.277.115.577.408.577h17.323c.14,0,.272-.068.353-.183h0ZM15.889,24.582l1.48-4.194.027-.019h13.084l.027.019,1.48,4.194H15.889Z" fill="silver"/>
  <path d="M32.248,33.353c-1.07,0-1.873-.501-1.873-.951s.803-.951,1.873-.951,1.877.501,1.877.951-.802.951-1.877.951h0ZM32.248,30.584c-1.537,0-2.739.798-2.739,1.818s1.202,1.818,2.739,1.818,2.743-.799,2.743-1.818-1.206-1.818-2.743-1.818h0Z" fill="silver"/>
  <path d="M34.124,32.402c0,.45-.802.951-1.877.951s-1.873-.501-1.873-.951.803-.951,1.873-.951,1.877.501,1.877.951h0Z" fill="#f6c42d"/>
  <path d="M15.626,33.353c-1.07,0-1.873-.501-1.873-.951s.803-.951,1.873-.951,1.877.501,1.877.951-.803.951-1.877.951h0ZM15.626,30.584c-1.537,0-2.739.798-2.739,1.818s1.202,1.818,2.739,1.818,2.743-.799,2.743-1.818-1.206-1.818-2.743-1.818h0Z" fill="silver"/>
  <path d="M17.503,32.402c0,.45-.803.951-1.877.951s-1.873-.501-1.873-.951.803-.951,1.873-.951,1.877.501,1.877.951h0Z" fill="#f6c42d"/>
  <path d="M37.789,24.12h-2.308c-.198,0-.372.135-.42.328l-.304,1.216-2.126-6.025c-.321-.91-1.185-1.521-2.15-1.521h-13.084c-.965,0-1.829.611-2.15,1.521l-2.127,6.025-.304-1.216c-.048-.193-.221-.328-.42-.328h-2.308c-.239,0-.433.194-.433.433v1.847c0,.239.194.433.433.433h2.391l-1.476,2.066c-.278.389-.425.847-.425,1.325v5.41c0,.749.364,1.416.924,1.831v.015s0,1.385,0,1.385c0,.493.401.895.895.895h2.77c.493,0,.895-.401.895-.895v-.952h15.755v.952c0,.493.401.895.895.895h2.77c.493,0,.895-.401.895-.895v-1.4c.56-.416.924-1.082.924-1.831v-5.41c0-.478-.147-.936-.425-1.325l-1.476-2.066h2.391c.239,0,.433-.194.433-.433v-1.847c0-.239-.194-.433-.433-.433h0ZM10.52,25.967v-.981h1.538l.245.981h-1.783ZM20.216,32.373h7.445v.981h-7.445v-.981h0ZM20.284,31.507c.183-.569.717-.981,1.346-.981h4.617c.629,0,1.163.413,1.346.981h-7.309ZM20.216,34.219h7.445v.981h-7.445v-.981h0ZM36.365,36.066c-.183.569-.717.981-1.346.981H12.858c-.629,0-1.163-.413-1.346-.981h24.853ZM15.195,38.865l-.029.029h-2.77l-.029-.029v-.952h2.828v.952h0ZM35.51,37.913v.952l-.029.029h-2.77l-.029-.029v-.952h2.828ZM36.433,30.223v4.977h-7.906v-3.261c0-1.257-1.023-2.28-2.28-2.28h-4.617c-1.257,0-2.28,1.023-2.28,2.28v3.261h-7.907v-4.977c0-.296.091-.581.263-.822l1.835-2.569h15.937c.239,0,.433-.194.433-.433s-.194-.433-.433-.433h-15.548l2.132-6.04c.199-.564.735-.943,1.333-.943h13.085c.598,0,1.134.379,1.334.943l2.131,6.04h-2.62c-.239,0-.433.194-.433.433s.194.433.433.433h3.009l1.835,2.569c.172.241.263.525.263.822h0ZM37.357,25.967h-1.783l.246-.981h1.538v.981h0Z" fill="silver"/>
  <path d="M14.243,30.064h2.77c.239,0,.433-.194.433-.433s-.194-.433-.433-.433h-2.77c-.239,0-.433.194-.433.433s.194.433.433.433h0Z" fill="silver"/>
  <path d="M30.431,29.631c0,.239.194.433.433.433h2.77c.239,0,.433-.194.433-.433s-.194-.433-.433-.433h-2.77c-.239,0-.433.194-.433.433h0Z" fill="silver"/>
</svg>