<?xml version="1.0" encoding="UTF-8"?>
<svg id="Layer_1" data-name="Layer 1" xmlns="http://www.w3.org/2000/svg" viewBox="0 0 48 48">
  <g>
    <polygon points="14.634 29.749 12.86 28.928 14.634 28.107 12.86 27.285 14.634 26.464 12.86 25.643 14.634 24.821 12.86 24 14.634 23.179 12.86 22.357 14.634 21.536 12.86 20.715 14.634 19.893 12.86 19.072 14.634 18.251 12.86 17.429 14.634 16.608 7.512 16.608 7.512 31.392 14.634 31.392 12.86 30.571 14.634 29.749" fill="#98043d"/>
    <g>
      <path d="M11.13,19.4c.08-.1.14-.2.18-.3.04-.13.07-.29.07-.46,0-.33-.09-.59-.27-.78-.17-.18-.41-.28-.72-.28-.3,0-.54.1-.72.28-.18.19-.27.45-.27.78s.09.59.27.78c.18.18.42.27.74.27.16,0,.31-.03.44-.09.17.12.26.18.27.19.06.03.12.05.19.07l.15-.29c-.12-.04-.23-.1-.33-.17ZM10.92,18.94c-.03.09-.07.16-.12.23-.13-.1-.26-.17-.39-.21l-.12.23c.09.03.17.08.26.13-.06.02-.11.03-.17.03-.16,0-.29-.06-.4-.18-.1-.12-.15-.29-.15-.53s.05-.41.15-.53c.11-.12.24-.17.41-.17s.31.05.41.17c.1.12.16.29.16.53,0,.11-.02.21-.04.3Z" fill="#e5e6e7"/>
      <path d="M10.51,20.31h-.44l-.79,2.04h.44l.16-.47h.82l.18.47h.45l-.82-2.04ZM10.01,21.54l.28-.76.28.76h-.56Z" fill="#e5e6e7"/>
      <path d="M9.34,23v.34h.61v1.7h.41v-1.7h.6v-.34h-1.62Z" fill="#e5e6e7"/>
      <path d="M10.51,25.69h-.44l-.79,2.04h.44l.16-.47h.82l.18.47h.45l-.82-2.04ZM10.01,26.92l.28-.76.28.76h-.56Z" fill="#e5e6e7"/>
      <path d="M11.07,30.02c-.1-.16-.17-.27-.23-.33-.06-.07-.13-.12-.22-.17.18-.03.31-.09.4-.19.09-.1.14-.23.14-.38,0-.12-.03-.23-.09-.32-.06-.1-.14-.16-.24-.2-.1-.03-.26-.05-.48-.05h-.86v2.04h.41v-.86h.08c.1,0,.17.01.21.03.04.01.09.04.12.08.04.04.12.14.22.3l.3.45h.49l-.25-.4ZM10.2,29.24h-.3v-.52h.32c.17,0,.27,0,.3.01.07.01.12.04.16.08.03.04.05.1.05.16,0,.07-.01.12-.04.16-.03.04-.07.07-.12.08-.04.02-.17.03-.37.03Z" fill="#e5e6e7"/>
    </g>
  </g>
  <g>
    <path d="M24.55,24c-.03-.34-.13-.68-.34-.96-.25-.34-.62-.33-.85.01-.17.25-.24.54-.24.84-.01.36.19.57.55.56.19,0,.37-.05.59-.09.02.18.04.36.06.55h-1.58v-.32c-.03-.33-.13-.63-.46-.78-.22-.1-.45-.1-.68-.06-.42.09-.78.29-1.15.49-.06.03-.12.04-.2.08.22-.82.05-1.57-.15-2.34.07.01.11.01.18.02.03-.2.06-.39.08-.55-.24-.11-.45-.2-.68-.31-.05.19-.1.4-.14.56.11.13.21.2.23.29.12.53.23,1.07.31,1.6.05.29.05.59-.07.87-.03.07-.08.16-.14.2-.34.21-.7.31-1.12.24.02-.53-.12-.99-.56-1.35-.07.19-.13.36-.18.51.12.2.25.36.35.54.14.26.19.54.07.82-.28.64-1.17,1.31-1.9,1.26-.25-.01-.5-.09-.75-.13-.05,0-.1.04-.15.06v.06c.34.13.67.27,1.01.37.19.05.42.1.6.03.76-.26,1.32-.73,1.54-1.59h5.85c-.03-.51-.04-1-.08-1.48ZM23.66,23.88c-.18-.01-.28-.15-.24-.32.03-.17.19-.25.32-.15.12.09.21.21.32.32-.13.14-.26.17-.4.15ZM21.96,24.87c-.15.02-.3.05-.46.05-.49.01-.98,0-1.47,0,.39-.3.81-.51,1.27-.61.24-.04.48-.03.71.07.12.05.21.13.2.27-.01.14-.12.2-.25.22Z"/>
    <path d="M23.708,22.042c-.084.16-.163.31-.254.484-.181-.091-.357-.181-.54-.273.081-.162.158-.315.244-.488.187.094.365.184.55.277Z"/>
    <path d="M23.688,21.933c.084-.161.161-.311.249-.48.182.097.352.186.536.284-.084.163-.162.314-.25.483-.177-.094-.346-.185-.536-.287Z"/>
  </g>
  <g>
    <path d="M38.19,29.83c.35,0,.62-.28.62-.62s-.27-.63-.62-.63-.63.28-.63.63.29.62.63.62Z" fill="silver"/>
    <path d="M43.38,22.03c.34,0,.62-.28.62-.62v-6.53c0-1.04-.84-1.88-1.87-1.88h-25.51c-.35,0-.63.28-.63.63,0,.34.28.62.63.62h20.94v1.34H10.44v-1.34h3.45c.34,0,.62-.28.62-.62,0-.35-.28-.63-.62-.63H5.87c-1.03,0-1.87.84-1.87,1.88v18.24c0,1.04.84,1.88,1.87,1.88h36.26c1.03,0,1.87-.84,1.87-1.88v-8.98c0-.35-.28-.63-.62-.63-.35,0-.63.28-.63.63v4.44h-1.34v-9.14h1.34v1.97c0,.34.28.62.63.62ZM5.25,14.88c0-.35.28-.63.62-.63h3.31v1.34h-1.13c-.8,0-1.46.66-1.46,1.47v1.13h-1.34v-3.31ZM5.25,19.44h1.34v9.13h-1.34v-9.13ZM9.18,33.75h-3.31c-.34,0-.62-.28-.62-.63v-3.3h1.34v1.15c0,.8.66,1.46,1.46,1.46h1.13v1.32ZM37.56,33.75H10.44v-1.32h10.98c.35,0,.63-.28.63-.63,0-.34-.28-.63-.63-.63h-13.37c-.11,0-.21-.09-.21-.2v-13.91c0-.12.1-.21.21-.21h31.9c.11,0,.21.09.21.21v13.91c0,.11-.1.2-.21.2h-15.8c-.35,0-.63.29-.63.63,0,.35.28.63.63.63h13.41v1.32ZM42.75,29.83v3.29c0,.35-.28.63-.62.63h-3.31v-1.32h1.13c.8,0,1.46-.66,1.46-1.46v-1.14h1.34ZM41.41,18.19v-1.13c0-.81-.66-1.47-1.46-1.47h-1.13v-1.34h3.31c.34,0,.62.28.62.63v3.31h-1.34Z" fill="silver"/>
  </g>
</svg>