<?xml version="1.0" encoding="UTF-8"?>
<svg id="Layer_1" data-name="Layer 1" xmlns="http://www.w3.org/2000/svg" viewBox="0 0 48 48">
  <polygon points="40.851 39.401 7.047 39.401 7.047 37.573 40.851 37.573 40.851 39.401 40.851 39.401" fill="#ec6c64"/>
  <path d="M16.689,34.278h2.255c.283,0,.512-.23.512-.512s-.23-.512-.512-.512h-2.255c-.283,0-.512.229-.512.512s.23.512.512.512h0Z" fill="silver"/>
  <path d="M12.487,25.359h-1.571v-2.596h1.571v2.596h0ZM12.794,21.737h-2.186c-.396,0-.717.322-.717.717v3.211c0,.396.322.717.717.717h2.186c.396,0,.717-.322.717-.717v-3.211c0-.396-.322-.717-.717-.717h0Z" fill="#7ec6ee"/>
  <path d="M33.736,20.628v-1.761h5.125v1.761h-5.125ZM7.533,17.843v-4.817c0-.283.23-.512.512-.512h5.418l-.107.311c-.095.276-.05.583.119.82.169.238.445.38.737.38h18.207c.386,0,.73-.246.856-.611l.31-.901h6.369c.282,0,.512.23.512.512v4.817H7.533ZM34.898,27.393v2.801h-1.162v-2.801h1.162ZM32.712,27.393v2.801h-1.162v-2.801h1.162ZM27.587,20.628v-1.761h5.125v1.761h-5.125ZM32.712,21.653v4.715h-1.332c-.471,0-.854.383-.854.854v3.143c0,.471.383.854.854.854h1.332v5.671h-5.125v-15.237h5.125ZM21.941,35.882v1.009h-.503v-1.009h.503ZM24.102,35.882v1.009h-1.137v-1.009h1.137ZM22.936,32.674c.643,0,1.167.524,1.167,1.167v1.016h-2.665v-2.183h1.498ZM22.071,30.363l.447,1.286h-.815c-.027-.281-.121-.542-.265-.768v-1.225c.291.139.523.389.633.706h0ZM23.644,31.768l-.605-1.741c-.256-.735-.867-1.274-1.601-1.452v-9.707h5.125v18.023h-1.435v-3.049c0-.961-.621-1.778-1.483-2.073h0ZM20.413,35.882v1.009h-5.125v-1.009h5.125ZM20.413,32.674v2.183h-5.125v-2.183h5.125ZM20.413,31.256v.394h-1.123c.074-.311.354-.544.688-.544.164,0,.315.057.435.151h0ZM15.732,28.512h-.444v-9.644h5.125v9.644h-2.289c-.283,0-.512.229-.512.513s.23.512.512.512h2.289v.599c-.139-.036-.285-.056-.435-.056-.9,0-1.642.69-1.725,1.569h-2.965v-2.113h.444c.283,0,.512-.23.512-.512s-.23-.513-.512-.513h0ZM12.594,30.027l-.605,1.741c-.862.295-1.483,1.113-1.483,2.073v3.049h-1.367v-18.023h5.125v9.693c-.764.16-1.406.708-1.67,1.466h0ZM13.115,31.649l.447-1.286c.119-.342.379-.606.702-.737v2.023h-1.149ZM12.667,35.882v1.009h-1.137v-1.009h1.137ZM14.263,35.882v1.009h-.572v-1.009h.572ZM11.53,34.857v-1.016c0-.643.523-1.167,1.167-1.167h1.567v2.183h-2.733ZM40.467,37.915v.82H7.533v-.82h32.934ZM9.48,10.361c0-.094.076-.171.171-.171h4.612l-.447,1.298h-4.336v-1.127h0ZM34.385,10.19h3.963c.094,0,.171.076.171.171v1.127h-4.581l.447-1.298h0ZM39.374,24.171c.283,0,.512-.23.512-.513v-4.791h.752c.471,0,.854-.383.854-.854v-4.988c0-.848-.69-1.537-1.537-1.537h-.41v-1.127c0-.659-.536-1.196-1.196-1.196h-3.658c.004-.193-.052-.385-.167-.546-.169-.237-.445-.379-.737-.379h-3.16c-.283,0-.512.229-.512.512s.23.512.512.512h2.992l-1.286,3.735H14.38l1.285-3.735h12.571c.283,0,.512-.229.512-.512s-.23-.512-.512-.512h-12.656c-.386,0-.73.246-.856.611l-.108.315h-4.965c-.659,0-1.196.537-1.196,1.196v1.127h-.41c-.848,0-1.537.69-1.537,1.537v4.988c0,.471.383.854.854.854h.752v18.023h-.752c-.471,0-.854.383-.854.854v1.161c0,.471.383.854.854.854h33.275c.471,0,.854-.383.854-.854v-1.161c0-.471-.383-.854-.854-.854h-.752v-10.841c0-.283-.23-.512-.512-.512s-.512.23-.512.512v10.841h-5.125v-5.671h1.332c.471,0,.854-.383.854-.854v-3.143c0-.471-.383-.854-.854-.854h-1.332v-4.715h5.125v2.005c0,.283.23.513.512.513h0Z" fill="silver"/>
  <path d="M17.653,11.132c0,.283.229.512.512.512h11.669c.283,0,.512-.229.512-.512s-.23-.512-.512-.512h-11.669c-.283,0-.512.229-.512.512h0Z" fill="silver"/>
  <path d="M38.622,14.29h-2.938c-.283,0-.512.23-.512.512s.23.512.512.512h2.938c.283,0,.512-.229.512-.512s-.23-.512-.512-.512h0Z" fill="silver"/>
  <path d="M15.252,34.82v1.025h5.124v-1.025h-5.124ZM15.252,34.82v1.025h5.124v-1.025h-5.124Z" fill="#ec6c64"/>
  <path d="M13.525,30.327l-.446,1.287h1.148v1.024h-1.566c-.644,0-1.167.524-1.167,1.167v1.016h2.732v1.025h-.571v1.008h-1.025v-1.008h-1.137v1.008h-1.025v-3.049c0-.96.622-1.778,1.483-2.073l.605-1.74c.264-.758.905-1.307,1.669-1.467v1.066c-.321.13-.583.395-.702.736h0Z" fill="#ec6c64"/>
  <path d="M16.208,28.988c0,.282-.229.513-.511.513h-.445v-1.025h.445c.282,0,.511.229.511.513h0Z" fill="#ec6c64"/>
  <path d="M20.376,28.475v1.025h-2.289c-.282,0-.513-.23-.513-.513s.23-.513.513-.513h2.289Z" fill="#ec6c64"/>
  <path d="M19.254,31.613h1.122v1.024h-5.124v-1.024h2.966c.082-.88.824-1.569,1.724-1.569.15,0,.296.019.435.056v1.12c-.12-.095-.27-.151-.435-.151-.334,0-.613.234-.687.545h0Z" fill="#ec6c64"/>
  <path d="M25.091,33.804v3.049h-1.025v-1.008h-1.137v1.008h-1.025v-1.008h-.503v-1.025h2.664v-1.016c0-.643-.523-1.167-1.167-1.167h-1.498v-1.793c.145.226.238.487.265.768h.816l-.447-1.287c-.111-.317-.344-.567-.634-.706v-1.082c.734.177,1.345.716,1.601,1.451l.605,1.741c.862.295,1.483,1.113,1.483,2.073h0Z" fill="#ec6c64"/>
</svg>