<?xml version="1.0" encoding="UTF-8"?>
<svg id="Layer_1" data-name="Layer 1" xmlns="http://www.w3.org/2000/svg" viewBox="0 0 48 48">
  <path d="M41.031,21.658s-.002-.002-.003-.002l-14.685-14.685c-.626-.626-1.458-.971-2.343-.971s-1.718.345-2.344.971l-14.678,14.677s-.01.01-.015.015c-1.285,1.293-1.283,3.39.006,4.68.589.589,1.367.931,2.199.967.034.003.068.005.102.005h.585v10.807c0,2.138,1.74,3.878,3.879,3.878h5.745c.582,0,1.055-.472,1.055-1.055v-8.473c0-.976.794-1.77,1.77-1.77h3.389c.976,0,1.77.794,1.77,1.77v8.473c0,.583.472,1.055,1.055,1.055h5.745c2.139,0,3.879-1.74,3.879-3.878v-10.807h.543c.885,0,1.717-.345,2.344-.971,1.291-1.292,1.292-3.393.002-4.685h0Z" fill="#fff"/>
</svg>