<?xml version="1.0" encoding="UTF-8"?>
<svg id="Layer_1" data-name="Layer 1" xmlns="http://www.w3.org/2000/svg" viewBox="0 0 48 48">
  <path d="M0,9.379v15.515l23.108,23.106h15.513L0,9.379Z" fill="#db7469"/>
  <path d="M3.836,22.918c-.413-.413-.619-.892-.617-1.438,0-.544.203-1.018.605-1.421s.876-.604,1.421-.606c.544,0,1.023.205,1.437.618.248.248.419.536.512.864.092.329.097.652.014.971l-.62-.165c.063-.209.064-.423.004-.643-.06-.22-.177-.416-.349-.588-.293-.293-.623-.437-.99-.433-.368.004-.693.148-.978.433s-.43.61-.434.979c-.004.367.14.697.433.99.172.172.369.289.59.351.221.061.435.059.641-.006l.168.616c-.316.086-.639.083-.968-.008-.33-.091-.62-.262-.871-.513ZM6.282,25.364c-.287-.287-.433-.631-.435-1.031-.003-.399.141-.744.431-1.034s.636-.435,1.035-.432c.4.002.744.147,1.031.435.291.291.436.635.437,1.034.002.398-.143.742-.434,1.033s-.634.435-1.032.433c-.399,0-.743-.146-1.034-.437ZM6.436,24.341c0,.235.086.439.258.612s.377.259.612.259c.235,0,.441-.089.619-.266.178-.178.268-.385.267-.62,0-.235-.086-.439-.259-.612s-.376-.258-.612-.258c-.235,0-.441.089-.62.267-.177.177-.267.384-.266.619ZM11.905,26.862c.222.222.33.473.321.753-.007.28-.133.541-.376.784l-1.215,1.215-.423-.423,1.188-1.188c.136-.136.208-.276.213-.417.007-.143-.049-.272-.167-.39-.131-.131-.277-.192-.44-.183-.164.009-.331.1-.504.272l-1.098,1.098-.424-.424,1.188-1.188c.136-.136.21-.273.22-.411.011-.139-.043-.267-.161-.384-.128-.128-.276-.189-.445-.183-.169.007-.338.095-.508.265l-1.098,1.098-.423-.423,1.96-1.96.423.423-.235.235c.317-.066.599.026.848.274.251.251.333.54.247.867.337-.076.641.021.91.29ZM13.826,28.136c-.106,0-.197-.037-.27-.11s-.11-.164-.11-.27c0-.107.037-.198.11-.271.073-.073.162-.11.269-.111.105,0,.196.036.272.112s.113.167.112.272c-.001.106-.039.195-.112.268-.073.073-.164.11-.271.11ZM11.089,30.069l1.96-1.96.424.424-1.96,1.96-.424-.424ZM15.045,30.002c.225.225.334.478.329.761-.005.282-.133.549-.384.8l-1.204,1.204-.423-.423,1.161-1.161c.146-.146.219-.298.219-.455,0-.157-.068-.303-.205-.439-.149-.149-.315-.223-.499-.222-.185.001-.372.098-.562.288l-1.051,1.051-.424-.424,1.96-1.96.424.424-.25.25c.329-.073.632.029.909.306ZM17.762,32.822l.416.416-1.87,1.87c-.298.298-.625.429-.98.393s-.673-.195-.952-.475c-.453-.453-.604-.92-.455-1.403l.576.153c-.099.303-.009.595.271.875.183.183.374.278.572.286.199.007.383-.074.553-.244l.239-.239c-.386.068-.728-.045-1.023-.341-.277-.277-.412-.61-.405-.998.006-.388.149-.723.429-1.002s.614-.422,1.002-.429c.388-.007.721.128.998.405.295.295.409.637.341,1.023l.29-.29ZM15.294,33.153c.001.237.09.444.268.622s.385.267.622.269c.236.001.442-.085.617-.261s.262-.381.261-.618c-.002-.236-.092-.443-.27-.621s-.384-.267-.621-.269c-.237,0-.443.086-.618.261s-.263.381-.261.617ZM18.582,37.664c-.264-.264-.428-.548-.493-.853-.064-.304-.028-.598.108-.881l.615.161c-.199.418-.125.8.22,1.146.17.17.33.264.481.282.152.018.281-.026.388-.133.112-.112.152-.243.119-.394s-.131-.376-.293-.68c-.08-.175-.146-.319-.198-.432-.052-.112-.092-.245-.121-.397-.028-.151-.02-.294.028-.431.046-.135.131-.265.254-.388.243-.243.522-.349.837-.32.315.03.594.167.837.41.22.22.358.465.416.737.058.272.037.546-.062.823l-.6-.161c.142-.371.077-.691-.192-.96-.131-.131-.266-.205-.405-.222-.14-.017-.262.027-.367.132-.099.099-.138.218-.116.356.023.137.108.343.253.618.064.141.111.245.141.311s.073.16.128.282c.056.123.087.224.094.306.007.082.008.175.003.281-.005.106-.033.206-.083.297-.051.093-.122.184-.211.274-.249.249-.535.355-.859.322-.324-.034-.631-.196-.921-.486ZM20.895,39.977c-.288-.288-.433-.631-.435-1.032-.003-.399.141-.744.431-1.034s.636-.435,1.035-.432c.4.003.744.147,1.032.435.29.29.436.635.437,1.034.001.398-.143.742-.434,1.033s-.634.434-1.032.433c-.399,0-.744-.147-1.034-.437ZM21.048,38.954c0,.235.086.439.258.612s.376.258.612.258c.235,0,.442-.088.619-.266.178-.178.267-.385.267-.62,0-.235-.086-.439-.258-.612s-.376-.258-.612-.258c-.235,0-.442.088-.62.267-.177.177-.266.384-.266.619ZM23.24,42.322c-.288-.288-.433-.631-.435-1.032-.003-.399.141-.744.431-1.034s.636-.435,1.035-.432c.4.002.744.147,1.032.435.29.29.436.635.437,1.033.002.398-.142.743-.433,1.034s-.634.434-1.033.432c-.399,0-.743-.146-1.033-.437ZM23.393,41.298c0,.235.086.439.259.612s.376.258.612.258c.235,0,.441-.089.619-.266.178-.178.268-.385.267-.62,0-.235-.086-.439-.258-.612s-.377-.259-.612-.259-.441.089-.62.267c-.177.177-.266.384-.266.619ZM27.752,42.709c.225.225.335.479.329.761-.005.282-.133.549-.384.8l-1.204,1.204-.423-.423,1.161-1.161c.146-.146.219-.298.219-.455,0-.157-.068-.303-.205-.439-.149-.149-.315-.223-.499-.222-.185.001-.372.098-.562.288l-1.051,1.051-.424-.424,1.96-1.96.424.424-.25.25c.329-.073.632.029.909.306Z" fill="#fff"/>
</svg>