<?xml version="1.0" encoding="UTF-8"?>
<svg id="Layer_1" data-name="Layer 1" xmlns="http://www.w3.org/2000/svg" viewBox="0 0 70 30">
  <path d="M50.355,14.93c-.46-.45-1.02-.68-1.69-.68s-1.23.23-1.69.68c-.45.46-.68,1.03-.68,1.72s.23,1.26.68,1.72c.46.46,1.02.69,1.69.69s1.23-.23,1.69-.69c.46-.46.69-1.03.69-1.72s-.23-1.26-.69-1.72ZM50.355,14.93c-.46-.45-1.02-.68-1.69-.68s-1.23.23-1.69.68c-.45.46-.68,1.03-.68,1.72s.23,1.26.68,1.72c.46.46,1.02.69,1.69.69s1.23-.23,1.69-.69c.46-.46.69-1.03.69-1.72s-.23-1.26-.69-1.72ZM34.165,14.93c-.46-.45-1.02-.68-1.69-.68s-1.23.23-1.69.68c-.46.46-.69,1.03-.69,1.72s.23,1.26.69,1.72,1.02.69,1.69.69,1.23-.23,1.69-.69c.46-.46.68-1.03.68-1.72s-.22-1.26-.68-1.72ZM50.355,14.93c-.46-.45-1.02-.68-1.69-.68s-1.23.23-1.69.68c-.45.46-.68,1.03-.68,1.72s.23,1.26.68,1.72c.46.46,1.02.69,1.69.69s1.23-.23,1.69-.69c.46-.46.69-1.03.69-1.72s-.23-1.26-.69-1.72ZM50.355,14.93c-.46-.45-1.02-.68-1.69-.68s-1.23.23-1.69.68c-.45.46-.68,1.03-.68,1.72s.23,1.26.68,1.72c.46.46,1.02.69,1.69.69s1.23-.23,1.69-.69c.46-.46.69-1.03.69-1.72s-.23-1.26-.69-1.72ZM34.165,14.93c-.46-.45-1.02-.68-1.69-.68s-1.23.23-1.69.68c-.46.46-.69,1.03-.69,1.72s.23,1.26.69,1.72,1.02.69,1.69.69,1.23-.23,1.69-.69c.46-.46.68-1.03.68-1.72s-.22-1.26-.68-1.72ZM34.165,14.93c-.46-.45-1.02-.68-1.69-.68s-1.23.23-1.69.68c-.46.46-.69,1.03-.69,1.72s.23,1.26.69,1.72,1.02.69,1.69.69,1.23-.23,1.69-.69c.46-.46.68-1.03.68-1.72s-.22-1.26-.68-1.72ZM50.355,14.93c-.46-.45-1.02-.68-1.69-.68s-1.23.23-1.69.68c-.45.46-.68,1.03-.68,1.72s.23,1.26.68,1.72c.46.46,1.02.69,1.69.69s1.23-.23,1.69-.69c.46-.46.69-1.03.69-1.72s-.23-1.26-.69-1.72ZM50.355,14.93c-.46-.45-1.02-.68-1.69-.68s-1.23.23-1.69.68c-.45.46-.68,1.03-.68,1.72s.23,1.26.68,1.72c.46.46,1.02.69,1.69.69s1.23-.23,1.69-.69c.46-.46.69-1.03.69-1.72s-.23-1.26-.69-1.72ZM34.165,14.93c-.46-.45-1.02-.68-1.69-.68s-1.23.23-1.69.68c-.46.46-.69,1.03-.69,1.72s.23,1.26.69,1.72,1.02.69,1.69.69,1.23-.23,1.69-.69c.46-.46.68-1.03.68-1.72s-.22-1.26-.68-1.72ZM65.005,0H5.005C2.235,0,.005,2.24.005,5v20c0,2.76,2.23,5,5,5h60c2.76,0,5-2.24,5-5V5c0-2.76-2.24-5-5-5ZM13.695,16.92c0,1.14-.38,2.05-1.13,2.72-.75.68-1.72,1.01-2.91,1.01-1.18,0-2.15-.33-2.9-1.01-.75-.67-1.13-1.58-1.13-2.72v-7.12h1.75v7.02c0,.65.19,1.17.57,1.55.38.39.95.58,1.71.58.77,0,1.34-.19,1.72-.58.38-.38.57-.9.57-1.55v-7.02h1.75v7.12ZM22.525,20.46h-1.65v-4.51c0-.57-.15-1-.46-1.31-.3-.3-.72-.45-1.24-.45-.58,0-1.05.18-1.4.54-.36.36-.54.91-.54,1.65v4.08h-1.64v-7.61h1.64v.97c.5-.78,1.29-1.17,2.36-1.17.88,0,1.58.28,2.12.84.54.55.81,1.32.81,2.29v4.68ZM28.275,11.19c-1.2-.11-1.8.39-1.8,1.5v.16h1.8v1.58h-1.8v6.03h-1.64v-6.03h-1.16v-1.58h1.16v-.16c0-1.04.29-1.84.87-2.38.59-.54,1.44-.78,2.57-.71v1.59ZM35.325,19.5c-.77.77-1.73,1.15-2.85,1.15s-2.07-.38-2.85-1.15c-.78-.77-1.17-1.72-1.17-2.85s.39-2.07,1.17-2.85c.78-.77,1.73-1.15,2.85-1.15s2.08.38,2.85,1.15c.78.78,1.17,1.72,1.17,2.85s-.39,2.08-1.17,2.85ZM39.625,20.46h-1.64v-11.11h1.64v11.11ZM43.175,20.46h-1.65v-11.11h1.65v11.11ZM51.525,19.5c-.78.77-1.73,1.15-2.86,1.15-1.11,0-2.06-.38-2.84-1.15-.79-.77-1.18-1.72-1.18-2.85s.39-2.07,1.18-2.85c.78-.77,1.73-1.15,2.84-1.15,1.13,0,2.08.38,2.86,1.15.77.78,1.16,1.72,1.16,2.85s-.39,2.08-1.16,2.85ZM61.985,20.46h-1.61l-1.62-5.2-1.61,5.2h-1.74l-2.22-7.61h1.74l1.47,5.25,1.6-5.25h1.58l1.58,5.25,1.48-5.25h1.74l-2.39,7.61ZM48.665,14.25c-.67,0-1.23.23-1.69.68-.45.46-.68,1.03-.68,1.72s.23,1.26.68,1.72c.46.46,1.02.69,1.69.69s1.23-.23,1.69-.69c.46-.46.69-1.03.69-1.72s-.23-1.26-.69-1.72c-.46-.45-1.02-.68-1.69-.68ZM32.475,14.25c-.67,0-1.23.23-1.69.68-.46.46-.69,1.03-.69,1.72s.23,1.26.69,1.72,1.02.69,1.69.69,1.23-.23,1.69-.69c.46-.46.68-1.03.68-1.72s-.22-1.26-.68-1.72c-.46-.45-1.02-.68-1.69-.68ZM34.165,14.93c-.46-.45-1.02-.68-1.69-.68s-1.23.23-1.69.68c-.46.46-.69,1.03-.69,1.72s.23,1.26.69,1.72,1.02.69,1.69.69,1.23-.23,1.69-.69c.46-.46.68-1.03.68-1.72s-.22-1.26-.68-1.72ZM50.355,14.93c-.46-.45-1.02-.68-1.69-.68s-1.23.23-1.69.68c-.45.46-.68,1.03-.68,1.72s.23,1.26.68,1.72c.46.46,1.02.69,1.69.69s1.23-.23,1.69-.69c.46-.46.69-1.03.69-1.72s-.23-1.26-.69-1.72ZM50.355,14.93c-.46-.45-1.02-.68-1.69-.68s-1.23.23-1.69.68c-.45.46-.68,1.03-.68,1.72s.23,1.26.68,1.72c.46.46,1.02.69,1.69.69s1.23-.23,1.69-.69c.46-.46.69-1.03.69-1.72s-.23-1.26-.69-1.72ZM34.165,14.93c-.46-.45-1.02-.68-1.69-.68s-1.23.23-1.69.68c-.46.46-.69,1.03-.69,1.72s.23,1.26.69,1.72,1.02.69,1.69.69,1.23-.23,1.69-.69c.46-.46.68-1.03.68-1.72s-.22-1.26-.68-1.72ZM50.355,14.93c-.46-.45-1.02-.68-1.69-.68s-1.23.23-1.69.68c-.45.46-.68,1.03-.68,1.72s.23,1.26.68,1.72c.46.46,1.02.69,1.69.69s1.23-.23,1.69-.69c.46-.46.69-1.03.69-1.72s-.23-1.26-.69-1.72ZM50.355,14.93c-.46-.45-1.02-.68-1.69-.68s-1.23.23-1.69.68c-.45.46-.68,1.03-.68,1.72s.23,1.26.68,1.72c.46.46,1.02.69,1.69.69s1.23-.23,1.69-.69c.46-.46.69-1.03.69-1.72s-.23-1.26-.69-1.72ZM50.355,14.93c-.46-.45-1.02-.68-1.69-.68s-1.23.23-1.69.68c-.45.46-.68,1.03-.68,1.72s.23,1.26.68,1.72c.46.46,1.02.69,1.69.69s1.23-.23,1.69-.69c.46-.46.69-1.03.69-1.72s-.23-1.26-.69-1.72ZM50.355,14.93c-.46-.45-1.02-.68-1.69-.68s-1.23.23-1.69.68c-.45.46-.68,1.03-.68,1.72s.23,1.26.68,1.72c.46.46,1.02.69,1.69.69s1.23-.23,1.69-.69c.46-.46.69-1.03.69-1.72s-.23-1.26-.69-1.72Z" fill="silver"/>
</svg>