<?xml version="1.0" encoding="UTF-8"?>
<svg id="Layer_1" data-name="Layer 1" xmlns="http://www.w3.org/2000/svg" viewBox="0 0 48 48">
  <path d="M42,41.71l-.006.29H6.006l-.006-.29c0-6.59,3.659-12.339,9.089-15.381,2.414,1.992,5.518,3.188,8.911,3.188s6.498-1.196,8.912-3.188c5.429,3.043,9.089,8.791,9.089,15.381h0Z" fill="#fff"/>
  <path d="M34.328,16.161c0,3.54-1.843,6.658-4.637,8.477-1.631,1.064-3.588,1.685-5.691,1.685s-4.06-.62-5.691-1.685c-2.794-1.818-4.637-4.936-4.637-8.477,0-5.61,4.626-10.161,10.328-10.161s10.328,4.551,10.328,10.161h0Z" fill="#fff"/>
</svg>