<?xml version="1.0" encoding="UTF-8"?>
<svg id="Layer_1" data-name="Layer 1" xmlns="http://www.w3.org/2000/svg" viewBox="0 0 48 48">
  <path d="M35.461,24c0,.505-.409.914-.914.914h-9.633v9.633c0,.505-.409.914-.914.914s-.914-.409-.914-.914v-9.633h-9.633c-.505,0-.914-.409-.914-.914s.409-.914.914-.914h9.633v-9.633c0-.505.409-.914.914-.914s.914.409.914.914v9.633h9.633c.505,0,.914.409.914.914ZM42,12.223v23.555c0,3.431-2.791,6.223-6.223,6.223H12.223c-3.431,0-6.223-2.791-6.223-6.223V12.223c0-3.431,2.791-6.223,6.223-6.223h23.555c3.431,0,6.223,2.791,6.223,6.223ZM40.172,12.223c0-2.423-1.971-4.395-4.395-4.395H12.223c-2.423,0-4.395,1.971-4.395,4.395v23.555c0,2.423,1.971,4.394,4.395,4.394h23.555c2.423,0,4.395-1.971,4.395-4.394V12.223Z" fill="#fff"/>
</svg>