<?xml version="1.0" encoding="UTF-8"?>
<svg id="Layer_1" data-name="Layer 1" xmlns="http://www.w3.org/2000/svg" viewBox="0 0 48 48">
  <path d="M33.871,34.101c-1.072,0-2.073-.351-2.909-1.014-.765-.619-1.32-1.467-1.575-2.405.076-.198.121-.408.121-.631,0-.581.102-1.148.3-1.684l.019-.045c.287-.753.765-1.435,1.397-1.971l.319-.274.274.804c-.81.625-1.289,1.595-1.289,2.615,0,1.831,1.499,3.323,3.342,3.323s3.336-1.493,3.336-3.323c0-1.665-1.25-3.075-2.902-3.291l-.44-1.314h.006c2.551,0,4.631,2.067,4.631,4.605s-2.079,4.605-4.631,4.605h0ZM32.908,30.127c.179.536.683.874,1.218.874.134,0,.268-.019.402-.064.325-.109.593-.338.746-.644.159-.313.179-.657.07-.989l-.708-2.099c.976.319,1.665,1.238,1.665,2.29,0,1.333-1.091,2.418-2.43,2.418s-2.437-1.085-2.437-2.418c0-.644.249-1.237.695-1.69l.778,2.322h0ZM32.921,24.915l1.569,4.675c.032.102.026.204-.019.293-.045.096-.128.166-.223.198-.204.064-.421-.045-.485-.242l-1.474-4.389.631-.536h0ZM20.227,29.801c-.23.211-.364.491-.376.785l-5.307-.561v-.581l7.285-1.831c.057-.006.115-.013.178-.013v.504c0,.07-.032.134-.083.185l-1.697,1.512h0ZM14.129,31.913c-1.346,0-2.437-1.085-2.437-2.418s1.091-2.418,2.437-2.418c.331,0,.657.07.963.198l-.727,1.282-.383.096c-.204.051-.344.23-.344.434v1.346c0,.23.179.421.408.446l1.92.204c-.459.523-1.129.829-1.837.829h0ZM18.135,23.761l1.722.97-1.627,2.858-2.654.663,2.558-4.491h0ZM21.885,25.872c.07.038.121.121.121.21v.619c-.115,0-.223.006-.332.025l-.045.006-2.188.549,1.199-2.111,1.244.702h0ZM14.914,16.929l5.052,1.882c.529.198.957.58,1.212,1.078-.255.287-.67.376-1.021.223l-2.979-1.32c-.676-.3-1.41-.427-2.131-.395-.249-.453-.293-.976-.134-1.467h0ZM32.844,21.63c-.389-.057-.542-.351-.555-.606-.013-.255.108-.568.485-.663l2.213-.561c.261.281.421.638.434,1.033.013.408-.128.797-.395,1.097l-2.182-.3h0ZM29.935,18.46l-.485-1.454c-.032-.089-.089-.172-.172-.223l-.995-.708c.134-.147.249-.313.332-.498l1.486.957.447,1.327-.612.6h0ZM26.95,15.755c-.51,0-.925-.421-.925-.931s.415-.925.925-.925.925.415.925.925-.415.931-.925.931h0ZM34.011,23.99l1.435-1.218c.587-.491.899-1.212.874-1.971-.025-.766-.395-1.461-1.008-1.907l-2.067-1.518c-.587-.427-1.346-.466-1.958-.14l-.383-1.142c-.032-.096-.096-.179-.185-.236l-1.958-1.263c-.115-.9-.88-1.595-1.812-1.595-1.008,0-1.831.816-1.831,1.824s.823,1.831,1.831,1.831c.172,0,.332-.026.491-.064l1.199.842.191.568c-.766-.332-1.576-.51-2.405-.53-.249-.006-.459.191-.466.44-.007.249.191.453.44.459.721.019,1.416.178,2.08.466l1.365.587c.166.077.364.038.491-.089l1.161-1.142c.325-.325.842-.357,1.212-.089l1.365,1.001-1.524.383c-.74.191-1.206.829-1.161,1.588.038.759.574,1.339,1.333,1.448l1.397.191-3.483,2.947c-.523.446-.957.976-1.289,1.563l-.67-1.11c-1.097-1.812-2.8-3.177-4.803-3.853l-1.429-.472c-.236-.083-.491.045-.574.281-.077.236.051.491.287.574l1.423.478c1.805.6,3.342,1.831,4.325,3.457l.995,1.652c-.198.58-.3,1.193-.3,1.818,0,.472-.376.848-.848.848h-1.135l.931-.931c.179-.179.179-.459,0-.638-.172-.179-.459-.179-.638,0l-1.569,1.569h-1.155l.931-.931c.179-.179.179-.459,0-.638-.179-.179-.459-.179-.638,0l-1.557,1.55-.013.019h-1.92c-.153,0-.211-.108-.23-.153-.013-.051-.045-.166.07-.268l1.69-1.518c.249-.217.383-.529.383-.855v-2.022c0-.415-.223-.797-.581-1.001l-9.166-5.16c1.078-.702,2.462-.829,3.655-.3l2.972,1.314c.74.325,1.607.121,2.118-.504.676-.829,1.576-1.448,2.596-1.78.242-.083.37-.338.293-.574-.077-.236-.332-.364-.574-.287-.893.293-1.71.778-2.399,1.41-.364-.561-.899-.995-1.537-1.237l-5.301-1.971c-.159-.057-.332-.051-.491.019-.153.07-.274.198-.332.357l-.07.179c-.242.657-.23,1.359.026,1.99-.702.172-1.365.504-1.926.982-.147.121-.217.306-.198.498.013.185.121.351.287.446l5.065,2.851-.721,1.269c-.765-.389-1.627-.593-2.494-.593-.555,0-1.104.083-1.633.242-.236.07-.37.325-.3.561.076.242.325.376.568.3.44-.134.899-.204,1.365-.204.708,0,1.416.166,2.047.478l-.638,1.123c-.44-.204-.925-.313-1.41-.313-1.844,0-3.342,1.486-3.342,3.317s1.499,3.323,3.342,3.323c1.174,0,2.264-.625,2.87-1.627l1.378.147c-.733,1.665-2.398,2.762-4.248,2.762-2.558,0-4.637-2.067-4.637-4.605,0-1.454.702-2.832,1.882-3.7.198-.147.242-.434.096-.631-.153-.204-.434-.242-.631-.096-1.41,1.033-2.245,2.692-2.245,4.427,0,3.036,2.481,5.505,5.537,5.505,2.303,0,4.369-1.429,5.179-3.566l.906.096h.038c.198.172.459.274.74.274h6.761c.357,0,.689-.109.963-.287.351.88.931,1.671,1.684,2.271.976.785,2.207,1.212,3.47,1.212,3.049,0,5.537-2.469,5.537-5.505,0-2.992-2.411-5.428-5.396-5.505h0Z" fill="silver"/>
  <path d="M27.875,14.824c0,.51-.415.931-.925.931s-.925-.421-.925-.931.415-.925.925-.925.925.415.925.925h0Z" fill="#ec6c64"/>
  <path d="M22.01,27.604v.504c0,.07-.032.134-.083.185l-1.697,1.512c-.23.211-.364.491-.377.785l-5.307-.561v-.58l7.284-1.831c.057-.006.115-.013.178-.013h0Z" fill="#5cbf89"/>
  <path d="M35.424,20.836c.013.408-.128.797-.396,1.097l-2.181-.3c-.389-.057-.542-.351-.555-.606-.013-.255.108-.568.485-.663l2.213-.561c.262.281.421.638.434,1.033h0Z" fill="#f6c42d"/>
</svg>