<?xml version="1.0" encoding="UTF-8"?>
<svg id="Layer_1" data-name="Layer 1" xmlns="http://www.w3.org/2000/svg" viewBox="0 0 48 48">
  <path d="M41.112,31.92s-7.344-5.232-9.336-4.848c-.96.168-1.488.816-2.592,2.088-.168.216-.6.696-.936,1.056-.696-.216-1.368-.48-2.016-.816-3.36-1.608-6.072-4.272-7.704-7.584-.312-.648-.6-1.296-.816-1.992.36-.312.864-.744,1.08-.912,1.296-1.08,1.944-1.608,2.112-2.544.336-1.944-4.872-9.144-4.944-9.192-.48-.672-1.248-1.104-2.088-1.176-2.112,0-8.16,7.728-8.16,9.024,0,.072.12,7.752,9.744,17.4,9.768,9.456,17.592,9.576,17.664,9.576,1.32,0,9.168-5.952,9.168-8.04-.072-.816-.504-1.56-1.176-2.04Z" fill="silver"/>
</svg>