<?xml version="1.0" encoding="UTF-8"?>
<svg id="Layer_1" data-name="Layer 1" xmlns="http://www.w3.org/2000/svg" viewBox="0 0 55 15">
  <path d="M55,0H0v15h55V0Z" fill="#74c7fa"/>
  <path d="M6.391,11.126c-.653,0-1.212-.153-1.678-.46-.46-.306-.783-.726-.969-1.259l.799-.46c.273.846.896,1.269,1.868,1.269.48,0,.846-.097,1.099-.29.253-.2.38-.463.38-.789,0-.333-.127-.583-.38-.749s-.676-.343-1.269-.529c-.293-.093-.516-.167-.669-.22-.153-.06-.346-.147-.579-.26-.226-.12-.396-.24-.509-.36-.113-.127-.216-.29-.31-.49-.087-.2-.13-.426-.13-.679,0-.606.213-1.086.639-1.439.426-.36.946-.539,1.558-.539.553,0,1.032.14,1.439.42.413.28.723.649.929,1.109l-.779.45c-.3-.719-.829-1.079-1.588-1.079-.38,0-.686.093-.919.28-.233.186-.35.44-.35.759,0,.306.11.539.33.699.22.16.599.326,1.139.499.193.06.33.103.41.13.08.027.203.073.37.14.173.067.3.12.38.16s.186.097.32.17c.14.073.243.143.31.21.067.067.143.15.23.25.093.093.16.19.2.29.04.1.073.216.1.35.033.127.05.263.05.41,0,.613-.223,1.102-.669,1.469-.446.36-1.029.539-1.748.539ZM12.306,5.872c.586,0,1.056.186,1.409.559.353.366.529.866.529,1.499v3.067h-.869v-3.017c0-.406-.11-.719-.33-.939-.22-.226-.523-.34-.909-.34-.433,0-.783.137-1.049.41-.266.266-.4.679-.4,1.239v2.647h-.869v-6.993h.869v2.717c.353-.566.892-.849,1.618-.849ZM19.673,10.367c-.513.506-1.135.759-1.868.759s-1.355-.253-1.868-.759c-.506-.506-.759-1.129-.759-1.868s.253-1.362.759-1.868c.513-.506,1.135-.759,1.868-.759s1.355.253,1.868.759.769,1.129.769,1.868-.257,1.362-.769,1.868ZM17.805,10.277c.499,0,.919-.17,1.259-.509.34-.34.509-.763.509-1.269s-.17-.929-.509-1.269c-.34-.34-.759-.509-1.259-.509-.493,0-.909.17-1.249.509-.34.34-.509.763-.509,1.269s.17.929.509,1.269c.34.34.756.509,1.249.509ZM27.156,6.001h.909l-1.548,4.995h-.889l-1.169-3.696-1.169,3.696h-.889l-1.548-4.995h.909l1.099,3.796,1.179-3.796h.839l1.179,3.806,1.099-3.806ZM29.829,6.841c.286-.619.806-.929,1.558-.929v.909c-.426-.02-.792.093-1.099.34-.306.246-.459.643-.459,1.189v2.647h-.869v-4.995h.869v.839ZM36.18,10.367c-.513.506-1.136.759-1.868.759s-1.355-.253-1.868-.759c-.506-.506-.759-1.129-.759-1.868s.253-1.362.759-1.868c.513-.506,1.135-.759,1.868-.759s1.355.253,1.868.759c.513.506.769,1.129.769,1.868s-.256,1.362-.769,1.868ZM34.312,10.277c.5,0,.919-.17,1.259-.509.34-.34.509-.763.509-1.269s-.17-.929-.509-1.269c-.34-.34-.759-.509-1.259-.509-.493,0-.909.17-1.249.509-.34.34-.51.763-.51,1.269s.17.929.51,1.269c.34.34.756.509,1.249.509ZM42.19,10.367c-.513.506-1.135.759-1.868.759s-1.355-.253-1.868-.759c-.506-.506-.759-1.129-.759-1.868s.253-1.362.759-1.868c.513-.506,1.135-.759,1.868-.759s1.355.253,1.868.759c.513.506.769,1.129.769,1.868s-.256,1.362-.769,1.868ZM40.322,10.277c.5,0,.919-.17,1.259-.509.34-.34.509-.763.509-1.269s-.17-.929-.509-1.269c-.34-.34-.759-.509-1.259-.509-.493,0-.909.17-1.249.509-.34.34-.51.763-.51,1.269s.17.929.51,1.269c.34.34.756.509,1.249.509ZM49.378,5.872c.559,0,1.012.183,1.359.549.346.36.52.849.52,1.469v3.107h-.869v-3.077c0-.386-.1-.686-.3-.899-.2-.213-.466-.32-.799-.32-.373,0-.673.127-.899.38-.22.246-.33.626-.33,1.139v2.777h-.869v-3.077c0-.386-.097-.686-.29-.899-.187-.213-.443-.32-.769-.32-.366,0-.673.127-.919.38-.24.253-.36.633-.36,1.139v2.777h-.869v-4.995h.869v.669c.34-.533.836-.799,1.488-.799.673,0,1.162.283,1.469.849.346-.566.869-.849,1.568-.849Z" fill="#fff"/>
</svg>