<?xml version="1.0" encoding="UTF-8"?>
<svg id="Layer_1" data-name="Layer 1" xmlns="http://www.w3.org/2000/svg" viewBox="0 0 48 48">
  <path d="M9.902,13.671h18.045c1.067,0,1.933.866,1.933,1.933H7.969c0-1.067.866-1.933,1.933-1.933Z" fill="#f6c42d"/>
  <path d="M20.55,32.292c-.557,0-1.009-.453-1.009-1.009s.453-1.009,1.009-1.009,1.009.453,1.009,1.009-.453,1.009-1.009,1.009h0ZM20.55,29.328c-1.078,0-1.954.877-1.954,1.954s.877,1.954,1.954,1.954,1.954-.877,1.954-1.954-.877-1.954-1.954-1.954h0Z" fill="silver"/>
  <path d="M39.635,30.387h-.95v-.748c0-.26-.209-.475-.469-.475s-.475.215-.475.475v.748h-3.092c2.205-1.736,3.022-6.21.539-9.467l-1.869-2.452c-.158-.209-.456-.247-.665-.089-.209.158-.247.456-.089.659l1.876,2.458c1.54,2.021,1.761,4.771.564,7.014h-4.252v-8.795c0-.551-.444-.995-.995-.995h-5.456c-.551,0-.995.444-.995.995v8.795h-.26c-1.793-1.603-4.569-1.103-5.722.963-1.172-2.091-3.96-2.547-5.728-.963h-2.763v-12.698h4.499c.26,0,.475-.209.475-.469,0-.266-.215-.475-.475-.475h-4.486c.082-.539.551-.925,1.084-.925,19.149,0,18.217-.298,19.421.925h-13.813c-.26,0-.475.209-.475.475,0,.26.215.469.475.469h14.561l1.128,1.47c.158.209.45.247.659.089.209-.158.247-.45.089-.659l-1.628-2.135c-.748-.982-1.939-1.578-3.187-1.578H9.93c-1.128,0-2.04.912-2.04,2.04v14.403c0,1.039.843,1.888,1.882,1.888h.589c.025,2.028,1.679,3.669,3.713,3.669,1.394,0,2.611-.767,3.251-1.907.634,1.141,1.85,1.907,3.244,1.907,2.034,0,3.694-1.641,3.713-3.669h.5v1.014c0,.501.406.912.906.912h2.668c.507,0,.919-.418.919-.925v-1.001h10.36c.26,0,.475-.215.475-.475s-.215-.469-.475-.469ZM10.469,30.387c-.665-.006-1.039.07-1.388-.304-.158-.177-.247-.399-.247-.621h2.002c-.165.291-.291.608-.368.925ZM14.074,34.056c-2.458,0-3.688-2.978-1.971-4.721,1.717-1.736,4.746-.545,4.746,1.945,0,1.534-1.242,2.775-2.775,2.775ZM20.569,34.056c-1.648,0-2.972-1.445-2.75-3.136.342-2.598,3.789-3.327,5.139-1.046,1.071,1.812-.228,4.182-2.389,4.182ZM28.331,32.313h-2.604v-.982h2.604v.982ZM29.807,19.717v10.671h-5.557v-10.671c0-.032.025-.051.051-.051,5.709.019,5.506-.051,5.506.051ZM30.751,30.387v-.925h3.523c-1.356,1.242-2.864.849-3.523.925Z" fill="silver"/>
  <path d="M24.301,19.666c-.025,0-.051.019-.051.051v10.671h5.557v-10.671c0-.101.203-.032-5.506-.051ZM26.544,25.495h-.995c-.266,0-.475-.209-.475-.469,0-.266.209-.475.475-.475h.995c.26,0,.475.209.475.475,0,.26-.215.469-.475.469Z" fill="#75c9fc"/>
  <path d="M27.019,25.026c0,.26-.215.469-.475.469h-.995c-.266,0-.475-.209-.475-.469,0-.266.209-.475.475-.475h.995c.26,0,.475.209.475.475Z" fill="silver"/>
  <path d="M20.317,24.551h-2.164v-1.285c0-.261-.211-.472-.472-.472s-.472.211-.472.472v1.285h-2.301v-4.888h2.301v1.398c0,.261.211.472.472.472s.472-.211.472-.472v-1.398h2.164v4.888h0ZM13.963,24.551h-2.164v-4.888h2.164v4.888h0ZM11.779,18.719c-.51,0-.925.415-.925.925v4.927c0,.51.415.925.925.925h8.557c.51,0,.925-.415.925-.925v-4.927c0-.51-.415-.925-.925-.925h-8.557Z" fill="silver"/>
  <path d="M14.058,32.292c-.557,0-1.009-.453-1.009-1.009s.453-1.009,1.009-1.009,1.009.453,1.009,1.009-.453,1.009-1.009,1.009h0ZM14.058,29.328c-1.078,0-1.954.877-1.954,1.954s.877,1.954,1.954,1.954,1.954-.877,1.954-1.954c0-1.078-.877-1.954-1.954-1.954h0Z" fill="silver"/>
</svg>