<?xml version="1.0" encoding="UTF-8"?>
<svg id="Layer_1" data-name="Layer 1" xmlns="http://www.w3.org/2000/svg" viewBox="0 0 55 15">
  <path d="M55,0H0v15h55V0Z" fill="#3ad690"/>
  <g>
    <path d="M11.806,3.53c.646,0,1.185.215,1.615.645.43.431.645.966.645,1.605,0,.634-.215,1.167-.645,1.6-.431.434-.969.65-1.615.65h-1.61v2.5h-.93V3.53h2.54ZM11.806,7.16c.387,0,.706-.132.96-.395.253-.264.38-.592.38-.985,0-.4-.127-.73-.38-.99-.254-.26-.573-.39-.96-.39h-1.61v2.76h1.61Z" fill="#fff"/>
    <path d="M15.305,8.431c.087.446.292.793.615,1.04.323.246.722.369,1.195.369.66,0,1.14-.243,1.439-.729l.74.42c-.486.754-1.22,1.13-2.2,1.13-.793,0-1.438-.248-1.935-.745-.497-.496-.745-1.125-.745-1.885,0-.753.243-1.38.73-1.88.486-.5,1.116-.75,1.89-.75.733,0,1.332.259,1.795.774.463.518.695,1.139.695,1.865,0,.127-.01.257-.03.391h-4.19ZM17.035,6.221c-.467,0-.854.131-1.16.395s-.496.615-.57,1.055h3.341c-.074-.473-.261-.833-.561-1.08-.3-.246-.649-.369-1.05-.369Z" fill="#fff"/>
    <path d="M21.396,6.37c.286-.62.807-.93,1.56-.93v.91c-.427-.021-.793.093-1.1.34-.307.246-.46.644-.46,1.189v2.65h-.87v-5h.87v.84Z" fill="#fff"/>
    <path d="M24.366,6.865c0,.189.098.341.294.455s.431.211.702.291c.271.079.545.16.82.24.274.081.507.232.697.454s.286.507.286.854c0,.453-.175.816-.525,1.09-.35.273-.798.41-1.345.41-.486,0-.903-.106-1.25-.32-.347-.213-.594-.496-.74-.85l.75-.43c.08.239.23.43.45.569.22.141.483.21.79.21.287,0,.523-.055.71-.164.187-.11.28-.281.28-.515,0-.192-.097-.348-.29-.464-.194-.116-.427-.216-.698-.297-.271-.082-.545-.164-.819-.246-.275-.083-.509-.23-.702-.444-.193-.213-.29-.486-.29-.819,0-.434.168-.79.505-1.07.336-.28.758-.42,1.265-.42.407,0,.769.092,1.085.274.316.184.556.438.715.766l-.729.41c-.18-.427-.537-.641-1.07-.641-.246,0-.456.058-.63.172-.174.113-.26.275-.26.483Z" fill="#fff"/>
    <path d="M32.275,9.9c-.514.507-1.137.76-1.87.76s-1.354-.253-1.865-.76c-.51-.507-.765-1.13-.765-1.87s.255-1.363.765-1.87c.511-.507,1.132-.76,1.865-.76s1.356.253,1.87.76.771,1.13.771,1.87-.257,1.363-.771,1.87ZM30.405,9.811c.5,0,.92-.17,1.26-.511.341-.34.511-.763.511-1.27s-.17-.93-.511-1.27c-.34-.341-.76-.511-1.26-.511-.493,0-.91.17-1.25.511-.34.34-.51.763-.51,1.27s.17.93.51,1.27c.34.341.757.511,1.25.511Z" fill="#fff"/>
    <path d="M36.566,5.4c.586,0,1.057.185,1.409.555.354.37.53.872.53,1.505v3.07h-.87v-3.02c0-.407-.109-.722-.33-.945-.22-.224-.523-.335-.909-.335-.434,0-.784.135-1.051.405-.267.27-.399.685-.399,1.244v2.65h-.87v-5h.87v.72c.353-.566.893-.85,1.62-.85Z" fill="#fff"/>
    <path d="M43.855,5.53h.87v5h-.87v-.86c-.434.66-1.063.99-1.89.99-.7,0-1.297-.255-1.79-.765s-.74-1.132-.74-1.865.247-1.355.74-1.865,1.09-.765,1.79-.765c.826,0,1.456.33,1.89.99v-.86ZM42.075,9.82c.507,0,.931-.172,1.271-.515.34-.344.51-.769.51-1.275s-.17-.932-.51-1.275c-.34-.343-.764-.515-1.271-.515-.5,0-.92.172-1.26.515-.34.344-.51.769-.51,1.275s.17.932.51,1.275c.34.343.76.515,1.26.515Z" fill="#fff"/>
    <path d="M46.046,10.53V3.23h.87v7.3h-.87Z" fill="#fff"/>
  </g>
</svg>