<?xml version="1.0" encoding="UTF-8"?>
<svg id="Layer_1" data-name="Layer 1" xmlns="http://www.w3.org/2000/svg" viewBox="0 0 48 48">
  <path d="M41.296,37.372l-5.188-5.181c-.5-.5-1.17-.73-1.819-.7l-2.499-2.5c4.249-5.621,3.819-13.661-1.3-18.792-5.598-5.601-14.685-5.601-20.284.01-5.608,5.611-5.608,14.692-.01,20.292,5.128,5.131,13.166,5.551,18.784,1.3l2.499,2.5c-.03.65.2,1.33.7,1.82l5.178,5.181c.93.93,2.439.93,3.369,0l.57-.57c.94-.93.94-2.43.01-3.37l-.01.01ZM27.38,27.411c-3.889,3.89-10.207,3.901-14.096.01-3.889-3.89-3.889-10.201.01-14.101,3.889-3.89,10.207-3.9,14.096-.01,3.889,3.89,3.869,10.201-.01,14.101Z" fill="#fff"/>
  <path d="M24.241,18.871h-2.349v-2.35c0-.85-.68-1.53-1.519-1.53h-.02c-.84,0-1.519.69-1.519,1.53v2.35h-2.349c-.85,0-1.53.69-1.53,1.52,0,.85.69,1.53,1.53,1.53h2.349v2.35c0,.85.69,1.53,1.519,1.53h.01c.84,0,1.519-.68,1.519-1.53v-2.35h2.349c.85,0,1.53-.69,1.53-1.52.01-.85-.67-1.53-1.53-1.53h.01Z" fill="#fff"/>
</svg>