<?xml version="1.0" encoding="UTF-8"?>
<svg id="Layer_1" data-name="Layer 1" xmlns="http://www.w3.org/2000/svg" viewBox="0 0 48 48">
  <path d="M31.013,20.901c-.089.129-.233.199-.38.199-.09,0-.182-.027-.262-.082l-.997-.691c-.125-.086-.199-.228-.199-.379v-2.511c0-.255.207-.462.462-.462s.462.207.462.462v2.269l.798.553c.21.146.262.433.116.643h0Z" fill="#5cbf89"/>
  <path d="M34.731,13.741c-.253-.207-.518-.399-.795-.574l.008-.011.923-1.247.791.581-.919,1.241-.007.01h0ZM30.152,11.938c-.344-.022-.689-.022-1.033,0v-.802h1.033v.802h0ZM27.419,10.212h0s0-1.048,0-1.048h4.434s-.002,1.048-.002,1.048h-4.432ZM35.421,14.36l.99-1.337c.144-.195.203-.435.166-.674-.037-.239-.164-.45-.359-.593l-.816-.599c-.401-.297-.97-.212-1.268.189l-1.004,1.357-.008.011c-.64-.308-1.327-.534-2.046-.664v-.914h.775c.51,0,.925-.414.925-.923v-1.05c0-.508-.415-.923-.925-.923h-4.432c-.509,0-.924.414-.924.923v1.05c0,.509.415.923.924.923h.777v.896c-3.696.664-6.518,3.849-6.621,7.711-.002.073-.003.146-.003.219,0,.237.01.472.03.704.042.483.127.955.25,1.41h.961c-.14-.452-.237-.924-.284-1.41-.023-.232-.035-.467-.035-.704,0-3.94,3.194-7.134,7.134-7.134s7.134,3.194,7.134,7.134c0,.738-.112,1.45-.32,2.12h-.012c-.483,1.538-1.485,2.88-2.877,3.797l.059.002,1.39.046c1.159-1.032,1.984-2.366,2.391-3.846h.011c.184-.675.282-1.386.282-2.12,0-2.177-.863-4.152-2.265-5.601h0Z" fill="#ec6c64"/>
  <path d="M35.656,19.961c0,.047,0,.093-.002.139v.038s-.004.076-.004.076l-.002.035-.004.077-.005.072-.008.103-.006.071c-.005.053-.012.105-.018.157l-.01.075-.01.074-.004.022-.013.082-.018.103-.009.045-.009.049-.01.049-.013.058-.013.055-.002.009-.011.046-.014.059v.004s-.019.067-.019.067l-.004.016-.019.07-.015.052-.023.076-.016.051-.022.068c-.025.075-.051.15-.079.224-.159.421-.362.819-.606,1.189l-.081.12-.003.004c-.573.819-1.352,1.495-2.285,1.952l.005.017h0s-.236-.918-.236-.918c.748-.407,1.383-.996,1.846-1.708l.044-.068.007-.011c.118-.186.222-.379.315-.579.302-.655.467-1.379.467-2.134,0-2.809-2.291-5.093-5.107-5.093-.654,0-1.279.123-1.854.348l-.01.004-.061.025-.023.009-.023.009h0s-.014.006-.014.006l-.044.019-.077.034-.06.027-.052.025-.056.027-.11.056-.046.025-.04.022-.037.021-.039.022-.039.023-.042.025-.039.023-.076.048-.05.032-.05.033-.099.068-.049.035-.096.071-.047.036-.054.042-.053.043-.049.041-.032.027-.016.014-.007.006-.01.008-.025.022-.061.055-.007.006-.004.004-.004.003-.036.033-.049.046-.007.007-.044.043-.01.01-.086.088-.022.022-.03.032-.037.04-.009.009-.036.04-.018.021-.022.025-.025.03-.051.061-.075.092-.037.047-.036.047-.07.096-.034.049-.034.049-.033.049-.012.019-.002.003-.009.015h0s-.006.009-.006.009l-.004.006-.004.006-.013.02-.013.021-.016.026-.003.004-.01.016-.043.071-.006.009-.011.018-.007.013-.006.01-.009.016-.023.041-.004.008-.003.005v.002s-.002.002-.002.002l-.006.011-.003.006-.027.049-.002.004-.003.006-.005.009-.016.03-.032.061c-.021.041-.041.082-.061.123-.315.663-.491,1.404-.491,2.187,0,.239.016.474.048.704.069.496.208.97.409,1.41h-.999c-.167-.447-.284-.92-.34-1.41-.027-.231-.041-.466-.041-.704,0-.073.001-.146.004-.219.01-.289.041-.573.091-.851l.022-.118.013-.063.016-.071.016-.071.018-.075.017-.066.018-.068h0s0-.003,0-.003l.012-.042.021-.072.014-.047.014-.044c.015-.047.03-.093.046-.139l.023-.066.028-.079.003-.008.03-.079.028-.071.017-.042.037-.087.027-.063.037-.083.021-.045c.024-.05.048-.1.073-.149l.036-.069.014-.027.014-.027.05-.092.069-.12.037-.061.019-.03.019-.03.076-.12.079-.118.041-.058.062-.086.064-.085.043-.056.089-.111.045-.055c.046-.054.092-.108.139-.16.053-.059.108-.117.163-.175l.113-.113.116-.11.059-.054.06-.053.063-.054.038-.032.045-.037.02-.017.025-.02.045-.036.046-.036.097-.074.056-.041.081-.058.054-.038.067-.045c.058-.039.117-.077.177-.113l.046-.028.101-.06.051-.029.068-.038.068-.037.028-.015.084-.043.055-.028.076-.037.039-.018c.124-.058.251-.112.379-.161l.063-.024.051-.018.068-.024.085-.029.056-.018.061-.019.006-.002.021-.006.031-.009.03-.009h.003s.012-.004.012-.004l.112-.031.044-.012h.001s.017-.005.017-.005l.055-.014.052-.012h.003s.039-.01.039-.01l.009-.002h.001c.04-.009.081-.018.122-.027l.06-.012.061-.012h.003s.013-.003.013-.003l.054-.009.01-.002.063-.01.062-.01.092-.013.092-.012.041-.005.047-.005h.013c.07-.008.141-.014.213-.019l.053-.003.045-.002.057-.003.059-.002h.044c.046-.002.093-.003.139-.003,3.328,0,6.027,2.698,6.027,6.026h0Z" fill="#ec6c64"/>
  <path d="M32.099,31.866c0,.122-.099.221-.221.221h-2.315c-.126,0-.225-.099-.225-.221v-.554c0-.122.104-.225.225-.225h2.535v.779h0ZM32.234,30.164h-2.67c-.635,0-1.148.518-1.148,1.148v.554c0,.63.513,1.148,1.148,1.148h2.315c.63,0,1.144-.518,1.144-1.148v-.91c0-.437-.351-.793-.788-.793h0ZM17.113,31.866c0,.122-.099.221-.225.221h-2.315c-.122,0-.221-.099-.221-.221v-.779h2.535c.122,0,.225.104.225.225v.554h0ZM16.888,30.164h-2.67c-.437,0-.788.356-.788.793v.91c0,.63.513,1.148,1.144,1.148h2.315c.635,0,1.148-.518,1.148-1.148v-.554c0-.631-.513-1.148-1.148-1.148h0ZM24.984,22.077h-3.13v.004h3.134l-.004-.004h0ZM30.964,26.972l-.275-1.076-.23-.896-.135-.518c-.135-.527-.374-.716-.914-.716h-4.998c-.252,0-.459.207-.459.459l.005.058c.023.18.144.324.306.378.049.018.099.027.149.027h5.012s.036.144.099.374c.059.239.144.572.234.923.095.365.194.756.284,1.099.113.441.203.797.234.91.311-.027.617-.068.919-.126l-.23-.896h0ZM17.113,31.866c0,.122-.099.221-.225.221h-2.315c-.122,0-.221-.099-.221-.221v-.779h2.535c.122,0,.225.104.225.225v.554h0ZM16.888,30.164h-2.67c-.437,0-.788.356-.788.793v.91c0,.63.513,1.148,1.144,1.148h2.315c.635,0,1.148-.518,1.148-1.148v-.554c0-.631-.513-1.148-1.148-1.148h0ZM32.099,31.866c0,.122-.099.221-.221.221h-2.315c-.126,0-.225-.099-.225-.221v-.554c0-.122.104-.225.225-.225h2.535v.779h0ZM32.234,30.164h-2.67c-.635,0-1.148.518-1.148,1.148v.554c0,.63.513,1.148,1.148,1.148h2.315c.63,0,1.144-.518,1.144-1.148v-.91c0-.437-.351-.793-.788-.793h0ZM17.113,31.866c0,.122-.099.221-.225.221h-2.315c-.122,0-.221-.099-.221-.221v-.779h2.535c.122,0,.225.104.225.225v.554h0ZM16.888,30.164h-2.67c-.437,0-.788.356-.788.793v.91c0,.63.513,1.148,1.144,1.148h2.315c.635,0,1.148-.518,1.148-1.148v-.554c0-.631-.513-1.148-1.148-1.148h0ZM32.099,31.866c0,.122-.099.221-.221.221h-2.315c-.126,0-.225-.099-.225-.221v-.554c0-.122.104-.225.225-.225h2.535v.779h0ZM32.234,30.164h-2.67c-.635,0-1.148.518-1.148,1.148v.554c0,.63.513,1.148,1.148,1.148h2.315c.63,0,1.144-.518,1.144-1.148v-.91c0-.437-.351-.793-.788-.793h0ZM17.113,31.866c0,.122-.099.221-.225.221h-2.315c-.122,0-.221-.099-.221-.221v-.779h2.535c.122,0,.225.104.225.225v.554h0ZM16.888,30.164h-2.67c-.437,0-.788.356-.788.793v.91c0,.63.513,1.148,1.144,1.148h2.315c.635,0,1.148-.518,1.148-1.148v-.554c0-.631-.513-1.148-1.148-1.148h0ZM32.099,31.866c0,.122-.099.221-.221.221h-2.315c-.126,0-.225-.099-.225-.221v-.554c0-.122.104-.225.225-.225h2.535v.779h0ZM32.234,30.164h-2.67c-.635,0-1.148.518-1.148,1.148v.554c0,.63.513,1.148,1.148,1.148h2.315c.63,0,1.144-.518,1.144-1.148v-.91c0-.437-.351-.793-.788-.793h0ZM32.099,31.866c0,.122-.099.221-.221.221h-2.315c-.126,0-.225-.099-.225-.221v-.554c0-.122.104-.225.225-.225h2.535v.779h0ZM32.234,30.164h-2.67c-.635,0-1.148.518-1.148,1.148v.554c0,.63.513,1.148,1.148,1.148h2.315c.63,0,1.144-.518,1.144-1.148v-.91c0-.437-.351-.793-.788-.793h0ZM17.113,31.866c0,.122-.099.221-.225.221h-2.315c-.122,0-.221-.099-.221-.221v-.779h2.535c.122,0,.225.104.225.225v.554h0ZM16.888,30.164h-2.67c-.437,0-.788.356-.788.793v.91c0,.63.513,1.148,1.144,1.148h2.315c.635,0,1.148-.518,1.148-1.148v-.554c0-.631-.513-1.148-1.148-1.148h0ZM17.113,31.866c0,.122-.099.221-.225.221h-2.315c-.122,0-.221-.099-.221-.221v-.779h2.535c.122,0,.225.104.225.225v.554h0ZM16.888,30.164h-2.67c-.437,0-.788.356-.788.793v.91c0,.63.513,1.148,1.144,1.148h2.315c.635,0,1.148-.518,1.148-1.148v-.554c0-.631-.513-1.148-1.148-1.148h0ZM32.099,31.866c0,.122-.099.221-.221.221h-2.315c-.126,0-.225-.099-.225-.221v-.554c0-.122.104-.225.225-.225h2.535v.779h0ZM32.234,30.164h-2.67c-.635,0-1.148.518-1.148,1.148v.554c0,.63.513,1.148,1.148,1.148h2.315c.63,0,1.144-.518,1.144-1.148v-.91c0-.437-.351-.793-.788-.793h0ZM32.099,31.866c0,.122-.099.221-.221.221h-2.315c-.126,0-.225-.099-.225-.221v-.554c0-.122.104-.225.225-.225h2.535v.779h0ZM32.234,30.164h-2.67c-.635,0-1.148.518-1.148,1.148v.554c0,.63.513,1.148,1.148,1.148h2.315c.63,0,1.144-.518,1.144-1.148v-.91c0-.437-.351-.793-.788-.793h0ZM17.113,31.866c0,.122-.099.221-.225.221h-2.315c-.122,0-.221-.099-.221-.221v-.779h2.535c.122,0,.225.104.225.225v.554h0ZM16.888,30.164h-2.67c-.437,0-.788.356-.788.793v.91c0,.63.513,1.148,1.144,1.148h2.315c.635,0,1.148-.518,1.148-1.148v-.554c0-.631-.513-1.148-1.148-1.148h0ZM17.113,31.866c0,.122-.099.221-.225.221h-2.315c-.122,0-.221-.099-.221-.221v-.779h2.535c.122,0,.225.104.225.225v.554h0ZM16.888,30.164h-2.67c-.437,0-.788.356-.788.793v.91c0,.63.513,1.148,1.144,1.148h2.315c.635,0,1.148-.518,1.148-1.148v-.554c0-.631-.513-1.148-1.148-1.148h0ZM32.099,31.866c0,.122-.099.221-.221.221h-2.315c-.126,0-.225-.099-.225-.221v-.554c0-.122.104-.225.225-.225h2.535v.779h0ZM32.234,30.164h-2.67c-.635,0-1.148.518-1.148,1.148v.554c0,.63.513,1.148,1.148,1.148h2.315c.63,0,1.144-.518,1.144-1.148v-.91c0-.437-.351-.793-.788-.793h0ZM34.107,38.706c0,.072-.063.131-.135.131h-3.283c-.072,0-.135-.059-.135-.131v-1.837h3.553v1.837h0ZM34.026,33.929h-7.588l.747-1.792c.14-.329.189-.883-.126-1.355-.261-.396-.725-.617-1.297-.617h-5.075c-.572,0-1.036.221-1.297.617-.315.473-.266,1.027-.126,1.355l.748,1.792h-7.592v-3.094c0-.905.649-1.666,1.509-1.846.126-.027.257-.036.383-.036h17.823c1.045,0,1.891.842,1.891,1.882v3.094h0ZM26.335,31.781l-.896,2.148h-.63v-2.841h.955c.261,0,.441.072.531.207.099.149.095.36.041.486h0ZM23.885,33.929h-1.319v-2.841h1.319v2.841h0ZM21.638,33.929h-.626l-.896-2.148c-.054-.126-.058-.338.04-.486.09-.135.27-.207.531-.207h.95v2.841h0ZM11.849,28.021c-.338,0-.612-.275-.612-.612s.275-.612.612-.612h1.95l-.315,1.225h-1.635ZM15.397,24.292c.225-.869.77-1.292,1.666-1.292h12.347c.896,0,1.441.423,1.662,1.292l.135.522.23.896.275,1.076.234.896c-.248.072-.495.135-.752.185l-.23-.896-.275-1.076-.23-.896-.135-.518c-.135-.527-.374-.716-.914-.716h-4.998c-.252,0-.459.207-.459.459l.005.058c.023.18.144.324.306.378.049.018.099.027.149.027h5.012s.036.144.099.374c.059.239.144.572.234.923.095.365.194.756.284,1.099.113.441.203.797.234.91l.009.036h-14.099l.86-3.341h5.048c.252,0,.459-.207.459-.464,0-.252-.207-.459-.459-.459h-5.03c-.545,0-.784.185-.919.716l-.91,3.548h-.797l.959-3.738h0ZM34.62,26.8c.338,0,.612.275.612.612,0,.342-.274.617-.612.617h-1.635l-.171-.666-.144-.563h1.95ZM12.344,36.869h3.548v1.837c0,.072-.059.131-.131.131h-3.283c-.072,0-.135-.059-.135-.131v-1.837h0ZM34.954,33.938v-3.103c0-.725-.279-1.387-.734-1.882h.401c.846,0,1.54-.689,1.54-1.54,0-.703-.478-1.297-1.126-1.477l-.032-.009-1.391-.045-.059-.005h-1.121l-.131-.513-.005-.018-.23-.901-.005-.014-.095-.369c-.31-1.216-1.148-1.914-2.359-1.981h-12.748c-1.211.068-2.044.765-2.36,1.981l-.464,1.81h-2.188c-.847,0-1.535.689-1.535,1.536s.689,1.535,1.535,1.535h.383c-.455.5-.734,1.166-.734,1.891v3.103c-.477.072-.842.482-.842.977v.964c0,.468.329.86.766.964v1.864c0,.581.473,1.054,1.058,1.054h3.283c.581,0,1.058-.473,1.058-1.054v-1.837h5.165c.252,0,.459-.207.459-.464s-.207-.459-.459-.459h-10.343l-.063-.068v-.964l.063-.063h23.168l.063.063v.964l-.063.068h-10.506c-.252,0-.459.203-.459.459s.207.464.459.464h5.327v1.837c0,.581.473,1.054,1.058,1.054h3.283c.585,0,1.058-.473,1.058-1.054v-1.864c.436-.104.765-.495.765-.964v-.964c0-.495-.369-.905-.842-.977h0ZM17.113,31.866c0,.122-.099.221-.225.221h-2.315c-.122,0-.221-.099-.221-.221v-.779h2.535c.122,0,.225.104.225.225v.554h0ZM16.888,30.164h-2.67c-.437,0-.788.356-.788.793v.91c0,.63.513,1.148,1.144,1.148h2.315c.635,0,1.148-.518,1.148-1.148v-.554c0-.631-.513-1.148-1.148-1.148h0ZM32.099,31.866c0,.122-.099.221-.221.221h-2.315c-.126,0-.225-.099-.225-.221v-.554c0-.122.104-.225.225-.225h2.535v.779h0ZM32.234,30.164h-2.67c-.635,0-1.148.518-1.148,1.148v.554c0,.63.513,1.148,1.148,1.148h2.315c.63,0,1.144-.518,1.144-1.148v-.91c0-.437-.351-.793-.788-.793h0ZM32.099,31.866c0,.122-.099.221-.221.221h-2.315c-.126,0-.225-.099-.225-.221v-.554c0-.122.104-.225.225-.225h2.535v.779h0ZM32.234,30.164h-2.67c-.635,0-1.148.518-1.148,1.148v.554c0,.63.513,1.148,1.148,1.148h2.315c.63,0,1.144-.518,1.144-1.148v-.91c0-.437-.351-.793-.788-.793h0ZM17.113,31.866c0,.122-.099.221-.225.221h-2.315c-.122,0-.221-.099-.221-.221v-.779h2.535c.122,0,.225.104.225.225v.554h0ZM16.888,30.164h-2.67c-.437,0-.788.356-.788.793v.91c0,.63.513,1.148,1.144,1.148h2.315c.635,0,1.148-.518,1.148-1.148v-.554c0-.631-.513-1.148-1.148-1.148h0ZM17.113,31.866c0,.122-.099.221-.225.221h-2.315c-.122,0-.221-.099-.221-.221v-.779h2.535c.122,0,.225.104.225.225v.554h0ZM16.888,30.164h-2.67c-.437,0-.788.356-.788.793v.91c0,.63.513,1.148,1.144,1.148h2.315c.635,0,1.148-.518,1.148-1.148v-.554c0-.631-.513-1.148-1.148-1.148h0ZM32.099,31.866c0,.122-.099.221-.221.221h-2.315c-.126,0-.225-.099-.225-.221v-.554c0-.122.104-.225.225-.225h2.535v.779h0ZM32.234,30.164h-2.67c-.635,0-1.148.518-1.148,1.148v.554c0,.63.513,1.148,1.148,1.148h2.315c.63,0,1.144-.518,1.144-1.148v-.91c0-.437-.351-.793-.788-.793h0ZM32.099,31.866c0,.122-.099.221-.221.221h-2.315c-.126,0-.225-.099-.225-.221v-.554c0-.122.104-.225.225-.225h2.535v.779h0ZM32.234,30.164h-2.67c-.635,0-1.148.518-1.148,1.148v.554c0,.63.513,1.148,1.148,1.148h2.315c.63,0,1.144-.518,1.144-1.148v-.91c0-.437-.351-.793-.788-.793h0ZM17.113,31.866c0,.122-.099.221-.225.221h-2.315c-.122,0-.221-.099-.221-.221v-.779h2.535c.122,0,.225.104.225.225v.554h0ZM16.888,30.164h-2.67c-.437,0-.788.356-.788.793v.91c0,.63.513,1.148,1.144,1.148h2.315c.635,0,1.148-.518,1.148-1.148v-.554c0-.631-.513-1.148-1.148-1.148h0ZM30.964,26.972l-.275-1.076-.23-.896-.135-.518c-.135-.527-.374-.716-.914-.716h-4.998c-.252,0-.459.207-.459.459l.005.058c.023.18.144.324.306.378.049.018.099.027.149.027h5.012s.036.144.099.374c.059.239.144.572.234.923.095.365.194.756.284,1.099.113.441.203.797.234.91.311-.027.617-.068.919-.126l-.23-.896h0ZM17.113,31.866c0,.122-.099.221-.225.221h-2.315c-.122,0-.221-.099-.221-.221v-.779h2.535c.122,0,.225.104.225.225v.554h0ZM16.888,30.164h-2.67c-.437,0-.788.356-.788.793v.91c0,.63.513,1.148,1.144,1.148h2.315c.635,0,1.148-.518,1.148-1.148v-.554c0-.631-.513-1.148-1.148-1.148h0ZM32.099,31.866c0,.122-.099.221-.221.221h-2.315c-.126,0-.225-.099-.225-.221v-.554c0-.122.104-.225.225-.225h2.535v.779h0ZM32.234,30.164h-2.67c-.635,0-1.148.518-1.148,1.148v.554c0,.63.513,1.148,1.148,1.148h2.315c.63,0,1.144-.518,1.144-1.148v-.91c0-.437-.351-.793-.788-.793h0Z" fill="silver"/>
  <path d="M32.099,31.087v.779c0,.122-.099.221-.221.221h-2.315c-.126,0-.225-.099-.225-.221v-.554c0-.122.104-.225.225-.225h2.535Z" fill="#f6c42d"/>
  <path d="M17.113,31.312v.554c0,.122-.099.221-.225.221h-2.315c-.122,0-.221-.099-.221-.221v-.779h2.535c.122,0,.225.104.225.225h0Z" fill="#f6c42d"/>
</svg>