<?xml version="1.0" encoding="UTF-8"?>
<svg id="Layer_1" data-name="Layer 1" xmlns="http://www.w3.org/2000/svg" viewBox="0 0 48 48">
  <path d="M40.843,37.572H7.041v1.827h33.802v-1.827Z" fill="#db7469"/>
  <path d="M16.681,34.276h2.256c.284,0,.511-.228.511-.511s-.228-.511-.511-.511h-2.256c-.284,0-.511.228-.511.511s.228.511.511.511Z" fill="silver"/>
  <path d="M12.787,21.735h-2.188c-.395,0-.718.322-.718.718v3.21c0,.395.322.718.718.718h2.188c.395,0,.718-.322.718-.718v-3.21c0-.395-.322-.718-.718-.718ZM12.482,25.358h-1.573v-2.596h1.573v2.596Z" fill="#88c6f6"/>
  <path d="M23.033,30.025c-.103-.292-.258-.554-.46-.774.03.034.06.073.086.107.03.034.056.073.077.112.026.034.047.073.069.107.004.009.013.021.021.034.034.06.064.12.095.185.013.03.026.06.039.09.013.034.026.069.039.103l.606,1.741s.017.004.026.009l-.597-1.715ZM23.033,30.025c-.103-.292-.258-.554-.46-.774.03.034.06.073.086.107.03.034.056.073.077.112.026.034.047.073.069.107.004.009.013.021.021.034.034.06.064.12.095.185.009.013.013.03.021.043.009.017.013.03.017.047.013.034.026.069.039.103l.606,1.741s.017.004.026.009l-.597-1.715ZM23.033,30.025c-.103-.292-.258-.554-.46-.774.03.034.06.073.086.107.03.034.056.073.077.112.026.034.047.073.069.107.004.009.013.021.021.034.034.06.064.12.095.185.009.013.013.03.021.043.009.017.013.03.017.047.013.034.026.069.039.103l.606,1.741s.017.004.026.009l-.597-1.715ZM23.033,30.025c-.103-.292-.258-.554-.46-.774.03.034.06.073.086.107.03.034.056.073.077.112.026.034.047.073.069.107.004.009.013.021.021.034.034.06.064.12.095.185.009.013.013.03.021.043.009.017.013.03.017.047.013.034.026.069.039.103l.606,1.741s.017.004.026.009l-.597-1.715ZM23.033,30.025c-.103-.292-.258-.554-.46-.774.03.034.06.073.086.107.03.034.056.073.077.112.026.034.047.073.069.107.004.009.013.021.021.034.034.06.064.12.095.185.009.013.013.03.021.043.009.017.013.03.017.047.013.034.026.069.039.103l.606,1.741s.017.004.026.009l-.597-1.715ZM23.033,30.025c-.103-.292-.258-.554-.46-.774.03.034.06.073.086.107.03.034.056.073.077.112.026.034.047.073.069.107.004.009.013.021.021.034.034.06.064.12.095.185.009.013.013.03.021.043.009.017.013.03.017.047.013.034.026.069.039.103l.606,1.741s.017.004.026.009l-.597-1.715ZM7.041,37.572v1.827h33.802v-1.827H7.041ZM40.456,38.733H7.527v-.821h32.93v.821ZM24.507,32.32c-.026-.03-.052-.056-.082-.082-.223-.211-.494-.374-.786-.473l-.009-.026-.597-1.715c-.103-.292-.258-.554-.46-.774-.026-.026-.052-.056-.077-.082-.292-.288-.658-.499-1.066-.597v-.026s-.026-.009-.034-.009v1.083c.12.056.228.133.322.228.155.138.275.314.344.516l.447,1.285h-.817s0-.026-.004-.034h-.034c-.026-.284-.12-.542-.262-.769v1.792h1.496c.318,0,.61.129.821.34.017.013.03.026.043.043.211.211.34.503.34.821v1.014h-2.665v-.039h-.034v1.027h.503v.034h.039v.971h.988v-1.006h1.135v.034h.039v.971h.988v-3.047c0-.572-.219-1.092-.576-1.478v-.004ZM15.284,34.856v-.039h-.039v1.027h5.123v-.988h-5.089.004ZM19.934,31.066c.163,0,.314.056.434.15v-1.092c-.129-.03-.262-.047-.4-.047-.898,0-1.642.692-1.723,1.569h-2.965v-.034h-.039v1.023h5.123v-.988h-1.087s.004-.026.009-.034h-.047c.073-.309.352-.546.688-.546h.009ZM18.116,28.508c-.284,0-.511.228-.511.511,0,.133.052.254.133.344.09.082.211.133.344.133h2.291v-.988h-2.256ZM16.083,28.659s0-.004-.009-.009c-.09-.09-.215-.142-.352-.142h-.443v-.034h-.039v1.023h.447c.284,0,.511-.232.511-.511,0-.125-.043-.236-.116-.327ZM14.223,29.587v-1.023c-.748.168-1.375.713-1.633,1.457l-.606,1.741c-.86.292-1.483,1.113-1.483,2.072v3.013h.989v-1.006h1.135v.034h.034v.971h.988v-1.006h.572v-.988h-2.695v-.039h-.034v-1.014c0-.645.52-1.165,1.165-1.165h1.564v-.988h-1.113l.013-.034h-.047l.447-1.285c.12-.34.378-.606.701-.735l.004-.004ZM23.033,30.025c-.103-.292-.258-.554-.46-.774.03.034.06.073.086.107.03.034.056.073.077.112.026.034.047.073.069.107.004.009.013.021.021.034.034.06.064.12.095.185.009.013.013.03.021.043.009.017.013.03.017.047.013.034.026.069.039.103l.606,1.741s.017.004.026.009l-.597-1.715ZM23.033,30.025c-.103-.292-.258-.554-.46-.774.03.034.06.073.086.107.03.034.056.073.077.112.026.034.047.073.069.107.004.009.013.021.021.034.034.06.064.12.095.185.009.013.013.03.021.043.009.017.013.03.017.047.013.034.026.069.039.103l.606,1.741s.017.004.026.009l-.597-1.715ZM23.033,30.025c-.103-.292-.258-.554-.46-.774.03.034.06.073.086.107.03.034.056.073.077.112.026.034.047.073.069.107.004.009.013.021.021.034.034.06.064.12.095.185.009.013.013.03.021.043.009.017.013.03.017.047.013.034.026.069.039.103l.606,1.741s.017.004.026.009l-.597-1.715ZM23.033,30.025c-.103-.292-.258-.554-.46-.774.03.034.06.073.086.107.03.034.056.073.077.112.026.034.047.073.069.107.004.009.013.021.021.034.034.06.064.12.095.185.009.013.013.03.021.043.009.017.013.03.017.047.013.034.026.069.039.103l.606,1.741s.017.004.026.009l-.597-1.715ZM23.033,30.025c-.103-.292-.258-.554-.46-.774.03.034.06.073.086.107.03.034.056.073.077.112.026.034.047.073.069.107.004.009.013.021.021.034.034.06.064.12.095.185.009.013.013.03.021.043.009.017.013.03.017.047.013.034.026.069.039.103l.606,1.741s.017.004.026.009l-.597-1.715ZM23.033,30.025c-.103-.292-.258-.554-.46-.774.03.034.06.073.086.107.03.034.056.073.077.112.026.034.047.073.069.107.004.009.013.021.021.034.034.06.064.12.095.185.009.013.013.03.021.043.009.017.013.03.017.047.013.034.026.069.039.103l.606,1.741s.017.004.026.009l-.597-1.715Z" fill="silver"/>
  <path d="M39.365,24.168c.284,0,.511-.228.511-.511v-4.792h.752c.468,0,.855-.383.855-.855v-4.99c0-.847-.692-1.539-1.539-1.539h-.408v-1.126c0-.658-.537-1.195-1.195-1.195h-5.897v1.023h5.897c.095,0,.172.077.172.172v1.126h-6.064v1.027h7.5c.284,0,.511.228.511.511v4.818H7.531v-4.818c0-.284.228-.511.511-.511l7.788.013v-1.036h-6.352v-1.126c0-.095.077-.172.172-.172h6.038v-1.023h-6.038c-.658,0-1.195.537-1.195,1.195v1.126h-.408c-.847,0-1.539.692-1.539,1.539v4.99c0,.473.383.855.855.855h.752v18.021h-.752c-.468,0-.855.383-.855.855v1.16c0,.473.383.855.855.855h33.274c.468,0,.855-.383.855-.855v-1.16c0-.468-.383-.855-.855-.855h-.752v-10.839c0-.284-.228-.511-.511-.511s-.511.228-.511.511v10.839h-5.123v-5.669h1.332c.468,0,.855-.383.855-.855v-3.142c0-.473-.383-.855-.855-.855h-1.332v-4.715h5.123v2.007c0,.284.228.511.511.511l-.009-.004ZM27.58,18.868h5.123v1.762h-5.123v-1.762ZM27.58,21.653h5.123v4.715h-1.332c-.473,0-.855.383-.855.855v3.142c0,.468.383.855.855.855h1.332v5.669h-5.123v-15.236ZM32.703,27.391v2.802h-1.16v-2.802h1.16ZM21.396,34.818h.034v-2.145h1.496c.301,0,.576.116.782.305-.211-.211-.503-.34-.821-.34h-1.496v-1.792c.142.228.236.486.262.769h.034c-.03-.266-.125-.516-.262-.731v-1.225c.103.052.202.112.288.189-.095-.095-.202-.168-.322-.228v-1.083s.026.004.034.009v-9.679h5.123v18.021h-1.435v-3.047c0-.589-.232-1.122-.615-1.517.357.391.576.911.576,1.478v3.047h-.988v.039h-1.139v-1.01h1.1v-.034h-1.135v1.006h-.988v.039h-.503v-1.01h.464v-.034h-.503v-1.027h.013ZM15.245,31.611h.039v-2.076h.443c.284,0,.511-.228.511-.511,0-.142-.06-.271-.155-.365.073.09.116.202.116.327,0,.284-.228.511-.511.511h-.447v-1.023h.039v-9.606h5.123v9.644h-.034v.988h-2.291c-.133,0-.254-.052-.344-.133.095.103.228.168.378.168h2.286v.602s-.021-.004-.034-.009v1.092c-.12-.095-.271-.15-.434-.15-.331,0-.61.232-.688.546h.047c.086-.292.357-.507.679-.507.163,0,.314.056.434.15v.395h-.034v.988h-5.123v-1.031ZM15.245,34.818h.039v-2.145h5.123v2.183h-.034v.988h-5.123v-1.027h-.004ZM20.407,35.879v1.01h-5.123v-1.01h5.123ZM9.134,18.868h5.123v9.692s-.026.004-.034.009v1.023c-.322.129-.584.395-.701.735l-.447,1.285h.047l.434-1.251c.12-.34.378-.606.701-.735v2.024h-.034v.988h-1.564c-.645,0-1.165.524-1.165,1.165v1.014h.034v-.98c0-.645.524-1.169,1.165-1.169h1.564v2.183h-.034v.988h-.572v1.006h-.988v.039h-1.135v-1.01h1.1v-.034h-1.135v1.006h-.988v.039h-1.367v-18.021l-.004.004ZM14.257,35.879v1.01h-.572v-1.01h.572ZM40.843,37.572v1.827H7.041v-1.827h33.802ZM34.891,27.391v2.802h-1.16v-2.802h1.16ZM33.73,20.626v-1.762h5.123v1.762h-5.123Z" fill="silver"/>
  <path d="M26.63,10.703l-.056-.082h.056v.082Z" fill="silver"/>
  <path d="M38.613,14.291h-2.94c-.284,0-.511.228-.511.511s.228.511.511.511h2.94c.284,0,.511-.228.511-.511s-.228-.511-.511-.511Z" fill="silver"/>
  <path d="M15.245,34.817v1.027h5.123v-1.027h-5.123ZM15.245,34.817v1.027h5.123v-1.027h-5.123Z" fill="#db7469"/>
  <path d="M14.223,28.521v1.066c-.322.129-.584.395-.701.735l-.447,1.285h1.148v1.023h-1.564c-.645,0-1.165.524-1.165,1.165v1.014h2.733v1.027h-.572v1.006h-1.023v-1.006h-1.135v1.006h-1.027v-3.047c0-.958.623-1.779,1.483-2.072l.606-1.741c.262-.756.903-1.307,1.668-1.466l-.004.004Z" fill="#db7469"/>
  <path d="M16.204,28.985c0,.284-.228.511-.511.511h-.447v-1.023h.447c.155,0,.297.069.387.176,0,0,.004.004.009.009.073.09.116.202.116.327Z" fill="#db7469"/>
  <path d="M20.368,28.474v1.023h-2.291c-.133,0-.254-.052-.344-.133-.103-.095-.168-.228-.168-.378,0-.284.228-.511.511-.511h2.291Z" fill="#db7469"/>
  <path d="M20.368,30.099v1.122c-.12-.095-.271-.15-.434-.15-.331,0-.61.232-.688.546h1.122v1.023h-5.123v-1.023h2.965c.082-.881.825-1.569,1.723-1.569.15,0,.297.017.434.056v-.004Z" fill="#db7469"/>
  <path d="M25.083,33.803v3.047h-1.027v-1.006h-1.135v1.006h-1.027v-1.006h-.503v-1.027h2.665v-1.014c0-.301-.116-.576-.305-.782-.013-.017-.026-.03-.043-.043-.211-.211-.503-.34-.821-.34h-1.496v-1.792c.142.228.236.486.262.769h.817l-.447-1.285c-.064-.185-.172-.348-.309-.477-.095-.095-.202-.168-.322-.228v-1.083s.026.004.034.009c.408.103.778.322,1.066.623.026.026.052.056.077.082.03.034.06.073.086.107.026.034.056.073.077.112.026.034.047.073.069.107.004.009.013.021.021.034.034.06.064.12.095.185.009.013.013.03.021.043.009.017.013.03.017.047.013.034.026.069.039.103l.606,1.741s.017.004.026.009c.301.107.572.279.799.499.03.026.056.056.082.082.357.391.576.911.576,1.478Z" fill="#db7469"/>
  <path d="M32.733,9.413v5.149c0,.649-.524,1.173-1.173,1.173h-15.133c-.649,0-1.173-.529-1.173-1.173v-5.149c0-.649.524-1.173,1.173-1.173h1.126c.206,0,.378.168.378.378s-.168.378-.378.378h-1.126c-.228,0-.413.185-.413.417v5.149c0,.228.185.417.413.417h15.133c.228,0,.413-.185.413-.417v-5.149c0-.228-.185-.417-.413-.417h-12.236c-.211,0-.378-.172-.378-.378s.168-.378.378-.378h12.236c.649,0,1.173.529,1.173,1.173Z" fill="#f6c42d"/>
  <path d="M26.931,13.505c0,.211-.116.378-.301.438-.176.056-.365-.013-.477-.176l-.383-.55-.58-.842-.546-.791v2.037c0,.211-.168.378-.378.378s-.378-.168-.378-.378v-3.253c0-.168.107-.314.266-.361.159-.052.331.009.426.146l.185.271.58.842.769,1.113.047.069v-.069l-.013-1.113-.009-.842v-.056c0-.211.168-.383.374-.383h.004c.206,0,.378.168.378.374v.064l.009.842.013,1.113.009.842v.292l.004-.009Z" fill="#f6c42d"/>
  <path d="M23.196,13.621c0,.211-.168.378-.378.378h-1.362c-.211,0-.383-.172-.383-.378v-3.232c0-.211.168-.378.383-.378h1.362c.206,0,.378.168.378.378v.03c-.013.193-.176.348-.374.348h-.984v.855h.881c.211,0,.378.172.378.378,0,.181-.129.335-.301.37-.026.004-.052.009-.082.009h-.881v.855h.984c.206,0,.378.168.378.378v.009Z" fill="#f6c42d"/>
  <path d="M30.12,10.359s0,.039-.004.06c-.026.181-.185.318-.374.318h-.524v2.884c0,.211-.172.378-.378.378s-.378-.168-.378-.378v-2.884h-.52s-.039,0-.06-.004c-.155-.021-.279-.146-.309-.301-.004-.021-.009-.047-.009-.069,0-.211.168-.378.378-.378h1.801c.206,0,.378.168.378.378v-.004Z" fill="#f6c42d"/>
  <path d="M20.291,13.367l-.133-.155-.722-.821c.021-.004.043-.013.064-.017.499-.15.864-.589.885-1.113v-.056c0-.301-.112-.576-.297-.786-.236-.266-.584-.438-.976-.438h-.868c-.206,0-.378.168-.378.378v3.262c0,.211.172.378.378.378s.378-.168.378-.378v-.997l.155.176.365.413.58.658c.073.086.176.129.284.129.322,0,.503-.383.284-.632ZM18.628,11.674v-.937h.486c.279,0,.516.215.516.468v.056c-.03.228-.254.413-.511.413h-.49Z" fill="#f6c42d"/>
</svg>