<?xml version="1.0" encoding="UTF-8"?>
<svg id="Layer_1" data-name="Layer 1" xmlns="http://www.w3.org/2000/svg" viewBox="0 0 48 48">
  <path d="M9.379,48h15.515l23.106-23.108v-15.513S9.379,48,9.379,48Z" fill="#db7469"/>
  <g>
    <rect x="32.825" y="35.342" width="1.077" height=".942" transform="translate(-15.552 34.081) rotate(-45)" fill="#fff"/>
    <path d="M35.083,32.497l-2.624-2.624-.735.735,1.989,1.989-.9.9c-.236.236-.472.343-.708.318-.074-.117-.162-.226-.264-.328l-1.497-1.497-.74.74,1.38,1.38c.184.184.28.381.291.593.011.211-.055.387-.196.529l-.106.106-.688.688-.688.688-.688.688-.688.688-.106.106c-.134.134-.273.197-.417.191-.145-.007-.309-.102-.493-.286l-2.915-2.915-.74.74,3.031,3.031c.31.31.637.479.981.505.344.028.666-.109.965-.409l.328-.328.688-.688.688-.688.688-.688.688-.688.328-.328c.318-.318.459-.685.423-1.101.223.003.43-.035.625-.117.194-.081.349-.18.465-.296l1.634-1.634Z" fill="#fff"/>
    <rect x="34.031" y="34.136" width="1.077" height=".942" transform="translate(-14.346 34.581) rotate(-45)" fill="#fff"/>
    <rect x="35.089" y="33.078" width="1.077" height=".942" transform="translate(-13.288 35.019) rotate(-45)" fill="#fff"/>
    <rect x="34.517" y="25.238" width="1.077" height=".943" transform="translate(-7.912 32.318) rotate(-45)" fill="#fff"/>
    <rect x="35.575" y="24.179" width="1.078" height=".943" transform="translate(-6.853 32.757) rotate(-45)" fill="#fff"/>
    <path d="M36.384,25.842c-.271.271-.46.575-.566.909s-.124.663-.056.981c.069.319.216.592.442.818.338.338.711.485,1.116.439l-.656.656c-.243.243-.497.345-.761.307l-1.762-1.762-.741.741,2.486,2.486c.173.173.283.333.331.479.048.147.044.291-.013.432s-.159.311-.307.508l.957.365c.3-.377.448-.781.445-1.211s-.234-.875-.693-1.333l-.006-.006c.292-.074.525-.197.698-.369l2.809-2.809-2.572-2.572c-.521.38-.906.695-1.153.942ZM38.733,27.576l-.276.276c-.215.201-.449.305-.703.312s-.481-.09-.682-.291c-.483-.483-.51-.94-.08-1.37.099-.099.222-.197.371-.296l1.37,1.37Z" fill="#fff"/>
  </g>
</svg>