<?xml version="1.0" encoding="UTF-8"?>
<svg id="Layer_1" data-name="Layer 1" xmlns="http://www.w3.org/2000/svg" viewBox="0 0 70 30">
  <path d="M56.511,14.388c-.433,0-.957.139-1.573.415.191.375.442.771.755,1.186.312.414.624.764.936,1.047.376-.185.7-.418.973-.701.273-.284.409-.585.409-.904s-.145-.572-.436-.76c-.291-.188-.646-.282-1.063-.282Z" fill="silver"/>
  <path d="M13.192,14.388c-.433,0-.957.139-1.573.415.191.375.442.771.755,1.186.312.414.624.764.936,1.047.376-.185.7-.418.973-.701.273-.284.409-.585.409-.904s-.145-.572-.436-.76c-.291-.188-.646-.282-1.063-.282Z" fill="silver"/>
  <path d="M30.779,14.44c-.22,0-.446.025-.68.075v2.754h.68c.419,0,.739-.123.963-.367.223-.244.335-.579.335-1.005,0-.971-.433-1.457-1.298-1.457Z" fill="silver"/>
  <path d="M65,0H5C2.23,0,0,2.24,0,5v20C0,27.76,2.23,30,5,30h60c2.76,0,5-2.24,5-5V5c0-2.76-2.24-5-5-5ZM64.166,10.4h1.489v8.145h-1.489v-8.145ZM55.851,10.868h1.531v1.34h-1.531v-1.34ZM26.111,11.027h1.531v1.34h-1.531v-1.34ZM23.985,11.027h1.531v1.34h-1.531v-1.34ZM7.079,11.027h1.531v1.34h-1.531v-1.34ZM4.952,11.027h1.531v1.34h-1.531v-1.34ZM18.999,20.82h-1.531v-1.34h1.531v1.34ZM19.041,18.545h-2.541c-.006,0-.007-.005-.013-.006-.008,0-.011.006-.02.006-1.135,0-2.138-.131-3.01-.394-1.034.263-2.219.394-3.551.394-.003,0-.003-.002-.006-.002-.002,0-.002.002-.005.002h-.659c-.603,0-1.063-.184-1.382-.553-.319-.368-.479-.868-.479-1.499v-1.978c-.249-.05-.472-.075-.67-.075-.865,0-1.298.486-1.298,1.457,0,.426.112.761.335,1.005.224.244.544.367.963.367h.553l-.574,1.275h-.213c-.489,0-.932-.109-1.329-.329s-.709-.532-.936-.936c-.227-.404-.34-.872-.34-1.404,0-.51.12-.973.361-1.388.24-.414.579-.738,1.016-.973.436-.233.94-.351,1.515-.351.489,0,1.194.071,2.116.213l-.011,2.881c0,.369.069.63.207.782.139.152.342.229.611.229h.213s.002.002.005.002c.003,0,.003-.002.006-.002.794,0,1.399-.036,1.818-.106-.404-.468-.894-1.177-1.468-2.127l.33-1.382c.546-.234,1.024-.409,1.436-.526.41-.117.829-.176,1.254-.176.511,0,.989.104,1.436.313.447.21.803.484,1.068.824.267.341.399.698.399,1.074,0,.348-.1.7-.298,1.058-.198.358-.468.679-.809.963.341.057.805.085,1.394.085.009,0,.012.005.02.006.006,0,.006-.006.013-.006h1.063v-3.998h1.478v5.273ZM36.925,18.545h-2.541c-.24,0-.501-.059-.781-.175-.28-.117-.53-.293-.749-.526-.489.468-1.096.701-1.818.701h-3.062c-.447-.007-.805-.069-1.074-.186-.27-.117-.524-.324-.766-.622-.185.255-.416.453-.696.595-.28.143-.59.213-.931.213h-2.062c-.603,0-1.062-.186-1.382-.558s-.479-.87-.479-1.494v-6.093h1.488v5.858c0,.369.069.63.208.782.138.152.342.229.611.229h1.169c.283,0,.526-.112.729-.335.202-.224.303-.52.303-.888v-2.882h1.488v3.115c0,.178-.018.361-.053.553.156.17.333.286.531.346.198.061.504.091.915.091h.638v-3.892c.922-.142,1.627-.213,2.116-.213.574,0,1.079.117,1.516.351.436.234.773.559,1.015.973.241.415.362.878.362,1.388,0,.404-.064.766-.191,1.085.219.206.538.309.956.309h1.063v-6.869h1.478v8.145ZM40.222,18.545h-1.489v-8.145h1.489v8.145ZM46.473,17.27h3.009v1.275h-5.911l.531-1.275h.904c-.143-.348-.213-.691-.213-1.031,0-.447.109-.865.329-1.255s.534-.702.941-.936c.407-.234.877-.352,1.409-.352.318,0,.627.043.925.128s.673.22,1.127.404l-.479,1.244c-.503-.22-.939-.33-1.308-.33-.496,0-.863.115-1.101.346s-.356.537-.356.92c0,.298.064.585.191.861ZM62.358,18.545h-2.541c-.006,0-.007-.005-.012-.005-.008,0-.01.005-.019.005-1.135,0-2.138-.131-3.01-.394-1.034.263-2.219.394-3.551.394-.003,0-.003-.002-.006-.002-.002,0-.002.002-.005.002h-.659c-.603,0-1.062-.186-1.382-.558s-.479-.87-.479-1.494v-6.093h1.488v5.858c0,.369.069.63.208.782.138.152.342.229.611.229h.212s.002.002.005.002c.003,0,.003-.002.006-.002.794,0,1.399-.036,1.818-.106-.404-.468-.894-1.177-1.468-2.127l.33-1.382c.546-.234,1.024-.409,1.436-.526.41-.117.829-.176,1.254-.176.511,0,.989.104,1.436.313.447.21.803.484,1.068.824.267.341.399.698.399,1.074,0,.348-.1.7-.298,1.058-.198.358-.468.679-.809.963.341.057.805.085,1.394.085.008,0,.011.005.019.005.006,0,.006-.005.012-.005h1.063v-6.869h1.478v8.145ZM65.74,20.82h-2.127l.181-.69h.394c-.07-.143-.106-.273-.106-.394,0-.228.069-.415.208-.563.138-.149.331-.224.579-.224.185,0,.426.05.723.148l-.159.681c-.205-.057-.368-.085-.489-.085-.07,0-.129.02-.175.059-.047.039-.069.087-.069.144,0,.106.046.185.138.234h.904v.69Z" fill="silver"/>
</svg>