<?xml version="1.0" encoding="UTF-8"?>
<svg id="Layer_1" data-name="Layer 1" xmlns="http://www.w3.org/2000/svg" viewBox="0 0 48 48">
  <g>
    <path d="M33.525,8.24c-2.49,0-4.516,2.026-4.516,4.516s2.026,4.516,4.516,4.516,4.516-2.026,4.516-4.516-2.026-4.516-4.516-4.516h0ZM33.525,9.106c2.012,0,3.65,1.637,3.65,3.65,0,.672-.183,1.302-.501,1.843-.41-.707-1.041-1.25-1.789-1.549.294-.325.474-.756.474-1.228,0-1.01-.822-1.833-1.833-1.833s-1.833.822-1.833,1.833c0,.472.18.902.474,1.228-.748.299-1.38.841-1.789,1.549-.318-.541-.502-1.171-.502-1.843,0-2.013,1.637-3.65,3.65-3.65h0ZM33.525,12.789c-.533,0-.967-.434-.967-.967s.434-.967.967-.967.967.434.967.967-.434.967-.967.967h0ZM30.967,15.355c.429-1.026,1.428-1.7,2.559-1.7s2.129.674,2.559,1.7c-.659.649-1.563,1.05-2.559,1.05s-1.9-.401-2.559-1.05h0ZM30.967,15.355" fill="#75c9fc"/>
    <path d="M21.241,14.122h2.343c-.036.123-.054.252-.054.383,0,.365.142.708.4.966.258.258.601.4.966.4s.708-.142.966-.4l1.75-1.75c.258-.258.4-.601.4-.966s-.142-.708-.4-.966l-1.75-1.75c-.258-.258-.601-.4-.966-.4s-.708.142-.966.4c-.258.258-.4.601-.4.966,0,.132.019.26.054.383h-2.343c-.753,0-1.366.613-1.366,1.366s.613,1.366,1.366,1.366h0ZM21.241,12.256h3.152c.175,0,.333-.105.4-.267.067-.162.03-.348-.094-.472l-.157-.157c-.094-.094-.146-.22-.146-.354s.052-.259.146-.354c.095-.094.22-.146.354-.146s.259.052.354.146l1.75,1.75c.094.094.146.22.146.354s-.052.259-.146.354l-1.75,1.75c-.094.094-.22.147-.354.147s-.259-.052-.354-.147c-.094-.094-.146-.22-.146-.354s.052-.259.146-.354l.157-.157c.124-.124.161-.31.094-.472-.067-.162-.225-.267-.4-.267h-3.152c-.276,0-.5-.224-.5-.5s.224-.5.5-.5h0ZM21.241,12.256" fill="silver"/>
    <path d="M18.991,12.756c0-.797-.211-1.581-.61-2.266-.12-.207-.385-.277-.592-.156-.207.12-.277.385-.156.592.322.553.492,1.186.492,1.831,0,.672-.183,1.302-.502,1.843-.409-.707-1.041-1.25-1.789-1.549.294-.325.474-.756.474-1.228,0-1.011-.822-1.833-1.833-1.833s-1.833.822-1.833,1.833c0,.472.18.902.474,1.227-.748.299-1.38.841-1.79,1.549-.318-.541-.502-1.171-.502-1.843,0-2.012,1.637-3.65,3.65-3.65.672,0,1.329.184,1.9.533.204.124.471.06.595-.144.125-.204.06-.471-.144-.595-.707-.431-1.52-.659-2.351-.659-2.49,0-4.516,2.026-4.516,4.516s2.026,4.516,4.516,4.516,4.516-2.026,4.516-4.516h0ZM14.475,10.856c.533,0,.967.434.967.967s-.434.967-.967.967-.967-.434-.967-.967.434-.967.967-.967h0ZM14.475,13.655c1.131,0,2.13.674,2.559,1.7-.659.649-1.563,1.05-2.558,1.05s-1.9-.401-2.559-1.05c.429-1.026,1.428-1.7,2.559-1.7h0ZM14.475,13.655" fill="#ec6d64"/>
  </g>
  <g>
    <path d="M37.442,24.324c.596-.47.885-1.242.885-2.36,0-1.921-.861-2.897-2.56-2.897H13.041c-1.857,0-3.368,1.512-3.368,3.37v11.386c0,1.857,1.512,3.368,3.368,3.368h.305c.279,1.461,1.567,2.569,3.109,2.569s2.828-1.107,3.108-2.569h9.065c.281,1.461,1.567,2.569,3.109,2.569,1.552,0,2.845-1.122,3.115-2.599.976-.093,1.679-.427,2.138-1.01.546-.696.616-1.61.616-2.328,0-.433-.095-1.261-.725-1.957-.351-.387-.802-.665-1.348-.832l-1.214-6.188h1.168c.603,0,1.371-.059,1.956-.521ZM16.455,38.567c-1.087,0-1.973-.885-1.973-1.973s.885-1.971,1.973-1.971,1.971.884,1.971,1.971-.884,1.973-1.971,1.973ZM26.148,35.996h-4.666v-11.151h4.666v11.151ZM31.737,38.567c-1.087,0-1.971-.885-1.971-1.973s.884-1.971,1.971-1.971,1.973.884,1.973,1.971-.885,1.973-1.973,1.973ZM29.275,23.652v8.389h4.878c2.037,0,2.258,1.246,2.258,1.782,0,1.268-.261,1.986-1.572,2.142-.294-1.446-1.573-2.537-3.103-2.537-1.542,0-2.828,1.109-3.109,2.569h-1.287v-12.344h-7.053v12.344h-.725c-.279-1.46-1.566-2.569-3.108-2.569s-2.83,1.109-3.109,2.569h-.305c-1.199,0-2.175-.974-2.175-2.173v-11.386c0-1.199.976-2.175,2.175-2.175h22.726c1.149,0,1.367.597,1.367,1.702,0,.718-.146,1.198-.431,1.424-.232.182-.607.264-1.216.264h-6.211ZM34.278,30.848c-.042-.001-.082-.003-.125-.003h-3.685v-6h2.633l1.176,6.003Z" fill="silver"/>
    <path d="M34.278,30.848c-.042-.001-.082-.003-.125-.003h-3.685v-6h2.633l1.176,6.003Z" fill="#f6c42d"/>
    <path d="M13.168,28.904h4.792c.383,0,.694-.311.694-.694v-3.865c0-.383-.311-.694-.694-.694h-4.792c-.383,0-.694.311-.694.694v3.865c0,.383.311.694.694.694ZM14.362,24.846h2.404c.383,0,.694.311.694.694v1.477c0,.383-.311.694-.694.694h-2.404c-.383,0-.694-.311-.694-.694v-1.477c0-.383.311-.694.694-.694ZM13.668,24.846" fill="#3ad690"/>
  </g>
</svg>