<?xml version="1.0" encoding="UTF-8"?>
<svg id="Layer_1" data-name="Layer 1" xmlns="http://www.w3.org/2000/svg" viewBox="0 0 48 48">
  <polygon points="22.925 20.728 21.567 26.159 26.093 26.159 27.451 20.728 22.925 20.728 22.925 20.728" fill="#7ec6ee"/>
  <polygon points="21.115 8.96 19.757 14.391 24.283 14.391 25.641 8.96 21.115 8.96 21.115 8.96" fill="#7ec6ee"/>
  <polygon points="27.904 14.844 26.546 20.275 31.072 20.275 32.43 14.844 27.904 14.844 27.904 14.844" fill="#5cbf89"/>
  <path d="M40.269,30.622c0,.104-.086.195-.186.195h-5.364v-1.308c0-.403-.077-.797-.217-1.163h5.581c.1,0,.186.091.186.194v2.082h0ZM38.617,32.754c0,.091-.072.168-.167.168h-3.73v-1.091h3.897v.923h0ZM34.512,36.447c0,.109-.081.195-.186.195h-7.925v-2.471h7.925c.104,0,.186.091.186.195v2.082h0ZM32.865,38.579c0,.091-.077.167-.172.167h-3.562c-.091,0-.168-.077-.168-.167v-.923h3.902v.923h0ZM25.387,36.641h-7.409v-2.471h7.409v2.471h0ZM16.964,36.641h-7.925c-.099,0-.185-.086-.185-.195v-2.082c0-.104.086-.195.185-.195h3.286c.281,0,.507-.226.507-.507,0-.276-.226-.502-.507-.502h-2.666v-3.653c0-.946.593-1.806,1.471-2.145l1.629-.634h17.847l1.629.634c.878.339,1.471,1.199,1.471,2.145v3.653H14.687c-.276,0-.507.226-.507.502,0,.281.231.507.507.507h2.277v2.471h0ZM14.402,38.579c0,.091-.072.167-.168.167h-3.562c-.095,0-.172-.077-.172-.167v-.923h3.902v.923h0ZM9.568,24.792c0-.09.077-.168.172-.168h.896c.692,0,1.276.462,1.462,1.096h-1.602c-.511,0-.928-.417-.928-.928h0ZM8.559,24.792c0,.077.005.154.009.226h-.652c-.104,0-.185-.09-.185-.199v-2.105c0-.109.081-.195.185-.195h5.137l-.489,1.987c-.466-.548-1.154-.896-1.928-.896h-.896c-.652,0-1.181.534-1.181,1.181h0ZM14.167,19.438h-2.625c-.498,0-.901-.403-.901-.901v-.349c0-.109.091-.195.199-.195h1.711c.711,0,1.34.475,1.534,1.159l.081.285h0ZM8.536,17.853c0-.941.593-1.806,1.471-2.145l1.629-.629h3.865c.281,0,.507-.226.507-.507s-.226-.507-.507-.507h-3.318l1.027-4.169c.091-.38.43-.643.819-.643h13.058c.389,0,.729.263.819.643l1.028,4.169h-11.071c-.28,0-.507.226-.507.507s.226.507.507.507h1.39c-.063.127-.113.258-.149.403l-.783,3.195c-.466-.543-1.159-.892-1.928-.892h-.901c-.308,0-.588.122-.801.317-.48-.688-1.276-1.123-2.141-1.123h-1.711c-.67,0-1.208.543-1.208,1.209v.349c0,1.055.855,1.91,1.91,1.91h2.286c-.226.235-.394.525-.475.86l-.05.199h-4.766v-3.653h0ZM8.446,13.142c0-.091.077-.168.172-.168h.896c.692,0,1.276.462,1.462,1.091h-1.607c-.507,0-.923-.412-.923-.923h0ZM15.326,18.967c0-.09.077-.167.168-.167h.901c.688,0,1.272.461,1.458,1.095h-1.602c-.507,0-.923-.416-.923-.928h0ZM28.212,20.904c.389,0,.729.267.819.643l1.027,4.173H13.311l1.023-4.173c.091-.376.43-.643.819-.643h13.058ZM34.566,24.082c.258-.168.566-.263.883-.263h1.711c.109,0,.195.086.195.194v.353c0,.493-.403.896-.896.896h-1.706c.036-.149.059-.308.059-.471,0-.267-.091-.511-.244-.71h0ZM32.874,25.72h-1.602c.181-.634.765-1.096,1.457-1.096h.901c.091,0,.167.077.167.168,0,.511-.416.928-.923.928h0ZM36.363,20.904l1.629.629c.878.344,1.466,1.204,1.466,2.15v3.648h-5.558c-.208-.24-.453-.453-.724-.625.353-.054.679-.208.941-.43h2.34c1.055,0,1.91-.86,1.91-1.91v-.353c0-.665-.543-1.208-1.208-1.208h-1.711c-.72,0-1.394.294-1.887.806h-.833c-.769,0-1.462.349-1.928.896l-.783-3.2c-.036-.141-.086-.276-.154-.403h6.5ZM38.481,18.8h.901c.095,0,.172.077.172.167,0,.512-.416.928-.928.928h-1.602c.186-.634.769-1.095,1.457-1.095h0ZM31.606,12.974h.896c.095,0,.172.077.172.168,0,.511-.416.923-.923.923h-1.602c.181-.629.765-1.091,1.457-1.091h0ZM40.473,27.399v-3.716c0-1.141-.597-2.2-1.543-2.802.928-.145,1.634-.946,1.634-1.915,0-.652-.53-1.181-1.181-1.181h-.901c-.769,0-1.457.348-1.924.892l-.072-.299c-.068-.272-.344-.439-.616-.371-.272.068-.435.339-.371.611l.312,1.277h-16.747l1.023-4.173c.095-.376.43-.643.824-.643h13.058c.389,0,.729.267.819.643l.149.597c.063.272.339.439.611.371.272-.063.439-.339.371-.611l-.149-.597c-.204-.833-.946-1.417-1.801-1.417h-.516c.149-.272.235-.589.235-.923,0-.652-.534-1.181-1.181-1.181h-.901c-.774,0-1.462.349-1.928.892l-.783-3.196c-.208-.833-.946-1.417-1.806-1.417h-13.058c-.86,0-1.598.584-1.806,1.417l-.783,3.196c-.466-.543-1.154-.892-1.928-.892h-.896c-.652,0-1.186.53-1.186,1.181,0,.964.711,1.77,1.634,1.914-.941.598-1.539,1.657-1.539,2.797v3.721c-.471.163-.81.616-.81,1.141v2.105c0,.67.539,1.209,1.199,1.209h1.086c.294.358.715.606,1.19.679-.946.602-1.543,1.661-1.543,2.802v3.716c-.471.168-.81.616-.81,1.141v2.082c0,.665.539,1.208,1.199,1.208h.453v.923c0,.652.53,1.181,1.182,1.181h3.562c.652,0,1.182-.53,1.182-1.181v-.923h12.533v.923c0,.652.53,1.181,1.181,1.181h3.562c.652,0,1.181-.53,1.181-1.181v-.923h.453c.661,0,1.199-.543,1.199-1.208v-2.082c0-.149-.032-.299-.081-.43h3.005c.652,0,1.181-.53,1.181-1.181v-.923h.453c.661,0,1.199-.543,1.199-1.209v-2.082c0-.525-.339-.973-.81-1.14h0Z" fill="silver"/>
  <path d="M14.167,19.438h-2.625c-.498,0-.901-.403-.901-.901v-.349c0-.109.091-.195.199-.195h1.711c.711,0,1.34.475,1.534,1.159l.081.285h0Z" fill="#f6c42d"/>
  <path d="M37.354,24.013v.353c0,.493-.403.896-.896.896h-1.706c.036-.149.059-.308.059-.471,0-.267-.091-.511-.244-.71.258-.168.566-.263.883-.263h1.711c.109,0,.195.086.195.194h0Z" fill="#f6c42d"/>
  <path d="M21.177,29.644v1.444h-2.037c-.405,0-.762-.274-.867-.665l-.209-.779h3.112ZM25.093,30.423c-.105.392-.461.665-.867.665h-2.037v-1.444h3.112l-.209.779h0ZM17.295,30.685c.224.834.982,1.415,1.845,1.415h5.086c.863,0,1.621-.582,1.845-1.415l.38-1.416c.041-.152.008-.314-.088-.439-.096-.125-.244-.198-.402-.198h-8.557c-.158,0-.306.074-.402.198-.096.125-.128.287-.087.439l.379,1.416h0Z" fill="silver"/>
  <path d="M12.664,31.088c-.493,0-.896-.403-.896-.896v-.353c0-.109.086-.194.195-.194h1.711c.711,0,1.34.475,1.539,1.159l.077.285h-2.625ZM16.448,31.455l-.263-.928c-.321-1.118-1.353-1.896-2.512-1.896h-1.711c-.665,0-1.209.543-1.209,1.208v.353c0,1.05.855,1.91,1.91,1.91h3.3c.158,0,.308-.077.403-.204.095-.127.127-.29.082-.444h0Z" fill="silver"/>
  <path d="M15.289,31.088h-2.625c-.493,0-.896-.403-.896-.896v-.353c0-.109.086-.194.195-.194h1.711c.711,0,1.34.475,1.539,1.159l.077.285h0Z" fill="#f6c42d"/>
  <path d="M27.748,31.175h3.153c.593,0,1.076-.451,1.076-1.004v-.395c0-.122-.103-.218-.234-.218h-2.055c-.853,0-1.609.532-1.848,1.297l-.092.32h0Z" fill="#f6c42d"/>
  <path d="M27.404,32.101h3.299c1.053,0,1.91-.857,1.91-1.91v-.351c0-.666-.542-1.208-1.208-1.208h-1.342c-.279,0-.506.227-.506.506s.227.506.506.506h1.342c.108,0,.195.088.195.196v.351c0,.495-.403.897-.897.897h-2.628l.081-.284c.047-.166.12-.322.217-.463.158-.231.099-.546-.132-.704-.231-.158-.546-.098-.704.133-.158.231-.278.486-.355.756l-.266.93c-.044.153-.013.317.083.444.096.127.245.201.404.201h0Z" fill="silver"/>
</svg>