<?xml version="1.0" encoding="UTF-8"?>
<svg id="Layer_1" data-name="Layer 1" xmlns="http://www.w3.org/2000/svg" viewBox="0 0 70 30">
  <path d="M44.175,14.92c-.55-.55-1.22-.83-2.03-.83s-1.49.28-2.04.83c-.55.55-.82,1.24-.82,2.07s.27,1.52.82,2.07c.55.55,1.23.83,2.04.83s1.48-.28,2.03-.83c.55-.55.83-1.24.83-2.07s-.28-1.52-.83-2.07ZM44.175,14.92c-.55-.55-1.22-.83-2.03-.83s-1.49.28-2.04.83c-.55.55-.82,1.24-.82,2.07s.27,1.52.82,2.07c.55.55,1.23.83,2.04.83s1.48-.28,2.03-.83c.55-.55.83-1.24.83-2.07s-.28-1.52-.83-2.07ZM24.665,14.92c-.55-.55-1.23-.83-2.03-.83-.81,0-1.49.28-2.04.83-.55.55-.82,1.24-.82,2.07s.27,1.52.82,2.07c.55.55,1.23.83,2.04.83.8,0,1.48-.28,2.03-.83.55-.55.83-1.24.83-2.07s-.28-1.52-.83-2.07ZM44.175,14.92c-.55-.55-1.22-.83-2.03-.83s-1.49.28-2.04.83c-.55.55-.82,1.24-.82,2.07s.27,1.52.82,2.07c.55.55,1.23.83,2.04.83s1.48-.28,2.03-.83c.55-.55.83-1.24.83-2.07s-.28-1.52-.83-2.07ZM44.175,14.92c-.55-.55-1.22-.83-2.03-.83s-1.49.28-2.04.83c-.55.55-.82,1.24-.82,2.07s.27,1.52.82,2.07c.55.55,1.23.83,2.04.83s1.48-.28,2.03-.83c.55-.55.83-1.24.83-2.07s-.28-1.52-.83-2.07ZM24.665,14.92c-.55-.55-1.23-.83-2.03-.83-.81,0-1.49.28-2.04.83-.55.55-.82,1.24-.82,2.07s.27,1.52.82,2.07c.55.55,1.23.83,2.04.83.8,0,1.48-.28,2.03-.83.55-.55.83-1.24.83-2.07s-.28-1.52-.83-2.07ZM65.005,0H5.005C2.235,0,.005,2.24.005,5v20c0,2.76,2.23,5,5,5h60c2.76,0,5-2.24,5-5V5c0-2.76-2.24-5-5-5ZM16.455,10.75h-5.41v3.6h5.22v2.02h-5.22v5.2h-2.11v-12.83h7.52v2.01ZM26.065,20.42c-.93.93-2.08,1.39-3.43,1.39s-2.49-.46-3.43-1.39-1.41-2.07-1.41-3.43.47-2.5,1.41-3.43,2.08-1.39,3.43-1.39,2.5.46,3.43,1.39c.94.93,1.41,2.07,1.41,3.43s-.47,2.5-1.41,3.43ZM31.255,21.57h-1.99v-13.38h1.99v13.38ZM35.525,21.57h-1.98v-13.38h1.98v13.38ZM45.585,20.42c-.94.93-2.08,1.39-3.44,1.39-1.35,0-2.49-.46-3.43-1.39s-1.41-2.07-1.41-3.43.47-2.5,1.41-3.43,2.08-1.39,3.43-1.39c1.36,0,2.5.46,3.44,1.39.93.93,1.4,2.07,1.4,3.43s-.47,2.5-1.4,3.43ZM58.185,21.57h-1.94l-1.95-6.25-1.94,6.25h-2.1l-2.67-9.16h2.1l1.77,6.32,1.93-6.32h1.9l1.9,6.32,1.79-6.32h2.09l-2.88,9.16ZM42.145,14.09c-.81,0-1.49.28-2.04.83-.55.55-.82,1.24-.82,2.07s.27,1.52.82,2.07c.55.55,1.23.83,2.04.83s1.48-.28,2.03-.83c.55-.55.83-1.24.83-2.07s-.28-1.52-.83-2.07c-.55-.55-1.22-.83-2.03-.83ZM22.635,14.09c-.81,0-1.49.28-2.04.83-.55.55-.82,1.24-.82,2.07s.27,1.52.82,2.07c.55.55,1.23.83,2.04.83.8,0,1.48-.28,2.03-.83.55-.55.83-1.24.83-2.07s-.28-1.52-.83-2.07c-.55-.55-1.23-.83-2.03-.83ZM44.175,14.92c-.55-.55-1.22-.83-2.03-.83s-1.49.28-2.04.83c-.55.55-.82,1.24-.82,2.07s.27,1.52.82,2.07c.55.55,1.23.83,2.04.83s1.48-.28,2.03-.83c.55-.55.83-1.24.83-2.07s-.28-1.52-.83-2.07ZM44.175,14.92c-.55-.55-1.22-.83-2.03-.83s-1.49.28-2.04.83c-.55.55-.82,1.24-.82,2.07s.27,1.52.82,2.07c.55.55,1.23.83,2.04.83s1.48-.28,2.03-.83c.55-.55.83-1.24.83-2.07s-.28-1.52-.83-2.07ZM44.175,14.92c-.55-.55-1.22-.83-2.03-.83s-1.49.28-2.04.83c-.55.55-.82,1.24-.82,2.07s.27,1.52.82,2.07c.55.55,1.23.83,2.04.83s1.48-.28,2.03-.83c.55-.55.83-1.24.83-2.07s-.28-1.52-.83-2.07ZM44.175,14.92c-.55-.55-1.22-.83-2.03-.83s-1.49.28-2.04.83c-.55.55-.82,1.24-.82,2.07s.27,1.52.82,2.07c.55.55,1.23.83,2.04.83s1.48-.28,2.03-.83c.55-.55.83-1.24.83-2.07s-.28-1.52-.83-2.07Z" fill="#f6c42d"/>
</svg>