<?xml version="1.0" encoding="UTF-8"?>
<svg id="Layer_1" data-name="Layer 1" xmlns="http://www.w3.org/2000/svg" viewBox="0 0 48 48">
  <path d="M30.825,26.25c5.583,0,10.125-4.542,10.125-10.125s-4.542-10.125-10.125-10.125-10.125,4.542-10.125,10.125,4.542,10.125,10.125,10.125h0ZM30.825,17.25c-1.861,0-3.375-1.514-3.375-3.375,0-1.359.809-2.58,2.06-3.109.062-.026.128-.025.19-.047v-1.344c0-.622.503-1.125,1.125-1.125s1.125.503,1.125,1.125v1.346c.582.197,1.151.509,1.658,1.001.446.432.457,1.144.024,1.591-.432.446-1.145.456-1.591.024-.547-.531-1.156-.712-1.654-.499-.417.177-.688.583-.688,1.037,0,.621.504,1.125,1.125,1.125,1.861,0,3.375,1.514,3.375,3.375,0,1.414-.892,2.688-2.22,3.172-.01.004-.02.002-.03.006v1.323c0,.622-.503,1.125-1.125,1.125s-1.125-.503-1.125-1.125v-1.331c-.741-.25-1.451-.725-2.058-1.449-.4-.476-.338-1.186.139-1.584.476-.399,1.187-.337,1.584.139.596.706,1.271.991,1.845.783.443-.161.74-.587.74-1.058,0-.621-.504-1.125-1.125-1.125h0ZM30.825,17.25" fill="#fff"/>
  <g>
    <path d="M5.925,42h3.375v-13.5h-3.375c-.621,0-1.125.504-1.125,1.125v11.25c0,.621.504,1.125,1.125,1.125h0ZM5.925,42" fill="#fff"/>
    <path d="M38.047,27.375l-6.187,6.817c-.231.137-.847.91-2.16,1.058h-7.965c-.63,0-1.125-.495-1.125-1.125s.495-1.125,1.125-1.125h6.65c.73,0,1.321-.7,1.094-1.395-.587-1.803-2.281-3.105-4.28-3.105h-2.948l-.701-.609c-1.505-1.307-3.418-2.141-5.411-2.112-1.654.024-3.306.583-4.59,1.494v14.727h17.738c.924,0,1.8-.374,2.433-1.046,2.938-3.119,11.253-12.131,11.253-12.319.371-.423.261-1.037-.157-1.417-1.341-1.245-3.454-1.203-4.77.157h0ZM38.047,27.375" fill="#fff"/>
  </g>
</svg>