<?xml version="1.0" encoding="UTF-8"?>
<svg id="Layer_1" data-name="Layer 1" xmlns="http://www.w3.org/2000/svg" viewBox="0 0 48 48">
  <path d="M22.179,33.069l-3.391,3.391c-1.403,1.403-3.698,1.403-5.101,0l-3.391-3.391c-1.389-1.389-1.389-3.683,0-5.086l3.391-3.391,8.507,8.507-.015-.029ZM38.301,23.73l-15.289-15.274c-.263-.278-.643-.409-1.023-.351s-.702.292-.892.628l-6.884,13.008,10.816,10.816,12.965-6.914c.336-.161.57-.497.629-.877.058-.38-.073-.76-.336-1.038h.015ZM11.992,38.156l-3.391-3.391c-.482-.482-.848-1.009-1.125-1.579-.599,1.681-.219,3.64,1.125,4.984.906.906,2.119,1.418,3.391,1.418.555,0,1.096-.102,1.593-.278-.585-.278-1.125-.658-1.593-1.14v-.015ZM25.994,36.884l-2.119-2.119-3.406,3.391c-.292.292-.599.541-.935.76l2.207,2.207c.57.57,1.315.877,2.119.877s1.564-.307,2.119-.877c1.169-1.184,1.169-3.069,0-4.253l.015.015ZM29.999,9.596v-2.397c0-.658-.541-1.199-1.199-1.199s-1.199.541-1.199,1.199v2.397c0,.658.541,1.199,1.199,1.199s1.199-.541,1.199-1.199ZM40.8,18c0-.658-.541-1.199-1.199-1.199h-2.397c-.658,0-1.199.541-1.199,1.199s.541,1.199,1.199,1.199h2.397c.658,0,1.199-.541,1.199-1.199ZM34.442,14.039l2.397-2.397c.468-.468.468-1.228,0-1.695-.468-.468-1.228-.468-1.695,0l-2.397,2.397c-.468.468-.468,1.228,0,1.695.234.234.541.351.848.351s.614-.117.848-.351Z" fill="#fff"/>
</svg>