<?xml version="1.0" encoding="UTF-8"?>
<svg id="Layer_1" data-name="Layer 1" xmlns="http://www.w3.org/2000/svg" viewBox="0 0 48 48">
  <path d="M32.284,6c-1.847,0-3.624.431-5.264,1.26-1.122.57-2.14,1.329-3.02,2.226-.88-.897-1.898-1.657-3.02-2.226-1.639-.828-3.4-1.26-5.264-1.26-6.385,0-11.563,5.195-11.563,11.563,0,4.522,2.382,9.319,7.093,14.272,3.935,4.125,8.75,7.576,12.08,9.733l.673.431.673-.431c3.348-2.157,8.163-5.609,12.081-9.733,4.711-4.953,7.093-9.751,7.093-14.272,0-6.385-5.195-11.563-11.563-11.563Z" fill="silver"/>
</svg>