<?xml version="1.0" encoding="UTF-8"?>
<svg id="Layer_1" data-name="Layer 1" xmlns="http://www.w3.org/2000/svg" viewBox="0 0 48 48">
  <path d="M19.578,31.683h-1.893c-.272,0-.49-.218-.49-.49v-.617h2.383v1.107h0ZM20.041,29.654h-3.309c-.254,0-.463.204-.463.463v1.076c0,.781.635,1.416,1.416,1.416h2.356c.254,0,.463-.209.463-.463v-2.029c0-.259-.209-.463-.463-.463h0Z" fill="silver"/>
  <path d="M19.578,30.575v1.107h-1.893c-.272,0-.49-.218-.49-.49v-.617h2.383Z" fill="#f6c42d"/>
  <path d="M27.96,32.607h2.357c.779,0,1.413-.634,1.413-1.413v-1.08c0-.255-.206-.462-.462-.462h-3.308c-.255,0-.462.207-.462.462v2.031c0,.255.207.462.462.462h0Z" fill="silver"/>
  <path d="M30.807,30.575v.617c0,.272-.223.49-.49.49h-1.897v-1.107h2.388Z" fill="#f6c42d"/>
  <path d="M25.959,30.747c0,.581-.477,1.058-1.058,1.058h-1.806c-.581,0-1.053-.477-1.053-1.058v-.172h3.917v.172h0ZM26.422,29.649h-4.843c-.254,0-.463.209-.463.463v.635c0,1.094.89,1.979,1.979,1.979h1.806c1.094,0,1.979-.885,1.979-1.979v-.635c0-.254-.204-.463-.458-.463h0Z" fill="silver"/>
  <path d="M25.959,30.575v.172c0,.581-.477,1.058-1.058,1.058h-1.806c-.581,0-1.053-.477-1.053-1.058v-.172h3.917Z" fill="#ec6c64"/>
  <path d="M17.107,13.671c-.127,0-.245.062-.317.167-.072.104-.088.237-.043.355.41,1.079,1.461,1.804,2.615,1.804.917,0,1.777-.45,2.3-1.204.118-.171.321-.273.543-.273h3.59c.221,0,.424.102.543.273.523.754,1.383,1.204,2.3,1.204,1.154,0,2.205-.725,2.615-1.804.045-.118.029-.251-.043-.355-.072-.104-.19-.167-.317-.167h-2.033l-.273-.472.273-.472h2.033c.126,0,.245-.062.317-.166.072-.104.088-.237.043-.355-.41-1.079-1.461-1.804-2.615-1.804-.917,0-1.777.45-2.3,1.204-.118.171-.321.273-.543.273h-.983c-.213,0-.385.172-.385.385s.172.385.385.385h.983c.474,0,.913-.226,1.175-.604.38-.547,1.003-.873,1.667-.873.633,0,1.223.301,1.602.786h-1.602c-.138,0-.265.073-.333.192l-.495.857c-.069.119-.069.266,0,.385l.495.857c.069.119.196.192.333.192h1.602c-.379.485-.969.786-1.602.786-.664,0-1.288-.326-1.667-.873-.262-.378-.701-.604-1.175-.604h-3.59c-.474,0-.913.226-1.175.604-.38.547-1.003.873-1.667.873-.633,0-1.223-.301-1.601-.786h1.601c.138,0,.265-.073.333-.192l.495-.857c.069-.119.069-.266,0-.385l-.495-.857c-.069-.119-.196-.192-.333-.192h-1.601c.378-.485.969-.786,1.601-.786.664,0,1.288.327,1.667.873.262.378.701.604,1.175.604h.811c.213,0,.385-.172.385-.385s-.172-.385-.385-.385h-.811c-.221,0-.424-.102-.543-.273-.523-.754-1.383-1.204-2.3-1.204-1.154,0-2.205.725-2.615,1.804-.045.118-.029.251.043.355.072.104.19.166.317.166h2.033l.273.472-.273.472h-2.033Z" fill="#5cbf89"/>
  <path d="M33.087,36.841v-.619h.198c.491,0,.89-.399.89-.89v-1.165c0-.335-.186-.628-.46-.78l-.151-2.898c-.032-.614-.274-1.17-.655-1.598.537-.148.932-.64.932-1.224,0-.7-.569-1.269-1.269-1.269h-.924c-.332,0-.635.124-.866.327l-.548-1.933c-.31-1.095-1.321-1.859-2.459-1.859h-7.546c-1.138,0-2.149.765-2.459,1.859l-.548,1.933c-.231-.204-.534-.327-.866-.327h-.925c-.7,0-1.269.569-1.269,1.269,0,.583.395,1.076.932,1.224-.38.428-.623.984-.654,1.598l-.151,2.899c-.274.151-.46.444-.46.779v1.166c0,.491.399.89.89.89h.197v.619c0,.05.004.1.011.149h-2.174v-14.98h22.5v14.98h-2.173c.007-.049.01-.099.01-.149h0ZM29.675,36.841v-.619h2.488v.619c0,.082-.067.149-.149.149h-2.19c-.082,0-.149-.067-.149-.149h0ZM19.248,36.841v-.619h9.504v.619c0,.05.004.1.01.149h-9.524c.007-.049.01-.099.01-.149h0ZM14.749,34.2h6.038v1.098h-6.038v-1.098h0ZM21.711,34.2h4.579v1.098h-4.579v-1.098h0ZM27.213,35.298v-1.098h6.038v1.098h-6.038ZM15.36,30.537c.047-.898.787-1.601,1.686-1.601h2.995c.255,0,.462-.207.462-.462s-.207-.462-.462-.462h-.559l.717-2.531.028-.021h7.546l.028.021.717,2.531h-6.323c-.255,0-.462.207-.462.462s.207.462.462.462h8.759c.899,0,1.639.703,1.686,1.601l.143,2.74H15.217l.143-2.74h0ZM16.743,28.012h-1.314c-.19,0-.345-.155-.345-.346s.155-.345.345-.345h.925c.214,0,.389.174.389.389v.302h0ZM29.478,28.012l-.788-2.783c-.116-.408-.493-.693-.917-.693h-7.546c-.424,0-.801.285-.916.693l-.789,2.783h-.707l.841-2.968c.198-.699.844-1.188,1.571-1.188h7.546c.727,0,1.373.488,1.571,1.188l.841,2.968h-.707ZM31.257,28.012v-.302c0-.215.175-.389.389-.389h.924c.191,0,.346.155.346.345s-.155.346-.346.346h-1.314ZM15.837,36.841v-.619h2.488v.619c0,.082-.067.149-.149.149h-2.19c-.082,0-.149-.067-.149-.149h0ZM10.265,18.159h27.47v18.831h-1.562v-17.232c0-.255-.206-.462-.462-.462h-1.999c-.255,0-.462.207-.462.462s.206.462.462.462h1.538v.867H12.75v-.867h18.808c.255,0,.462-.207.462-.462s-.207-.462-.462-.462H12.288c-.255,0-.462.207-.462.462v17.232h-1.561v-18.831h0ZM13.385,9.163h21.23l3.944,8.072H9.441l3.944-8.072h0ZM39.298,36.99h-.64v-18.831h.64c.159,0,.307-.082.391-.218.085-.135.094-.304.024-.447l-4.395-8.995c-.077-.158-.239-.259-.415-.259H13.097c-.176,0-.337.101-.415.259l-4.395,8.995c-.07.143-.061.312.023.447.085.135.232.217.392.217h.64v18.831h-.64c-.255,0-.462.206-.462.461v1.847c0,.255.207.462.462.462h30.597c.255,0,.462-.207.462-.462v-1.847c0-.255-.207-.461-.462-.461h0Z" fill="silver"/>
  <polygon points="38.836 37.915 38.836 38.836 9.166 38.836 9.166 37.915 38.836 37.915 38.836 37.915" fill="#ec6c64"/>
</svg>