<?xml version="1.0" encoding="UTF-8"?>
<svg id="Layer_1" data-name="Layer 1" xmlns="http://www.w3.org/2000/svg" viewBox="0 0 60 15">
  <path d="M0,0h60v15H0V0Z" fill="#da7469"/>
  <path d="M5.62,9.68c.04,0,.067.013.08.04.013.02.02.04.02.06v.59c0,.02-.007.04-.02.06-.013.027-.04.04-.08.04-.44,0-.823-.153-1.15-.46v.44c0,1.327-.633,2.113-1.9,2.36l-.35-.79c.48-.06.83-.207,1.05-.44.22-.233.33-.597.33-1.09v-4.85h.87v3.3c.12.233.267.417.44.55.18.127.417.19.71.19ZM8.64,8.44c0,.18-.027.367-.08.56.267.453.813.68,1.64.68.04,0,.067.013.08.04.013.02.02.04.02.06v.59c0,.013-.007.033-.02.06s-.04.04-.08.04c-.467,0-.85-.067-1.15-.2-.3-.133-.56-.343-.78-.63-.173.253-.397.457-.67.61-.273.147-.58.22-.92.22h-1.06c-.04,0-.067-.013-.08-.04-.013-.02-.02-.04-.02-.06v-.59c0-.02.007-.04.02-.06.013-.027.04-.04.08-.04h.9c.367,0,.667-.123.9-.37.233-.253.35-.57.35-.95v-2.76h.87v2.84ZM6.44,12.61v-1.01h.94v1.01h-.94ZM8.32,12.61v-1.01h.94v1.01h-.94ZM12.6,5.54c.627,0,1.153.183,1.58.55.427.367.757.853.99,1.46l.55,1.38c.18.46.587.717,1.22.77l-.34.77c-.56-.033-1.023-.27-1.39-.71-.44.227-.93.403-1.47.53-.533.12-1.05.18-1.55.18h-1.99c-.04,0-.067-.013-.08-.04s-.02-.047-.02-.06v-.59c0-.02.007-.04.02-.06.013-.027.04-.04.08-.04h1.99c.993,0,1.897-.157,2.71-.47l-.03-.07-.56-1.36c-.2-.473-.453-.823-.76-1.05-.3-.227-.687-.34-1.16-.34-.407,0-.807.107-1.2.32l-.34-.73c.313-.153.593-.263.84-.33.253-.073.557-.11.91-.11ZM12.24,12.61v-1.01h.94v1.01h-.94ZM19.049,8.78c0,.32.067.55.2.69.14.14.35.21.63.21h.2c.04,0,.067.013.08.04.013.02.02.04.02.06v.59c0,.02-.007.04-.02.06-.013.027-.04.04-.08.04h-.36c-.52,0-.907-.15-1.16-.45-.253-.3-.38-.693-.38-1.18v-4.53h.87v4.47ZM18.709,2.14c.173,0,.4.047.68.14l-.15.51c-.2-.053-.353-.08-.46-.08-.08,0-.153.023-.22.07-.06.04-.09.107-.09.2,0,.12.047.21.14.27h.92v.52h-1.97l.14-.52h.37c-.067-.133-.1-.257-.1-.37,0-.213.063-.39.19-.53.133-.14.317-.21.55-.21ZM21.223,4.66v-1.01h.94v1.01h-.94ZM23.103,4.66v-1.01h.94v1.01h-.94ZM23.103,8.44c0,.18-.027.367-.08.56.267.453.813.68,1.64.68.04,0,.067.013.08.04.013.02.02.04.02.06v.59c0,.013-.007.033-.02.06s-.04.04-.08.04c-.467,0-.85-.067-1.15-.2-.3-.133-.56-.343-.78-.63-.173.253-.397.457-.67.61-.273.147-.58.22-.92.22h-1.06c-.04,0-.067-.013-.08-.04-.013-.02-.02-.04-.02-.06v-.59c0-.02.007-.04.02-.06.013-.027.04-.04.08-.04h.9c.367,0,.667-.123.9-.37.233-.253.35-.57.35-.95v-2.76h.87v2.84ZM26.983,8.44c0,.22-.027.413-.08.58.233.44.647.66,1.24.66.04,0,.067.013.08.04.013.02.02.04.02.06v.59c0,.02-.007.04-.02.06-.013.027-.04.04-.08.04-.627,0-1.147-.26-1.56-.78-.387.52-.907.78-1.56.78h-.36c-.04,0-.067-.013-.08-.04-.013-.02-.02-.04-.02-.06v-.59c0-.02.007-.04.02-.06.013-.027.04-.04.08-.04h.2c.367,0,.667-.123.9-.37.233-.253.35-.57.35-.95V2.81h.87v5.63ZM28.139,10.47c-.04,0-.067-.013-.08-.04-.013-.027-.02-.047-.02-.06v-.59c0-.02.007-.04.02-.06.013-.027.04-.04.08-.04h1.26V2.81h.87v7.66h-2.13ZM36.709,5.54c.347,0,.81.053,1.39.16l.33.06v4.71h-.88v-4.02c-.333-.08-.63-.12-.89-.12-.507,0-.903.167-1.19.5-.287.327-.43.743-.43,1.25,0,.447.137.827.41,1.14.273.307.657.46,1.15.46h.63l-.35.79h-.33c-.5,0-.933-.11-1.3-.33-.36-.22-.637-.517-.83-.89-.187-.373-.28-.783-.28-1.23,0-.433.1-.84.3-1.22.207-.38.503-.683.89-.91.393-.233.853-.35,1.38-.35ZM35.309,4.66v-1.01h.94v1.01h-.94ZM37.189,4.66v-1.01h.94v1.01h-.94ZM40.954,10.45c0,1.327-.633,2.113-1.9,2.36l-.35-.79c.48-.06.83-.207,1.05-.44.22-.233.33-.597.33-1.09v-4.85h.87v4.81ZM43.444,8.78c0,.32.067.55.2.69.14.14.35.21.63.21h.2c.04,0,.067.013.08.04.013.02.02.04.02.06v.59c0,.02-.007.04-.02.06-.013.027-.04.04-.08.04h-.36c-.52,0-.91-.15-1.17-.45-.253-.3-.38-.693-.38-1.18V2.81h.88v5.97ZM47.497,8.44c0,.18-.027.367-.08.56.267.453.813.68,1.64.68.04,0,.067.013.08.04.013.02.02.04.02.06v.59c0,.013-.007.033-.02.06-.013.027-.04.04-.08.04-.467,0-.85-.067-1.15-.2-.3-.133-.56-.343-.78-.63-.173.253-.397.457-.67.61-.273.147-.58.22-.92.22h-1.06c-.04,0-.067-.013-.08-.04-.013-.02-.02-.04-.02-.06v-.59c0-.02.007-.04.02-.06.013-.027.04-.04.08-.04h.9c.367,0,.667-.123.9-.37.233-.253.35-.57.35-.95v-2.76h.87v2.84ZM45.297,12.61v-1.01h.94v1.01h-.94ZM47.177,12.61v-1.01h.94v1.01h-.94ZM55.757,10.47c-.407,0-.777-.077-1.11-.23-.327-.153-.597-.383-.81-.69-.167.273-.39.497-.67.67-.28.167-.603.25-.97.25h-3.14c-.04,0-.067-.013-.08-.04-.013-.02-.02-.04-.02-.06v-.59c0-.02.007-.04.02-.06.013-.027.04-.04.08-.04h1.26v-4.04h.88v4.04h.84c.367,0,.667-.123.9-.37.24-.253.36-.57.36-.95v-2.72h.87v2.86c.013.213.097.41.25.59.153.18.35.323.59.43.24.107.487.16.74.16h.97v-4.46h.87v5.25h-1.83Z" fill="#fff"/>
</svg>