<?xml version="1.0" encoding="UTF-8"?>
<svg id="Layer_1" data-name="Layer 1" xmlns="http://www.w3.org/2000/svg" viewBox="0 0 48 48">
  <rect x="17.9" y="15.546" width="6.726" height="1.56" fill="#ec6d64"/>
  <path d="M32.171,20.428h6.174c.99,0,1.794.804,1.794,1.794v.31c0,.99-.804,1.794-1.794,1.794h-4.08c-1.156,0-2.094-.938-2.094-2.094v-1.803h0Z" fill="#3ad690"/>
  <path d="M18.85,11.51c-.784-2.587-3.174-2.734-3.174-2.734H7.569c-1.638.903-.328,2.734-.328,2.734" fill="#f6c42d"/>
  <path d="M22.052,12.987h-.983c-.205,0-.372.166-.372.372s.166.372.372.372h.983c.205,0,.372-.166.372-.372s-.166-.372-.372-.372ZM12.934,25.52c-.248-.542-.795-.919-1.43-.919-.868,0-1.573.707-1.573,1.575s.706,1.572,1.573,1.572c.633,0,1.18-.376,1.43-.916.093-.2.144-.422.144-.656s-.051-.456-.144-.656ZM11.505,27.004c-.459,0-.83-.372-.83-.829s.372-.832.83-.832.83.373.83.832-.373.829-.83.829ZM27.876,13.046c-.884-1.039-2.488-2.279-5.124-2.279h-3.867c-.115-.545-.475-1.101-1.01-1.544-.542-.448-1.514-.983-3.061-.983h-6.614c-1.029,0-1.866.923-1.866,2.056v.471h-.03c-.885,0-1.606.719-1.606,1.604v7.402c-.286.138-.484.432-.484.771v1.211c0,.338.199.632.484.77v2.416c0,.885.72,1.605,1.606,1.605h1.717c.186,1.756,1.677,3.129,3.482,3.129.508,0,.993-.11,1.43-.306v-.838c-.418.255-.907.401-1.43.401-1.521,0-2.759-1.237-2.759-2.758s1.238-2.76,2.759-2.76c.523,0,1.011.146,1.43.401v-.838c-.437-.196-.921-.306-1.43-.306-1.805,0-3.296,1.373-3.482,3.129v.003h-.983c.189-2.298,2.119-4.11,4.465-4.11.499,0,.98.082,1.43.235v-.778c-.455-.13-.935-.2-1.43-.2-2.755,0-5.018,2.145-5.21,4.853-.471-.007-.852-.39-.852-.862v-2.33h.724c.472,0,.857-.384.857-.856v-1.211c0-.473-.385-.858-.857-.858h-.724v-.659h3.002c.486,0,.88-.394.88-.88v-3.258c0-.483-.394-.877-.88-.877h-3.002v-1.642c0-.475.386-.862.862-.862h5.254c.205,0,.372-.166.372-.372,0-.204-.166-.37-.372-.37h-4.481v-.471c0-.724.503-1.313,1.123-1.313h6.614c1.327,0,2.139.441,2.587.813.39.323.61.676.711.971h-4.838c-.205,0-.372.166-.372.37,0,.205.166.372.372.372h9.477c2.263,0,3.927,1.048,4.935,2.504h-1.054c-.42,0-.762.342-.762.763v3.186h.742v-3.186c0-.012.012-.021.02-.021h1.496c.46.913.695,1.93.695,2.925v.282h.743v-.282c0-1.681-.616-3.369-1.69-4.634ZM6.168,20.429c.062,0,.114.052.114.115v1.211c0,.062-.052.114-.114.114h-1.096c-.062,0-.113-.052-.113-.114v-1.211c0-.063.051-.115.113-.115h1.096ZM8.445,14.756c.075,0,.137.062.137.134v3.258c0,.074-.062.137-.137.137h-3.002v-3.529h3.002ZM24.279,15.047h-5.904c-.479,0-.869.389-.869.868v.742c0,.343.201.642.498.783v.522h.742v-.437h5.307v.437h.742v-.609c.213-.158.353-.41.353-.696v-.742c0-.479-.389-.868-.868-.868ZM24.404,16.656c0,.068-.058.125-.125.125h-5.906s-.009-.001-.013-.001c-.063-.007-.111-.062-.111-.123v-.742c0-.067.058-.125.126-.125h5.904c.067,0,.125.058.125.125v.742Z" fill="silver"/>
  <g>
    <path d="M21.922,34.239c-1.076,0-1.951.875-1.951,1.951s.875,1.95,1.951,1.95,1.951-.875,1.951-1.95-.875-1.951-1.951-1.951h0ZM21.922,37.271c-.597,0-1.082-.485-1.082-1.082s.485-1.082,1.082-1.082,1.082.485,1.082,1.082-.485,1.082-1.082,1.082h0ZM21.922,37.271" fill="silver"/>
    <path d="M38.448,34.239c-1.076,0-1.951.875-1.951,1.951s.875,1.95,1.951,1.95,1.951-.875,1.951-1.95-.875-1.951-1.951-1.951h0ZM38.448,37.271c-.597,0-1.082-.485-1.082-1.082s.486-1.082,1.082-1.082,1.082.485,1.082,1.082-.486,1.082-1.082,1.082h0ZM38.448,37.271" fill="silver"/>
    <path d="M37.457,30.248h-2.068c-.24,0-.434.194-.434.434s.195.434.434.434h2.068c.24,0,.434-.195.434-.434s-.194-.434-.434-.434h0ZM37.457,30.248" fill="silver"/>
    <path d="M24.346,21.987h-7.319c-.518,0-.94.422-.94.94v5.748c0,.518.422.94.94.94h7.319c.518,0,.94-.422.94-.94v-5.748c0-.518-.422-.94-.94-.94h0ZM24.418,28.675c0,.04-.032.071-.071.071h-3.225v-1.115c0-.24-.194-.434-.434-.434s-.434.194-.434.434v1.115h-3.225c-.04,0-.071-.032-.071-.071v-5.748c0-.04.032-.071.071-.071h3.225v3.039c0,.24.195.434.434.434s.434-.195.434-.434v-3.039h3.225c.039,0,.071.032.071.071v5.748ZM24.418,28.675" fill="#75c9fc"/>
    <path d="M40.741,27.888h-.496c-.062,0-.119-.031-.153-.084l-1.792-2.788c1.382-.01,2.503-1.137,2.503-2.521,0-1.395-1.129-2.521-2.521-2.521h-22.062c-1.146,0-2.077.932-2.077,2.078v12.494c0,1.145.932,2.077,2.077,2.077h2.16c.215,1.765,1.722,3.137,3.544,3.137s3.328-1.372,3.543-3.137c7.171,0,9.411,0,9.439,0,.215,1.764,1.721,3.136,3.543,3.136s3.328-1.372,3.543-3.136h.129c.918,0,1.664-.747,1.664-1.664v-4.031c0-1.677-1.365-3.042-3.043-3.042ZM39.114,27.888h-3.3v-2.866h1.457l1.843,2.866ZM15.01,31.992h2.249c.084,0,.153.068.153.152v.821c0,.084-.068.153-.153.153h-2.249v-1.126ZM21.922,38.892c-1.457,0-2.694-1.17-2.702-2.704.001-1.489,1.213-2.7,2.702-2.7,1.456,0,2.694,1.169,2.702,2.704-.001,1.489-1.213,2.701-2.702,2.701ZM33.149,24.587v11.168h-1.088v-9.098c0-.24-.195-.434-.434-.434s-.434.194-.434.434v9.098h-3.942v-12.385c0-.283.231-.514.514-.514h2.914c.283,0,.514.231.514.514v1.551c0,.24.195.434.434.434s.434-.195.434-.434v-1.551c0-.762-.62-1.383-1.383-1.383h-2.914c-.762,0-1.383.62-1.383,1.383v12.385h-.917c-.215-1.765-1.721-3.136-3.543-3.136s-3.328,1.372-3.544,3.136h-2.16c-.667,0-1.209-.542-1.209-1.209v-.559h2.249c.563,0,1.021-.458,1.021-1.021v-.821c0-.563-.458-1.021-1.021-1.021h-2.249v-9.072c0-.667.542-1.209,1.209-1.209h22.062c.911,0,1.653.737,1.653,1.653,0,.911-.741,1.653-1.653,1.653-3.269,0-4.669.005-4.698.005-.24,0-.434.195-.434.434ZM38.448,38.892c-1.49,0-2.702-1.212-2.702-2.702s1.212-2.702,2.702-2.702,2.702,1.212,2.702,2.702-1.212,2.702-2.702,2.702ZM42.915,33.119h-.489c-.084,0-.152-.069-.152-.153v-.821c0-.084.068-.152.152-.152h.489v1.126ZM42.915,31.124h-.489c-.563,0-1.021.458-1.021,1.021v.821c0,.563.458,1.021,1.021,1.021h.489v.973c0,.438-.357.795-.795.795h-.129c-.215-1.765-1.721-3.137-3.543-3.137s-3.329,1.372-3.544,3.137h-.887v-10.734h.928v3.301c0,.24.194.434.434.434h5.362c1.199,0,2.174.975,2.174,2.174v.194Z" fill="silver"/>
    <path d="M17.412,32.145v.821c0,.084-.068.153-.153.153h-2.249v-1.126h2.249c.084,0,.153.068.153.152Z" fill="#ec6d64"/>
    <path d="M42.915,31.992v1.126h-.489c-.084,0-.152-.069-.152-.153v-.821c0-.084.068-.152.152-.152h.489Z" fill="#f6c42d"/>
  </g>
  <path d="M15.118,14.007h-3.695c-.409,0-.742.333-.742.743v3.534c0,.41.333.743.742.743h3.695c.409,0,.742-.333.742-.743v-3.534c0-.41-.333-.743-.742-.743ZM15.118,18.283h-3.695s0-3.532,0-3.532h3.694v3.208s.001.323.001.323Z" fill="#75c9fc"/>
</svg>