<?xml version="1.0" encoding="UTF-8"?>
<svg id="Layer_1" data-name="Layer 1" xmlns="http://www.w3.org/2000/svg" viewBox="0 0 48 48">
  <path d="M32.295,26.04l.002.103c-3.367-1.55-3.722-1.769-4.119-1.122-.278.438-1.12,1.465-1.38,1.759-.261.294-.528.32-.964.124-.457-.216-1.907-.657-3.668-2.12-1.363-1.142-2.3-2.582-2.577-3.008-.448-.731.454-.874,1.262-2.456.137-.312.07-.557-.059-.781-.108-.224-1.061-2.384-1.471-3.239-.389-.855-.757-.744-1.025-.738-.865-.063-1.502-.028-2.045.56-2.368,2.686-1.691,5.387.45,8.219,4.209,5.173,6.41,6.091,10.409,7.36,1.077.305,2.063.242,2.842.122.86-.163,2.629-1.129,2.996-2.186.367-1.057.348-1.921.22-2.124-.107-.203-.418-.299-.875-.495v.02ZM36.461,9.838C24.639-.926,5.651,7.499,5.997,23.045c.069,3.105.959,6.13,2.602,8.768l-2.347,9.187,9.487-2.659c12.047,6.069,26.542-2.668,26.264-16.097-.105-4.709-2.075-9.109-5.542-12.365v-.062s0,.021,0,.021ZM38.98,22.27c.252,11.33-12.217,18.664-22.319,13.108l-.541-.297-5.623,1.565,1.401-5.442-.382-.547c-6.426-9.588.426-22.476,12.188-22.737,3.989-.089,7.787,1.37,10.666,4.083,2.878,2.693,4.524,6.36,4.611,10.267Z" fill="silver"/>
</svg>