<svg width="57" height="40" viewBox="0 0 57 40" fill="none" xmlns="http://www.w3.org/2000/svg">
<g clip-path="url(#clip0_8_1042)">
<path d="M46.22 19.98L48.83 17.76C49.9 16.87 50.47 15.56 50.42 14.18C50.37 12.79 49.7 11.52 48.59 10.71L44.83 7.94998C43.76 7.16998 42.38 7.09998 41.27 7.68998L40.57 5.60998C40.51 5.43998 40.4 5.28998 40.23 5.17998L36.67 2.87998C36.46 1.23998 35.07 -0.0200195 33.38 -0.0200195C31.55 -0.0200195 30.05 1.45998 30.05 3.29998C30.05 5.13998 31.55 6.62998 33.38 6.62998C33.69 6.62998 33.98 6.57998 34.27 6.50998L36.45 8.03998L36.8 9.06998C35.41 8.46998 33.94 8.13998 32.43 8.10998C31.98 8.09998 31.59 8.45998 31.58 8.90998C31.57 9.35998 31.93 9.72998 32.38 9.74998C33.69 9.77998 34.95 10.07 36.16 10.6L38.64 11.67C38.94 11.81 39.3 11.74 39.53 11.51L41.64 9.42998C42.23 8.83998 43.17 8.77998 43.84 9.26998L46.32 11.09L43.55 11.79C42.2 12.14 41.36 13.3 41.44 14.68C41.51 16.06 42.48 17.12 43.86 17.31L46.4 17.66L40.07 23.02C39.12 23.83 38.33 24.79 37.73 25.86L36.51 23.84C34.52 20.55 31.42 18.06 27.78 16.83L25.18 15.97C24.75 15.82 24.29 16.05 24.14 16.48C24 16.91 24.23 17.37 24.66 17.52L27.25 18.39C30.53 19.48 33.33 21.72 35.11 24.68L36.92 27.68C36.56 28.74 36.37 29.85 36.37 30.99C36.37 31.85 35.69 32.53 34.83 32.53H32.77L34.46 30.84C34.79 30.52 34.79 30.01 34.46 29.68C34.15 29.36 33.63 29.36 33.3 29.68L30.45 32.53H28.35L30.04 30.84C30.36 30.52 30.36 30.01 30.04 29.68C29.72 29.35 29.21 29.36 28.88 29.68L26.05 32.5C26.05 32.5 26.04 32.52 26.03 32.53H22.54C22.26 32.53 22.16 32.33 22.12 32.25C22.1 32.16 22.04 31.95 22.25 31.76L25.32 29C25.77 28.61 26.02 28.04 26.02 27.45V23.77C26.02 23.02 25.61 22.32 24.96 21.95L8.3 12.58C10.26 11.3 12.78 11.07 14.95 12.03L20.35 14.42C21.7 15.01 23.27 14.64 24.2 13.5C25.43 11.99 27.06 10.87 28.92 10.26C29.36 10.11 29.59 9.64998 29.45 9.21998C29.31 8.78998 28.85 8.55998 28.41 8.69998C26.79 9.22998 25.3 10.12 24.05 11.26C23.39 10.24 22.41 9.44998 21.26 9.00998L11.62 5.42998C11.33 5.32998 11.02 5.33998 10.73 5.45998C10.45 5.58998 10.23 5.81998 10.13 6.10998L10 6.42998C9.56 7.61998 9.58 8.89998 10.05 10.05C8.77 10.36 7.57 10.97 6.55 11.84C6.28 12.06 6.16 12.4 6.19 12.74C6.21 13.08 6.41 13.38 6.71 13.55L15.92 18.73L14.61 21.04C13.22 20.33 11.65 19.96 10.08 19.96C9.07 19.96 8.07 20.11 7.11 20.4C6.68 20.53 6.44 20.99 6.56 21.42C6.7 21.86 7.15 22.1 7.59 21.97C8.39 21.73 9.23 21.6 10.07 21.6C11.36 21.6 12.64 21.9 13.79 22.47L12.63 24.51C11.83 24.14 10.95 23.94 10.07 23.94C6.72 23.94 3.99 26.64 3.99 29.97C3.99 33.3 6.72 36.01 10.07 36.01C12.2 36.01 14.19 34.87 15.29 33.05L17.79 33.32C16.46 36.35 13.43 38.34 10.07 38.34C5.42 38.34 1.64 34.58 1.64 29.97C1.64 27.33 2.92 24.82 5.06 23.24C5.42 22.97 5.5 22.45 5.23 22.09C4.95 21.72 4.44 21.65 4.08 21.92C1.52 23.8 0 26.81 0 29.97C0 35.49 4.51 39.98 10.07 39.98C14.26 39.98 18.01 37.38 19.49 33.5L21.14 33.67H21.21C21.57 33.98 22.05 34.17 22.56 34.17H34.85C35.5 34.17 36.1 33.97 36.6 33.65C37.24 35.25 38.29 36.69 39.66 37.78C41.43 39.21 43.67 39.98 45.97 39.98C51.51 39.98 56.04 35.49 56.04 29.97C56.04 24.45 51.66 20.1 46.23 19.96L46.22 19.98ZM33.38 5.00998C32.45 5.00998 31.7 4.23998 31.7 3.31998C31.7 2.39998 32.45 1.63998 33.38 1.63998C34.31 1.63998 35.06 2.38998 35.06 3.31998C35.06 4.24998 34.31 5.00998 33.38 5.00998ZM38.81 9.92998L37.93 7.28998C37.87 7.12998 37.77 6.97998 37.62 6.87998L35.81 5.58998C36.05 5.31998 36.26 5.01998 36.41 4.68998L39.11 6.42998L39.92 8.83998L38.81 9.92998ZM44.09 15.69C43.38 15.59 43.1 15.05 43.08 14.59C43.06 14.13 43.28 13.56 43.96 13.38L47.98 12.36C48.46 12.87 48.75 13.52 48.77 14.24C48.79 14.98 48.54 15.69 48.05 16.24L44.08 15.69H44.09ZM11.49 7.13998L20.68 10.56C21.64 10.92 22.42 11.62 22.88 12.52C22.42 13.04 21.66 13.2 21.02 12.93L15.6 10.53C14.37 9.97998 13.04 9.74998 11.73 9.80998C11.28 8.98998 11.2 8.03998 11.49 7.13998ZM24.17 23.4C24.3 23.47 24.39 23.62 24.39 23.78V24.91C24.18 24.91 23.98 24.92 23.79 24.96C23.76 24.96 23.73 24.97 23.71 24.97L19.73 25.97L21.91 22.13L24.17 23.41V23.4ZM17.35 19.57L20.48 21.33L17.52 26.53L12.7 27.74L17.35 19.58V19.57ZM10.07 34.39C7.62 34.39 5.64 32.42 5.64 29.99C5.64 27.56 7.62 25.59 10.07 25.59C10.67 25.59 11.26 25.72 11.82 25.95L10.5 28.28L9.8 28.45C9.43 28.54 9.17 28.87 9.17 29.24V31.69C9.17 32.11 9.49 32.46 9.91 32.5L13.4 32.87C12.57 33.82 11.35 34.38 10.06 34.38L10.07 34.39ZM21.15 30.55C20.73 30.93 20.49 31.44 20.47 31.98L10.82 30.96V29.9L24.06 26.57C24.16 26.56 24.27 26.55 24.38 26.55V27.47C24.38 27.6 24.32 27.71 24.23 27.81L21.14 30.56L21.15 30.55ZM44.23 21.66L47.08 30.16C47.14 30.35 47.13 30.53 47.05 30.69C46.97 30.86 46.82 30.99 46.64 31.05C46.27 31.17 45.87 30.97 45.76 30.61L43.08 22.63L44.23 21.66ZM44.21 31.14C44.53 32.11 45.45 32.73 46.43 32.73C46.67 32.73 46.92 32.7 47.16 32.61C47.75 32.41 48.24 32 48.52 31.44C48.81 30.87 48.84 30.25 48.65 29.64L47.36 25.82C49.13 26.4 50.39 28.07 50.39 29.98C50.39 32.4 48.41 34.38 45.97 34.38C43.53 34.38 41.54 32.41 41.54 29.98C41.54 28.81 41.99 27.73 42.8 26.91L44.21 31.13V31.14ZM45.96 38.36C44.01 38.36 42.19 37.72 40.67 36.52C39.28 35.4 38.27 33.85 37.81 32.15C37.95 31.79 38.03 31.41 38.03 31C38.03 29.94 38.22 28.91 38.58 27.94C38.59 27.92 38.6 27.88 38.61 27.86C39.13 26.49 40 25.25 41.15 24.28L41.73 23.78L42.23 25.24C40.76 26.38 39.89 28.14 39.89 30C39.89 33.33 42.62 36.04 45.97 36.04C49.32 36.04 52.04 33.33 52.04 30C52.04 26.97 49.77 24.41 46.76 24.02L45.96 21.63H45.97C50.61 21.63 54.39 25.39 54.39 30C54.39 34.61 50.61 38.37 45.97 38.37L45.96 38.36Z" fill="#7C7C7C"/>
<path d="M35.06 3.31989C35.06 4.24989 34.31 5.00989 33.38 5.00989C32.45 5.00989 31.7 4.23989 31.7 3.31989C31.7 2.39989 32.45 1.63989 33.38 1.63989C34.31 1.63989 35.06 2.38989 35.06 3.31989Z" fill="#EC6D64"/>
<path d="M24.39 26.55V27.47C24.39 27.6 24.33 27.71 24.24 27.81L21.16 30.56C20.74 30.94 20.5 31.45 20.48 31.99L10.83 30.97V29.91L24.07 26.58C24.17 26.57 24.28 26.56 24.39 26.56V26.55Z" fill="#3AD690"/>
<path d="M48.79 14.2501C48.81 14.9901 48.56 15.7001 48.07 16.2401L44.1 15.6901C43.39 15.5901 43.11 15.0501 43.09 14.5901C43.07 14.1301 43.29 13.5601 43.97 13.3801L47.99 12.3601C48.47 12.8701 48.76 13.5201 48.78 14.2401L48.79 14.2501Z" fill="#F6C42D"/>
</g>
<defs>
<clipPath id="clip0_8_1042">
<rect width="56.03" height="40" fill="white"/>
</clipPath>
</defs>
</svg>
