<svg width="60" height="40" viewBox="0 0 60 40" fill="none" xmlns="http://www.w3.org/2000/svg">
<path d="M4.32676 1.21997H37.1368C39.0768 1.21997 40.6568 2.79997 40.6568 4.73997H0.806763C0.806763 2.78997 2.38676 1.21997 4.32676 1.21997Z" fill="#F6C42D"/>
<path d="M23.6868 35.0799C22.6768 35.0799 21.8468 34.2599 21.8468 33.2399C21.8468 32.2199 22.6668 31.3999 23.6868 31.3999C24.7068 31.3999 25.5268 32.2199 25.5268 33.2399C25.5268 34.2599 24.7068 35.0799 23.6868 35.0799ZM23.6868 29.6899C21.7268 29.6899 20.1367 31.2799 20.1367 33.2399C20.1367 35.1999 21.7268 36.7899 23.6868 36.7899C25.6468 36.7899 27.2367 35.1999 27.2367 33.2399C27.2367 31.2799 25.6468 29.6899 23.6868 29.6899Z" fill="#7C7C7C"/>
<path d="M58.3867 31.61H56.6567V30.25C56.6567 29.78 56.2767 29.39 55.8067 29.39C55.3367 29.39 54.9467 29.78 54.9467 30.25V31.61H49.3267C53.3367 28.45 54.8267 20.32 50.3067 14.4L46.9067 9.94C46.6167 9.56 46.0767 9.49 45.6967 9.78C45.3167 10.07 45.2467 10.61 45.5367 10.98L48.9467 15.45C51.7467 19.13 52.1468 24.13 49.9767 28.2H42.2467V12.21C42.2467 11.21 41.4367 10.4 40.4367 10.4H30.5167C29.5167 10.4 28.7067 11.21 28.7067 12.21V28.2H28.2367C24.9767 25.29 19.9267 26.2 17.8367 29.95C15.7067 26.15 10.6367 25.32 7.42675 28.2H2.38675V5.12H10.5667C11.0367 5.12 11.4267 4.74 11.4267 4.27C11.4267 3.8 11.0367 3.41 10.5667 3.41H2.40675C2.55675 2.43 3.40675 1.73 4.37675 1.73C39.1967 1.73 37.4967 1.19 39.6867 3.41H14.5767C14.1067 3.41 13.7167 3.79 13.7167 4.27C13.7167 4.75 14.1067 5.12 14.5767 5.12H41.0467L43.0967 7.79C43.3867 8.17 43.9167 8.24 44.2967 7.95C44.6768 7.66 44.7467 7.13 44.4567 6.75L41.4967 2.87C40.1367 1.08 37.9667 0 35.6967 0H4.37675C2.32675 0 0.666748 1.66 0.666748 3.71V29.9C0.666748 31.79 2.19675 33.33 4.08675 33.33H5.15675C5.20675 37.02 8.20675 40 11.9067 40C14.4367 40 16.6567 38.61 17.8167 36.53C18.9667 38.6 21.1767 40 23.7167 40C27.4167 40 30.4367 37.02 30.4667 33.33H31.3767V35.17C31.3767 36.08 32.1167 36.83 33.0267 36.83H37.8767C38.7967 36.83 39.5467 36.07 39.5467 35.15V33.33H58.3867C58.8568 33.33 59.2467 32.94 59.2467 32.47C59.2467 32 58.8568 31.62 58.3867 31.62V31.61ZM5.35675 31.61C4.14675 31.6 3.46675 31.74 2.83675 31.06C2.54675 30.74 2.38675 30.33 2.38675 29.93H6.02675C5.72675 30.46 5.49675 31.04 5.35675 31.61ZM11.9067 38.28C7.43675 38.28 5.20675 32.87 8.32675 29.7C11.4467 26.54 16.9567 28.71 16.9567 33.24C16.9567 36.03 14.6967 38.29 11.9067 38.29V38.28ZM23.7167 38.28C20.7167 38.28 18.3167 35.65 18.7167 32.58C19.3367 27.86 25.6067 26.53 28.0567 30.68C30.0067 33.98 27.6467 38.28 23.7167 38.28ZM37.8367 35.12H33.1067V33.33H37.8367V35.12ZM40.5167 12.21V31.61H30.4167V12.21C30.4167 12.15 30.4667 12.12 30.5067 12.12C40.8867 12.15 40.5167 12.03 40.5167 12.21ZM42.2367 31.61V29.93H48.6467C46.1767 32.19 43.4367 31.47 42.2367 31.61Z" fill="#7C7C7C"/>
<path d="M30.5067 12.1199C30.5067 12.1199 30.4167 12.1499 30.4167 12.2099V31.6099H40.5167V12.2099C40.5167 12.0299 40.8867 12.1499 30.5067 12.1199ZM34.5867 22.7199H32.7767C32.2967 22.7199 31.9167 22.3399 31.9167 21.8699C31.9167 21.3999 32.2967 21.0099 32.7767 21.0099H34.5867C35.0567 21.0099 35.4467 21.3899 35.4467 21.8699C35.4467 22.3499 35.0567 22.7199 34.5867 22.7199Z" fill="#75C9FC"/>
<path d="M35.4467 21.87C35.4467 22.34 35.0567 22.72 34.5867 22.72H32.7767C32.2967 22.72 31.9167 22.34 31.9167 21.87C31.9167 21.4 32.2967 21.01 32.7767 21.01H34.5867C35.0567 21.01 35.4467 21.39 35.4467 21.87Z" fill="#7C7C7C"/>
<path d="M23.2667 20.9999H19.3367V18.6599C19.3367 18.1899 18.9567 17.7999 18.4767 17.7999C17.9967 17.7999 17.6167 18.1799 17.6167 18.6599V20.9999H13.4367V12.1099H17.6167V14.6499C17.6167 15.1199 17.9967 15.5099 18.4767 15.5099C18.9567 15.5099 19.3367 15.1299 19.3367 14.6499V12.1099H23.2667V20.9999ZM11.7067 20.9999H7.77675V12.1099H11.7067V20.9999ZM7.73675 10.3999C6.80675 10.3999 6.05675 11.1499 6.05675 12.0799V21.0399C6.05675 21.9699 6.80675 22.7199 7.73675 22.7199H23.2967C24.2267 22.7199 24.9767 21.9699 24.9767 21.0399V12.0799C24.9767 11.1499 24.2267 10.3999 23.2967 10.3999H7.73675Z" fill="#7C7C7C"/>
<path d="M11.8867 35.0799C10.8767 35.0799 10.0467 34.2599 10.0467 33.2399C10.0467 32.2199 10.8667 31.3999 11.8867 31.3999C12.9067 31.3999 13.7267 32.2199 13.7267 33.2399C13.7267 34.2599 12.9067 35.0799 11.8867 35.0799ZM11.8867 29.6899C9.92675 29.6899 8.33675 31.2799 8.33675 33.2399C8.33675 35.1999 9.92675 36.7899 11.8867 36.7899C13.8467 36.7899 15.4367 35.1999 15.4367 33.2399C15.4367 31.2799 13.8467 29.6899 11.8867 29.6899Z" fill="#7C7C7C"/>
</svg>
