<svg width="97" height="74" viewBox="0 0 97 74" fill="none" xmlns="http://www.w3.org/2000/svg">
<path d="M93.65 52.74C88.29 48.99 80.7 48.19 75.29 48.19H74.1L55.23 39.38C52.88 38.29 50.27 37.71 47.67 37.71H31C29.38 37.71 27.81 38.04 26.32 38.67L9.01999 46.09C8.06999 46.49 7.07001 46.7 6.04001 46.7H4.88C2.45 46.7 0.48999 48.68 0.48999 51.09V60.61C0.48999 62.7 1.98001 64.52 4.04001 64.92L9.59 66C10.27 70.22 13.95 73.46 18.36 73.46C21.66 73.46 24.55 71.65 26.08 68.97H73.54C75.07 71.65 77.96 73.46 81.26 73.46C84.56 73.46 87.45 71.65 88.98 68.97H91.74C94.17 68.97 96.13 66.99 96.13 64.57V57.57C96.13 55.66 95.19 53.85 93.62 52.74H93.65ZM47.68 40.51C49.87 40.51 52.07 41 54.05 41.93L67.48 48.19H47.48L40.9 40.51H47.68ZM37.2 40.51L43.79 48.19H41.42C40.52 48.19 39.67 47.8 39.08 47.12L33.42 40.51H37.21H37.2ZM81.28 70.66C77.93 70.66 75.2 67.94 75.2 64.58C75.2 61.22 77.93 58.5 81.28 58.5C84.63 58.5 87.36 61.23 87.36 64.58C87.36 67.93 84.64 70.66 81.28 70.66ZM93.37 64.57C93.37 65.45 92.66 66.17 91.77 66.17H90.03C90.12 65.66 90.18 65.12 90.18 64.57C90.18 64.02 90.13 63.5 90.03 62.97H93.37V64.57ZM93.37 60.18H89.01C87.48 57.5 84.6 55.68 81.29 55.68C77.98 55.68 75.1 57.5 73.57 60.18H70.82C70.04 60.18 69.41 60.8 69.41 61.58C69.41 62.36 70.04 62.98 70.82 62.98H72.55C72.46 63.51 72.4 64.03 72.4 64.58C72.4 65.13 72.45 65.66 72.55 66.18H27.13C27.22 65.67 27.28 65.13 27.28 64.58C27.28 63.98 27.22 63.38 27.1 62.8C26.94 62.04 26.21 61.55 25.45 61.71C24.69 61.87 24.2 62.6 24.36 63.36C24.43 63.76 24.48 64.17 24.48 64.58C24.48 67.94 21.75 70.66 18.4 70.66C15.05 70.66 12.32 67.94 12.32 64.58C12.32 61.22 15.04 58.5 18.4 58.5C19.25 58.5 20.07 58.67 20.84 59C21.55 59.32 22.37 58.99 22.69 58.29C22.99 57.58 22.68 56.76 21.96 56.44C20.84 55.95 19.64 55.69 18.4 55.69C13.99 55.69 10.31 58.93 9.63 63.15L4.62 62.18C3.87 62.03 3.32999 61.37 3.32999 60.61V55.49H4.92999C5.70999 55.49 6.32999 54.86 6.32999 54.08C6.32999 53.3 5.70999 52.68 4.92999 52.68H3.32999V51.08C3.32999 50.21 4.03999 49.49 4.92999 49.49H6.09C7.5 49.49 8.86999 49.21 10.18 48.65L27.48 41.23C28.24 40.9 29.02 40.69 29.83 40.59L36.98 48.92C38.1 50.23 39.73 50.98 41.46 50.98H75.34C79.08 50.98 85.76 51.42 90.71 54.17H90.31C89.54 54.17 88.91 54.79 88.91 55.57C88.91 56.35 89.54 56.97 90.31 56.97H93.35C93.39 57.17 93.41 57.36 93.41 57.56V60.17L93.37 60.18Z" fill="#7C7C7C"/>
<path d="M67.47 48.19H47.47L40.89 40.51H47.67C49.86 40.51 52.06 41 54.04 41.93L67.47 48.19Z" fill="#F6C42D"/>
<path d="M64.81 60.1799H46.04L42.87 55.95C42.04 54.85 40.73 54.1899 39.35 54.1899H33.36C32.83 54.1899 32.34 54.4899 32.11 54.9699C31.87 55.4399 31.92 56.0099 32.24 56.4399L35.83 61.2299C36.66 62.33 37.97 62.9899 39.35 62.9899H64.81C65.58 62.9899 66.21 62.3599 66.21 61.5899C66.21 60.8199 65.58 60.1899 64.81 60.1899V60.1799ZM39.35 60.1799C38.85 60.1799 38.37 59.9399 38.07 59.5399L36.16 56.9899H39.35C39.85 56.9899 40.33 57.2299 40.63 57.6299L42.54 60.1799H39.35Z" fill="#7C7C7C"/>
<path d="M18.38 61.6799C16.78 61.6799 15.48 62.9799 15.48 64.5799C15.48 66.1799 16.78 67.4799 18.38 67.4799C19.98 67.4799 21.28 66.1799 21.28 64.5799C21.28 62.9799 19.98 61.6799 18.38 61.6799Z" fill="#7C7C7C"/>
<path d="M81.28 61.6799C79.68 61.6799 78.38 62.9799 78.38 64.5799C78.38 66.1799 79.68 67.4799 81.28 67.4799C82.88 67.4799 84.18 66.1799 84.18 64.5799C84.18 62.9799 82.88 61.6799 81.28 61.6799Z" fill="#7C7C7C"/>
<path d="M80.84 0.129883C72.34 0.129883 65.43 7.03989 65.43 15.5399C65.43 24.0399 72.34 30.9499 80.84 30.9499C89.34 30.9499 96.25 24.0399 96.25 15.5399C96.25 7.03989 89.34 0.129883 80.84 0.129883ZM80.84 3.08987C87.71 3.08987 93.29 8.67989 93.29 15.5399C93.29 17.8299 92.67 19.9799 91.58 21.8299C90.18 19.4199 88.03 17.5699 85.48 16.5399C86.48 15.4299 87.1 13.9599 87.1 12.3499C87.1 8.89988 84.29 6.09988 80.85 6.09988C77.41 6.09988 74.6 8.90988 74.6 12.3499C74.6 13.9599 75.21 15.4299 76.22 16.5399C73.67 17.5599 71.51 19.4099 70.11 21.8299C69.02 19.9799 68.4 17.8299 68.4 15.5399C68.4 8.66989 73.99 3.08987 80.86 3.08987H80.84ZM80.84 15.6499C79.02 15.6499 77.54 14.1699 77.54 12.3499C77.54 10.5299 79.02 9.04987 80.84 9.04987C82.66 9.04987 84.14 10.5299 84.14 12.3499C84.14 14.1699 82.66 15.6499 80.84 15.6499ZM72.11 24.4099C73.57 20.9099 76.98 18.6099 80.84 18.6099C84.7 18.6099 88.11 20.9099 89.57 24.4099C87.32 26.6199 84.24 27.9899 80.84 27.9899C77.44 27.9899 74.36 26.6199 72.11 24.4099Z" fill="#75C9FC"/>
<path d="M38.92 20.1999H46.92C46.8 20.6199 46.73 21.0599 46.73 21.5099C46.73 22.7599 47.22 23.9299 48.1 24.8099C48.98 25.6899 50.15 26.1699 51.4 26.1699C52.65 26.1699 53.82 25.6899 54.7 24.8099L60.67 18.8399C61.55 17.9599 62.04 16.7899 62.04 15.5399C62.04 14.2899 61.56 13.1199 60.67 12.2399L54.7 6.26991C53.82 5.38991 52.65 4.8999 51.4 4.8999C50.15 4.8999 48.98 5.3799 48.1 6.2599C47.22 7.1399 46.73 8.30991 46.73 9.55991C46.73 10.0099 46.79 10.4499 46.92 10.8699H38.92C36.35 10.8699 34.26 12.9599 34.26 15.5299C34.26 18.0999 36.35 20.1899 38.92 20.1899V20.1999ZM38.92 13.8299H49.68C50.28 13.8299 50.82 13.4699 51.05 12.9199C51.28 12.3699 51.15 11.7299 50.73 11.3099L50.2 10.7799C49.88 10.4599 49.7 10.0299 49.7 9.56992C49.7 9.10992 49.88 8.68989 50.2 8.35989C50.52 8.03989 50.95 7.85989 51.41 7.85989C51.87 7.85989 52.29 8.03989 52.62 8.35989L58.59 14.3299C58.91 14.6499 59.09 15.0799 59.09 15.5399C59.09 15.9999 58.91 16.4199 58.59 16.7499L52.62 22.7199C52.3 23.0399 51.87 23.2199 51.41 23.2199C50.95 23.2199 50.53 23.0399 50.2 22.7199C49.88 22.3999 49.7 21.9699 49.7 21.5099C49.7 21.0499 49.88 20.6299 50.2 20.2999L50.74 19.7699C51.16 19.3499 51.29 18.7099 51.06 18.1599C50.83 17.6099 50.29 17.2499 49.69 17.2499H38.93C37.99 17.2499 37.22 16.4799 37.22 15.5399C37.22 14.5999 37.98 13.8299 38.93 13.8299H38.92Z" fill="#7C7C7C"/>
<path d="M31.24 15.5399C31.24 12.8199 30.52 10.1499 29.16 7.80991C28.75 7.09991 27.85 6.86991 27.14 7.27991C26.44 7.68991 26.2 8.5899 26.61 9.2999C27.71 11.1899 28.29 13.3499 28.29 15.5499C28.29 17.7499 27.66 19.9899 26.58 21.8399C25.18 19.4299 23.03 17.5799 20.48 16.5499C21.48 15.4399 22.1 13.9699 22.1 12.3599C22.1 8.90989 19.29 6.10991 15.85 6.10991C12.41 6.10991 9.60001 8.91989 9.60001 12.3599C9.60001 13.9699 10.21 15.4399 11.22 16.5499C8.67 17.5699 6.50999 19.4199 5.10999 21.8399C4.01999 19.9899 3.39999 17.8399 3.39999 15.5499C3.39999 8.6799 8.98999 3.09991 15.86 3.09991C18.15 3.09991 20.39 3.72991 22.34 4.91991C23.04 5.33991 23.95 5.1199 24.37 4.4299C24.8 3.7299 24.57 2.8199 23.88 2.3999C21.47 0.929902 18.69 0.149902 15.86 0.149902C7.35999 0.149902 0.450012 7.05991 0.450012 15.5599C0.450012 24.0599 7.35999 30.9699 15.86 30.9699C24.36 30.9699 31.27 24.0599 31.27 15.5599L31.24 15.5399ZM15.83 9.05991C17.65 9.05991 19.13 10.5399 19.13 12.3599C19.13 14.1799 17.65 15.6599 15.83 15.6599C14.01 15.6599 12.53 14.1799 12.53 12.3599C12.53 10.5399 14.01 9.05991 15.83 9.05991ZM15.83 18.6099C19.69 18.6099 23.1 20.9099 24.56 24.4099C22.31 26.6199 19.23 27.9899 15.83 27.9899C12.43 27.9899 9.35001 26.6199 7.10001 24.4099C8.56001 20.9099 11.97 18.6099 15.83 18.6099Z" fill="#EC6D64"/>
</svg>
