<svg width="83" height="74" viewBox="0 0 83 74" fill="none" xmlns="http://www.w3.org/2000/svg">
<path d="M80.5399 68.3799H1.88989V72.6299H80.5399V68.3799Z" fill="#EC6D64"/>
<path d="M24.3199 60.7098H29.5699C30.2299 60.7098 30.7599 60.1798 30.7599 59.5198C30.7599 58.8598 30.2299 58.3298 29.5699 58.3298H24.3199C23.6599 58.3298 23.1299 58.8598 23.1299 59.5198C23.1299 60.1798 23.6599 60.7098 24.3199 60.7098Z" fill="#7C7C7C"/>
<path d="M15.2599 31.5298H10.1699C9.24989 31.5298 8.49988 32.2798 8.49988 33.1998V40.6698C8.49988 41.5898 9.24989 42.3398 10.1699 42.3398H15.2599C16.1799 42.3398 16.9299 41.5898 16.9299 40.6698V33.1998C16.9299 32.2798 16.1799 31.5298 15.2599 31.5298ZM14.5499 39.9598H10.8899V33.9198H14.5499V39.9598Z" fill="#75C9FC"/>
<path d="M39.0999 50.8197C38.8599 50.1397 38.4999 49.5297 38.0299 49.0197C38.0999 49.0997 38.1699 49.1897 38.2299 49.2697C38.2999 49.3497 38.3599 49.4397 38.4099 49.5297C38.4699 49.6097 38.5199 49.6997 38.5699 49.7797C38.5799 49.7997 38.5999 49.8297 38.6199 49.8597C38.6999 49.9997 38.7699 50.1397 38.8399 50.2897C38.8699 50.3597 38.8999 50.4297 38.9299 50.4997C38.9599 50.5797 38.9899 50.6597 39.0199 50.7397L40.4299 54.7897C40.4299 54.7897 40.4699 54.7997 40.4899 54.8097L39.0999 50.8197ZM39.0999 50.8197C38.8599 50.1397 38.4999 49.5297 38.0299 49.0197C38.0999 49.0997 38.1699 49.1897 38.2299 49.2697C38.2999 49.3497 38.3599 49.4397 38.4099 49.5297C38.4699 49.6097 38.5199 49.6997 38.5699 49.7797C38.5799 49.7997 38.5999 49.8297 38.6199 49.8597C38.6999 49.9997 38.7699 50.1397 38.8399 50.2897C38.8599 50.3197 38.8699 50.3597 38.8899 50.3897C38.9099 50.4297 38.9199 50.4597 38.9299 50.4997C38.9599 50.5797 38.9899 50.6597 39.0199 50.7397L40.4299 54.7897C40.4299 54.7897 40.4699 54.7997 40.4899 54.8097L39.0999 50.8197ZM39.0999 50.8197C38.8599 50.1397 38.4999 49.5297 38.0299 49.0197C38.0999 49.0997 38.1699 49.1897 38.2299 49.2697C38.2999 49.3497 38.3599 49.4397 38.4099 49.5297C38.4699 49.6097 38.5199 49.6997 38.5699 49.7797C38.5799 49.7997 38.5999 49.8297 38.6199 49.8597C38.6999 49.9997 38.7699 50.1397 38.8399 50.2897C38.8599 50.3197 38.8699 50.3597 38.8899 50.3897C38.9099 50.4297 38.9199 50.4597 38.9299 50.4997C38.9599 50.5797 38.9899 50.6597 39.0199 50.7397L40.4299 54.7897C40.4299 54.7897 40.4699 54.7997 40.4899 54.8097L39.0999 50.8197ZM39.0999 50.8197C38.8599 50.1397 38.4999 49.5297 38.0299 49.0197C38.0999 49.0997 38.1699 49.1897 38.2299 49.2697C38.2999 49.3497 38.3599 49.4397 38.4099 49.5297C38.4699 49.6097 38.5199 49.6997 38.5699 49.7797C38.5799 49.7997 38.5999 49.8297 38.6199 49.8597C38.6999 49.9997 38.7699 50.1397 38.8399 50.2897C38.8599 50.3197 38.8699 50.3597 38.8899 50.3897C38.9099 50.4297 38.9199 50.4597 38.9299 50.4997C38.9599 50.5797 38.9899 50.6597 39.0199 50.7397L40.4299 54.7897C40.4299 54.7897 40.4699 54.7997 40.4899 54.8097L39.0999 50.8197ZM39.0999 50.8197C38.8599 50.1397 38.4999 49.5297 38.0299 49.0197C38.0999 49.0997 38.1699 49.1897 38.2299 49.2697C38.2999 49.3497 38.3599 49.4397 38.4099 49.5297C38.4699 49.6097 38.5199 49.6997 38.5699 49.7797C38.5799 49.7997 38.5999 49.8297 38.6199 49.8597C38.6999 49.9997 38.7699 50.1397 38.8399 50.2897C38.8599 50.3197 38.8699 50.3597 38.8899 50.3897C38.9099 50.4297 38.9199 50.4597 38.9299 50.4997C38.9599 50.5797 38.9899 50.6597 39.0199 50.7397L40.4299 54.7897C40.4299 54.7897 40.4699 54.7997 40.4899 54.8097L39.0999 50.8197ZM39.0999 50.8197C38.8599 50.1397 38.4999 49.5297 38.0299 49.0197C38.0999 49.0997 38.1699 49.1897 38.2299 49.2697C38.2999 49.3497 38.3599 49.4397 38.4099 49.5297C38.4699 49.6097 38.5199 49.6997 38.5699 49.7797C38.5799 49.7997 38.5999 49.8297 38.6199 49.8597C38.6999 49.9997 38.7699 50.1397 38.8399 50.2897C38.8599 50.3197 38.8699 50.3597 38.8899 50.3897C38.9099 50.4297 38.9199 50.4597 38.9299 50.4997C38.9599 50.5797 38.9899 50.6597 39.0199 50.7397L40.4299 54.7897C40.4299 54.7897 40.4699 54.7997 40.4899 54.8097L39.0999 50.8197ZM1.88989 68.3797V72.6297H80.5399V68.3797H1.88989ZM79.6399 71.0797H3.01987V69.1697H79.6399V71.0797ZM42.5299 56.1597C42.4699 56.0897 42.4099 56.0297 42.3399 55.9697C41.8199 55.4797 41.1899 55.0997 40.5099 54.8697L40.4899 54.8097L39.0999 50.8197C38.8599 50.1397 38.4999 49.5297 38.0299 49.0197C37.9699 48.9597 37.9099 48.8897 37.8499 48.8297C37.1699 48.1597 36.3199 47.6697 35.3699 47.4397V47.3797C35.3699 47.3797 35.3099 47.3597 35.2899 47.3597V49.8797C35.5699 50.0097 35.8199 50.1897 36.0399 50.4097C36.3999 50.7297 36.6799 51.1397 36.8399 51.6097L37.8799 54.5997H35.9799C35.9799 54.5997 35.9799 54.5397 35.9699 54.5197H35.8899C35.8299 53.8597 35.6099 53.2597 35.2799 52.7297V56.8997H38.7599C39.4999 56.8997 40.1799 57.1997 40.6699 57.6897C40.7099 57.7197 40.7399 57.7497 40.7699 57.7897C41.2599 58.2797 41.5599 58.9597 41.5599 59.6997V62.0597H35.3599V61.9697H35.2799V64.3597H36.4499V64.4397H36.5399V66.6997H38.8399V64.3597H41.4799V64.4397H41.5699V66.6997H43.8699V59.6097C43.8699 58.2797 43.3599 57.0697 42.5299 56.1697V56.1597ZM21.0699 62.0597V61.9697H20.9799V64.3597H32.8999V62.0597H21.0599H21.0699ZM31.8899 53.2397C32.2699 53.2397 32.6199 53.3697 32.8999 53.5897V51.0497C32.5999 50.9797 32.2899 50.9397 31.9699 50.9397C29.8799 50.9397 28.1499 52.5497 27.9599 54.5897H21.0599V54.5097H20.9699V56.8897H32.8899V54.5897H30.3599C30.3599 54.5897 30.3699 54.5297 30.3799 54.5097H30.2699C30.4399 53.7897 31.0899 53.2397 31.8699 53.2397H31.8899ZM27.6599 47.2897C26.9999 47.2897 26.4699 47.8197 26.4699 48.4797C26.4699 48.7897 26.5899 49.0697 26.7799 49.2797C26.9899 49.4697 27.2699 49.5897 27.5799 49.5897H32.9099V47.2897H27.6699H27.6599ZM22.9299 47.6397C22.9299 47.6397 22.9299 47.6297 22.9099 47.6197C22.6999 47.4097 22.4099 47.2897 22.0899 47.2897H21.0599V47.2097H20.9699V49.5897H22.0099C22.6699 49.5897 23.1999 49.0497 23.1999 48.3997C23.1999 48.1097 23.0999 47.8497 22.9299 47.6397ZM18.5999 49.7997V47.4197C16.8599 47.8097 15.3999 49.0797 14.7999 50.8097L13.3899 54.8597C11.3899 55.5397 9.93988 57.4497 9.93988 59.6797V66.6897H12.2399V64.3497H14.8799V64.4297H14.9599V66.6897H17.2599V64.3497H18.5899V62.0497H12.3199V61.9597H12.2399V59.5997C12.2399 58.0997 13.4499 56.8897 14.9499 56.8897H18.5899V54.5897H15.9999L16.0299 54.5097H15.9199L16.9599 51.5197C17.2399 50.7297 17.8399 50.1097 18.5899 49.8097L18.5999 49.7997ZM39.0999 50.8197C38.8599 50.1397 38.4999 49.5297 38.0299 49.0197C38.0999 49.0997 38.1699 49.1897 38.2299 49.2697C38.2999 49.3497 38.3599 49.4397 38.4099 49.5297C38.4699 49.6097 38.5199 49.6997 38.5699 49.7797C38.5799 49.7997 38.5999 49.8297 38.6199 49.8597C38.6999 49.9997 38.7699 50.1397 38.8399 50.2897C38.8599 50.3197 38.8699 50.3597 38.8899 50.3897C38.9099 50.4297 38.9199 50.4597 38.9299 50.4997C38.9599 50.5797 38.9899 50.6597 39.0199 50.7397L40.4299 54.7897C40.4299 54.7897 40.4699 54.7997 40.4899 54.8097L39.0999 50.8197ZM39.0999 50.8197C38.8599 50.1397 38.4999 49.5297 38.0299 49.0197C38.0999 49.0997 38.1699 49.1897 38.2299 49.2697C38.2999 49.3497 38.3599 49.4397 38.4099 49.5297C38.4699 49.6097 38.5199 49.6997 38.5699 49.7797C38.5799 49.7997 38.5999 49.8297 38.6199 49.8597C38.6999 49.9997 38.7699 50.1397 38.8399 50.2897C38.8599 50.3197 38.8699 50.3597 38.8899 50.3897C38.9099 50.4297 38.9199 50.4597 38.9299 50.4997C38.9599 50.5797 38.9899 50.6597 39.0199 50.7397L40.4299 54.7897C40.4299 54.7897 40.4699 54.7997 40.4899 54.8097L39.0999 50.8197ZM39.0999 50.8197C38.8599 50.1397 38.4999 49.5297 38.0299 49.0197C38.0999 49.0997 38.1699 49.1897 38.2299 49.2697C38.2999 49.3497 38.3599 49.4397 38.4099 49.5297C38.4699 49.6097 38.5199 49.6997 38.5699 49.7797C38.5799 49.7997 38.5999 49.8297 38.6199 49.8597C38.6999 49.9997 38.7699 50.1397 38.8399 50.2897C38.8599 50.3197 38.8699 50.3597 38.8899 50.3897C38.9099 50.4297 38.9199 50.4597 38.9299 50.4997C38.9599 50.5797 38.9899 50.6597 39.0199 50.7397L40.4299 54.7897C40.4299 54.7897 40.4699 54.7997 40.4899 54.8097L39.0999 50.8197ZM39.0999 50.8197C38.8599 50.1397 38.4999 49.5297 38.0299 49.0197C38.0999 49.0997 38.1699 49.1897 38.2299 49.2697C38.2999 49.3497 38.3599 49.4397 38.4099 49.5297C38.4699 49.6097 38.5199 49.6997 38.5699 49.7797C38.5799 49.7997 38.5999 49.8297 38.6199 49.8597C38.6999 49.9997 38.7699 50.1397 38.8399 50.2897C38.8599 50.3197 38.8699 50.3597 38.8899 50.3897C38.9099 50.4297 38.9199 50.4597 38.9299 50.4997C38.9599 50.5797 38.9899 50.6597 39.0199 50.7397L40.4299 54.7897C40.4299 54.7897 40.4699 54.7997 40.4899 54.8097L39.0999 50.8197ZM39.0999 50.8197C38.8599 50.1397 38.4999 49.5297 38.0299 49.0197C38.0999 49.0997 38.1699 49.1897 38.2299 49.2697C38.2999 49.3497 38.3599 49.4397 38.4099 49.5297C38.4699 49.6097 38.5199 49.6997 38.5699 49.7797C38.5799 49.7997 38.5999 49.8297 38.6199 49.8597C38.6999 49.9997 38.7699 50.1397 38.8399 50.2897C38.8599 50.3197 38.8699 50.3597 38.8899 50.3897C38.9099 50.4297 38.9199 50.4597 38.9299 50.4997C38.9599 50.5797 38.9899 50.6597 39.0199 50.7397L40.4299 54.7897C40.4299 54.7897 40.4699 54.7997 40.4899 54.8097L39.0999 50.8197ZM39.0999 50.8197C38.8599 50.1397 38.4999 49.5297 38.0299 49.0197C38.0999 49.0997 38.1699 49.1897 38.2299 49.2697C38.2999 49.3497 38.3599 49.4397 38.4099 49.5297C38.4699 49.6097 38.5199 49.6997 38.5699 49.7797C38.5799 49.7997 38.5999 49.8297 38.6199 49.8597C38.6999 49.9997 38.7699 50.1397 38.8399 50.2897C38.8599 50.3197 38.8699 50.3597 38.8899 50.3897C38.9099 50.4297 38.9199 50.4597 38.9299 50.4997C38.9599 50.5797 38.9899 50.6597 39.0199 50.7397L40.4299 54.7897C40.4299 54.7897 40.4699 54.7997 40.4899 54.8097L39.0999 50.8197Z" fill="#7C7C7C"/>
<path d="M77.0999 37.1898C77.7599 37.1898 78.2899 36.6598 78.2899 35.9998V24.8498H80.0399C81.1299 24.8498 82.0299 23.9598 82.0299 22.8598V11.2498C82.0299 9.27978 80.4199 7.66978 78.4499 7.66978H77.4999V5.04978C77.4999 3.51978 76.2499 2.26978 74.7199 2.26978H60.9999V4.64978H74.7199C74.9399 4.64978 75.1199 4.82978 75.1199 5.04978V7.66978H61.0099V10.0598H78.4599C79.1199 10.0598 79.6499 10.5898 79.6499 11.2498V22.4598H3.02991V11.2498C3.02991 10.5898 3.55991 10.0598 4.21991 10.0598L22.3399 10.0898V7.67978H7.55991V5.05978C7.55991 4.83978 7.7399 4.65978 7.9599 4.65978H22.0099V2.27978H7.9599C6.4299 2.27978 5.1799 3.52978 5.1799 5.05978V7.67978H4.22992C2.25992 7.67978 0.649902 9.28978 0.649902 11.2598V22.8698C0.649902 23.9698 1.53992 24.8598 2.63992 24.8598H4.38992V66.7898H2.63992C1.54992 66.7898 0.649902 67.6798 0.649902 68.7798V71.4798C0.649902 72.5798 1.53992 73.4698 2.63992 73.4698H80.0599C81.1499 73.4698 82.0499 72.5798 82.0499 71.4798V68.7798C82.0499 67.6898 81.1599 66.7898 80.0599 66.7898H78.3099V41.5698C78.3099 40.9098 77.7799 40.3798 77.1199 40.3798C76.4599 40.3798 75.9299 40.9098 75.9299 41.5698V66.7898H64.0099V53.5998H67.1099C68.1999 53.5998 69.0999 52.7098 69.0999 51.6098V44.2998C69.0999 43.1998 68.2099 42.3098 67.1099 42.3098H64.0099V31.3398H75.9299V36.0098C75.9299 36.6698 76.4599 37.1998 77.1199 37.1998L77.0999 37.1898ZM49.6799 24.8598H61.5999V28.9598H49.6799V24.8598ZM49.6799 31.3398H61.5999V42.3098H58.4999C57.3999 42.3098 56.5099 43.1998 56.5099 44.2998V51.6098C56.5099 52.6998 57.3999 53.5998 58.4999 53.5998H61.5999V66.7898H49.6799V31.3398ZM61.5999 44.6898V51.2098H58.8999V44.6898H61.5999ZM35.2899 61.9698H35.3699V56.9798H38.8499C39.5499 56.9798 40.1899 57.2498 40.6699 57.6898C40.1799 57.1998 39.4999 56.8998 38.7599 56.8998H35.2799V52.7298C35.6099 53.2598 35.8299 53.8598 35.8899 54.5198H35.9699C35.8999 53.8998 35.6799 53.3198 35.3599 52.8198V49.9698C35.5999 50.0898 35.8299 50.2298 36.0299 50.4098C35.8099 50.1898 35.5599 50.0198 35.2799 49.8798V47.3598C35.2799 47.3598 35.3399 47.3698 35.3599 47.3798V24.8598H47.2799V66.7898H43.9399V59.6998C43.9399 58.3298 43.3999 57.0898 42.5099 56.1698C43.3399 57.0798 43.8499 58.2898 43.8499 59.6098V66.6998H41.5499V66.7898H38.8999V64.4398H41.4599V64.3598H38.8199V66.6998H36.5199V66.7898H35.3499V64.4398H36.4299V64.3598H35.2599V61.9698H35.2899ZM20.9799 54.5098H21.0699V49.6798H22.0999C22.7599 49.6798 23.2899 49.1498 23.2899 48.4898C23.2899 48.1598 23.1499 47.8598 22.9299 47.6398C23.0999 47.8498 23.1999 48.1098 23.1999 48.3998C23.1999 49.0598 22.6699 49.5898 22.0099 49.5898H20.9699V47.2098H21.0599V24.8598H32.9799V47.2998H32.8999V49.5998H27.5699C27.2599 49.5998 26.9799 49.4798 26.7699 49.2898C26.9899 49.5298 27.2999 49.6798 27.6499 49.6798H32.9699V51.0798C32.9699 51.0798 32.9199 51.0698 32.8899 51.0598V53.5998C32.6099 53.3798 32.2599 53.2498 31.8799 53.2498C31.1099 53.2498 30.4599 53.7898 30.2799 54.5198H30.3899C30.5899 53.8398 31.2199 53.3398 31.9699 53.3398C32.3499 53.3398 32.6999 53.4698 32.9799 53.6898V54.6098H32.8999V56.9098H20.9799V54.5298V54.5098ZM20.9799 61.9698H21.0699V56.9798H32.9899V62.0598H32.9099V64.3598H20.9899V61.9698H20.9799ZM32.9899 64.4398V66.7898H21.0699V64.4398H32.9899ZM6.75992 24.8598H18.6799V47.4098C18.6799 47.4098 18.6199 47.4198 18.5999 47.4298V49.8098C17.8499 50.1098 17.2399 50.7298 16.9699 51.5198L15.9299 54.5098H16.0399L17.0499 51.5998C17.3299 50.8098 17.9299 50.1898 18.6799 49.8898V54.5998H18.5999V56.8998H14.9599C13.4599 56.8998 12.2499 58.1198 12.2499 59.6098V61.9698H12.3299V59.6898C12.3299 58.1898 13.5499 56.9698 15.0399 56.9698H18.6799V62.0498H18.5999V64.3498H17.2699V66.6898H14.9699V66.7798H12.3299V64.4298H14.8899V64.3498H12.2499V66.6898H9.94992V66.7798H6.7699V24.8498L6.75992 24.8598ZM18.6799 64.4398V66.7898H17.3499V64.4398H18.6799ZM80.5399 68.3798V72.6298H1.88992V68.3798H80.5399ZM66.6899 44.6898V51.2098H63.9899V44.6898H66.6899ZM63.9899 28.9498V24.8498H75.9099V28.9498H63.9899Z" fill="#7C7C7C"/>
<path d="M47.4698 5.85968L47.3398 5.66968H47.4698V5.85968Z" fill="#7C7C7C"/>
<path d="M75.3499 14.2097H68.5099C67.8499 14.2097 67.3199 14.7397 67.3199 15.3997C67.3199 16.0597 67.8499 16.5897 68.5099 16.5897H75.3499C76.0099 16.5897 76.5399 16.0597 76.5399 15.3997C76.5399 14.7397 76.0099 14.2097 75.3499 14.2097Z" fill="#7C7C7C"/>
<path d="M20.98 61.9697V64.3597H32.9V61.9697H20.98ZM20.98 61.9697V64.3597H32.9V61.9697H20.98Z" fill="#EC6D64"/>
<path d="M18.5999 47.3198V49.7998C17.8499 50.0998 17.2399 50.7198 16.9699 51.5098L15.9299 54.4998H18.5999V56.8798H14.9599C13.4599 56.8798 12.2499 58.0998 12.2499 59.5898V61.9498H18.6099V64.3398H17.2799V66.6798H14.8999V64.3398H12.2599V66.6798H9.86987V59.5898C9.86987 57.3598 11.3199 55.4498 13.3199 54.7698L14.7299 50.7198C15.3399 48.9598 16.8299 47.6798 18.6099 47.3098L18.5999 47.3198Z" fill="#EC6D64"/>
<path d="M23.21 48.3997C23.21 49.0597 22.68 49.5897 22.02 49.5897H20.98V47.2097H22.02C22.38 47.2097 22.71 47.3697 22.92 47.6197C22.92 47.6197 22.93 47.6297 22.94 47.6397C23.11 47.8497 23.21 48.1097 23.21 48.3997Z" fill="#EC6D64"/>
<path d="M32.8999 47.2097V49.5897H27.5699C27.2599 49.5897 26.9799 49.4697 26.7699 49.2797C26.5299 49.0597 26.3799 48.7497 26.3799 48.3997C26.3799 47.7397 26.9099 47.2097 27.5699 47.2097H32.8999Z" fill="#EC6D64"/>
<path d="M32.9 50.9899V53.5999C32.62 53.3799 32.27 53.2499 31.89 53.2499C31.12 53.2499 30.47 53.7899 30.29 54.5199H32.9V56.8999H20.98V54.5199H27.88C28.07 52.4699 29.8 50.8699 31.89 50.8699C32.24 50.8699 32.58 50.9099 32.9 50.9999V50.9899Z" fill="#EC6D64"/>
<path d="M43.8699 59.6099V66.6999H41.4799V64.3599H38.8399V66.6999H36.4499V64.3599H35.2799V61.9699H41.4799V59.6099C41.4799 58.9099 41.2099 58.2699 40.7699 57.7899C40.7399 57.7499 40.7099 57.7199 40.6699 57.6899C40.1799 57.1999 39.4999 56.8999 38.7599 56.8999H35.2799V52.7299C35.6099 53.2599 35.8299 53.8599 35.8899 54.5199H37.7899L36.7499 51.5299C36.5999 51.0999 36.3499 50.7199 36.0299 50.4199C35.8099 50.1999 35.5599 50.0299 35.2799 49.8899V47.3699C35.2799 47.3699 35.3399 47.3799 35.3599 47.3899C36.3099 47.6299 37.1699 48.1399 37.8399 48.8399C37.8999 48.8999 37.9599 48.9699 38.0199 49.0299C38.0899 49.1099 38.1599 49.1999 38.2199 49.2799C38.2799 49.3599 38.3499 49.4499 38.3999 49.5399C38.4599 49.6199 38.5099 49.7099 38.5599 49.7899C38.5699 49.8099 38.5899 49.8399 38.6099 49.8699C38.6899 50.0099 38.7599 50.1499 38.8299 50.2999C38.8499 50.3299 38.8599 50.3699 38.8799 50.3999C38.8999 50.4399 38.9099 50.4699 38.9199 50.5099C38.9499 50.5899 38.9799 50.6699 39.0099 50.7499L40.4199 54.7999C40.4199 54.7999 40.4599 54.8099 40.4799 54.8199C41.1799 55.0699 41.8099 55.4699 42.3399 55.9799C42.4099 56.0399 42.4699 56.1099 42.5299 56.1699C43.3599 57.0799 43.8699 58.2899 43.8699 59.6099Z" fill="#EC6D64"/>
<path d="M61.6699 2.85989V14.8399C61.6699 16.3499 60.4499 17.5699 58.9399 17.5699H23.7299C22.2199 17.5699 20.9999 16.3399 20.9999 14.8399V2.85989C20.9999 1.34989 22.2199 0.129883 23.7299 0.129883H26.3499C26.8299 0.129883 27.2299 0.519888 27.2299 1.00989C27.2299 1.49989 26.8399 1.88988 26.3499 1.88988H23.7299C23.1999 1.88988 22.7699 2.31989 22.7699 2.85989V14.8399C22.7699 15.3699 23.1999 15.8099 23.7299 15.8099H58.9399C59.4699 15.8099 59.8999 15.3799 59.8999 14.8399V2.85989C59.8999 2.32989 59.4699 1.88988 58.9399 1.88988H30.4699C29.9799 1.88988 29.5899 1.48989 29.5899 1.00989C29.5899 0.529888 29.9799 0.129883 30.4699 0.129883H58.9399C60.4499 0.129883 61.6699 1.35989 61.6699 2.85989Z" fill="#F6C42D"/>
<path d="M48.1699 12.3799C48.1699 12.8699 47.8998 13.2599 47.4698 13.3999C47.0598 13.5299 46.6198 13.3699 46.3598 12.9899L45.4698 11.7099L44.1198 9.74994L42.8499 7.90994V12.6499C42.8499 13.1399 42.4598 13.5299 41.9698 13.5299C41.4798 13.5299 41.0898 13.1399 41.0898 12.6499V5.07994C41.0898 4.68994 41.3398 4.34994 41.7098 4.23994C42.0798 4.11994 42.4799 4.25994 42.6999 4.57994L43.1299 5.20994L44.4799 7.16994L46.2698 9.75994L46.3799 9.91994V9.75994L46.3499 7.16994L46.3298 5.20994V5.07994C46.3298 4.58994 46.7199 4.18994 47.1999 4.18994H47.2098C47.6898 4.18994 48.0898 4.57994 48.0898 5.05994V5.20994L48.1098 7.16994L48.1399 9.75994L48.1599 11.7199V12.3999L48.1699 12.3799Z" fill="#F6C42D"/>
<path d="M39.4798 12.65C39.4798 13.14 39.0898 13.53 38.5998 13.53H35.4298C34.9398 13.53 34.5398 13.13 34.5398 12.65V5.13C34.5398 4.64 34.9298 4.25 35.4298 4.25H38.5998C39.0798 4.25 39.4798 4.64 39.4798 5.13C39.4798 5.15 39.4798 5.18 39.4798 5.2C39.4498 5.65 39.0698 6.01 38.6098 6.01H36.3198V8H38.3698C38.8598 8 39.2498 8.4 39.2498 8.88C39.2498 9.3 38.9498 9.66 38.5498 9.74C38.4898 9.75 38.4298 9.76 38.3598 9.76H36.3098V11.75H38.5998C39.0798 11.75 39.4798 12.14 39.4798 12.63V12.65Z" fill="#F6C42D"/>
<path d="M55.5899 5.05994C55.5899 5.05994 55.5899 5.14994 55.5799 5.19994C55.5199 5.61994 55.1499 5.93994 54.7099 5.93994H53.4899V12.6499C53.4899 13.1399 53.0899 13.5299 52.6099 13.5299C52.1299 13.5299 51.7299 13.1399 51.7299 12.6499V5.93994H50.5199C50.5199 5.93994 50.4299 5.93994 50.3799 5.92994C50.0199 5.87994 49.7299 5.58994 49.6599 5.22994C49.6499 5.17994 49.6399 5.11994 49.6399 5.06994C49.6399 4.57994 50.0299 4.18994 50.5199 4.18994H54.7099C55.1899 4.18994 55.5899 4.57994 55.5899 5.06994V5.05994Z" fill="#F6C42D"/>
<path d="M32.7198 12.0599L32.4099 11.6999L30.7299 9.78993C30.7799 9.77993 30.8299 9.75993 30.8799 9.74993C32.0399 9.39993 32.8898 8.37994 32.9398 7.15993C32.9398 7.11994 32.9398 7.07993 32.9398 7.02993C32.9398 6.32993 32.6798 5.68993 32.2498 5.19993C31.6998 4.57993 30.8899 4.17993 29.9799 4.17993H27.9598C27.4798 4.17993 27.0798 4.56993 27.0798 5.05993V12.6499C27.0798 13.1399 27.4798 13.5299 27.9598 13.5299C28.4398 13.5299 28.8398 13.1399 28.8398 12.6499V10.3299L29.1999 10.7399L30.0498 11.6999L31.3998 13.2299C31.5698 13.4299 31.8098 13.5299 32.0598 13.5299C32.8098 13.5299 33.2298 12.6399 32.7198 12.0599ZM28.8499 8.11993V5.93993H29.9799C30.6299 5.93993 31.1798 6.43993 31.1798 7.02993C31.1798 7.06993 31.1798 7.10994 31.1798 7.15993C31.1098 7.68993 30.5898 8.11993 29.9898 8.11993C29.7298 8.11993 29.2698 8.11993 28.8598 8.11993H28.8499Z" fill="#F6C42D"/>
</svg>
