<svg width="83" height="74" viewBox="0 0 83 74" fill="none" xmlns="http://www.w3.org/2000/svg">
<path d="M24.66 60.7098H29.91C30.57 60.7098 31.1 60.1798 31.1 59.5198C31.1 58.8598 30.57 58.3298 29.91 58.3298H24.66C24 58.3298 23.47 58.8598 23.47 59.5198C23.47 60.1798 24 60.7098 24.66 60.7098Z" fill="#7C7C7C"/>
<path d="M15.6 31.5298H10.51C9.59 31.5298 8.84 32.2798 8.84 33.1998V40.6698C8.84 41.5898 9.59 42.3398 10.51 42.3398H15.6C16.52 42.3398 17.27 41.5898 17.27 40.6698V33.1998C17.27 32.2798 16.52 31.5298 15.6 31.5298ZM14.88 39.9598H11.22V33.9198H14.88V39.9598Z" fill="#75C9FC"/>
<path d="M77.43 37.1899C78.09 37.1899 78.62 36.6599 78.62 35.9999V24.8499H80.37C81.47 24.8499 82.36 23.9599 82.36 22.8599V11.2599C82.36 9.28989 80.76 7.67987 78.78 7.67987H77.83V5.05988C77.83 3.52988 76.58 2.27988 75.05 2.27988H66.54C66.54 1.82988 66.42 1.37987 66.15 1.00987C65.76 0.459872 65.11 0.129883 64.44 0.129883H57.09C56.43 0.129883 55.9 0.659885 55.9 1.31989C55.9 1.97989 56.43 2.50987 57.09 2.50987H64.05L61.06 11.1999H19.29L22.28 2.50987H51.53C52.19 2.50987 52.72 1.97989 52.72 1.31989C52.72 0.659885 52.19 0.129883 51.53 0.129883H22.08C21.18 0.129883 20.38 0.699881 20.09 1.54988L19.84 2.27988H8.29001C6.76001 2.27988 5.51001 3.52988 5.51001 5.05988V7.67987H4.56001C2.59001 7.67987 0.980011 9.27989 0.980011 11.2599V22.8599C0.980011 23.9599 1.87001 24.8499 2.97001 24.8499H4.72001V66.7799H2.97001C1.87001 66.7799 0.980011 67.6699 0.980011 68.7699V71.4699C0.980011 72.5699 1.87001 73.4599 2.97001 73.4599H80.39C81.49 73.4599 82.38 72.5699 82.38 71.4699V68.7699C82.38 67.6699 81.49 66.7799 80.39 66.7799H78.64V41.5599C78.64 40.8999 78.11 40.3699 77.45 40.3699C76.79 40.3699 76.26 40.8999 76.26 41.5599V66.7799H64.34V53.5899H67.44C68.54 53.5899 69.43 52.6999 69.43 51.5999V44.2899C69.43 43.1899 68.54 42.2999 67.44 42.2999H64.34V31.3299H76.26V35.9899C76.26 36.6499 76.79 37.1799 77.45 37.1799L77.43 37.1899ZM65.83 4.66988H75.05C75.27 4.66988 75.45 4.84989 75.45 5.06989V7.68988H64.79L65.83 4.66988ZM7.89001 5.05988C7.89001 4.83988 8.07001 4.65988 8.29001 4.65988H19.02L17.98 7.67987H7.89001V5.05988ZM79.98 69.1699V71.0799H3.36001V69.1699H79.98ZM12.66 62.0599V59.6999C12.66 58.1999 13.88 56.9899 15.37 56.9899H19.01V62.0699H12.65L12.66 62.0599ZM19.01 64.4399V66.7899H17.68V64.4399H19.01ZM15.3 64.4399V66.7899H12.66V64.4399H15.3ZM16.34 54.5899L17.38 51.5999C17.66 50.7999 18.26 50.1899 19.01 49.8899V54.5999H16.34V54.5899ZM15.13 50.8199L13.72 54.8699C11.71 55.5599 10.27 57.4599 10.27 59.6899V66.7799H7.09V24.8499H19.01V47.3999C17.23 47.7699 15.74 49.0499 15.13 50.8099V50.8199ZM22.43 47.2899H21.4V24.8499H33.32V47.2899H27.99C27.33 47.2899 26.8 47.8199 26.8 48.4799C26.8 49.1399 27.33 49.6699 27.99 49.6699H33.32V51.0599C33 50.9799 32.66 50.9299 32.31 50.9299C30.22 50.9299 28.49 52.5399 28.3 54.5799H21.4V49.6599H22.43C23.09 49.6599 23.62 49.1299 23.62 48.4699C23.62 47.8099 23.09 47.2799 22.43 47.2799V47.2899ZM33.32 53.6799V54.5999H30.71C30.88 53.8799 31.53 53.3299 32.31 53.3299C32.69 53.3299 33.04 53.4599 33.32 53.6799ZM33.32 56.9799V62.0599H21.4V56.9799H33.32ZM33.32 64.4399V66.7899H21.4V64.4399H33.32ZM40.84 54.8699L39.43 50.8199C38.84 49.1099 37.41 47.8599 35.7 47.4399V24.8599H47.62V66.7899H44.28V59.6999C44.28 57.4699 42.83 55.5599 40.83 54.8799L40.84 54.8699ZM37.18 51.5999L38.22 54.5899H36.32C36.26 53.9399 36.04 53.3299 35.7 52.7999V49.9499C36.38 50.2699 36.92 50.8499 37.17 51.5899L37.18 51.5999ZM39.19 56.9799C40.69 56.9799 41.9 58.1999 41.9 59.6899V62.0499H35.7V56.9699H39.19V56.9799ZM41.91 64.4399V66.7899H39.27V64.4399H41.91ZM36.88 64.4399V66.7899H35.71V64.4399H36.88ZM61.93 31.3399V42.3099H58.83C57.73 42.3099 56.84 43.1999 56.84 44.2999V51.6099C56.84 52.7099 57.73 53.5999 58.83 53.5999H61.93V66.7899H50.01V31.3399H61.93ZM50.01 28.9499V24.8499H61.93V28.9499H50.01ZM61.93 44.6899V51.2099H59.23V44.6899H61.93ZM67.02 44.6899V51.2099H64.32V44.6899H67.02ZM3.36001 22.4699V11.2599C3.36001 10.5999 3.89001 10.0699 4.55001 10.0699H17.15L16.9 10.7899C16.68 11.4299 16.78 12.1499 17.18 12.6999C17.57 13.2499 18.22 13.5799 18.89 13.5799H61.25C62.15 13.5799 62.95 13.0099 63.24 12.1599L63.96 10.0599H78.78C79.44 10.0599 79.97 10.5999 79.97 11.2499V22.4599H3.35001L3.36001 22.4699ZM64.32 28.9499V24.8499H76.24V28.9499H64.32Z" fill="#7C7C7C"/>
<path d="M26.9 6.85992C26.9 7.51992 27.43 8.04991 28.09 8.04991H55.24C55.9 8.04991 56.43 7.51992 56.43 6.85992C56.43 6.19992 55.9 5.66992 55.24 5.66992H28.09C27.43 5.66992 26.9 6.19992 26.9 6.85992Z" fill="#7C7C7C"/>
<path d="M75.69 14.21H68.85C68.19 14.21 67.66 14.74 67.66 15.4C67.66 16.06 68.19 16.59 68.85 16.59H75.69C76.35 16.59 76.88 16.06 76.88 15.4C76.88 14.74 76.35 14.21 75.69 14.21Z" fill="#7C7C7C"/>
<path d="M21.31 61.97V64.36H33.23V61.97H21.31ZM21.31 61.97V64.36H33.23V61.97H21.31Z" fill="#EC6D64"/>
<path d="M17.3 51.5198L16.26 54.5098H18.93V56.8898H15.29C13.79 56.8898 12.58 58.1098 12.58 59.5998V61.9598H18.94V64.3498H17.61V66.6898H15.22V64.3498H12.58V66.6898H10.19V59.5998C10.19 57.3698 11.64 55.4598 13.64 54.7798L15.05 50.7298C15.66 48.9698 17.16 47.6898 18.93 47.3198V49.7998C18.18 50.0998 17.57 50.7198 17.3 51.5098V51.5198Z" fill="#EC6D64"/>
<path d="M23.54 48.3999C23.54 49.0599 23.01 49.5899 22.35 49.5899H21.32V47.2H22.35C23.01 47.2 23.54 47.73 23.54 48.39V48.3999Z" fill="#EC6D64"/>
<path d="M33.24 47.21V49.6H27.92C27.26 49.6 26.73 49.06 26.73 48.41C26.73 47.76 27.27 47.22 27.92 47.22H33.24V47.21Z" fill="#EC6D64"/>
<path d="M30.63 54.5099H33.24V56.8899H21.32V54.5099H28.22C28.41 52.4599 30.14 50.8599 32.23 50.8599C32.58 50.8599 32.92 50.8999 33.24 50.9899V53.5999C32.96 53.3799 32.61 53.2499 32.23 53.2499C31.45 53.2499 30.8 53.7899 30.63 54.5199V54.5099Z" fill="#EC6D64"/>
<path d="M44.21 59.6099V66.6999H41.82V64.3599H39.18V66.6999H36.79V64.3599H35.62V61.9699H41.82V59.6099C41.82 58.1099 40.6 56.8999 39.11 56.8999H35.63V52.7299C35.97 53.2599 36.18 53.8599 36.25 54.5199H38.15L37.11 51.5299C36.85 50.7899 36.31 50.2099 35.64 49.8899V47.3699C37.35 47.7799 38.77 49.0399 39.37 50.7499L40.78 54.7999C42.79 55.4899 44.23 57.3899 44.23 59.6199L44.21 59.6099Z" fill="#EC6D64"/>
</svg>
