<svg width="66" height="76" viewBox="0 0 66 76" fill="none" xmlns="http://www.w3.org/2000/svg">
<path d="M15.0299 59.4301L12.89 57.6901C12.04 57.0001 11.2099 56.2501 10.4299 55.4601C9.45993 54.4901 8.54993 53.4601 7.70993 52.3901C6.84993 51.2801 6.04993 50.1001 5.32993 48.8801L5.26993 48.7701C3.88993 46.4101 2.80993 43.8401 2.04993 41.1401C1.27993 38.3901 0.889954 35.5001 0.889954 32.5401C0.889954 29.5801 1.27993 26.6801 2.04993 23.9201C2.81993 21.1601 3.91993 18.5501 5.32993 16.1701C6.73993 13.7901 8.44995 11.5801 10.42 9.61011C12.4 7.64011 14.6099 5.93011 17.0099 4.53011C19.3999 3.14011 21.9999 2.0401 24.7399 1.2701C27.4899 0.500103 30.3799 0.110107 33.3399 0.110107C36.2999 0.110107 39.1999 0.500103 41.9599 1.2701C44.7199 2.0401 47.32 3.13011 49.7 4.53011C50.53 5.02011 51.3299 5.54011 52.0999 6.08011L52.5399 6.39011L53.4099 16.5401L43.2399 17.4101L42.9099 17.2001C42.1099 16.7001 41.2499 16.2601 40.3599 15.8701C38.1699 14.9301 35.8099 14.4501 33.3399 14.4501C30.8699 14.4501 28.4699 14.9301 26.2999 15.8701C24.1099 16.8201 22.1699 18.1201 20.5399 19.7401C18.9099 21.3601 17.6099 23.2901 16.6599 25.4901C15.7199 27.6801 15.2399 30.0401 15.2399 32.5101C15.2399 34.9801 15.7199 37.3201 16.6599 39.4901C17.6099 41.6701 18.9199 43.6001 20.5499 45.2201C20.8299 45.5001 21.1299 45.7801 21.4299 46.0401L23.4999 47.8501L14.0899 48.6601L15.0099 59.4001L15.0299 59.4301ZM33.3499 2.46011C30.6099 2.46011 27.9199 2.82011 25.3799 3.53011C22.8299 4.25011 20.4099 5.2601 18.1899 6.5601C15.9699 7.8501 13.9099 9.4401 12.0799 11.2701C10.2499 13.1001 8.65995 15.1501 7.34995 17.3601C6.04994 19.5601 5.01994 21.9801 4.30994 24.5401C3.59994 27.1001 3.22995 29.7901 3.22995 32.5301C3.22995 35.2701 3.58993 37.9601 4.29993 40.5001C5.00993 43.0101 6.00995 45.4001 7.28995 47.5901L7.34995 47.6901C8.00994 48.8201 8.74993 49.9101 9.54993 50.9401C10.3199 51.9301 11.1699 52.8901 12.0699 53.8001C12.1099 53.8401 12.16 53.8901 12.2 53.9301L11.5599 46.5501L18.0499 45.9901C16.5999 44.3601 15.4199 42.4901 14.5199 40.4301C13.4499 37.9701 12.8999 35.3101 12.8999 32.5201C12.8999 29.7301 13.4399 27.0601 14.5099 24.5701C15.5799 22.1001 17.05 19.9201 18.89 18.0901C20.73 16.2701 22.9099 14.8001 25.3599 13.7401C27.8299 12.6701 30.5099 12.1301 33.3299 12.1301C36.1499 12.1301 38.7899 12.6701 41.2799 13.7401C42.1499 14.1201 42.9999 14.5501 43.7999 15.0301L50.8799 14.4201L50.2999 7.68011C49.7199 7.28011 49.1299 6.90011 48.5099 6.55011C46.3099 5.26011 43.8899 4.24011 41.3199 3.53011C38.7599 2.82011 36.0699 2.4501 33.3299 2.4501L33.3499 2.46011Z" fill="#7C7C7C"/>
<path d="M64.6099 23.9301C64.0199 21.8201 63.2299 19.7801 62.2699 17.8901C61.9899 17.3201 61.6699 16.7501 61.3499 16.1901C60.9699 15.5301 60.5499 14.8801 60.1199 14.2501C58.9999 12.6101 57.7099 11.0601 56.2799 9.6301C56.2499 9.6001 56.2099 9.56011 56.1799 9.54011L53.9899 7.61011L54.8699 17.8001L45.1099 18.6401L46.7 20.3901C48.0499 21.8701 49.1599 23.6101 49.9999 25.5501C50.9499 27.7401 51.42 30.1001 51.42 32.5701C51.42 35.0401 50.9399 37.3901 49.9999 39.5401C49.0499 41.7201 47.7499 43.6501 46.1299 45.2801C44.5099 46.9101 42.5799 48.2201 40.3799 49.1601C38.1899 50.1001 35.8299 50.5801 33.3599 50.5801C30.8899 50.5801 28.4899 50.1001 26.3199 49.1601L26.0099 49.0301L15.5599 49.9301L16.4399 60.2201L16.9299 60.5301L17.0199 60.5801C19.4199 61.9901 22.0199 63.0901 24.7599 63.8601C27.5099 64.6301 30.3999 65.0201 33.3599 65.0201H34.39C34.57 65.0201 34.7499 65.0201 34.9299 65.0001L42.14 75.8101H58.6899L48.8399 61.0701C51.1099 59.8201 53.2199 58.3101 55.1199 56.5701C57.3399 54.5401 59.2599 52.2401 60.8299 49.7301C62.3999 47.2201 63.63 44.4801 64.4799 41.5801C65.34 38.6701 65.7699 35.6401 65.7699 32.5601C65.7699 29.4801 65.3799 26.7001 64.6099 23.9401V23.9301ZM62.2399 40.9001C61.4399 43.5901 60.2999 46.1401 58.8499 48.4801C57.3899 50.8101 55.6099 52.9501 53.5499 54.8401C51.4899 56.7301 49.1599 58.3301 46.6299 59.5901L45.45 60.1801L54.3299 73.4701H43.39L36.0699 62.5001L35.3399 62.6101C34.9999 62.6601 34.68 62.6801 34.39 62.6801H33.3599C30.6199 62.6801 27.93 62.3201 25.39 61.6001C23.02 60.9401 20.7599 60.0001 18.6599 58.8201L18.0799 52.0401L25.6299 51.3901C28.0299 52.3901 30.6299 52.9001 33.3599 52.9001C36.0899 52.9001 38.8299 52.3601 41.3099 51.2901C43.7799 50.2201 45.9599 48.7501 47.7899 46.9101C49.6099 45.0701 51.08 42.9001 52.14 40.4601C53.21 38.0101 53.7499 35.3501 53.7499 32.5501C53.7499 29.7501 53.21 27.0801 52.14 24.6001C51.52 23.1501 50.7499 21.7901 49.8499 20.5501L57.39 19.9001L56.8599 13.7701C57.3299 14.3501 57.7699 14.9501 58.1899 15.5601C58.5899 16.1501 58.9799 16.7501 59.3299 17.3601C59.6299 17.8801 59.9199 18.4101 60.1799 18.9301C61.0699 20.6901 61.7999 22.5801 62.3499 24.5501C63.0599 27.1101 63.4299 29.8001 63.4299 32.5401C63.4299 35.2801 63.0299 38.2001 62.2299 40.9001H62.2399Z" fill="#7C7C7C"/>
<path d="M63.44 32.55C63.44 35.4 63.04 38.21 62.24 40.91C61.44 43.6 60.3 46.15 58.85 48.49C57.39 50.82 55.61 52.96 53.55 54.85C51.49 56.74 49.16 58.34 46.63 59.6L45.45 60.19L54.33 73.48H43.39L36.07 62.51L35.34 62.62C35 62.67 34.68 62.69 34.39 62.69H33.36C30.62 62.69 27.93 62.33 25.39 61.61C23.02 60.95 20.76 60.01 18.66 58.83L18.08 52.05L25.63 51.4C28.03 52.4 30.63 52.91 33.36 52.91C36.09 52.91 38.83 52.37 41.31 51.3C43.78 50.23 45.96 48.76 47.79 46.92C49.61 45.08 51.08 42.91 52.14 40.47C53.21 38.02 53.75 35.36 53.75 32.56C53.75 29.76 53.21 27.09 52.14 24.61C51.52 23.16 50.75 21.8 49.85 20.56L57.39 19.91L56.86 13.78C57.33 14.36 57.77 14.96 58.19 15.57C58.59 16.16 58.98 16.76 59.33 17.37C59.63 17.89 59.92 18.42 60.18 18.94C61.07 20.7 61.8 22.59 62.35 24.56C63.06 27.12 63.43 29.81 63.43 32.55H63.44Z" fill="#F6C42D"/>
</svg>
