<svg width="81" height="74" viewBox="0 0 81 74" fill="none" xmlns="http://www.w3.org/2000/svg">
<path d="M38.17 29.52L35.01 42.15H45.54L48.7 29.52H38.17Z" fill="#75C9FC"/>
<path d="M33.95 2.13989L30.79 14.7699H41.32L44.48 2.13989H33.95Z" fill="#75C9FC"/>
<path d="M49.75 15.8301L46.59 28.4601H57.12L60.28 15.8301H49.75Z" fill="#3AD690"/>
<path d="M78.99 45.0399V36.39C78.99 33.74 77.6 31.27 75.4 29.87C77.56 29.53 79.2 27.67 79.2 25.42C79.2 23.9 77.97 22.67 76.45 22.67H74.35C72.56 22.67 70.96 23.48 69.87 24.74L69.7 24.05C69.54 23.42 68.9 23.03 68.27 23.19C67.64 23.35 67.26 23.98 67.41 24.61L68.14 27.58H29.18L31.56 17.87C31.78 17 32.56 16.37 33.48 16.37H63.86C64.77 16.37 65.56 16.99 65.77 17.87L66.12 19.26C66.27 19.89 66.91 20.28 67.54 20.12C68.17 19.97 68.56 19.33 68.4 18.7L68.05 17.31C67.58 15.37 65.85 14.01 63.86 14.01H62.66C63.01 13.38 63.21 12.64 63.21 11.86C63.21 10.34 61.97 9.10995 60.46 9.10995H58.36C56.56 9.10995 54.96 9.91995 53.87 11.18L52.05 3.74995C51.57 1.80995 49.85 0.449951 47.85 0.449951H17.47C15.47 0.449951 13.75 1.80995 13.27 3.74995L11.45 11.18C10.37 9.91995 8.75999 9.10995 6.95999 9.10995H4.87999C3.35999 9.10995 2.12 10.34 2.12 11.86C2.12 14.1 3.76999 15.98 5.91999 16.31C3.72999 17.7 2.33999 20.16 2.33999 22.82V31.48C1.23999 31.86 0.459991 32.91 0.459991 34.13V39.03C0.459991 40.59 1.70999 41.84 3.24999 41.84H5.77999C6.45999 42.67 7.44 43.25 8.55 43.42C6.35 44.82 4.95999 47.28 4.95999 49.94V58.59C3.85999 58.9799 3.07999 60.02 3.07999 61.24V66.08C3.07999 67.63 4.33 68.89 5.87 68.89H6.91999V71.0399C6.91999 72.5599 8.14999 73.7899 9.66999 73.7899H17.96C19.48 73.7899 20.71 72.5599 20.71 71.0399V68.89H49.87V71.0399C49.87 72.5599 51.1 73.7899 52.62 73.7899H60.91C62.43 73.7899 63.66 72.5599 63.66 71.0399V68.89H64.71C66.25 68.89 67.5 67.63 67.5 66.08V61.24C67.5 60.89 67.43 60.54 67.31 60.24H74.3C75.82 60.24 77.05 59.01 77.05 57.49V55.34H78.1C79.64 55.34 80.89 54.08 80.89 52.53V47.69C80.89 46.47 80.1 45.4299 79.01 45.0399H78.99ZM58.36 11.48H60.44C60.66 11.48 60.84 11.66 60.84 11.87C60.84 13.06 59.87 14.02 58.69 14.02H54.96C55.38 12.56 56.74 11.48 58.35 11.48H58.36ZM74.36 25.03H76.46C76.68 25.03 76.86 25.21 76.86 25.42C76.86 26.61 75.89 27.58 74.7 27.58H70.97C71.4 26.11 72.76 25.03 74.36 25.03ZM69.43 29.93L73.22 31.39C75.26 32.19 76.63 34.19 76.63 36.39V44.88H63.7C63.22 44.32 62.65 43.8299 62.02 43.4299C62.84 43.2999 63.6 42.9499 64.21 42.4299H69.65C72.1 42.4299 74.09 40.43 74.09 37.99V37.17C74.09 35.62 72.83 34.36 71.28 34.36H67.3C65.63 34.36 64.06 35.04 62.91 36.2299H60.97C59.18 36.2299 57.57 37.04 56.48 38.31L54.66 30.87C54.58 30.54 54.46 30.23 54.3 29.93H69.42H69.43ZM61.31 41.13H57.58C58 39.66 59.36 38.58 60.97 38.58H63.07C63.28 38.58 63.46 38.76 63.46 38.97C63.46 40.16 62.49 41.13 61.31 41.13ZM65.25 37.32C65.85 36.93 66.57 36.71 67.3 36.71H71.28C71.53 36.71 71.73 36.91 71.73 37.16V37.9799C71.73 39.13 70.79 40.06 69.65 40.06H65.68C65.76 39.71 65.82 39.34 65.82 38.96C65.82 38.34 65.61 37.77 65.25 37.31V37.32ZM50.47 29.93C51.38 29.93 52.17 30.55 52.38 31.43L54.77 41.14H15.81L18.19 31.43C18.4 30.56 19.19 29.93 20.1 29.93H50.48H50.47ZM20.49 25.42C20.49 25.21 20.67 25.03 20.88 25.03H22.98C24.58 25.03 25.94 26.1 26.37 27.58H22.64C21.46 27.58 20.49 26.61 20.49 25.42ZM4.48 11.87C4.48 11.66 4.65999 11.48 4.87999 11.48H6.95999C8.56999 11.48 9.92999 12.55 10.36 14.02H6.62C5.44 14.02 4.46999 13.06 4.46999 11.87H4.48ZM4.68999 22.83C4.68999 20.64 6.06999 18.63 8.10999 17.84L11.9 16.38H20.89C21.54 16.38 22.07 15.85 22.07 15.2C22.07 14.55 21.54 14.02 20.89 14.02H13.17L15.56 4.31995C15.77 3.43995 16.56 2.81995 17.47 2.81995H47.85C48.76 2.81995 49.55 3.42995 49.76 4.31995L52.15 14.02H26.39C25.74 14.02 25.21 14.55 25.21 15.2C25.21 15.85 25.74 16.38 26.39 16.38H29.62C29.47 16.67 29.36 16.98 29.27 17.32L27.45 24.75C26.37 23.49 24.75 22.68 22.96 22.68H20.86C20.14 22.68 19.49 22.96 19 23.42C17.88 21.82 16.03 20.81 14.02 20.81H10.04C8.47999 20.81 7.23 22.07 7.23 23.62V24.43C7.23 26.88 9.21999 28.87 11.67 28.87H16.99C16.46 29.42 16.07 30.09 15.88 30.87L15.76 31.33H4.66999V22.83H4.68999ZM17.79 26.52H11.68C10.52 26.52 9.57999 25.58 9.57999 24.42V23.61C9.57999 23.36 9.78999 23.16 10.04 23.16H14.02C15.67 23.16 17.14 24.27 17.59 25.86L17.78 26.52H17.79ZM4.73999 38.97C4.73999 39.15 4.74999 39.33 4.75999 39.5H3.23999C2.99999 39.5 2.80999 39.2899 2.80999 39.0399V34.14C2.80999 33.89 2.99999 33.69 3.23999 33.69H15.19L14.05 38.31C12.97 37.04 11.36 36.2299 9.55999 36.2299H7.48C5.96 36.2299 4.73 37.47 4.73 38.9799L4.73999 38.97ZM7.08999 38.97C7.08999 38.76 7.26999 38.58 7.48999 38.58H9.56999C11.18 38.58 12.54 39.65 12.97 41.13H9.23999C8.04999 41.13 7.07999 40.16 7.07999 38.97H7.08999ZM18.34 71.05C18.34 71.26 18.17 71.44 17.95 71.44H9.66C9.44 71.44 9.25999 71.26 9.25999 71.05V68.8999H18.34V71.05ZM24.3 66.5399H5.85999C5.62999 66.5399 5.42999 66.34 5.42999 66.09V61.25C5.42999 61.01 5.62999 60.8 5.85999 60.8H13.51C14.16 60.8 14.69 60.27 14.69 59.6199C14.69 58.9699 14.16 58.45 13.51 58.45H7.30999V49.95C7.30999 47.75 8.69 45.75 10.73 44.96L14.52 43.49H56.04L59.83 44.96C61.87 45.75 63.25 47.75 63.25 49.95V58.45H19C18.36 58.45 17.82 58.9799 17.82 59.6199C17.82 60.2599 18.36 60.8 19 60.8H24.3V66.55V66.5399ZM43.89 66.5399H26.65V60.7899H43.89V66.5399ZM61.29 71.05C61.29 71.26 61.11 71.44 60.89 71.44H52.6C52.39 71.44 52.21 71.26 52.21 71.05V68.8999H61.29V71.05ZM65.12 66.09C65.12 66.34 64.93 66.5399 64.69 66.5399H46.25V60.7899H64.69C64.93 60.7899 65.12 61 65.12 61.24V66.08V66.09ZM74.67 57.5C74.67 57.71 74.5 57.89 74.28 57.89H65.6V55.35H74.67V57.5ZM78.52 52.5399C78.52 52.7799 78.32 52.99 78.09 52.99H65.61V49.95C65.61 49.01 65.43 48.1 65.1 47.24H78.08C78.31 47.24 78.51 47.45 78.51 47.69V52.53L78.52 52.5399Z" fill="#7C7C7C"/>
<path d="M17.79 26.5199H11.68C10.52 26.5199 9.57999 25.5799 9.57999 24.4199V23.6099C9.57999 23.3599 9.78999 23.1599 10.04 23.1599H14.02C15.67 23.1599 17.14 24.2699 17.59 25.8599L17.78 26.5199H17.79Z" fill="#F6C42D"/>
<path d="M71.74 37.16V37.9799C71.74 39.13 70.8 40.06 69.66 40.06H65.69C65.77 39.71 65.83 39.34 65.83 38.96C65.83 38.34 65.62 37.77 65.26 37.31C65.86 36.92 66.58 36.7 67.31 36.7H71.29C71.54 36.7 71.74 36.8999 71.74 37.1499V37.16Z" fill="#F6C42D"/>
<path d="M25.07 52.6799C25.59 54.6199 27.35 55.9699 29.36 55.9699H41.19C43.2 55.9699 44.96 54.6199 45.48 52.6799L46.36 49.3799C46.46 49.0299 46.38 48.6499 46.16 48.3599C45.94 48.0699 45.59 47.8999 45.23 47.8999H25.32C24.95 47.8999 24.61 48.0699 24.39 48.3599C24.17 48.6499 24.09 49.0299 24.19 49.3799L25.07 52.6799ZM43.21 52.0699C42.97 52.9799 42.14 53.6199 41.19 53.6199H36.45V50.2599H43.69L43.2 52.0699H43.21ZM34.1 50.2599V53.6199H29.36C28.42 53.6199 27.59 52.9799 27.34 52.0699L26.85 50.2599H34.09H34.1Z" fill="#7C7C7C"/>
<path d="M23.1 54.4699L22.49 52.3099C21.74 49.7099 19.34 47.8999 16.65 47.8999H12.67C11.12 47.8999 9.85999 49.1599 9.85999 50.7099V51.5299C9.85999 53.9699 11.85 55.9699 14.3 55.9699H21.98C22.35 55.9699 22.7 55.7899 22.92 55.4999C23.14 55.1999 23.22 54.8299 23.11 54.4699H23.1ZM14.29 53.6199C13.14 53.6199 12.21 52.6799 12.21 51.5399V50.7199C12.21 50.4699 12.41 50.2699 12.66 50.2699H16.64C18.29 50.2699 19.76 51.3799 20.22 52.9699L20.4 53.6299H14.29V53.6199Z" fill="#7C7C7C"/>
<path d="M20.4 53.62H14.29C13.14 53.62 12.21 52.68 12.21 51.54V50.72C12.21 50.47 12.41 50.27 12.66 50.27H16.64C18.29 50.27 19.76 51.38 20.22 52.97L20.4 53.63V53.62Z" fill="#F6C42D"/>
<path d="M49.39 53.8201H56.73C58.11 53.8201 59.23 52.7701 59.23 51.4901V50.5701C59.23 50.2901 58.99 50.0601 58.69 50.0601H53.91C51.92 50.0601 50.17 51.3001 49.61 53.0801L49.4 53.8201H49.39Z" fill="#F6C42D"/>
<path d="M48.59 55.9799H56.27C58.72 55.9799 60.71 53.9899 60.71 51.5399V50.7199C60.71 49.1699 59.45 47.9099 57.9 47.9099H54.78C54.13 47.9099 53.6 48.4399 53.6 49.0899C53.6 49.7399 54.13 50.2699 54.78 50.2699H57.9C58.15 50.2699 58.35 50.4699 58.35 50.7299V51.5499C58.35 52.6999 57.41 53.6399 56.26 53.6399H50.15L50.34 52.9799C50.45 52.5899 50.62 52.2299 50.84 51.8999C51.21 51.3599 51.07 50.6299 50.53 50.2599C49.99 49.8899 49.26 50.0299 48.89 50.5699C48.52 51.1099 48.24 51.6999 48.06 52.3299L47.44 54.4899C47.34 54.8499 47.41 55.2299 47.63 55.5199C47.85 55.8099 48.2 55.9899 48.57 55.9899L48.59 55.9799Z" fill="#7C7C7C"/>
</svg>
