<svg width="96" height="76" viewBox="0 0 96 76" fill="none" xmlns="http://www.w3.org/2000/svg">
<path d="M93.47 54.4028C88.13 50.6628 80.56 49.8628 75.17 49.8628H73.99L55.17 41.0828C52.82 39.9928 50.23 39.4128 47.64 39.4128H31.02C29.41 39.4128 27.84 39.7328 26.36 40.3628L9.11999 47.7628C8.17999 48.1628 7.16998 48.3728 6.13999 48.3728H4.98998C2.56998 48.3728 0.609985 50.3428 0.609985 52.7528V62.2428C0.609985 64.3228 2.09999 66.1428 4.14999 66.5428L9.67999 67.6228C10.36 71.8328 14.03 75.0628 18.43 75.0628C21.72 75.0628 24.6 73.2628 26.13 70.5928H73.44C74.97 73.2628 77.85 75.0628 81.14 75.0628C84.43 75.0628 87.31 73.2628 88.84 70.5928H91.6C94.02 70.5928 95.98 68.6228 95.98 66.2028V59.2228C95.98 57.3128 95.05 55.5128 93.48 54.4028H93.47ZM47.63 42.2128C49.81 42.2128 52.01 42.7028 53.98 43.6228L67.37 49.8628H47.43L40.87 42.2028H47.63V42.2128ZM37.19 42.2128L43.76 49.8728H41.39C40.49 49.8728 39.64 49.4828 39.05 48.8028L33.4 42.2128H37.18H37.19ZM81.14 72.2728C77.8 72.2728 75.07 69.5628 75.07 66.2028C75.07 62.8428 77.79 60.1328 81.14 60.1328C84.49 60.1328 87.21 62.8528 87.21 66.2028C87.21 69.5528 84.5 72.2728 81.14 72.2728ZM93.18 66.2028C93.18 67.0828 92.47 67.7928 91.59 67.7928H89.85C89.94 67.2828 90 66.7428 90 66.2028C90 65.6628 89.95 65.1328 89.85 64.6128H93.18V66.2028ZM93.18 61.8228H88.83C87.3 59.1528 84.43 57.3428 81.13 57.3428C77.83 57.3428 74.96 59.1528 73.43 61.8228H70.69C69.91 61.8228 69.29 62.4428 69.29 63.2128C69.29 63.9828 69.92 64.6028 70.69 64.6028H72.42C72.33 65.1228 72.27 65.6528 72.27 66.1928C72.27 66.7328 72.32 67.2728 72.42 67.7828H27.14C27.23 67.2728 27.29 66.7328 27.29 66.1928C27.29 65.5928 27.23 65.0028 27.11 64.4228C26.95 63.6728 26.22 63.1728 25.47 63.3328C24.72 63.4928 24.22 64.2228 24.38 64.9728C24.45 65.3728 24.5 65.7828 24.5 66.1928C24.5 69.5428 21.78 72.2628 18.43 72.2628C15.08 72.2628 12.36 69.5528 12.36 66.1928C12.36 62.8328 15.07 60.1228 18.43 60.1228C19.28 60.1228 20.1 60.2928 20.86 60.6228C21.57 60.9328 22.39 60.6128 22.7 59.9128C23 59.2028 22.69 58.3828 21.98 58.0728C20.86 57.5828 19.66 57.3328 18.43 57.3328C14.03 57.3328 10.36 60.5628 9.67999 64.7728L4.67999 63.8128C3.93999 63.6628 3.38999 63.0028 3.38999 62.2528V57.1528H4.97999C5.75998 57.1528 6.36999 56.5228 6.36999 55.7528C6.36999 54.9828 5.74999 54.3628 4.97999 54.3628H3.38999V52.7728C3.38999 51.9028 4.09999 51.1928 4.97999 51.1928H6.12999C7.52999 51.1928 8.90999 50.9128 10.21 50.3528L27.45 42.9528C28.2 42.6328 28.99 42.4228 29.8 42.3128L36.92 50.6228C38.04 51.9328 39.66 52.6728 41.38 52.6728H75.16C78.89 52.6728 85.55 53.1128 90.49 55.8528H90.09C89.33 55.8528 88.7 56.4728 88.7 57.2428C88.7 58.0128 89.33 58.6328 90.09 58.6328H93.12C93.16 58.8328 93.18 59.0228 93.18 59.2228V61.8228Z" fill="#7C7C7C"/>
<path d="M67.37 49.8729H47.43L40.87 42.2129H47.63C49.81 42.2129 52.01 42.7029 53.98 43.6229L67.37 49.8629V49.8729Z" fill="#F6C42D"/>
<path d="M64.71 61.823H46L42.84 57.603C42.02 56.503 40.71 55.853 39.33 55.853H33.36C32.83 55.853 32.35 56.153 32.11 56.623C31.87 57.093 31.92 57.663 32.24 58.083L35.82 62.863C36.64 63.963 37.95 64.613 39.33 64.613H64.72C65.49 64.613 66.12 63.983 66.12 63.213C66.12 62.443 65.49 61.813 64.72 61.813L64.71 61.823ZM39.33 61.823C38.83 61.823 38.36 61.583 38.06 61.183L36.15 58.643H39.33C39.83 58.643 40.3 58.883 40.6 59.283L42.51 61.823H39.33Z" fill="#7C7C7C"/>
<path d="M18.42 63.3132C16.83 63.3132 15.53 64.6132 15.53 66.2032C15.53 67.7932 16.83 69.0932 18.42 69.0932C20.01 69.0932 21.31 67.7932 21.31 66.2032C21.31 64.6132 20.01 63.3132 18.42 63.3132Z" fill="#7C7C7C"/>
<path d="M81.14 63.3132C79.55 63.3132 78.25 64.6132 78.25 66.2032C78.25 67.7932 79.55 69.0932 81.14 69.0932C82.73 69.0932 84.03 67.7932 84.03 66.2032C84.03 64.6132 82.73 63.3132 81.14 63.3132Z" fill="#7C7C7C"/>
<path d="M10.63 1.73291H4.20002C2.65002 1.73291 1.40002 2.98291 1.40002 4.53291V23.7529C1.40002 25.3029 2.65002 26.5529 4.20002 26.5529H15.35C16.2 26.5529 17.01 26.9429 17.54 27.6129L22.05 33.2929C22.8 34.2329 24.23 34.2329 24.97 33.2929L29.48 27.6129C30.01 26.9429 30.82 26.5529 31.67 26.5529H59.62C61.17 26.5529 62.42 25.3029 62.42 23.7529V4.53291C62.42 2.98291 61.17 1.73291 59.62 1.73291H17.16" stroke="#EC6D64" stroke-width="2.8" stroke-linecap="round" stroke-linejoin="round"/>
<path d="M23.37 20.3928L28 8.24281C28.09 8.01281 28.42 8.01281 28.52 8.24281L33.11 20.3928" stroke="#EC6D64" stroke-width="2.8" stroke-linecap="round" stroke-linejoin="round"/>
<path d="M24.8101 17.3728H31.6801" stroke="#EC6D64" stroke-width="2.8" stroke-linecap="round" stroke-linejoin="round"/>
<path d="M38.6 7.89282V20.2028C38.74 20.2228 42.91 20.2028 42.91 20.2028" stroke="#EC6D64" stroke-width="2.8" stroke-linecap="round" stroke-linejoin="round"/>
<path d="M53.86 8.00317H48.71V20.2132H53.86" stroke="#EC6D64" stroke-width="2.8" stroke-linecap="round" stroke-linejoin="round"/>
<path d="M53.48 14.1128H48.71" stroke="#EC6D64" stroke-width="2.8" stroke-linecap="round" stroke-linejoin="round"/>
<path d="M18.32 9.25276C18.32 9.25276 16.11 7.39276 13.5 8.18276C11.11 8.90276 10.77 11.6628 12.5 12.7928C12.5 12.7928 14.2 13.5528 16.08 14.2428C20.62 15.9128 18.66 20.3028 15.01 20.3028C13.18 20.3028 11.65 19.5028 10.72 18.4728" stroke="#EC6D64" stroke-width="2.8" stroke-linecap="round" stroke-linejoin="round"/>
</svg>
