<svg width="64" height="74" viewBox="0 0 64 74" fill="none" xmlns="http://www.w3.org/2000/svg">
<g clip-path="url(#clip0_8_983)">
<path d="M48.16 29.4601C47.95 29.7601 47.62 29.9201 47.28 29.9201C47.07 29.9201 46.86 29.8601 46.67 29.7301L44.35 28.1201C44.06 27.9201 43.89 27.5901 43.89 27.2401V21.4001C43.89 20.8101 44.37 20.3301 44.96 20.3301C45.55 20.3301 46.03 20.8101 46.03 21.4001V26.6801L47.89 27.9701C48.38 28.3101 48.5 28.9801 48.16 29.4701V29.4601Z" fill="#3AD690"/>
<path d="M58.42 14.24L60.72 11.13C61.06 10.68 61.19 10.12 61.11 9.56C61.02 9 60.73 8.51 60.27 8.18L58.37 6.79C57.44 6.1 56.11 6.3 55.42 7.23L53.08 10.39L53.06 10.42C51.57 9.7 49.97 9.18 48.3 8.87V6.74H50.1C51.29 6.74 52.25 5.78 52.25 4.59V2.15C52.25 0.97 51.28 0 50.1 0H39.79C38.61 0 37.64 0.96 37.64 2.15V4.59C37.64 5.77 38.6 6.74 39.79 6.74H41.6V8.82C33 10.36 26.44 17.77 26.2 26.76C26.2 26.93 26.2 27.1 26.2 27.27C26.2 27.82 26.22 28.37 26.27 28.91C26.37 30.03 26.56 31.13 26.85 32.19H29.09C28.76 31.14 28.54 30.04 28.43 28.91C28.38 28.37 28.35 27.82 28.35 27.27C28.35 18.1 35.78 10.67 44.95 10.67C54.12 10.67 61.55 18.1 61.55 27.27C61.55 28.99 61.29 30.64 60.81 32.2H60.78C59.66 35.78 57.33 38.9 54.09 41.03H54.23L57.46 41.14C60.16 38.74 62.08 35.64 63.02 32.19H63.05C63.48 30.62 63.71 28.96 63.71 27.26C63.71 22.2 61.7 17.6 58.44 14.23L58.42 14.24ZM39.8 4.59V2.15H50.12V4.59H39.81H39.8ZM46.16 8.6C45.36 8.55 44.56 8.55 43.76 8.6V6.73H46.16V8.6ZM56.81 12.8C56.22 12.32 55.6 11.87 54.96 11.46L54.98 11.43L57.13 8.53L58.97 9.88L56.83 12.77L56.81 12.79V12.8Z" fill="#EC6D64"/>
<path d="M58.96 27.27C58.96 27.38 58.96 27.49 58.96 27.59C58.96 27.62 58.96 27.65 58.96 27.68C58.96 27.74 58.96 27.8 58.96 27.86C58.96 27.89 58.96 27.91 58.96 27.94C58.96 28 58.96 28.06 58.96 28.12C58.96 28.18 58.96 28.23 58.95 28.29C58.95 28.37 58.94 28.45 58.93 28.53C58.93 28.58 58.93 28.64 58.91 28.69C58.9 28.81 58.88 28.93 58.87 29.05C58.87 29.11 58.86 29.1699 58.85 29.2299C58.85 29.2899 58.83 29.34 58.83 29.4C58.83 29.42 58.83 29.43 58.83 29.45C58.83 29.51 58.81 29.58 58.8 29.6399C58.79 29.7199 58.77 29.8 58.76 29.88C58.76 29.91 58.75 29.9499 58.74 29.9799C58.74 30.02 58.73 30.0599 58.72 30.09C58.72 30.13 58.7 30.17 58.7 30.2C58.7 30.24 58.68 30.29 58.67 30.33C58.67 30.37 58.65 30.4199 58.64 30.4599C58.64 30.4599 58.64 30.4699 58.64 30.4799C58.64 30.52 58.62 30.5499 58.61 30.59C58.6 30.6399 58.59 30.68 58.58 30.7299C58.57 30.7799 58.55 30.83 58.54 30.8899C58.54 30.9 58.54 30.91 58.54 30.93C58.53 30.9799 58.51 31.04 58.49 31.09C58.48 31.13 58.47 31.1699 58.46 31.2099C58.44 31.2699 58.43 31.33 58.41 31.3899C58.4 31.43 58.39 31.47 58.37 31.51C58.35 31.56 58.34 31.62 58.32 31.67C58.26 31.85 58.2 32.0199 58.14 32.1899C57.77 33.1699 57.3 34.0999 56.73 34.9599C56.67 35.0499 56.61 35.15 56.54 35.24C55.21 37.14 53.39 38.7199 51.22 39.7799V39.82L50.67 37.68C52.41 36.7299 53.89 35.3599 54.96 33.7099C54.99 33.66 55.03 33.6099 55.06 33.5499C55.06 33.5499 55.07 33.53 55.08 33.52C55.35 33.09 55.6 32.6399 55.81 32.1699C56.51 30.6499 56.9 28.96 56.9 27.21C56.9 20.68 51.57 15.36 45.02 15.36C43.5 15.36 42.04 15.65 40.71 16.17H40.69C40.64 16.19 40.59 16.21 40.55 16.23C40.53 16.23 40.51 16.24 40.5 16.25C40.49 16.26 40.46 16.26 40.45 16.27C40.44 16.27 40.43 16.27 40.42 16.28C40.39 16.29 40.35 16.31 40.32 16.32C40.26 16.35 40.2 16.37 40.14 16.4C40.09 16.42 40.05 16.44 40 16.46C39.96 16.48 39.92 16.5 39.88 16.52C39.84 16.54 39.79 16.56 39.75 16.58C39.66 16.62 39.58 16.67 39.49 16.71C39.45 16.73 39.42 16.75 39.38 16.77C39.35 16.79 39.32 16.8 39.29 16.82C39.26 16.84 39.23 16.85 39.2 16.87C39.17 16.89 39.14 16.9 39.11 16.92C39.08 16.94 39.05 16.95 39.02 16.97C38.99 16.99 38.95 17.01 38.92 17.03C38.89 17.05 38.86 17.07 38.83 17.08C38.77 17.12 38.71 17.15 38.65 17.19C38.61 17.21 38.57 17.24 38.53 17.27C38.49 17.3 38.45 17.32 38.41 17.35C38.33 17.4 38.26 17.45 38.18 17.51C38.14 17.54 38.1 17.56 38.07 17.59C37.99 17.64 37.92 17.7 37.85 17.76C37.81 17.79 37.78 17.82 37.74 17.84C37.7 17.87 37.66 17.91 37.62 17.94C37.58 17.97 37.54 18.01 37.5 18.04C37.46 18.07 37.42 18.1 37.39 18.14C37.37 18.16 37.34 18.18 37.32 18.2C37.31 18.21 37.29 18.22 37.28 18.23C37.28 18.23 37.27 18.23 37.26 18.24C37.26 18.24 37.25 18.25 37.24 18.26C37.22 18.28 37.2 18.29 37.18 18.31C37.13 18.35 37.08 18.39 37.04 18.44C37.04 18.44 37.03 18.44 37.02 18.45C36.99 18.48 36.96 18.5 36.94 18.53C36.9 18.56 36.86 18.6 36.83 18.64C36.83 18.64 36.82 18.65 36.81 18.66C36.78 18.69 36.74 18.73 36.71 18.76L36.69 18.78C36.62 18.85 36.55 18.91 36.49 18.98C36.47 19 36.46 19.01 36.44 19.03C36.42 19.05 36.39 19.08 36.37 19.1C36.34 19.13 36.31 19.16 36.28 19.19L36.26 19.21C36.26 19.21 36.2 19.27 36.18 19.3C36.16 19.32 36.15 19.33 36.14 19.35C36.12 19.37 36.11 19.39 36.09 19.41C36.07 19.43 36.05 19.46 36.03 19.48C35.99 19.53 35.95 19.57 35.91 19.62C35.85 19.69 35.79 19.76 35.74 19.83C35.71 19.87 35.68 19.9 35.65 19.94C35.62 19.98 35.59 20.01 35.57 20.05C35.51 20.12 35.46 20.2 35.41 20.27C35.38 20.31 35.36 20.34 35.33 20.38C35.3 20.42 35.28 20.46 35.25 20.49C35.22 20.53 35.2 20.57 35.17 20.6C35.17 20.61 35.15 20.63 35.14 20.64C35.14 20.65 35.13 20.66 35.12 20.68C35.12 20.68 35.12 20.69 35.11 20.7C35.11 20.7 35.11 20.7 35.11 20.71C35.11 20.71 35.11 20.71 35.11 20.72C35.1 20.74 35.09 20.75 35.08 20.77C35.07 20.79 35.06 20.8 35.05 20.82C35.04 20.84 35.02 20.86 35.01 20.88C35.01 20.89 34.99 20.91 34.99 20.92C34.96 20.97 34.92 21.03 34.89 21.09C34.89 21.09 34.89 21.1 34.88 21.11C34.88 21.12 34.86 21.14 34.85 21.15C34.85 21.15 34.84 21.17 34.83 21.18C34.83 21.18 34.83 21.2 34.82 21.2C34.82 21.21 34.81 21.22 34.8 21.24C34.78 21.27 34.76 21.3 34.75 21.34C34.75 21.34 34.75 21.35 34.74 21.36C34.74 21.36 34.74 21.36 34.74 21.37C34.74 21.37 34.74 21.39 34.73 21.4C34.73 21.4 34.73 21.4 34.73 21.41C34.71 21.45 34.69 21.49 34.67 21.52C34.67 21.52 34.67 21.52 34.67 21.53C34.67 21.53 34.67 21.54 34.66 21.55C34.65 21.57 34.63 21.6 34.62 21.62C34.59 21.67 34.57 21.71 34.55 21.76C34.5 21.86 34.45 21.95 34.41 22.05C33.68 23.59 33.27 25.32 33.27 27.14C33.27 27.7 33.31 28.24 33.38 28.78C33.54 29.93 33.86 31.04 34.33 32.06H32.01C31.62 31.02 31.35 29.92 31.22 28.78C31.16 28.24 31.12 27.7 31.12 27.14C31.12 26.97 31.12 26.8 31.12 26.63C31.14 25.96 31.22 25.3 31.33 24.65C31.35 24.56 31.36 24.47 31.38 24.37C31.38 24.32 31.4 24.27 31.41 24.22C31.42 24.16 31.43 24.11 31.45 24.05C31.46 23.99 31.48 23.94 31.49 23.88C31.5 23.82 31.52 23.76 31.53 23.7C31.54 23.65 31.56 23.6 31.57 23.55C31.58 23.5 31.6 23.44 31.61 23.39C31.61 23.36 31.63 23.32 31.64 23.29C31.66 23.23 31.67 23.18 31.69 23.12C31.7 23.08 31.71 23.05 31.72 23.01C31.73 22.98 31.74 22.94 31.75 22.91C31.78 22.8 31.82 22.69 31.86 22.59C31.88 22.54 31.89 22.49 31.91 22.44C31.93 22.38 31.95 22.32 31.98 22.26C31.98 22.26 31.98 22.25 31.98 22.24C32 22.18 32.03 22.12 32.05 22.06C32.07 22 32.09 21.95 32.12 21.89C32.13 21.86 32.15 21.82 32.16 21.79C32.19 21.72 32.22 21.65 32.25 21.59C32.27 21.54 32.29 21.49 32.31 21.44C32.34 21.38 32.37 21.31 32.4 21.25C32.42 21.22 32.43 21.18 32.45 21.15C32.51 21.03 32.56 20.92 32.62 20.8C32.65 20.75 32.68 20.69 32.7 20.64C32.71 20.62 32.72 20.6 32.73 20.58C32.74 20.56 32.75 20.54 32.76 20.52C32.8 20.45 32.84 20.38 32.88 20.31C32.93 20.22 32.99 20.12 33.04 20.03C33.07 19.98 33.1 19.93 33.13 19.89C33.14 19.87 33.16 19.84 33.17 19.82C33.18 19.8 33.2 19.77 33.21 19.75C33.27 19.66 33.33 19.56 33.39 19.47C33.45 19.38 33.51 19.29 33.57 19.2C33.6 19.15 33.63 19.11 33.66 19.07C33.71 19 33.76 18.94 33.8 18.87C33.85 18.8 33.9 18.74 33.95 18.67C33.98 18.63 34.02 18.58 34.05 18.54C34.12 18.45 34.19 18.37 34.26 18.28C34.29 18.24 34.33 18.2 34.36 18.15C34.47 18.02 34.57 17.9 34.68 17.78C34.8 17.64 34.93 17.51 35.06 17.37C35.15 17.28 35.23 17.19 35.32 17.11C35.41 17.02 35.5 16.94 35.59 16.85C35.64 16.81 35.68 16.77 35.73 16.72C35.78 16.68 35.82 16.64 35.87 16.6C35.92 16.56 35.97 16.51 36.02 16.47C36.05 16.44 36.08 16.42 36.11 16.4C36.14 16.37 36.18 16.34 36.21 16.31C36.23 16.3 36.24 16.28 36.26 16.27C36.28 16.25 36.3 16.24 36.32 16.22C36.35 16.19 36.39 16.16 36.43 16.14C36.47 16.11 36.5 16.08 36.54 16.06C36.61 16 36.69 15.94 36.77 15.89C36.81 15.86 36.86 15.83 36.9 15.79C36.96 15.74 37.03 15.7 37.09 15.66C37.13 15.63 37.17 15.6 37.22 15.57C37.27 15.53 37.32 15.5 37.38 15.46C37.52 15.37 37.65 15.28 37.79 15.2C37.83 15.18 37.86 15.16 37.9 15.13C37.98 15.08 38.06 15.04 38.13 14.99C38.17 14.97 38.21 14.94 38.25 14.92C38.3 14.89 38.35 14.86 38.41 14.83C38.46 14.8 38.52 14.77 38.57 14.74C38.59 14.73 38.61 14.72 38.64 14.71C38.7 14.68 38.77 14.64 38.84 14.61C38.88 14.59 38.93 14.57 38.97 14.55C39.03 14.52 39.09 14.49 39.15 14.46C39.18 14.45 39.21 14.43 39.24 14.42C39.53 14.29 39.82 14.16 40.12 14.05C40.17 14.03 40.22 14.01 40.27 13.99C40.31 13.98 40.35 13.96 40.39 13.95C40.44 13.93 40.5 13.91 40.55 13.89C40.62 13.87 40.68 13.84 40.75 13.82C40.79 13.81 40.84 13.79 40.88 13.78C40.93 13.76 40.97 13.75 41.02 13.74C41.02 13.74 41.02 13.74 41.03 13.74C41.05 13.74 41.06 13.74 41.08 13.73C41.1 13.73 41.13 13.72 41.15 13.71C41.17 13.71 41.2 13.7 41.22 13.69C41.22 13.69 41.24 13.69 41.25 13.69C41.34 13.66 41.42 13.64 41.51 13.62C41.54 13.62 41.58 13.6 41.61 13.59C41.62 13.59 41.64 13.59 41.65 13.58C41.69 13.57 41.73 13.56 41.78 13.55C41.82 13.55 41.86 13.53 41.9 13.52C41.93 13.52 41.96 13.51 41.99 13.5C41.99 13.5 42 13.5 42.01 13.5C42.1 13.48 42.2 13.46 42.29 13.44C42.34 13.44 42.38 13.42 42.43 13.41C42.48 13.41 42.52 13.39 42.57 13.38C42.57 13.38 42.59 13.38 42.6 13.38C42.64 13.38 42.68 13.37 42.73 13.36H42.75C42.8 13.36 42.85 13.34 42.9 13.34C42.95 13.34 43 13.32 43.04 13.32C43.11 13.31 43.18 13.3 43.25 13.29C43.32 13.29 43.39 13.27 43.46 13.26C43.49 13.26 43.52 13.26 43.56 13.25C43.6 13.25 43.63 13.25 43.67 13.24C43.67 13.24 43.69 13.24 43.7 13.24C43.86 13.22 44.03 13.21 44.19 13.2C44.23 13.2 44.27 13.2 44.31 13.2C44.34 13.2 44.38 13.2 44.41 13.2C44.45 13.2 44.5 13.2 44.54 13.2C44.59 13.2 44.63 13.2 44.68 13.2C44.71 13.2 44.75 13.2 44.78 13.2C44.89 13.2 45 13.2 45.1 13.2C52.84 13.2 59.12 19.48 59.12 27.22L58.96 27.27Z" fill="#EC6D64"/>
<path d="M51 51.0099H44.79C43.31 51.0099 42.12 52.2099 42.12 53.6799V54.9699C42.12 56.4399 43.31 57.6399 44.79 57.6399H50.18C51.65 57.6399 52.84 56.4399 52.84 54.9699V52.8499C52.84 51.8299 52.02 51.0099 51.01 51.0099H51ZM50.68 54.9699C50.68 55.2499 50.45 55.4799 50.17 55.4799H44.78C44.49 55.4799 44.26 55.2499 44.26 54.9699V53.6799C44.26 53.3999 44.5 53.1599 44.78 53.1599H50.68V54.9699ZM15.3 51.0099H9.09C8.07 51.0099 7.26 51.8399 7.26 52.8499V54.9699C7.26 56.4399 8.45 57.6399 9.92 57.6399H15.31C16.79 57.6399 17.98 56.4399 17.98 54.9699V53.6799C17.98 52.2099 16.79 51.0099 15.31 51.0099H15.3ZM15.82 54.9699C15.82 55.2499 15.59 55.4799 15.3 55.4799H9.91C9.63 55.4799 9.4 55.2499 9.4 54.9699V53.1599H15.3C15.58 53.1599 15.82 53.3999 15.82 53.6799V54.9699ZM48.04 43.5799L47.4 41.0799L46.87 38.9999L46.56 37.7999C46.25 36.5699 45.69 36.1299 44.43 36.1299H32.8C32.21 36.1299 31.73 36.6099 31.73 37.1999C31.73 37.2499 31.73 37.2899 31.74 37.3399C31.79 37.7599 32.08 38.0899 32.45 38.2199C32.57 38.2599 32.68 38.2799 32.8 38.2799H44.46C44.46 38.2799 44.54 38.6199 44.69 39.1499C44.83 39.7099 45.03 40.4799 45.23 41.2999C45.45 42.1499 45.68 43.0599 45.89 43.8599C46.15 44.8899 46.36 45.7099 46.43 45.9799C47.15 45.9199 47.87 45.8199 48.57 45.6899L48.04 43.6099V43.5799ZM15.3 51.0099H9.09C8.07 51.0099 7.26 51.8399 7.26 52.8499V54.9699C7.26 56.4399 8.45 57.6399 9.92 57.6399H15.31C16.79 57.6399 17.98 56.4399 17.98 54.9699V53.6799C17.98 52.2099 16.79 51.0099 15.31 51.0099H15.3ZM15.82 54.9699C15.82 55.2499 15.59 55.4799 15.3 55.4799H9.91C9.63 55.4799 9.4 55.2499 9.4 54.9699V53.1599H15.3C15.58 53.1599 15.82 53.3999 15.82 53.6799V54.9699ZM51 51.0099H44.79C43.31 51.0099 42.12 52.2099 42.12 53.6799V54.9699C42.12 56.4399 43.31 57.6399 44.79 57.6399H50.18C51.65 57.6399 52.84 56.4399 52.84 54.9699V52.8499C52.84 51.8299 52.02 51.0099 51.01 51.0099H51ZM50.68 54.9699C50.68 55.2499 50.45 55.4799 50.17 55.4799H44.78C44.49 55.4799 44.26 55.2499 44.26 54.9699V53.6799C44.26 53.3999 44.5 53.1599 44.78 53.1599H50.68V54.9699ZM51 51.0099H44.79C43.31 51.0099 42.12 52.2099 42.12 53.6799V54.9699C42.12 56.4399 43.31 57.6399 44.79 57.6399H50.18C51.65 57.6399 52.84 56.4399 52.84 54.9699V52.8499C52.84 51.8299 52.02 51.0099 51.01 51.0099H51ZM50.68 54.9699C50.68 55.2499 50.45 55.4799 50.17 55.4799H44.78C44.49 55.4799 44.26 55.2499 44.26 54.9699V53.6799C44.26 53.3999 44.5 53.1599 44.78 53.1599H50.68V54.9699ZM15.3 51.0099H9.09C8.07 51.0099 7.26 51.8399 7.26 52.8499V54.9699C7.26 56.4399 8.45 57.6399 9.92 57.6399H15.31C16.79 57.6399 17.98 56.4399 17.98 54.9699V53.6799C17.98 52.2099 16.79 51.0099 15.31 51.0099H15.3ZM15.82 54.9699C15.82 55.2499 15.59 55.4799 15.3 55.4799H9.91C9.63 55.4799 9.4 55.2499 9.4 54.9699V53.1599H15.3C15.58 53.1599 15.82 53.3999 15.82 53.6799V54.9699ZM15.3 51.0099H9.09C8.07 51.0099 7.26 51.8399 7.26 52.8499V54.9699C7.26 56.4399 8.45 57.6399 9.92 57.6399H15.31C16.79 57.6399 17.98 56.4399 17.98 54.9699V53.6799C17.98 52.2099 16.79 51.0099 15.31 51.0099H15.3ZM15.82 54.9699C15.82 55.2499 15.59 55.4799 15.3 55.4799H9.91C9.63 55.4799 9.4 55.2499 9.4 54.9699V53.1599H15.3C15.58 53.1599 15.82 53.3999 15.82 53.6799V54.9699ZM51 51.0099H44.79C43.31 51.0099 42.12 52.2099 42.12 53.6799V54.9699C42.12 56.4399 43.31 57.6399 44.79 57.6399H50.18C51.65 57.6399 52.84 56.4399 52.84 54.9699V52.8499C52.84 51.8299 52.02 51.0099 51.01 51.0099H51ZM50.68 54.9699C50.68 55.2499 50.45 55.4799 50.17 55.4799H44.78C44.49 55.4799 44.26 55.2499 44.26 54.9699V53.6799C44.26 53.3999 44.5 53.1599 44.78 53.1599H50.68V54.9699ZM51 51.0099H44.79C43.31 51.0099 42.12 52.2099 42.12 53.6799V54.9699C42.12 56.4399 43.31 57.6399 44.79 57.6399H50.18C51.65 57.6399 52.84 56.4399 52.84 54.9699V52.8499C52.84 51.8299 52.02 51.0099 51.01 51.0099H51ZM50.68 54.9699C50.68 55.2499 50.45 55.4799 50.17 55.4799H44.78C44.49 55.4799 44.26 55.2499 44.26 54.9699V53.6799C44.26 53.3999 44.5 53.1599 44.78 53.1599H50.68V54.9699ZM15.3 51.0099H9.09C8.07 51.0099 7.26 51.8399 7.26 52.8499V54.9699C7.26 56.4399 8.45 57.6399 9.92 57.6399H15.31C16.79 57.6399 17.98 56.4399 17.98 54.9699V53.6799C17.98 52.2099 16.79 51.0099 15.31 51.0099H15.3ZM15.82 54.9699C15.82 55.2499 15.59 55.4799 15.3 55.4799H9.91C9.63 55.4799 9.4 55.2499 9.4 54.9699V53.1599H15.3C15.58 53.1599 15.82 53.3999 15.82 53.6799V54.9699ZM57.33 59.7899V52.5699C57.33 50.8799 56.68 49.3399 55.62 48.1899H56.55C58.52 48.1899 60.13 46.5899 60.13 44.6099C60.13 42.9799 59.02 41.5899 57.51 41.1699C57.49 41.1599 57.47 41.1599 57.44 41.1499L54.2 41.0499H54.06L51.45 41.0399L51.15 39.8499V39.8099L50.61 37.7099V37.6799L50.38 36.8199C49.66 33.9899 47.71 32.3699 44.89 32.2099H15.23C12.41 32.3699 10.47 33.9899 9.74 36.8199L8.66 41.0299H3.57C1.6 41.0299 0 42.6299 0 44.5999C0 46.5699 1.6 48.1699 3.57 48.1699H4.46C3.4 49.3299 2.75 50.8799 2.75 52.5699V59.7899C1.64 59.9599 0.79 60.9099 0.79 62.0599V64.2999C0.79 65.3899 1.55 66.2999 2.57 66.5399V70.8799C2.57 72.2299 3.67 73.3299 5.03 73.3299H12.67C14.02 73.3299 15.13 72.2299 15.13 70.8799V66.6099H27.15C27.74 66.6099 28.22 66.1299 28.22 65.5299C28.22 64.9299 27.74 64.4599 27.15 64.4599H3.09C3.02 64.4599 2.94 64.3899 2.94 64.2999V62.0599C2.94 61.9799 3.01 61.9099 3.09 61.9099H56.99C57.06 61.9099 57.14 61.9699 57.14 62.0599V64.2999C57.14 64.3799 57.07 64.4599 56.99 64.4599H32.55C31.96 64.4599 31.48 64.9299 31.48 65.5299C31.48 66.1299 31.96 66.6099 32.55 66.6099H44.94V70.8799C44.94 72.2299 46.04 73.3299 47.4 73.3299H55.04C56.4 73.3299 57.5 72.2299 57.5 70.8799V66.5399C58.52 66.2999 59.28 65.3899 59.28 64.2999V62.0599C59.28 60.9099 58.42 59.9499 57.32 59.7899H57.33ZM4.72 66.6099H12.98V70.8799C12.98 71.0499 12.84 71.1799 12.68 71.1799H5.04C4.87 71.1799 4.73 71.0399 4.73 70.8799V66.6099H4.72ZM56.55 43.1799C57.34 43.1799 57.97 43.8199 57.97 44.5999C57.97 45.3799 57.33 46.0399 56.55 46.0399H52.75L52.35 44.4899L52.01 43.1799H56.55ZM11.83 37.3499C12.35 35.3299 13.62 34.3399 15.71 34.3399H44.44C46.52 34.3399 47.79 35.3199 48.31 37.3499L48.62 38.5699L49.15 40.6499L49.79 43.1499L50.33 45.2299C49.75 45.3999 49.18 45.5399 48.58 45.6599L48.05 43.5799L47.41 41.0799L46.88 38.9999L46.57 37.7999C46.26 36.5699 45.7 36.1299 44.44 36.1299H32.81C32.22 36.1299 31.74 36.6099 31.74 37.1999C31.74 37.2499 31.74 37.2899 31.75 37.3399C31.8 37.7599 32.09 38.0899 32.46 38.2199C32.58 38.2599 32.69 38.2799 32.81 38.2799H44.47C44.47 38.2799 44.55 38.6199 44.7 39.1499C44.84 39.7099 45.04 40.4799 45.24 41.2999C45.46 42.1499 45.69 43.0599 45.9 43.8599C46.16 44.8899 46.37 45.7099 46.44 45.9799C46.45 46.0299 46.46 46.0599 46.46 46.0599H13.66C13.66 46.0599 15.65 38.3099 15.66 38.2899H27.4C27.99 38.2899 28.47 37.8099 28.47 37.2099C28.47 36.6099 27.99 36.1399 27.4 36.1399H15.7C14.43 36.1399 13.88 36.5699 13.56 37.8099L11.44 46.0699H9.59L11.82 37.3699L11.83 37.3499ZM3.57 46.0199C2.78 46.0199 2.15 45.3799 2.15 44.5999C2.15 43.8199 2.79 43.1799 3.57 43.1799H8.11L7.38 46.0299H3.58L3.57 46.0199ZM26.35 59.7699H24.89L22.81 54.7699C22.68 54.4799 22.67 53.9799 22.9 53.6399C23.11 53.3299 23.53 53.1599 24.14 53.1599H26.35V59.7699ZM31.58 59.7699H28.51V53.1599H31.58V59.7699ZM37.28 54.7699L35.19 59.7699H33.72V53.1599H35.94C36.55 53.1599 36.97 53.3299 37.18 53.6399C37.41 53.9899 37.4 54.4799 37.27 54.7699H37.28ZM55.17 59.7699H37.52L39.26 55.5999C39.58 54.8299 39.7 53.5499 38.97 52.4499C38.36 51.5299 37.28 51.0099 35.95 51.0099H24.14C22.81 51.0099 21.73 51.5199 21.12 52.4499C20.39 53.5499 20.5 54.8399 20.83 55.5999L22.57 59.7699H4.9V52.5699C4.9 50.4599 6.41 48.6899 8.41 48.2699C8.7 48.2099 9.01 48.1899 9.3 48.1899H50.77C53.2 48.1899 55.17 50.1499 55.17 52.5699V59.7699ZM55.36 70.8799C55.36 71.0499 55.21 71.1799 55.05 71.1799H47.41C47.24 71.1799 47.1 71.0399 47.1 70.8799V66.6099H55.37V70.8799H55.36ZM51 51.0099H44.79C43.31 51.0099 42.12 52.2099 42.12 53.6799V54.9699C42.12 56.4399 43.31 57.6399 44.79 57.6399H50.18C51.65 57.6399 52.84 56.4399 52.84 54.9699V52.8499C52.84 51.8299 52.02 51.0099 51.01 51.0099H51ZM50.68 54.9699C50.68 55.2499 50.45 55.4799 50.17 55.4799H44.78C44.49 55.4799 44.26 55.2499 44.26 54.9699V53.6799C44.26 53.3999 44.5 53.1599 44.78 53.1599H50.68V54.9699ZM15.3 51.0099H9.09C8.07 51.0099 7.26 51.8399 7.26 52.8499V54.9699C7.26 56.4399 8.45 57.6399 9.92 57.6399H15.31C16.79 57.6399 17.98 56.4399 17.98 54.9699V53.6799C17.98 52.2099 16.79 51.0099 15.31 51.0099H15.3ZM15.82 54.9699C15.82 55.2499 15.59 55.4799 15.3 55.4799H9.91C9.63 55.4799 9.4 55.2499 9.4 54.9699V53.1599H15.3C15.58 53.1599 15.82 53.3999 15.82 53.6799V54.9699ZM15.3 51.0099H9.09C8.07 51.0099 7.26 51.8399 7.26 52.8499V54.9699C7.26 56.4399 8.45 57.6399 9.92 57.6399H15.31C16.79 57.6399 17.98 56.4399 17.98 54.9699V53.6799C17.98 52.2099 16.79 51.0099 15.31 51.0099H15.3ZM15.82 54.9699C15.82 55.2499 15.59 55.4799 15.3 55.4799H9.91C9.63 55.4799 9.4 55.2499 9.4 54.9699V53.1599H15.3C15.58 53.1599 15.82 53.3999 15.82 53.6799V54.9699ZM51 51.0099H44.79C43.31 51.0099 42.12 52.2099 42.12 53.6799V54.9699C42.12 56.4399 43.31 57.6399 44.79 57.6399H50.18C51.65 57.6399 52.84 56.4399 52.84 54.9699V52.8499C52.84 51.8299 52.02 51.0099 51.01 51.0099H51ZM50.68 54.9699C50.68 55.2499 50.45 55.4799 50.17 55.4799H44.78C44.49 55.4799 44.26 55.2499 44.26 54.9699V53.6799C44.26 53.3999 44.5 53.1599 44.78 53.1599H50.68V54.9699ZM51 51.0099H44.79C43.31 51.0099 42.12 52.2099 42.12 53.6799V54.9699C42.12 56.4399 43.31 57.6399 44.79 57.6399H50.18C51.65 57.6399 52.84 56.4399 52.84 54.9699V52.8499C52.84 51.8299 52.02 51.0099 51.01 51.0099H51ZM50.68 54.9699C50.68 55.2499 50.45 55.4799 50.17 55.4799H44.78C44.49 55.4799 44.26 55.2499 44.26 54.9699V53.6799C44.26 53.3999 44.5 53.1599 44.78 53.1599H50.68V54.9699ZM15.3 51.0099H9.09C8.07 51.0099 7.26 51.8399 7.26 52.8499V54.9699C7.26 56.4399 8.45 57.6399 9.92 57.6399H15.31C16.79 57.6399 17.98 56.4399 17.98 54.9699V53.6799C17.98 52.2099 16.79 51.0099 15.31 51.0099H15.3ZM15.82 54.9699C15.82 55.2499 15.59 55.4799 15.3 55.4799H9.91C9.63 55.4799 9.4 55.2499 9.4 54.9699V53.1599H15.3C15.58 53.1599 15.82 53.3999 15.82 53.6799V54.9699ZM15.3 51.0099H9.09C8.07 51.0099 7.26 51.8399 7.26 52.8499V54.9699C7.26 56.4399 8.45 57.6399 9.92 57.6399H15.31C16.79 57.6399 17.98 56.4399 17.98 54.9699V53.6799C17.98 52.2099 16.79 51.0099 15.31 51.0099H15.3ZM15.82 54.9699C15.82 55.2499 15.59 55.4799 15.3 55.4799H9.91C9.63 55.4799 9.4 55.2499 9.4 54.9699V53.1599H15.3C15.58 53.1599 15.82 53.3999 15.82 53.6799V54.9699ZM51 51.0099H44.79C43.31 51.0099 42.12 52.2099 42.12 53.6799V54.9699C42.12 56.4399 43.31 57.6399 44.79 57.6399H50.18C51.65 57.6399 52.84 56.4399 52.84 54.9699V52.8499C52.84 51.8299 52.02 51.0099 51.01 51.0099H51ZM50.68 54.9699C50.68 55.2499 50.45 55.4799 50.17 55.4799H44.78C44.49 55.4799 44.26 55.2499 44.26 54.9699V53.6799C44.26 53.3999 44.5 53.1599 44.78 53.1599H50.68V54.9699ZM51 51.0099H44.79C43.31 51.0099 42.12 52.2099 42.12 53.6799V54.9699C42.12 56.4399 43.31 57.6399 44.79 57.6399H50.18C51.65 57.6399 52.84 56.4399 52.84 54.9699V52.8499C52.84 51.8299 52.02 51.0099 51.01 51.0099H51ZM50.68 54.9699C50.68 55.2499 50.45 55.4799 50.17 55.4799H44.78C44.49 55.4799 44.26 55.2499 44.26 54.9699V53.6799C44.26 53.3999 44.5 53.1599 44.78 53.1599H50.68V54.9699ZM15.3 51.0099H9.09C8.07 51.0099 7.26 51.8399 7.26 52.8499V54.9699C7.26 56.4399 8.45 57.6399 9.92 57.6399H15.31C16.79 57.6399 17.98 56.4399 17.98 54.9699V53.6799C17.98 52.2099 16.79 51.0099 15.31 51.0099H15.3ZM15.82 54.9699C15.82 55.2499 15.59 55.4799 15.3 55.4799H9.91C9.63 55.4799 9.4 55.2499 9.4 54.9699V53.1599H15.3C15.58 53.1599 15.82 53.3999 15.82 53.6799V54.9699ZM51 51.0099H44.79C43.31 51.0099 42.12 52.2099 42.12 53.6799V54.9699C42.12 56.4399 43.31 57.6399 44.79 57.6399H50.18C51.65 57.6399 52.84 56.4399 52.84 54.9699V52.8499C52.84 51.8299 52.02 51.0099 51.01 51.0099H51ZM50.68 54.9699C50.68 55.2499 50.45 55.4799 50.17 55.4799H44.78C44.49 55.4799 44.26 55.2499 44.26 54.9699V53.6799C44.26 53.3999 44.5 53.1599 44.78 53.1599H50.68V54.9699ZM15.3 51.0099H9.09C8.07 51.0099 7.26 51.8399 7.26 52.8499V54.9699C7.26 56.4399 8.45 57.6399 9.92 57.6399H15.31C16.79 57.6399 17.98 56.4399 17.98 54.9699V53.6799C17.98 52.2099 16.79 51.0099 15.31 51.0099H15.3ZM15.82 54.9699C15.82 55.2499 15.59 55.4799 15.3 55.4799H9.91C9.63 55.4799 9.4 55.2499 9.4 54.9699V53.1599H15.3C15.58 53.1599 15.82 53.3999 15.82 53.6799V54.9699ZM51 51.0099H44.79C43.31 51.0099 42.12 52.2099 42.12 53.6799V54.9699C42.12 56.4399 43.31 57.6399 44.79 57.6399H50.18C51.65 57.6399 52.84 56.4399 52.84 54.9699V52.8499C52.84 51.8299 52.02 51.0099 51.01 51.0099H51ZM50.68 54.9699C50.68 55.2499 50.45 55.4799 50.17 55.4799H44.78C44.49 55.4799 44.26 55.2499 44.26 54.9699V53.6799C44.26 53.3999 44.5 53.1599 44.78 53.1599H50.68V54.9699ZM15.3 51.0099H9.09C8.07 51.0099 7.26 51.8399 7.26 52.8499V54.9699C7.26 56.4399 8.45 57.6399 9.92 57.6399H15.31C16.79 57.6399 17.98 56.4399 17.98 54.9699V53.6799C17.98 52.2099 16.79 51.0099 15.31 51.0099H15.3ZM15.82 54.9699C15.82 55.2499 15.59 55.4799 15.3 55.4799H9.91C9.63 55.4799 9.4 55.2499 9.4 54.9699V53.1599H15.3C15.58 53.1599 15.82 53.3999 15.82 53.6799V54.9699ZM48.04 43.5799L47.4 41.0799L46.87 38.9999L46.56 37.7999C46.25 36.5699 45.69 36.1299 44.43 36.1299H32.8C32.21 36.1299 31.73 36.6099 31.73 37.1999C31.73 37.2499 31.73 37.2899 31.74 37.3399C31.79 37.7599 32.08 38.0899 32.45 38.2199C32.57 38.2599 32.68 38.2799 32.8 38.2799H44.46C44.46 38.2799 44.54 38.6199 44.69 39.1499C44.83 39.7099 45.03 40.4799 45.23 41.2999C45.45 42.1499 45.68 43.0599 45.89 43.8599C46.15 44.8899 46.36 45.7099 46.43 45.9799C47.15 45.9199 47.87 45.8199 48.57 45.6899L48.04 43.6099V43.5799ZM34.13 32.1899H26.85L34.14 32.1999C34.13 32.1999 34.13 32.1899 34.13 32.1899ZM15.3 51.0099H9.09C8.07 51.0099 7.26 51.8399 7.26 52.8499V54.9699C7.26 56.4399 8.45 57.6399 9.92 57.6399H15.31C16.79 57.6399 17.98 56.4399 17.98 54.9699V53.6799C17.98 52.2099 16.79 51.0099 15.31 51.0099H15.3ZM15.82 54.9699C15.82 55.2499 15.59 55.4799 15.3 55.4799H9.91C9.63 55.4799 9.4 55.2499 9.4 54.9699V53.1599H15.3C15.58 53.1599 15.82 53.3999 15.82 53.6799V54.9699ZM51 51.0099H44.79C43.31 51.0099 42.12 52.2099 42.12 53.6799V54.9699C42.12 56.4399 43.31 57.6399 44.79 57.6399H50.18C51.65 57.6399 52.84 56.4399 52.84 54.9699V52.8499C52.84 51.8299 52.02 51.0099 51.01 51.0099H51ZM50.68 54.9699C50.68 55.2499 50.45 55.4799 50.17 55.4799H44.78C44.49 55.4799 44.26 55.2499 44.26 54.9699V53.6799C44.26 53.3999 44.5 53.1599 44.78 53.1599H50.68V54.9699Z" fill="#7C7C7C"/>
<path d="M50.68 53.1599V54.9699C50.68 55.2499 50.45 55.4799 50.17 55.4799H44.78C44.49 55.4799 44.26 55.2499 44.26 54.9699V53.6799C44.26 53.3999 44.5 53.1599 44.78 53.1599H50.68Z" fill="#F6C42D"/>
<path d="M15.82 53.6799V54.9699C15.82 55.2499 15.59 55.4799 15.3 55.4799H9.91C9.63 55.4799 9.4 55.2499 9.4 54.9699V53.1599H15.3C15.58 53.1599 15.82 53.3999 15.82 53.6799Z" fill="#F6C42D"/>
<path d="M26.35 53.1599V59.7699H24.89L22.81 54.7699C22.68 54.4799 22.67 53.9799 22.9 53.6399C23.11 53.3299 23.53 53.1599 24.14 53.1599H26.35Z" fill="white"/>
<path d="M31.58 53.1599H28.51V59.7699H31.58V53.1599Z" fill="white"/>
<path d="M37.28 54.7699L35.19 59.7699H33.72V53.1599H35.94C36.55 53.1599 36.97 53.3299 37.18 53.6399C37.41 53.9899 37.4 54.4799 37.27 54.7699H37.28Z" fill="white"/>
</g>
<defs>
<clipPath id="clip0_8_983">
<rect width="63.69" height="73.33" fill="white"/>
</clipPath>
</defs>
</svg>
