<svg width="74" height="74" viewBox="0 0 74 74" fill="none" xmlns="http://www.w3.org/2000/svg">
<g clip-path="url(#clip0_8_996)">
<path d="M67.66 21.8699C67.31 21.3799 66.88 20.9499 66.39 20.5999C66.88 20.2499 67.31 19.8199 67.66 19.3299C68.01 19.8199 68.44 20.2499 68.93 20.5999C68.44 20.9499 68.01 21.3799 67.66 21.8699ZM72.26 19.5199C70.32 19.5199 68.74 17.9399 68.74 15.9999C68.74 15.4099 68.26 14.9199 67.66 14.9199C67.06 14.9199 66.58 15.3999 66.58 15.9999C66.58 17.9399 65 19.5199 63.06 19.5199C62.47 19.5199 61.98 19.9999 61.98 20.5999C61.98 21.1999 62.46 21.6799 63.06 21.6799C65 21.6799 66.58 23.2599 66.58 25.1999C66.58 25.7899 67.06 26.2799 67.66 26.2799C68.26 26.2799 68.74 25.7999 68.74 25.1999C68.74 23.2599 70.32 21.6799 72.26 21.6799C72.85 21.6799 73.34 21.1999 73.34 20.5999C73.34 19.9999 72.86 19.5199 72.26 19.5199Z" fill="#75C9FC"/>
<path d="M5.67001 19.3199C6.02001 19.8099 6.45001 20.2399 6.94001 20.5899C6.45001 20.9399 6.02001 21.3699 5.67001 21.8599C5.32001 21.3699 4.89001 20.9399 4.40001 20.5899C4.89001 20.2399 5.32001 19.8099 5.67001 19.3199ZM4.59001 25.1899C4.59001 25.7799 5.07001 26.2699 5.67001 26.2699C6.27001 26.2699 6.75001 25.7899 6.75001 25.1899C6.75001 23.2499 8.33001 21.6699 10.27 21.6699C10.86 21.6699 11.35 21.1899 11.35 20.5899C11.35 19.9899 10.87 19.5099 10.27 19.5099C8.33001 19.5099 6.75001 17.9299 6.75001 15.9899C6.75001 15.3999 6.27001 14.9099 5.67001 14.9099C5.07001 14.9099 4.59001 15.3899 4.59001 15.9899C4.59001 17.9299 3.01001 19.5099 1.07001 19.5099C0.480006 19.5099 -0.00999451 19.9899 -0.00999451 20.5899C-0.00999451 21.1899 0.470006 21.6699 1.07001 21.6699C3.01001 21.6699 4.59001 23.2499 4.59001 25.1899Z" fill="#75C9FC"/>
<path d="M36.67 4.74999C37.2 5.57999 37.91 6.28999 38.74 6.81999C37.91 7.34999 37.2 8.05999 36.67 8.88999C36.14 8.05999 35.43 7.34999 34.6 6.81999C35.43 6.28999 36.14 5.57999 36.67 4.74999ZM30.93 7.88999C33.5 7.88999 35.59 9.97999 35.59 12.55C35.59 13.14 36.07 13.63 36.67 13.63C37.27 13.63 37.75 13.15 37.75 12.55C37.75 9.97999 39.84 7.88999 42.41 7.88999C43 7.88999 43.49 7.40999 43.49 6.80999C43.49 6.20999 43.01 5.72999 42.41 5.72999C39.84 5.72999 37.75 3.63999 37.75 1.06999C37.75 0.47999 37.27 -0.0100098 36.67 -0.0100098C36.07 -0.0100098 35.59 0.46999 35.59 1.06999C35.59 3.63999 33.5 5.72999 30.93 5.72999C30.34 5.72999 29.85 6.20999 29.85 6.80999C29.85 7.40999 30.33 7.88999 30.93 7.88999Z" fill="#75C9FC"/>
<path d="M17.8 38.02L21.24 28.26C21.24 28.26 21.28 28.2199 21.3 28.2199H51.74C51.74 28.2199 51.79 28.24 51.8 28.26L55.24 38.02H17.8ZM57.5 39.61C57.69 39.34 57.74 38.9999 57.63 38.6899L53.71 27.59C53.42 26.76 52.63 26.2 51.75 26.2H21.31C20.43 26.2 19.64 26.76 19.35 27.59L15.43 38.6899C15.2 39.3299 15.7 40.0299 16.38 40.0299H56.68C57.01 40.0299 57.31 39.8699 57.5 39.5999V39.61Z" fill="#7C7C7C"/>
<path d="M55.85 51.99C52.27 51.99 49.48 53.85 49.48 56.22C49.48 58.59 52.28 60.45 55.85 60.45C59.42 60.45 62.23 58.59 62.23 56.22C62.23 53.85 59.42 51.99 55.85 51.99ZM55.85 58.43C53.36 58.43 51.49 57.26 51.49 56.22C51.49 55.18 53.36 54.01 55.85 54.01C58.34 54.01 60.22 55.18 60.22 56.22C60.22 57.26 58.35 58.43 55.85 58.43Z" fill="#7C7C7C"/>
<path d="M60.22 56.21C60.22 57.26 58.35 58.42 55.85 58.42C53.35 58.42 51.49 57.25 51.49 56.21C51.49 55.17 53.36 54 55.85 54C58.34 54 60.22 55.17 60.22 56.21Z" fill="#F6C42D"/>
<path d="M17.18 51.99C13.6 51.99 10.81 53.85 10.81 56.22C10.81 58.59 13.61 60.45 17.18 60.45C20.75 60.45 23.56 58.59 23.56 56.22C23.56 53.85 20.75 51.99 17.18 51.99ZM17.18 58.43C14.69 58.43 12.82 57.26 12.82 56.22C12.82 55.18 14.69 54.01 17.18 54.01C19.67 54.01 21.55 55.18 21.55 56.22C21.55 57.26 19.68 58.43 17.18 58.43Z" fill="#7C7C7C"/>
<path d="M21.55 56.21C21.55 57.26 19.68 58.42 17.18 58.42C14.68 58.42 12.82 57.25 12.82 56.21C12.82 55.17 14.69 54 17.18 54C19.67 54 21.55 55.17 21.55 56.21Z" fill="#F6C42D"/>
<path d="M67.74 41.24H63.59L64.16 38.96H67.74V41.24ZM65.59 51.15V62.73H47.19V55.14C47.19 52.22 44.81 49.84 41.89 49.84H31.15C28.23 49.84 25.85 52.22 25.85 55.14V62.73H7.45V51.15C7.45 50.46 7.66 49.8 8.06 49.24L12.33 43.26H49.41C49.97 43.26 50.42 42.81 50.42 42.25C50.42 41.69 49.97 41.24 49.41 41.24H13.24L18.2 27.19C18.66 25.88 19.91 25 21.3 25H51.74C53.13 25 54.38 25.88 54.84 27.19L59.8 41.24H53.7C53.14 41.24 52.69 41.69 52.69 42.25C52.69 42.81 53.14 43.26 53.7 43.26H60.7L64.97 49.24C65.37 49.8 65.58 50.46 65.58 51.15H65.59ZM63.44 69.04V71.26C63.44 71.26 63.41 71.33 63.37 71.33H56.93C56.93 71.33 56.86 71.3 56.86 71.26V69.04H63.44ZM16.18 71.25C16.18 71.25 16.15 71.32 16.11 71.32H9.66C9.66 71.32 9.59 71.29 9.59 71.25V69.03H16.17V71.25H16.18ZM65.43 64.74C65 66.06 63.76 67.02 62.3 67.02H10.74C9.28 67.02 8.03 66.06 7.61 64.74H65.43ZM27.86 60.44H45.18V62.72H27.86V60.44ZM28.02 54.13C28.45 52.81 29.69 51.85 31.15 51.85H41.89C43.35 51.85 44.6 52.81 45.02 54.13H28.02ZM27.86 56.15H45.18V58.43H27.86V56.15ZM5.3 41.24V38.96H8.88L9.45 41.24H5.3ZM68.75 36.95H63.38C62.92 36.95 62.52 37.26 62.4 37.71L61.69 40.54L56.74 26.52C55.99 24.4 53.98 22.98 51.74 22.98H21.3C19.06 22.98 17.05 24.4 16.3 26.52L11.35 40.54L10.64 37.71C10.53 37.26 10.13 36.95 9.66 36.95H4.29C3.73 36.95 3.28 37.4 3.28 37.96V42.26C3.28 42.82 3.73 43.27 4.29 43.27H9.85L6.42 48.08C5.77 48.98 5.43 50.05 5.43 51.16V63.75C5.43 65.49 6.28 67.04 7.58 68.01C7.58 68.02 7.58 68.03 7.58 68.05V71.27C7.58 72.42 8.51 73.35 9.66 73.35H16.11C17.26 73.35 18.19 72.42 18.19 71.27V69.05H54.85V71.27C54.85 72.42 55.78 73.35 56.93 73.35H63.37C64.52 73.35 65.45 72.42 65.45 71.27V68.05C65.45 68.05 65.45 68.03 65.45 68.01C66.75 67.04 67.6 65.49 67.6 63.75V51.16C67.6 50.05 67.26 48.98 66.61 48.08L63.18 43.27H68.74C69.3 43.27 69.75 42.82 69.75 42.26V37.96C69.75 37.4 69.3 36.95 68.74 36.95H68.75Z" fill="#7C7C7C"/>
<path d="M13.97 50.78H20.42C20.98 50.78 21.43 50.33 21.43 49.77C21.43 49.21 20.98 48.76 20.42 48.76H13.97C13.41 48.76 12.96 49.21 12.96 49.77C12.96 50.33 13.41 50.78 13.97 50.78Z" fill="#7C7C7C"/>
<path d="M51.63 49.77C51.63 50.33 52.08 50.78 52.64 50.78H59.09C59.65 50.78 60.1 50.33 60.1 49.77C60.1 49.21 59.65 48.76 59.09 48.76H52.64C52.08 48.76 51.63 49.21 51.63 49.77Z" fill="#7C7C7C"/>
</g>
<defs>
<clipPath id="clip0_8_996">
<rect width="73.33" height="73.33" fill="white"/>
</clipPath>
</defs>
</svg>
