<svg width="74" height="74" viewBox="0 0 74 74" fill="none" xmlns="http://www.w3.org/2000/svg">
<g clip-path="url(#clip0_8_1009)">
<path d="M27.46 50.4868H19.76C19.17 50.4868 18.68 50.9668 18.68 51.5668V54.0668C18.68 55.8868 20.16 57.3568 21.97 57.3568H27.45C28.04 57.3568 28.53 56.8668 28.53 56.2768V51.5568C28.53 50.9568 28.04 50.4768 27.45 50.4768L27.46 50.4868ZM26.38 55.2068H21.98C21.35 55.2068 20.84 54.6968 20.84 54.0668V52.6268H26.38V55.2068Z" fill="#7C7C7C"/>
<path d="M26.38 52.6267V55.2067H21.98C21.35 55.2067 20.84 54.6967 20.84 54.0667V52.6267H26.38Z" fill="#F6C42D"/>
<path d="M45.88 57.3568H51.36C53.17 57.3568 54.65 55.8868 54.65 54.0668V51.5568C54.65 50.9668 54.17 50.4868 53.58 50.4868H45.88C45.29 50.4868 44.81 50.9668 44.81 51.5568V56.2768C44.81 56.8668 45.29 57.3468 45.88 57.3468V57.3568Z" fill="#7C7C7C"/>
<path d="M52.5 52.6267V54.0667C52.5 54.6967 51.98 55.2067 51.36 55.2067H46.95V52.6267H52.5Z" fill="#F6C42D"/>
<path d="M42.3 50.4768H31.03C30.44 50.4768 29.95 50.9668 29.95 51.5568V53.0368C29.95 55.5868 32.02 57.6368 34.55 57.6368H38.75C41.3 57.6368 43.35 55.5768 43.35 53.0368V51.5568C43.35 50.9668 42.87 50.4768 42.28 50.4768H42.3ZM41.23 53.0368C41.23 54.3868 40.12 55.4968 38.77 55.4968H34.57C33.22 55.4968 32.12 54.3868 32.12 53.0368V52.6368H41.23V53.0368Z" fill="#7C7C7C"/>
<path d="M41.23 52.6267V53.0267C41.23 54.3767 40.12 55.4867 38.77 55.4867H34.57C33.22 55.4867 32.12 54.3767 32.12 53.0267V52.6267H41.23Z" fill="#EC6D64"/>
<path d="M20.63 13.3068C20.34 13.3068 20.06 13.4568 19.89 13.6968C19.72 13.9368 19.69 14.2468 19.79 14.5268C20.74 17.0368 23.19 18.7268 25.87 18.7268C28 18.7268 30 17.6768 31.22 15.9268C31.5 15.5268 31.97 15.2968 32.48 15.2968H40.83C41.35 15.2968 41.82 15.5368 42.09 15.9268C43.31 17.6768 45.31 18.7268 47.44 18.7268C50.12 18.7268 52.57 17.0368 53.52 14.5268C53.62 14.2468 53.59 13.9468 53.42 13.6968C53.25 13.4568 52.98 13.3068 52.68 13.3068H47.95L47.32 12.2068L47.95 11.1068H52.68C52.97 11.1068 53.25 10.9668 53.42 10.7168C53.59 10.4768 53.62 10.1668 53.52 9.88677C52.57 7.37677 50.12 5.68677 47.44 5.68677C45.31 5.68677 43.31 6.73677 42.09 8.48677C41.81 8.88677 41.34 9.11677 40.83 9.11677H38.54C38.05 9.11677 37.64 9.51677 37.64 10.0168C37.64 10.5168 38.04 10.9168 38.54 10.9168H40.83C41.93 10.9168 42.95 10.3968 43.56 9.51677C44.44 8.24677 45.89 7.48677 47.44 7.48677C48.99 7.48677 50.29 8.18677 51.17 9.31677H47.44C47.12 9.31677 46.82 9.48677 46.66 9.76677L45.51 11.7568C45.35 12.0368 45.35 12.3768 45.51 12.6568L46.66 14.6468C46.82 14.9268 47.12 15.0968 47.44 15.0968H51.17C50.29 16.2268 48.92 16.9268 47.44 16.9268C45.89 16.9268 44.44 16.1668 43.56 14.8968C42.95 14.0168 41.93 13.4968 40.83 13.4968H32.48C31.38 13.4968 30.36 14.0268 29.75 14.8968C28.87 16.1668 27.42 16.9268 25.87 16.9268C24.32 16.9268 23.02 16.2268 22.14 15.0968H25.87C26.19 15.0968 26.49 14.9268 26.65 14.6468L27.8 12.6568C27.96 12.3768 27.96 12.0368 27.8 11.7568L26.65 9.76677C26.49 9.48677 26.19 9.31677 25.87 9.31677H22.14C23.02 8.18677 24.39 7.48677 25.87 7.48677C27.42 7.48677 28.87 8.24677 29.75 9.51677C30.36 10.3968 31.38 10.9168 32.48 10.9168H34.37C34.87 10.9168 35.27 10.5168 35.27 10.0168C35.27 9.51677 34.87 9.11677 34.37 9.11677H32.48C31.96 9.11677 31.49 8.87677 31.22 8.48677C30 6.73677 28 5.68677 25.87 5.68677C23.19 5.68677 20.74 7.37677 19.79 9.88677C19.69 10.1568 19.72 10.4668 19.89 10.7168C20.06 10.9568 20.33 11.1068 20.63 11.1068H25.36L25.99 12.2068L25.36 13.3068H20.63Z" fill="#3AD690"/>
<path d="M72.26 67.5567H70.77V23.7467H72.26C72.63 23.7467 72.97 23.5567 73.17 23.2367C73.37 22.9267 73.39 22.5267 73.22 22.1967L63 1.26675C62.82 0.896748 62.45 0.666748 62.03 0.666748H11.3C10.89 0.666748 10.52 0.896748 10.33 1.26675L0.11 22.1967C-0.05 22.5267 -0.03 22.9267 0.16 23.2367C0.36 23.5467 0.7 23.7467 1.07 23.7467H2.56V67.5567H1.07C0.48 67.5567 0 68.0368 0 68.6267V72.9268C0 73.5167 0.48 73.9967 1.07 73.9967H72.25C72.84 73.9967 73.32 73.5167 73.32 72.9268V68.6267C73.32 68.0368 72.84 67.5567 72.25 67.5567H72.26ZM11.97 2.81675H61.36L70.54 21.5967H2.79L11.97 2.81675ZM4.71 23.7467H68.62V67.5567H64.99V27.4667C64.99 26.8767 64.51 26.3967 63.92 26.3967H59.27C58.68 26.3967 58.2 26.8767 58.2 27.4667C58.2 28.0567 58.68 28.5367 59.27 28.5367H62.85V30.5567H10.49V28.5367H54.25C54.84 28.5367 55.32 28.0567 55.32 27.4667C55.32 26.8767 54.84 26.3967 54.25 26.3967H9.42C8.83 26.3967 8.35 26.8767 8.35 27.4667V67.5567H4.72V23.7467H4.71ZM17.67 67.2067V65.7667H23.46V67.2067C23.46 67.3968 23.3 67.5567 23.11 67.5567H18.02C17.83 67.5567 17.67 67.3968 17.67 67.2067ZM53.55 46.6667V45.9667C53.55 45.4667 53.96 45.0667 54.46 45.0667H56.61C57.05 45.0667 57.41 45.4268 57.41 45.8667C57.41 46.3067 57.05 46.6667 56.61 46.6667H53.55ZM49.41 46.6667L47.58 40.1867C47.31 39.2367 46.43 38.5767 45.45 38.5767H27.89C26.9 38.5767 26.03 39.2367 25.76 40.1867L23.92 46.6667H22.27L24.23 39.7567C24.69 38.1267 26.19 36.9967 27.88 36.9967H45.44C47.13 36.9967 48.63 38.1367 49.09 39.7567L51.05 46.6667H49.4H49.41ZM19.78 46.6667H16.72C16.28 46.6667 15.92 46.3067 15.92 45.8667C15.92 45.4268 16.28 45.0667 16.72 45.0667H18.87C19.37 45.0667 19.77 45.4767 19.77 45.9667V46.6667H19.78ZM16.56 52.5367C16.67 50.4467 18.39 48.8167 20.48 48.8167H27.45C28.04 48.8167 28.52 48.3368 28.52 47.7467C28.52 47.1567 28.04 46.6767 27.45 46.6767H26.15L27.82 40.7867C27.82 40.7867 27.86 40.7367 27.88 40.7367H45.44C45.44 40.7367 45.5 40.7567 45.5 40.7867L47.17 46.6767H32.46C31.87 46.6767 31.39 47.1567 31.39 47.7467C31.39 48.3368 31.87 48.8167 32.46 48.8167H52.84C54.93 48.8167 56.65 50.4567 56.76 52.5367L57.09 58.9067H16.23L16.56 52.5367ZM44.14 63.6167V61.0567H58.19V63.6167H44.14ZM31.34 61.0667H41.99V63.6267H31.34V61.0667ZM15.14 61.0667H29.19V63.6267H15.14V61.0667ZM25.61 67.2067V65.7667H47.72V67.2067C47.72 67.3268 47.72 67.4367 47.74 67.5567H25.58C25.6 67.4467 25.6 67.3268 25.6 67.2067H25.61ZM49.87 67.2067V65.7667H55.66V67.2067C55.66 67.3968 55.5 67.5567 55.31 67.5567H50.22C50.03 67.5567 49.87 67.3968 49.87 67.2067ZM57.81 67.2067V65.7667H58.27C59.41 65.7667 60.34 64.8367 60.34 63.6967V60.9867C60.34 60.2067 59.91 59.5267 59.27 59.1767L58.92 52.4367C58.85 51.0067 58.28 49.7167 57.4 48.7167C58.65 48.3767 59.57 47.2267 59.57 45.8667C59.57 44.2367 58.25 42.9167 56.62 42.9167H54.47C53.7 42.9167 52.99 43.2067 52.45 43.6767L51.18 39.1767C50.46 36.6267 48.11 34.8467 45.46 34.8467H27.9C25.25 34.8467 22.9 36.6267 22.18 39.1767L20.91 43.6767C20.37 43.2067 19.67 42.9167 18.9 42.9167H16.75C15.12 42.9167 13.8 44.2367 13.8 45.8667C13.8 47.2267 14.72 48.3667 15.97 48.7167C15.09 49.7167 14.52 51.0067 14.45 52.4367L14.1 59.1767C13.46 59.5267 13.03 60.2067 13.03 60.9867V63.6967C13.03 64.8367 13.96 65.7667 15.1 65.7667H15.56V67.2067C15.56 67.3268 15.56 67.4367 15.58 67.5567H10.52V32.7067H62.87V67.5567H57.81C57.83 67.4467 57.83 67.3268 57.83 67.2067H57.81Z" fill="#7C7C7C"/>
<path d="M71.18 69.7068H2.15V71.8468H71.18V69.7068Z" fill="#EC6D64"/>
</g>
<defs>
<clipPath id="clip0_8_1009">
<rect width="73.33" height="73.33" fill="white" transform="translate(0 0.666748)"/>
</clipPath>
</defs>
</svg>
