<?xml version="1.0" encoding="UTF-8" standalone="no"?>
<svg
   width="300"
   height="150"
    viewBox="0 0 48 48"
   version="1.1"
   id="svg1"
   xmlns="http://www.w3.org/2000/svg"
   xmlns:svg="http://www.w3.org/2000/svg">
  <defs
     id="defs1" />
  <path
     d="m 14.18,22.27 c 0,-0.32 -0.26,-0.58 -0.58,-0.58 H 9.36 c -0.32,0 -0.58,0.26 -0.58,0.58 v 4.24 c 0,0.32 0.26,0.58 0.58,0.58 h 4.24 c 0.32,0 0.58,-0.26 0.58,-0.58 z m -1.2,3.65 H 9.91 v -3.07 h 3.07 z m 8.74,-3.65 c 0,-0.32 -0.26,-0.58 -0.58,-0.58 H 16.9 c -0.32,0 -0.58,0.26 -0.58,0.58 v 4.24 c 0,0.32 0.26,0.58 0.58,0.58 h 4.24 c 0.32,0 0.58,-0.26 0.58,-0.58 z m -1.17,3.65 h -3.07 v -3.07 h 3.07 z m 8.73,-3.65 c 0,-0.32 -0.26,-0.58 -0.58,-0.58 h -4.24 c -0.32,0 -0.58,0.26 -0.58,0.58 v 4.24 c 0,0.32 0.26,0.58 0.58,0.58 h 4.24 c 0.32,0 0.58,-0.26 0.58,-0.58 z m -1.17,3.65 h -3.07 v -3.07 h 3.07 z m 3.92,1.17 h 4.24 c 0.32,0 0.58,-0.26 0.58,-0.58 v -4.24 c 0,-0.32 -0.26,-0.58 -0.58,-0.58 h -4.24 c -0.32,0 -0.58,0.26 -0.58,0.58 v 4.24 c 0,0.32 0.26,0.58 0.58,0.58 z m 0.58,-4.24 h 3.07 v 3.07 h -3.07 z m -18.43,7.1 c 0,-0.32 -0.26,-0.58 -0.58,-0.58 H 9.36 c -0.32,0 -0.58,0.26 -0.58,0.58 v 4.24 c 0,0.32 0.26,0.58 0.58,0.58 h 4.24 c 0.32,0 0.58,-0.26 0.58,-0.58 z m -1.2,3.65 H 9.91 v -3.07 h 3.07 z m 8.74,-3.65 c 0,-0.32 -0.26,-0.58 -0.58,-0.58 H 16.9 c -0.32,0 -0.58,0.26 -0.58,0.58 v 4.24 c 0,0.32 0.26,0.58 0.58,0.58 h 4.24 c 0.32,0 0.58,-0.26 0.58,-0.58 z m -1.17,3.65 h -3.07 v -3.07 h 3.07 z m 8.73,-3.65 c 0,-0.32 -0.26,-0.58 -0.58,-0.58 h -4.24 c -0.32,0 -0.58,0.26 -0.58,0.58 v 4.24 c 0,0.32 0.26,0.58 0.58,0.58 h 4.24 c 0.32,0 0.58,-0.26 0.58,-0.58 z m -1.17,3.65 h -3.07 v -3.07 h 3.07 z m 3.34,0.59 c 0,0.32 0.26,0.58 0.58,0.58 h 4.24 c 0.32,0 0.58,-0.26 0.58,-0.58 v -4.24 c 0,-0.32 -0.26,-0.58 -0.58,-0.58 h -4.24 c -0.32,0 -0.58,0.26 -0.58,0.58 z m 1.16,-3.65 h 3.07 v 3.07 H 32.61 Z M 13.56,37.02 H 9.32 C 9,37.02 8.74,37.28 8.74,37.6 v 4.24 c 0,0.32 0.26,0.58 0.58,0.58 h 4.24 c 0.32,0 0.58,-0.26 0.58,-0.58 V 37.6 c 0,-0.32 -0.26,-0.58 -0.58,-0.58 z m -0.58,4.24 H 9.91 v -3.07 h 3.07 z m 8.15,-4.24 h -4.24 c -0.32,0 -0.58,0.26 -0.58,0.58 v 4.24 c 0,0.32 0.26,0.58 0.58,0.58 h 4.24 c 0.32,0 0.58,-0.26 0.58,-0.58 V 37.6 c 0,-0.32 -0.26,-0.58 -0.58,-0.58 z m -0.58,4.24 h -3.07 v -3.07 h 3.07 z m 8.15,-4.24 h -4.24 c -0.32,0 -0.58,0.26 -0.58,0.58 v 4.24 c 0,0.32 0.26,0.58 0.58,0.58 h 4.24 c 0.32,0 0.58,-0.26 0.58,-0.58 V 37.6 c 0,-0.32 -0.26,-0.58 -0.58,-0.58 z m -0.59,4.24 h -3.07 v -3.07 h 3.07 z m 3.34,0.61 c 0,0.32 0.26,0.58 0.58,0.58 h 4.24 c 0.32,0 0.58,-0.26 0.58,-0.58 v -4.24 c 0,-0.32 -0.26,-0.58 -0.58,-0.58 h -4.24 c -0.32,0 -0.58,0.26 -0.58,0.58 z m 1.16,-3.65 h 3.07 v 3.07 H 32.61 Z M 39.36,10.9 H 38.63 V 8.65 c 0,-1.17 -0.96,-2.13 -2.13,-2.13 -1.17,0 -2.13,0.96 -2.13,2.13 V 10.9 H 31.74 V 8.65 c 0,-1.17 -0.96,-2.13 -2.13,-2.13 -1.17,0 -2.13,0.96 -2.13,2.13 V 10.9 H 24.85 V 8.65 c 0,-1.17 -0.96,-2.13 -2.13,-2.13 -1.17,0 -2.13,0.96 -2.13,2.13 V 10.9 H 17.96 V 8.65 C 17.96,7.48 17,6.52 15.83,6.52 14.66,6.52 13.7,7.48 13.7,8.65 V 10.9 H 11.07 V 8.65 C 11.07,7.48 10.11,6.52 8.94,6.52 7.77,6.52 6.81,7.48 6.81,8.65 V 10.9 H 6.08 c -1.34,0 -2.43,1.08 -2.43,2.43 V 44.1 c 0,1.34 1.08,2.43 2.43,2.43 h 22.59 c 0.32,0 0.58,-0.26 0.58,-0.58 0,-0.32 -0.26,-0.58 -0.58,-0.58 H 6.05 c -0.7,0 -1.26,-0.56 -1.26,-1.26 V 18.87 h 7.54 c 0.32,0 0.58,-0.26 0.58,-0.58 0,-0.32 -0.26,-0.58 -0.58,-0.58 H 4.79 v -4.35 c 0,-0.7 0.56,-1.26 1.26,-1.26 h 0.73 v 0.88 c 0,1.17 0.96,2.13 2.13,2.13 1.17,0 2.13,-0.96 2.13,-2.13 V 12.1 h 2.63 v 0.88 c 0,1.17 0.96,2.13 2.13,2.13 1.17,0 2.13,-0.96 2.13,-2.13 V 12.1 h 2.63 v 0.88 c 0,1.17 0.96,2.13 2.13,2.13 1.17,0 2.13,-0.96 2.13,-2.13 V 12.1 h 2.63 v 0.88 c 0,1.17 0.96,2.13 2.13,2.13 1.17,0 2.13,-0.96 2.13,-2.13 V 12.1 h 2.63 v 0.88 c 0,1.17 0.96,2.13 2.13,2.13 1.17,0 2.13,-0.96 2.13,-2.13 V 12.1 h 0.73 c 0.7,0 1.26,0.56 1.26,1.26 v 4.35 H 14.88 c -0.32,0 -0.58,0.26 -0.58,0.58 0,0.32 0.26,0.58 0.58,0.58 h 25.74 v 25.24 c 0,0.7 -0.56,1.26 -1.26,1.26 h -8.18 c -0.32,0 -0.58,0.26 -0.58,0.58 0,0.32 0.26,0.58 0.58,0.58 h 8.18 c 1.34,0 2.43,-1.08 2.43,-2.43 V 13.33 c 0,-1.34 -1.08,-2.43 -2.43,-2.43 z m -29.33,2.05 c 0,0.53 -0.41,0.94 -0.93,0.94 -0.52,0 -0.93,-0.41 -0.93,-0.94 v -4.3 c 0,-0.53 0.41,-0.94 0.93,-0.94 0.52,0 0.93,0.41 0.93,0.94 z m 6.86,0 c 0,0.53 -0.41,0.94 -0.93,0.94 -0.52,0 -0.93,-0.41 -0.93,-0.94 v -4.3 c 0,-0.53 0.41,-0.94 0.93,-0.94 0.52,0 0.93,0.41 0.93,0.94 z m 6.84,0 c 0,0.53 -0.41,0.94 -0.93,0.94 -0.52,0 -0.93,-0.41 -0.93,-0.94 v -4.3 c 0,-0.53 0.41,-0.94 0.93,-0.94 0.52,0 0.93,0.41 0.93,0.94 z m 6.87,0 c 0,0.53 -0.41,0.94 -0.93,0.94 -0.52,0 -0.93,-0.41 -0.93,-0.94 v -4.3 c 0,-0.53 0.41,-0.94 0.93,-0.94 0.52,0 0.93,0.41 0.93,0.94 z m 6.86,0 c 0,0.53 -0.41,0.94 -0.93,0.94 -0.52,0 -0.93,-0.41 -0.93,-0.94 v -4.3 c 0,-0.53 0.41,-0.94 0.93,-0.94 0.52,0 0.93,0.41 0.93,0.94 z"
     fill="#7c7c7c"
     id="path1" />
</svg>
