<?xml version="1.0" encoding="UTF-8" standalone="no"?>
<svg
   width="300"
   height="150"
    viewBox="0 0 48 48"
   version="1.1"
   id="svg1"
   xmlns="http://www.w3.org/2000/svg"
   xmlns:svg="http://www.w3.org/2000/svg">
  <defs
     id="defs1" />
  <path
     d="M 33.17,39.84 H 14.8 v -0.91 h 18.37 z m 9.08,0 h -1.7 v -0.88 h 1.7 c 0.23,0 0.44,-0.09 0.59,-0.23 0.15,-0.15 0.23,-0.38 0.23,-0.59 v -2.93 c -0.44,-1.96 -0.94,-3.81 -9.7,-4.69 -0.09,0 -0.18,-0.03 -0.23,-0.09 -7.82,-6.15 -16.23,-5.77 -23.15,1.05 0,0 -0.22,0.08 -0.67,0.23 -0.85,0.18 -2.84,0.59 -4.37,1.11 -0.09,0 -0.15,0.09 -0.15,0.21 v 4.66 l 1.32,1.26 h 1.2 v 0.88 H 5.94 c 0,0 -0.23,-0.06 -0.29,-0.12 L 4.07,38.22 c 0,0 -0.15,-0.21 -0.15,-0.32 v -4.84 c 0,-0.47 0.29,-0.88 0.73,-1.03 1.58,-0.53 3.6,-0.94 4.45,-1.14 0.12,0 0.23,-0.06 0.32,-0.06 3.72,-3.66 7.82,-5.57 12.19,-5.63 3.99,-0.06 8.12,1.49 11.93,4.48 8.7,0.88 9.76,2.7 10.37,5.39 v 3.08 c 0,0.47 -0.18,0.91 -0.5,1.23 -0.32,0.32 -0.76,0.5 -1.23,0.5 l 0.06,-0.06 z M 11.07,36.11 c -1.82,0 -3.28,1.47 -3.28,3.28 0,1.81 1.47,3.28 3.28,3.28 1.81,0 3.28,-1.47 3.28,-3.28 0,-1.81 -1.47,-3.28 -3.28,-3.28 z m 0,7.42 c -2.29,0 -4.13,-1.88 -4.13,-4.13 0,-2.25 1.88,-4.13 4.13,-4.13 2.25,0 4.13,1.88 4.13,4.13 0,2.25 -1.85,4.13 -4.13,4.13 z m 25.79,-7.42 c -1.79,0 -3.28,1.47 -3.28,3.28 0,1.81 1.47,3.28 3.28,3.28 1.81,0 3.28,-1.47 3.28,-3.28 0,-1.81 -1.47,-3.28 -3.28,-3.28 z m 0,7.42 c -2.29,0 -4.13,-1.88 -4.13,-4.13 0,-2.25 1.88,-4.13 4.13,-4.13 2.25,0 4.13,1.88 4.13,4.13 0,2.25 -1.85,4.13 -4.13,4.13 z M 19.16,30.46 c 1.32,0 2.2,0.23 3.16,0.47 1.61,0.41 3.6,0.91 8.73,0.53 0.12,0 0.18,-0.09 0.18,-0.15 0,-0.06 0,-0.15 -0.09,-0.23 -6.36,-4.42 -12.4,-4.45 -17.99,-0.12 -0.12,0.09 -0.09,0.21 -0.06,0.23 0,0.06 0.09,0.15 0.23,0.12 2.73,-0.64 4.51,-0.88 5.83,-0.88 v 0.03 z m 8.53,1.99 c -2.84,0 -4.34,-0.38 -5.57,-0.7 -1.9,-0.5 -3.31,-0.85 -8.59,0.41 -0.5,0.12 -1,-0.12 -1.23,-0.59 -0.23,-0.47 -0.09,-1 0.29,-1.32 2.99,-2.32 6.15,-3.46 9.41,-3.4 3.14,0.06 6.39,1.23 9.61,3.49 0.38,0.26 0.56,0.73 0.41,1.17 -0.12,0.44 -0.5,0.76 -0.97,0.79 -1.32,0.09 -2.46,0.15 -3.43,0.15 h 0.06 z M 21.8,31.66 c -0.18,0 -0.35,-0.12 -0.41,-0.29 L 19.98,27.5 c -0.09,-0.23 0.03,-0.47 0.26,-0.56 0.23,-0.09 0.47,0.03 0.56,0.26 l 1.41,3.87 c 0.09,0.23 -0.03,0.47 -0.26,0.56 H 21.8 Z m 21.1,3.93 c -1.82,0 -2.58,-0.62 -2.87,-1.17 -0.44,-0.79 -0.26,-1.88 0.53,-2.99 0.15,-0.21 0.41,-0.23 0.62,-0.12 0.21,0.15 0.23,0.41 0.12,0.62 -0.59,0.82 -0.76,1.58 -0.5,2.05 0.32,0.56 1.29,0.82 2.73,0.7 0.23,0 0.44,0.18 0.47,0.41 0.03,0.23 -0.18,0.44 -0.41,0.47 h -0.67 v 0.03 z M 30.94,37.61 H 17.02 c -0.18,0 -0.35,-0.12 -0.41,-0.29 -0.35,-0.94 -0.94,-1.79 -1.73,-2.46 -0.18,-0.15 -0.21,-0.44 -0.06,-0.62 0.15,-0.18 0.44,-0.21 0.62,-0.06 0.82,0.7 1.44,1.55 1.88,2.55 h 13.63 c 0.23,0 0.44,0.21 0.44,0.44 0,0.23 -0.21,0.44 -0.44,0.44 z M 24.06,34.53 H 22.8 c -0.23,0 -0.44,-0.21 -0.44,-0.44 0,-0.23 0.21,-0.44 0.44,-0.44 h 1.29 c 0.23,0 0.44,0.21 0.44,0.44 0,0.23 -0.21,0.44 -0.44,0.44 z m 8.41,0.94 c 0,0 -0.23,-0.06 -0.29,-0.12 -0.18,-0.18 -0.18,-0.44 0,-0.62 1.26,-1.26 2.9,-1.96 4.69,-1.96 0.23,0 0.44,0.21 0.44,0.44 0,0.23 -0.21,0.44 -0.44,0.44 -1.55,0 -2.99,0.59 -4.07,1.7 -0.09,0.09 -0.21,0.15 -0.32,0.15 v -0.03 z m -21.4,2.61 c -0.73,0 -1.32,0.59 -1.32,1.32 0,0.73 0.59,1.32 1.32,1.32 0.73,0 1.32,-0.59 1.32,-1.32 0,-0.73 -0.59,-1.32 -1.32,-1.32 z m 0,3.48 c -1.2,0 -2.17,-0.97 -2.17,-2.17 0,-1.2 0.97,-2.17 2.17,-2.17 1.2,0 2.17,0.97 2.17,2.17 0,1.2 -0.97,2.17 -2.17,2.17 z m 25.79,-3.48 c -0.73,0 -1.32,0.59 -1.32,1.32 0,0.73 0.59,1.32 1.32,1.32 0.73,0 1.32,-0.59 1.32,-1.32 0,-0.73 -0.59,-1.32 -1.32,-1.32 z m 0,3.48 c -1.2,0 -2.17,-0.97 -2.17,-2.17 0,-1.2 0.97,-2.17 2.17,-2.17 1.2,0 2.17,0.97 2.17,2.17 0,1.2 -0.97,2.17 -2.17,2.17 z M 8.2,31.95 c -0.15,0 -0.29,-0.09 -0.38,-0.21 -1.7,-2.87 -2.58,-6.15 -2.58,-9.49 0,-10.31 8.41,-18.72 18.73,-18.72 10.32,0 18.73,8.41 18.73,18.73 0,3.25 -0.85,6.45 -2.43,9.26 -0.12,0.21 -0.38,0.29 -0.59,0.18 -0.21,-0.11 -0.29,-0.38 -0.18,-0.59 1.52,-2.67 2.32,-5.71 2.32,-8.82 0,-9.85 -8,-17.85 -17.85,-17.85 -9.85,0 -17.85,8 -17.85,17.84 0,3.19 0.85,6.33 2.46,9.06 0.12,0.21 0.06,0.47 -0.15,0.59 -0.06,0.03 -0.15,0.06 -0.23,0.06 v -0.03 z m 27.99,-1.08 c 0,0 -0.18,0 -0.23,-0.09 -0.21,-0.15 -0.26,-0.41 -0.12,-0.62 1.58,-2.34 2.4,-5.1 2.4,-7.94 0,-7.85 -6.39,-14.27 -14.27,-14.27 -7.88,0 -14.27,6.42 -14.27,14.27 0,2.55 0.67,5.07 1.99,7.27 0.12,0.21 0.06,0.47 -0.15,0.59 -0.21,0.12 -0.47,0.06 -0.59,-0.15 -1.38,-2.32 -2.11,-4.98 -2.11,-7.71 0,-8.35 6.8,-15.15 15.15,-15.15 8.35,0 15.15,6.8 15.15,15.15 0,3.02 -0.88,5.95 -2.55,8.44 -0.09,0.12 -0.23,0.18 -0.38,0.18 l -0.03,0.03 z M 23.97,12.11 c -0.91,0 -1.64,-0.73 -1.64,-1.67 V 7.57 c 0,-0.23 0.21,-0.44 0.44,-0.44 0.23,0 0.44,0.21 0.44,0.44 v 2.87 c 0,0.44 0.35,0.79 0.79,0.79 0.44,0 0.79,-0.35 0.79,-0.79 V 7.57 c 0,-0.23 0.21,-0.44 0.44,-0.44 0.23,0 0.44,0.21 0.44,0.44 v 2.87 c 0,0.91 -0.73,1.67 -1.64,1.67 z m 8.32,3.46 c -0.41,0 -0.85,-0.15 -1.17,-0.5 -0.64,-0.64 -0.64,-1.7 0,-2.34 l 2.05,-2.05 c 0.18,-0.18 0.44,-0.18 0.62,0 0.18,0.18 0.18,0.44 0,0.62 l -2.05,2.05 c -0.29,0.29 -0.29,0.79 0,1.11 0.29,0.29 0.79,0.29 1.11,0 l 2.05,-2.05 c 0.18,-0.18 0.44,-0.18 0.62,0 0.18,0.18 0.18,0.44 0,0.62 l -2.05,2.05 c -0.32,0.32 -0.73,0.5 -1.17,0.5 z m 6.33,8.32 h -2.87 c -0.91,0 -1.67,-0.73 -1.67,-1.67 0,-0.94 0.73,-1.67 1.67,-1.67 h 2.87 c 0.23,0 0.44,0.21 0.44,0.44 0,0.23 -0.21,0.44 -0.44,0.44 h -2.87 c -0.44,0 -0.79,0.35 -0.79,0.79 0,0.44 0.35,0.79 0.79,0.79 h 2.87 c 0.23,0 0.44,0.21 0.44,0.44 0,0.26 -0.18,0.44 -0.44,0.44 z M 15.65,15.57 c -0.41,0 -0.85,-0.15 -1.17,-0.5 l -2.05,-2.05 c -0.18,-0.18 -0.18,-0.44 0,-0.62 0.18,-0.18 0.44,-0.18 0.62,0 l 2.05,2.05 c 0.29,0.29 0.79,0.29 1.11,0 0.29,-0.29 0.29,-0.79 0,-1.11 l -2.05,-2.05 c -0.18,-0.18 -0.18,-0.44 0,-0.62 0.18,-0.18 0.44,-0.18 0.62,0 l 2.05,2.05 c 0.64,0.64 0.64,1.7 0,2.34 -0.32,0.32 -0.73,0.5 -1.17,0.5 z m -3.46,8.32 H 9.32 c -0.23,0 -0.44,-0.21 -0.44,-0.44 0,-0.23 0.21,-0.44 0.44,-0.44 h 2.87 c 0.44,0 0.79,-0.35 0.79,-0.79 0,-0.44 -0.35,-0.79 -0.79,-0.79 H 9.32 c -0.23,0 -0.44,-0.21 -0.44,-0.44 0,-0.23 0.21,-0.44 0.44,-0.44 h 2.87 c 0.91,0 1.67,0.73 1.67,1.67 0,0.94 -0.73,1.64 -1.67,1.64 z m 14.56,2.93 H 26.63 C 26.4,26.73 26.28,26.5 26.34,26.26 l 2.29,-7.27 -6.36,6.92 c -0.18,0.18 -0.44,0.21 -0.62,0 -0.18,-0.18 -0.18,-0.44 0,-0.62 l 7.68,-8.35 c 0.15,-0.15 0.35,-0.18 0.56,-0.09 0.18,0.09 0.26,0.32 0.21,0.5 l -2.87,9.14 c -0.06,0.18 -0.23,0.29 -0.41,0.29 l -0.06,0.03 z M 4.39,35.29 c -0.23,0 -0.41,-0.18 -0.44,-0.38 0,-0.23 0.15,-0.44 0.38,-0.47 1.47,-0.18 2.26,-1.03 2.46,-2.73 0,-0.23 0.26,-0.41 0.5,-0.38 0.23,0 0.41,0.23 0.38,0.5 -0.32,2.64 -1.93,3.37 -3.22,3.49 H 4.39 Z"
     fill="#7c7c7c"
     fill-rule="evenOdd"
     id="path1" />
</svg>
