<svg width="24" height="27" viewBox="0 0 24 27" fill="none" xmlns="http://www.w3.org/2000/svg">
<path d="M0.650238 10.34C0.870238 10.34 1.04025 10.17 1.04025 9.94996V0.989956C1.04025 0.919956 1.10026 0.859956 1.17026 0.859956H8.29025C8.51025 0.859956 8.68024 0.689956 8.68024 0.469956C8.68024 0.249956 8.51025 0.0799561 8.29025 0.0799561H1.17026C0.670258 0.0799561 0.260254 0.489956 0.260254 0.989956V9.94996C0.260254 10.17 0.430238 10.34 0.650238 10.34Z" fill="black"/>
<path d="M9.23047 4.92994L8.95047 3.67994C8.80047 3.01994 8.23045 2.55994 7.55045 2.55994H5.47046C4.79046 2.55994 4.22047 3.01994 4.07047 3.67994L3.79047 4.92994C3.19047 5.04994 2.73047 5.58994 2.73047 6.22994V7.10994C2.73047 7.46994 3.02046 7.75994 3.38046 7.75994H3.55045V8.30994C3.55045 8.72994 3.89045 9.05994 4.30045 9.05994H5.13046C5.55046 9.05994 5.88046 8.71994 5.88046 8.30994V7.75994H7.10046V8.30994C7.10046 8.72994 7.44046 9.05994 7.85046 9.05994H8.68045C9.10045 9.05994 9.43045 8.71994 9.43045 8.30994V7.75994H9.60046C9.96046 7.75994 10.2505 7.46994 10.2505 7.10994V6.22994C10.2505 5.58994 9.79046 5.04994 9.19046 4.92994H9.23047ZM5.48047 3.33994H7.56046C7.87046 3.33994 8.13046 3.54994 8.19046 3.84994L8.42047 4.89994H4.61044L4.84045 3.84994C4.91045 3.54994 5.17046 3.33994 5.47046 3.33994H5.48047ZM5.12045 8.27994H4.34045V7.75994H5.12045V8.27994ZM8.69046 8.27994H7.91046V7.75994H8.69046V8.27994ZM9.51047 6.97994H3.53046V6.22994C3.53046 5.92994 3.77044 5.67994 4.08044 5.67994H8.92047H8.97046C9.27046 5.67994 9.52045 5.91994 9.52045 6.22994V6.97994H9.51047Z" fill="black"/>
<path d="M14.8204 3.33994C15.0404 3.33994 15.2104 3.16994 15.2104 2.94994C15.2104 2.72994 15.0404 2.55994 14.8204 2.55994H13.2904C13.0704 2.55994 12.9004 2.72994 12.9004 2.94994C12.9004 3.16994 13.0704 3.33994 13.2904 3.33994H14.8204Z" fill="black"/>
<path d="M11.3301 4.85997C11.3301 5.07997 11.5001 5.24997 11.7201 5.24997H16.4001C16.6201 5.24997 16.7901 5.07997 16.7901 4.85997C16.7901 4.63997 16.6201 4.46997 16.4001 4.46997H11.7201C11.5001 4.46997 11.3301 4.63997 11.3301 4.85997Z" fill="black"/>
<path d="M11.7201 7.16001H16.4001C16.6201 7.16001 16.7901 6.99001 16.7901 6.77001C16.7901 6.55001 16.6201 6.38 16.4001 6.38H11.7201C11.5001 6.38 11.3301 6.55001 11.3301 6.77001C11.3301 6.99001 11.5001 7.16001 11.7201 7.16001Z" fill="black"/>
<path d="M11.7201 9.06992H16.4001C16.6201 9.06992 16.7901 8.89992 16.7901 8.67992C16.7901 8.45992 16.6201 8.28992 16.4001 8.28992H11.7201C11.5001 8.28992 11.3301 8.45992 11.3301 8.67992C11.3301 8.89992 11.5001 9.06992 11.7201 9.06992Z" fill="black"/>
<path d="M2.72021 10.73C2.72021 10.95 2.8902 11.12 3.1102 11.12H16.3702C16.5902 11.12 16.7602 10.95 16.7602 10.73C16.7602 10.51 16.5902 10.34 16.3702 10.34H3.1102C2.8902 10.34 2.72021 10.51 2.72021 10.73Z" fill="black"/>
<path d="M12.0002 12.5499C12.0002 12.3299 11.8302 12.1599 11.6102 12.1599H3.1102C2.8902 12.1599 2.72021 12.3299 2.72021 12.5499C2.72021 12.7699 2.8902 12.9399 3.1102 12.9399H11.6102C11.8302 12.9399 12.0002 12.7699 12.0002 12.5499Z" fill="black"/>
<path d="M3.00044 22.9599C3.08044 23.0399 3.18044 23.0699 3.28044 23.0699C3.38044 23.0699 3.48044 23.0299 3.56044 22.9599L5.64045 20.8799C5.79045 20.7299 5.79045 20.4799 5.64045 20.3299C5.49045 20.1799 5.24044 20.1799 5.09044 20.3299L3.01045 22.4099C2.86045 22.5599 2.86045 22.8099 3.01045 22.9599H3.00044Z" fill="black"/>
<path d="M19.2402 13.7099V0.979946C19.2402 0.479946 18.8302 0.0699463 18.3302 0.0699463H10.1102C9.89023 0.0699463 9.72025 0.239947 9.72025 0.459947C9.72025 0.679947 9.89023 0.849947 10.1102 0.849947H18.3302C18.4002 0.849947 18.4602 0.909946 18.4602 0.979946V13.5299C18.1002 13.4699 17.7402 13.4399 17.3702 13.4399C16.0502 13.4399 14.8203 13.8299 13.7903 14.4899H7.86023C7.64023 14.4899 7.47025 14.6599 7.47025 14.8799C7.47025 15.0999 7.64023 15.2699 7.86023 15.2699H12.7903C12.4203 15.6199 12.0902 16.0099 11.8102 16.4399H7.85025C7.63025 16.4399 7.46024 16.6099 7.46024 16.8299C7.46024 17.0499 7.63025 17.2199 7.85025 17.2199H11.3702C11.1902 17.5899 11.0502 17.9799 10.9402 18.3899H7.85025C7.63025 18.3899 7.46024 18.5599 7.46024 18.7799C7.46024 18.9999 7.63025 19.1699 7.85025 19.1699H10.7802C10.7402 19.5199 10.7102 19.8999 10.7202 20.3399H7.84024C7.62024 20.3399 7.45026 20.5099 7.45026 20.7299C7.45026 20.9499 7.62024 21.1199 7.84024 21.1199H10.8002C10.8602 21.5199 10.9703 21.9099 11.1003 22.2899H7.84024C7.62024 22.2899 7.45026 22.4599 7.45026 22.6799C7.45026 22.8999 7.62024 23.0699 7.84024 23.0699H11.4302C11.7502 23.6999 12.1802 24.2799 12.6802 24.7799H1.15024C1.08024 24.7799 1.02023 24.7199 1.02023 24.6499V11.7699C1.02023 11.5499 0.850249 11.3799 0.630249 11.3799C0.410249 11.3799 0.240234 11.5499 0.240234 11.7699V24.6499C0.240234 25.1499 0.650238 25.5599 1.15024 25.5599H13.6302C14.6902 26.2799 15.9703 26.6999 17.3503 26.6999C19.1303 26.6999 20.7902 26.0099 22.0502 24.7499C22.2002 24.5999 22.2002 24.3499 22.0502 24.1999C21.9002 24.0499 21.6502 24.0499 21.5002 24.1999C20.3902 25.3099 18.9202 25.9199 17.3602 25.9199C14.1302 25.9199 11.5103 23.2999 11.5103 20.0699C11.5103 16.8399 14.1302 14.2199 17.3602 14.2199C20.5902 14.2199 23.2102 16.8399 23.2102 20.0699C23.2102 21.0299 22.9702 21.9899 22.5202 22.8299C22.4202 23.0199 22.4902 23.2599 22.6802 23.3599C22.8702 23.4599 23.1102 23.3899 23.2102 23.1999C23.7202 22.2399 24.0002 21.1599 24.0002 20.0699C24.0002 17.0599 21.9902 14.5199 19.2402 13.7099Z" fill="black"/>
<path d="M13.86 17.3499C13.68 17.2299 13.4401 17.2899 13.3201 17.4699C12.8201 18.2499 12.5601 19.1499 12.5601 20.0699C12.5601 22.7199 14.7201 24.8799 17.3701 24.8799C20.0201 24.8799 22.1801 22.7199 22.1801 20.0699C22.1801 17.4199 20.0201 15.2599 17.3701 15.2599C16.4201 15.2599 15.5001 15.5399 14.7101 16.0599C14.5301 16.1799 14.4801 16.4199 14.6001 16.5999C14.7201 16.7799 14.9601 16.8299 15.1401 16.7099C15.8001 16.2699 16.5701 16.0399 17.3701 16.0399C19.5901 16.0399 21.4001 17.8499 21.4001 20.0699C21.4001 22.2899 19.5901 24.0999 17.3701 24.0999C15.1501 24.0999 13.3401 22.2899 13.3401 20.0699C13.3401 19.2899 13.5601 18.5399 13.9801 17.8899C14.1001 17.7099 14.04 17.4699 13.86 17.3499Z" fill="black"/>
<path d="M4.92018 16.1C4.84018 16.07 4.76017 16.05 4.69017 16.02C4.43017 15.93 4.22017 15.86 4.13017 15.76C4.03017 15.65 4.00016 15.5 4.03016 15.37C4.05016 15.3 4.11015 15.1799 4.27015 15.1299C4.59015 15.0299 4.79017 15.23 4.82017 15.25C4.97017 15.41 5.21016 15.42 5.37016 15.27C5.53016 15.12 5.54018 14.8799 5.39018 14.7199C5.36018 14.6799 5.16017 14.47 4.82017 14.37V14.09C4.82017 13.87 4.65016 13.7 4.43016 13.7C4.21016 13.7 4.04017 13.87 4.04017 14.09V14.3799C3.67017 14.4899 3.38016 14.78 3.28016 15.15C3.17016 15.53 3.26016 15.95 3.53016 16.26C3.76016 16.53 4.08016 16.64 4.43016 16.75C4.50016 16.77 4.57016 16.8 4.65016 16.83C4.96016 16.94 4.97018 17.1799 4.95018 17.3099C4.91018 17.5299 4.73017 17.77 4.41017 17.77C4.08017 17.77 3.99016 17.76 3.74016 17.59C3.56016 17.47 3.32018 17.52 3.20018 17.7C3.08018 17.88 3.13016 18.12 3.31016 18.24C3.59016 18.42 3.80017 18.5 4.04017 18.53V18.77C4.04017 18.99 4.21016 19.16 4.43016 19.16C4.65016 19.16 4.82017 18.99 4.82017 18.77V18.4799C5.32017 18.32 5.64016 17.87 5.71016 17.44C5.81016 16.84 5.49017 16.3 4.91017 16.09L4.92018 16.1Z" fill="black"/>
<path d="M17.3503 21.4499C17.0103 21.4499 16.9103 21.4399 16.6503 21.2699C16.4703 21.1499 16.2303 21.1999 16.1103 21.3799C15.9903 21.5599 16.0403 21.7999 16.2203 21.9199C16.5103 22.1099 16.7204 22.1899 16.9804 22.2099V22.4699C16.9804 22.6899 17.1503 22.8599 17.3703 22.8599C17.5903 22.8599 17.7603 22.6899 17.7603 22.4699V22.1599C18.2703 21.9999 18.6003 21.5399 18.6803 21.0999C18.7803 20.4899 18.4503 19.9399 17.8603 19.7399C17.7803 19.7099 17.7003 19.6799 17.6203 19.6599C17.3503 19.5699 17.1403 19.4999 17.0403 19.3899C16.9403 19.2699 16.9003 19.1199 16.9403 18.9899C16.9603 18.9199 17.0203 18.7899 17.1903 18.7399C17.5303 18.6399 17.7403 18.8399 17.7603 18.8699C17.9103 19.0299 18.1503 19.0399 18.3103 18.8899C18.4703 18.7399 18.4803 18.4999 18.3303 18.3399C18.3003 18.2999 18.0903 18.0899 17.7503 17.9899V17.6899C17.7503 17.4699 17.5803 17.2999 17.3603 17.2999C17.1403 17.2999 16.9703 17.4699 16.9703 17.6899V17.9899C16.5903 18.0999 16.3003 18.3999 16.1903 18.7699C16.0803 19.1599 16.1704 19.5799 16.4504 19.8999C16.6804 20.1699 17.0003 20.2799 17.3703 20.3999C17.4403 20.4199 17.5203 20.4499 17.6003 20.4799C17.9203 20.5899 17.9303 20.8399 17.9103 20.9799C17.8703 21.2099 17.6803 21.4499 17.3503 21.4599V21.4499Z" fill="black"/>
<path d="M3.28012 21C3.49551 21 3.67014 20.8254 3.67014 20.61C3.67014 20.3946 3.49551 20.22 3.28012 20.22C3.06473 20.22 2.89014 20.3946 2.89014 20.61C2.89014 20.8254 3.06473 21 3.28012 21Z" fill="black"/>
<path d="M5.3602 23.0799C5.57559 23.0799 5.75021 22.9053 5.75021 22.6899C5.75021 22.4745 5.57559 22.2999 5.3602 22.2999C5.14481 22.2999 4.97021 22.4745 4.97021 22.6899C4.97021 22.9053 5.14481 23.0799 5.3602 23.0799Z" fill="black"/>
</svg>
