<svg width="32" height="27" viewBox="0 0 32 27" fill="none" xmlns="http://www.w3.org/2000/svg">
<path d="M24.44 22.69C24.32 22.47 24.05 22.39 23.83 22.51C23.53 22.68 23.22 22.85 22.91 23.02C20.27 24.48 17.28 26.14 14.4 25.88L4.21999 24.97C4.21999 24.97 4.18998 24.97 4.17998 24.97H1.37999V19.94H4.17998C4.28998 19.94 4.38999 19.9 4.46999 19.83C4.47999 19.82 5.78999 18.72 7.59999 18.02C7.82999 17.93 7.93999 17.67 7.84999 17.44C7.75999 17.21 7.49999 17.1 7.26999 17.19C5.63999 17.83 4.40999 18.74 4.01999 19.05H0.929977C0.679977 19.05 0.47998 19.25 0.47998 19.5V25.43C0.47998 25.68 0.679977 25.88 0.929977 25.88H4.15999L14.32 26.79C14.55 26.81 14.78 26.82 15.01 26.82C17.92 26.82 20.79 25.23 23.34 23.82C23.65 23.65 23.96 23.48 24.26 23.31C24.48 23.19 24.56 22.92 24.44 22.7V22.69Z" fill="#231F20"/>
<path d="M30.7202 17.54C30.2402 16.91 29.4102 16.69 28.6902 16.99C28.6702 16.7 28.5702 16.42 28.4002 16.19C27.9502 15.56 27.1002 15.36 26.4202 15.72L25.3502 16.28C25.3402 16.03 25.2602 15.78 25.1302 15.57C24.7002 14.87 23.8102 14.62 23.0802 15.01L22.2802 15.44C22.2702 15.13 22.1602 14.83 21.9702 14.57C21.5002 13.94 20.6602 13.74 19.9602 14.11L14.2002 17.13C13.5502 16.88 11.4902 16.21 9.07023 16.66C8.83023 16.71 8.67023 16.94 8.71023 17.18C8.76023 17.42 8.99022 17.58 9.23022 17.54C11.8102 17.06 14.0102 18.02 14.0302 18.03C14.0302 18.03 14.0502 18.03 14.0602 18.04C14.0602 18.04 14.0602 18.04 14.0702 18.04C14.0902 18.04 14.1102 18.05 14.1302 18.06C14.1302 18.06 14.1302 18.06 14.1402 18.06C14.1602 18.06 14.1802 18.06 14.2102 18.06H20.2102C20.6402 18.06 20.9802 18.41 20.9802 18.83C20.9802 19.22 20.6902 19.55 20.3002 19.6L12.7002 20.56C12.4802 20.59 12.3102 20.78 12.3102 21.01C12.3102 21.04 12.3102 21.07 12.3102 21.09C12.3502 21.28 12.5002 21.43 12.7002 21.45L15.9302 21.84C16.0202 21.85 16.1102 21.86 16.2002 21.87C16.2302 21.87 16.2502 21.87 16.2802 21.87C16.3402 21.87 16.4102 21.88 16.4702 21.89C16.5002 21.89 16.5302 21.89 16.5502 21.89C16.6202 21.89 16.6902 21.9 16.7702 21.91C16.7902 21.91 16.8002 21.91 16.8202 21.91C16.9102 21.91 17.0002 21.91 17.0802 21.92C17.1002 21.92 17.1302 21.92 17.1502 21.92C17.2102 21.92 17.2802 21.92 17.3402 21.92C17.3702 21.92 17.4002 21.92 17.4302 21.92C17.4902 21.92 17.5602 21.92 17.6202 21.92C17.6402 21.92 17.6702 21.92 17.6902 21.92H17.7102C17.7902 21.92 17.8702 21.92 17.9502 21.92C17.9702 21.92 17.9802 21.92 18.0002 21.92C18.0702 21.92 18.1502 21.92 18.2202 21.92C18.2502 21.92 18.2802 21.92 18.3102 21.92C18.3702 21.92 18.4302 21.92 18.4902 21.92C18.5202 21.92 18.5602 21.92 18.5902 21.92C18.6502 21.92 18.7102 21.92 18.7702 21.91C18.8002 21.91 18.8302 21.91 18.8602 21.91C18.9502 21.91 19.0302 21.9 19.1202 21.89C19.1202 21.89 19.1302 21.89 19.1402 21.89C19.2202 21.89 19.3102 21.87 19.3902 21.86C19.4202 21.86 19.4502 21.86 19.4802 21.85C19.5402 21.85 19.6002 21.84 19.6602 21.83C19.6902 21.83 19.7202 21.83 19.7602 21.82C19.8202 21.82 19.8802 21.8 19.9402 21.79C19.9702 21.79 20.0002 21.79 20.0302 21.78C20.1002 21.77 20.1802 21.76 20.2502 21.74C20.2602 21.74 20.2802 21.74 20.2902 21.74C20.3802 21.73 20.4602 21.71 20.5502 21.69C20.5802 21.69 20.6002 21.68 20.6302 21.67C20.6902 21.66 20.7502 21.65 20.8102 21.63C20.8402 21.63 20.8702 21.62 20.9002 21.61C20.9602 21.6 21.0102 21.58 21.0702 21.57C21.1002 21.57 21.1302 21.56 21.1602 21.55C21.2302 21.53 21.2902 21.52 21.3602 21.5C21.3802 21.5 21.4002 21.5 21.4202 21.49C21.5102 21.47 21.5902 21.45 21.6702 21.42C21.6902 21.42 21.7202 21.41 21.7402 21.4C21.8002 21.38 21.8602 21.36 21.9302 21.35C21.9602 21.35 21.9902 21.33 22.0202 21.32C22.0802 21.3 22.1302 21.29 22.1902 21.27C22.2202 21.27 22.2502 21.25 22.2802 21.24C22.3402 21.22 22.4002 21.2 22.4702 21.18C22.4902 21.18 22.5102 21.17 22.5402 21.16C22.6202 21.13 22.7102 21.1 22.7902 21.07C22.8102 21.07 22.8302 21.06 22.8402 21.05C22.9102 21.03 22.9702 21 23.0402 20.98C23.0702 20.97 23.1002 20.96 23.1202 20.95C23.1802 20.93 23.2302 20.91 23.2902 20.88C23.3202 20.87 23.3502 20.86 23.3802 20.84C23.4402 20.82 23.5002 20.79 23.5602 20.77C23.5802 20.76 23.6102 20.75 23.6302 20.74C23.7102 20.7 23.7902 20.67 23.8702 20.63C23.8802 20.63 23.8902 20.62 23.9102 20.61C23.9802 20.58 24.0502 20.55 24.1202 20.51C24.1502 20.5 24.1702 20.48 24.2002 20.47C24.2602 20.44 24.3102 20.42 24.3702 20.39C24.4002 20.38 24.4302 20.36 24.4602 20.35C24.5202 20.32 24.5702 20.29 24.6302 20.26C24.6602 20.25 24.6802 20.23 24.7102 20.22C24.7902 20.18 24.8702 20.14 24.9502 20.09L27.9102 18.45L28.9902 17.85C29.3502 17.67 29.7802 17.76 30.0202 18.08C30.1602 18.27 30.2202 18.51 30.1702 18.75C30.1202 18.98 29.9702 19.18 29.7602 19.3L25.4302 21.65C25.2102 21.77 25.1302 22.04 25.2502 22.26C25.3302 22.41 25.4902 22.49 25.6402 22.49C25.7102 22.49 25.7902 22.47 25.8502 22.44L30.1802 20.09C30.6202 19.85 30.9302 19.43 31.0402 18.95C31.1402 18.46 31.0402 17.95 30.7302 17.56L30.7202 17.54ZM19.0902 17.17H16.0502L20.3802 14.9C20.4802 14.85 20.5902 14.82 20.7002 14.82C20.9102 14.82 21.1202 14.92 21.2502 15.1C21.3702 15.26 21.4102 15.46 21.3702 15.66C21.3302 15.86 21.2002 16.02 21.0302 16.12L19.0902 17.17ZM20.9602 17.34C20.9602 17.34 20.9602 17.34 20.9502 17.34C20.9302 17.33 20.9102 17.32 20.8802 17.31C20.8802 17.31 20.8602 17.31 20.8502 17.3C20.8302 17.3 20.8202 17.29 20.8002 17.28L21.4702 16.92L23.5202 15.81C23.8202 15.65 24.2002 15.75 24.3702 16.04C24.4602 16.19 24.4902 16.37 24.4402 16.54C24.3902 16.71 24.2802 16.85 24.1202 16.94L21.7602 18.18C21.7602 18.18 21.7602 18.16 21.7502 18.16C21.7502 18.15 21.7402 18.13 21.7302 18.12C21.7302 18.11 21.7202 18.1 21.7102 18.09C21.7102 18.08 21.7002 18.06 21.6902 18.05C21.6902 18.04 21.6802 18.03 21.6702 18.02C21.6702 18.01 21.6502 17.99 21.6502 17.98C21.6502 17.97 21.6402 17.96 21.6302 17.95C21.6302 17.94 21.6102 17.93 21.6002 17.91C21.6002 17.9 21.5902 17.89 21.5802 17.88C21.5802 17.87 21.5602 17.86 21.5502 17.84C21.5502 17.83 21.5302 17.82 21.5302 17.81C21.5302 17.8 21.5102 17.79 21.5002 17.78C21.5002 17.78 21.4802 17.76 21.4802 17.75C21.4802 17.74 21.4602 17.73 21.4502 17.72C21.4502 17.72 21.4302 17.7 21.4202 17.69C21.4102 17.68 21.4002 17.67 21.3902 17.66C21.3902 17.66 21.3702 17.64 21.3602 17.63C21.3502 17.62 21.3402 17.61 21.3302 17.6C21.3302 17.6 21.3102 17.58 21.3002 17.58C21.2902 17.58 21.2802 17.56 21.2602 17.55C21.2602 17.55 21.2402 17.53 21.2302 17.53C21.2202 17.53 21.2002 17.51 21.1902 17.5C21.1902 17.5 21.1702 17.49 21.1602 17.48C21.1502 17.48 21.1302 17.46 21.1202 17.45C21.1202 17.45 21.1002 17.44 21.0902 17.43C21.0802 17.43 21.0602 17.41 21.0402 17.4C21.0402 17.4 21.0202 17.39 21.0102 17.39C20.9902 17.38 20.9702 17.37 20.9402 17.36L20.9602 17.34ZM27.7802 17.24C27.7402 17.42 27.6202 17.58 27.4602 17.67L24.5002 19.31C22.0302 20.68 19.2602 21.26 16.4502 21.01L20.4302 20.51C20.4302 20.51 20.5102 20.5 20.5602 20.49C20.5602 20.49 20.5702 20.49 20.5802 20.49C20.6202 20.49 20.6602 20.47 20.7002 20.46C20.7002 20.46 20.7102 20.46 20.7202 20.46C20.7602 20.45 20.7902 20.44 20.8302 20.42C20.8302 20.42 20.8402 20.42 20.8502 20.42C20.8902 20.41 20.9202 20.39 20.9602 20.37C21.0002 20.35 21.0302 20.33 21.0702 20.31C21.1002 20.29 21.1402 20.27 21.1702 20.25C21.1702 20.25 21.1802 20.25 21.1902 20.24C21.2202 20.22 21.2502 20.19 21.2802 20.17C21.2802 20.17 21.2802 20.17 21.2902 20.16C21.3202 20.13 21.3502 20.11 21.3802 20.08C21.4102 20.05 21.4402 20.02 21.4602 19.99C21.4902 19.96 21.5102 19.93 21.5402 19.9C21.5402 19.9 21.5402 19.9 21.5502 19.89C21.5702 19.86 21.6002 19.83 21.6202 19.8C21.6202 19.8 21.6202 19.79 21.6302 19.78C21.6502 19.75 21.6702 19.71 21.6902 19.68C21.6902 19.68 21.6902 19.68 21.6902 19.67C21.7102 19.63 21.7302 19.6 21.7402 19.56C21.7602 19.52 21.7702 19.49 21.7802 19.45C21.7802 19.45 21.7802 19.45 21.7802 19.44C21.7902 19.4 21.8002 19.37 21.8102 19.33C21.8102 19.33 21.8102 19.32 21.8102 19.31C21.8102 19.27 21.8302 19.23 21.8302 19.2L23.7702 18.18L24.4902 17.8L26.7902 16.59C27.0802 16.44 27.4402 16.52 27.6302 16.79C27.7402 16.94 27.7802 17.13 27.7402 17.32L27.7802 17.24Z" fill="#231F20"/>
<path d="M13.9102 0.170044C10.0702 0.170044 6.9502 3.29004 6.9502 7.13004C6.9502 10.97 10.0702 14.09 13.9102 14.09C17.7502 14.09 20.8702 10.97 20.8702 7.13004C20.8702 3.29004 17.7502 0.170044 13.9102 0.170044ZM13.9102 13.39C10.4602 13.39 7.65019 10.58 7.65019 7.13004C7.65019 3.68004 10.4602 0.870044 13.9102 0.870044C17.3602 0.870044 20.1702 3.68004 20.1702 7.13004C20.1702 10.58 17.3602 13.39 13.9102 13.39Z" fill="#231F20"/>
<path d="M13.9098 2.04004C12.7998 2.04004 11.7398 2.39004 10.8598 3.06004C9.99982 3.70004 9.35981 4.62004 9.03981 5.64004C8.97981 5.83004 9.08982 6.02004 9.26982 6.08004C9.45982 6.14004 9.64982 6.03004 9.70982 5.85004C9.97982 4.97004 10.5398 4.18004 11.2798 3.63004C12.0398 3.06004 12.9498 2.75004 13.9098 2.75004C16.3298 2.75004 18.2998 4.72004 18.2998 7.14004C18.2998 9.56004 16.3298 11.53 13.9098 11.53C11.4898 11.53 9.51982 9.56004 9.51982 7.14004C9.51982 6.94004 9.35982 6.79004 9.16982 6.79004C8.97982 6.79004 8.81982 6.95004 8.81982 7.14004C8.81982 9.95004 11.1098 12.24 13.9198 12.24C16.7298 12.24 19.0198 9.95004 19.0198 7.14004C19.0198 4.33004 16.7298 2.04004 13.9198 2.04004H13.9098Z" fill="#231F20"/>
<path d="M15.2401 7.31002C14.9601 7.01002 14.5501 6.83002 14.0001 6.78002C13.6201 6.75002 13.1201 6.62002 13.1801 5.84002C13.2001 5.65002 13.3101 5.06002 14.1401 5.13002C14.3301 5.15002 14.4901 5.25002 14.6301 5.45002C14.7501 5.62002 14.8001 5.80002 14.8001 5.80002C14.8501 5.99002 15.0401 6.10002 15.2301 6.06002C15.4201 6.01002 15.5301 5.82002 15.4901 5.63002C15.4801 5.59002 15.2101 4.56002 14.2701 4.44002V3.87002C14.2701 3.67002 14.1101 3.52002 13.9201 3.52002C13.7301 3.52002 13.5701 3.68002 13.5701 3.87002V4.48002C13.3101 4.55002 13.1201 4.67002 12.9801 4.78002C12.6901 5.03002 12.5201 5.38002 12.4901 5.78002C12.4101 6.76002 12.9501 7.39002 13.9501 7.48002C14.6101 7.54002 14.9201 7.82002 14.8801 8.31002C14.8401 8.73002 14.5701 9.19002 13.9101 9.14002C13.2601 9.09002 12.9401 8.43002 12.9301 8.42002C12.8501 8.24002 12.6401 8.17002 12.4601 8.25002C12.2801 8.33002 12.2101 8.54002 12.2901 8.72002C12.3101 8.76002 12.7001 9.58002 13.5701 9.80002V10.41C13.5701 10.6 13.7301 10.76 13.9201 10.76C14.1101 10.76 14.2701 10.6 14.2701 10.41V9.84002C15.0601 9.72002 15.5201 9.07002 15.5801 8.38002C15.6201 7.96002 15.5001 7.59002 15.2501 7.32002L15.2401 7.31002Z" fill="#231F20"/>
</svg>
