<svg width="78" height="41" viewBox="0 0 78 41" fill="none" xmlns="http://www.w3.org/2000/svg">
<g clip-path="url(#clip0_17_1109)">
<g style="mix-blend-mode:multiply">
<path d="M19.3401 30.7836L16.1201 29.2936L19.3401 27.8036L16.1201 26.3036L19.3401 24.8136L16.1201 23.3236L19.3401 21.8236L16.1201 20.3336L19.3401 18.8436L16.1201 17.3436L19.3401 15.8536L16.1201 14.3636L19.3401 12.8636L16.1201 11.3736L19.3401 9.88355L16.1201 8.38355L19.3401 6.89355H6.39007V33.7736H19.3401L16.1201 32.2836L19.3401 30.7836Z" fill="#98043D"/>
</g>
<path d="M12.9701 11.9636C13.1501 12.0936 13.3501 12.2036 13.5701 12.2736L13.2901 12.8036C13.1801 12.7736 13.0701 12.7236 12.9601 12.6636C12.9401 12.6536 12.7701 12.5436 12.4601 12.3336C12.2201 12.4436 11.9501 12.4936 11.6501 12.4936C11.0801 12.4936 10.6301 12.3236 10.3101 11.9936C9.99007 11.6536 9.83007 11.1836 9.83007 10.5836C9.83007 9.98358 9.99007 9.50358 10.3201 9.17358C10.6401 8.83358 11.0801 8.67358 11.6401 8.67358C12.2001 8.67358 12.6301 8.84358 12.9501 9.17358C13.2701 9.51358 13.4301 9.98358 13.4301 10.5836C13.4301 10.9036 13.3901 11.1836 13.3001 11.4236C13.2301 11.6136 13.1201 11.7836 12.9801 11.9636H12.9701ZM12.3701 11.5436C12.4701 11.4336 12.5401 11.2936 12.5901 11.1336C12.6401 10.9736 12.6601 10.7936 12.6601 10.5836C12.6601 10.1536 12.5701 9.83358 12.3801 9.62358C12.1901 9.41358 11.9401 9.30358 11.6401 9.30358C11.3401 9.30358 11.0901 9.41358 10.9001 9.62358C10.7101 9.83358 10.6201 10.1536 10.6201 10.5836C10.6201 11.0136 10.7101 11.3436 10.9001 11.5536C11.0901 11.7636 11.3301 11.8736 11.6201 11.8736C11.7301 11.8736 11.8301 11.8536 11.9301 11.8236C11.7801 11.7236 11.6201 11.6436 11.4701 11.5936L11.6801 11.1636C11.9301 11.2436 12.1601 11.3736 12.3901 11.5436H12.3701Z" fill="#E5E6E7"/>
<path d="M13.3301 17.3235H12.5201L12.2001 16.4835H10.7201L10.4101 17.3235H9.62007L11.0601 13.6135H11.8501L13.3301 17.3235ZM11.9501 15.8635L11.4401 14.4835L10.9401 15.8635H11.9501Z" fill="#E5E6E7"/>
<path d="M10.8201 22.2137V19.1337H9.72007V18.5037H12.6701V19.1337H11.5701V22.2137H10.8201Z" fill="#E5E6E7"/>
<path d="M13.3301 27.1036H12.5201L12.2001 26.2636H10.7201L10.4101 27.1036H9.62007L11.0601 23.3936H11.8501L13.3301 27.1036ZM11.9501 25.6436L11.4401 24.2636L10.9401 25.6436H11.9501Z" fill="#E5E6E7"/>
<path d="M9.99007 31.9937V28.2837H11.5601C11.9601 28.2837 12.2401 28.3137 12.4201 28.3837C12.6001 28.4537 12.7401 28.5637 12.8501 28.7437C12.9601 28.9137 13.0101 29.1037 13.0101 29.3237C13.0101 29.6037 12.9301 29.8337 12.7601 30.0137C12.6001 30.1937 12.3501 30.3137 12.0301 30.3537C12.1901 30.4437 12.3301 30.5537 12.4301 30.6637C12.5401 30.7737 12.6801 30.9737 12.8601 31.2637L13.3101 31.9837H12.4201L11.8801 31.1737C11.6901 30.8837 11.5601 30.7037 11.4901 30.6337C11.4201 30.5537 11.3401 30.5037 11.2701 30.4837C11.1901 30.4537 11.0701 30.4437 10.8901 30.4437H10.7401V31.9937H9.99007ZM10.7401 29.8637H11.2901C11.6501 29.8637 11.8701 29.8437 11.9601 29.8137C12.0501 29.7837 12.1201 29.7337 12.1701 29.6537C12.2201 29.5837 12.2501 29.4837 12.2501 29.3737C12.2501 29.2537 12.2201 29.1437 12.1501 29.0737C12.0801 28.9937 11.9901 28.9537 11.8701 28.9237C11.8101 28.9237 11.6301 28.9137 11.3201 28.9137H10.7401V29.8537V29.8637Z" fill="#E5E6E7"/>
<path d="M74.3501 0.333496H22.9501C22.3201 0.333496 21.8101 0.843496 21.8101 1.4735C21.8101 2.1035 22.3201 2.6135 22.9501 2.6135H66.0501V5.0535H11.7101V2.6135H17.9801C18.6101 2.6135 19.1201 2.1035 19.1201 1.4735C19.1201 0.843496 18.6101 0.333496 17.9801 0.333496H3.42007C1.53007 0.333496 6.67572e-05 1.8635 6.67572e-05 3.7535V36.9235C6.67572e-05 38.8035 1.53007 40.3435 3.42007 40.3435H74.3501C76.2301 40.3435 77.7701 38.8135 77.7701 36.9235V20.5935C77.7701 19.9635 77.2601 19.4535 76.6301 19.4535C76.0001 19.4535 75.4901 19.9635 75.4901 20.5935V28.6635H73.0501V12.0435H75.4901V15.6135C75.4901 16.2435 76.0001 16.7535 76.6301 16.7535C77.2601 16.7535 77.7701 16.2435 77.7701 15.6135V3.7535C77.7701 1.8735 76.2401 0.333496 74.3501 0.333496ZM70.7701 32.9935C70.7701 33.2035 70.6001 33.3735 70.3901 33.3735H36.6501C36.0201 33.3735 35.5101 33.8835 35.5101 34.5135C35.5101 35.1435 36.0201 35.6535 36.6501 35.6535H66.0501V38.0535H11.7101V35.6535H31.6801C32.3101 35.6535 32.8201 35.1435 32.8201 34.5135C32.8201 33.8835 32.3101 33.3735 31.6801 33.3735H7.38007C7.17007 33.3735 7.00007 33.2035 7.00007 32.9935V7.7135C7.00007 7.5035 7.17007 7.3335 7.38007 7.3335H70.3901C70.6001 7.3335 70.7701 7.5035 70.7701 7.7135V33.0035V32.9935ZM2.28007 12.0435H4.72007V28.6335H2.28007V12.0435ZM3.42007 2.6135H9.44007V5.0535H7.38007C5.91007 5.0535 4.72007 6.2435 4.72007 7.7135V9.7735H2.28007V3.7535C2.28007 3.1235 2.79007 2.6135 3.42007 2.6135ZM2.28007 36.9135V30.9135H4.72007V32.9935C4.72007 34.4635 5.91007 35.6535 7.38007 35.6535H9.44007V38.0535H3.42007C2.79007 38.0535 2.28007 37.5435 2.28007 36.9135ZM75.4801 30.9335V36.9135C75.4801 37.5435 74.9701 38.0535 74.3401 38.0535H68.3201V35.6535H70.3801C71.8401 35.6535 73.0401 34.4635 73.0401 32.9935V30.9335H75.4801ZM73.0401 9.7735V7.7135C73.0401 6.2435 71.8501 5.0535 70.3801 5.0535H68.3201V2.6135H74.3401C74.9701 2.6135 75.4801 3.1235 75.4801 3.7535V9.7735H73.0401Z" fill="#7C7C7C"/>
<path d="M67.1901 28.6636C66.5601 28.6636 66.0501 29.1736 66.0501 29.8036C66.0501 30.4336 66.5701 30.9436 67.1901 30.9436C67.8101 30.9436 68.3301 30.4336 68.3301 29.8036C68.3301 29.1736 67.8301 28.6636 67.1901 28.6636Z" fill="#7C7C7C"/>
<path d="M37.3701 20.3335C37.3101 19.7035 37.1401 19.0935 36.7501 18.5735C36.2901 17.9635 35.6301 17.9835 35.2001 18.6035C34.8901 19.0635 34.7701 19.5835 34.7601 20.1235C34.7601 20.7835 35.1101 21.1635 35.7701 21.1435C36.1001 21.1435 36.4401 21.0535 36.8401 20.9835C36.8701 21.3035 36.9101 21.6335 36.9401 21.9735H34.0701C34.0701 21.7635 34.0801 21.5735 34.0701 21.3935C34.0301 20.7835 33.8501 20.2435 33.2401 19.9735C32.8501 19.7935 32.4301 19.7835 32.0101 19.8735C31.2501 20.0335 30.5801 20.3935 29.9201 20.7535C29.8201 20.8035 29.7101 20.8335 29.5601 20.8935C29.9701 19.4135 29.6501 18.0335 29.2901 16.6535C29.4101 16.6635 29.4901 16.6735 29.6201 16.6835C29.6701 16.3135 29.7201 15.9635 29.7701 15.6735C29.3201 15.4735 28.9501 15.3135 28.5201 15.1235C28.4401 15.4635 28.3501 15.8535 28.2801 16.1435C28.4701 16.3735 28.6601 16.5035 28.7001 16.6635C28.9101 17.6235 29.1101 18.5935 29.2601 19.5735C29.3401 20.0935 29.3401 20.6435 29.1301 21.1535C29.0801 21.2935 28.9901 21.4435 28.8701 21.5135C28.2601 21.9035 27.6001 22.0835 26.8301 21.9635C26.8701 20.9935 26.6201 20.1535 25.8101 19.5035C25.6901 19.8535 25.5801 20.1635 25.4801 20.4435C25.7101 20.7935 25.9401 21.0935 26.1201 21.4135C26.3801 21.8835 26.4701 22.3935 26.2401 22.9035C25.7401 24.0635 24.1201 25.2835 22.7901 25.1935C22.3301 25.1635 21.8801 25.0235 21.4201 24.9535C21.3401 24.9435 21.2401 25.0135 21.1501 25.0535C21.1501 25.0935 21.1501 25.1335 21.1601 25.1735C21.7701 25.4035 22.3701 25.6535 22.9901 25.8335C23.3401 25.9335 23.7701 26.0135 24.0901 25.9035C25.4601 25.4335 26.4801 24.5635 26.8801 23.0035H37.5201C37.4701 22.0735 37.4601 21.1935 37.3801 20.3135L37.3701 20.3335ZM35.7501 20.1235C35.4301 20.0935 35.2501 19.8435 35.3201 19.5235C35.3801 19.2135 35.6601 19.0735 35.9101 19.2635C36.1301 19.4235 36.2901 19.6535 36.4801 19.8435C36.2501 20.1035 36.0101 20.1435 35.7501 20.1235ZM32.6601 21.9135C32.3901 21.9535 32.1101 22.0035 31.8301 22.0035C30.9401 22.0135 30.0501 22.0035 29.1601 22.0035C29.8701 21.4535 30.6201 21.0635 31.4701 20.8935C31.9001 20.8035 32.3401 20.8335 32.7501 21.0135C32.9601 21.1035 33.1301 21.2635 33.1101 21.5035C33.0901 21.7635 32.8901 21.8635 32.6601 21.9035V21.9135Z" fill="black"/>
<path d="M35.8401 16.7734C35.6901 17.0634 35.5401 17.3334 35.3801 17.6534C35.0501 17.4834 34.7301 17.3234 34.4001 17.1534C34.5501 16.8534 34.6901 16.5834 34.8401 16.2634C35.1801 16.4334 35.5001 16.5934 35.8401 16.7634V16.7734Z" fill="black"/>
<path d="M35.8101 16.5736C35.9601 16.2836 36.1001 16.0036 36.2601 15.7036C36.5901 15.8836 36.9001 16.0436 37.2301 16.2236C37.0801 16.5236 36.9301 16.7936 36.7801 17.1036C36.4601 16.9336 36.1501 16.7636 35.8101 16.5836V16.5736Z" fill="black"/>
</g>
<defs>
<clipPath id="clip0_17_1109">
<rect width="77.76" height="40" fill="white" transform="translate(6.67572e-05 0.333496)"/>
</clipPath>
</defs>
</svg>
