<svg width="20" height="20" viewBox="0 0 20 20" fill="none" xmlns="http://www.w3.org/2000/svg">
<path d="M8.43622 2.13354C4.88988 2.13354 2.00488 5.01854 2.00488 8.56488C2.00488 12.1112 4.88988 14.9962 8.43622 14.9962C11.9825 14.9962 14.8672 12.1112 14.8672 8.56488C14.8672 5.01854 11.9822 2.13354 8.43622 2.13354ZM8.43622 14.3295C5.25755 14.3295 2.67155 11.7435 2.67155 8.56488C2.67155 5.38621 5.25755 2.80021 8.43622 2.80021C11.6149 2.80021 14.2006 5.38621 14.2006 8.56488C14.2006 11.7435 11.6145 14.3295 8.43622 14.3295Z" fill="black"/>
<path d="M8.43624 3.96509C8.25191 3.96509 8.10291 4.11442 8.10291 4.29842C8.10291 4.48242 8.25191 4.63175 8.43624 4.63175C10.7299 4.63175 12.5959 6.49775 12.5959 8.79142C12.5959 8.97542 12.7449 9.12475 12.9292 9.12475C13.1136 9.12475 13.2626 8.97542 13.2626 8.79142C13.2626 6.13009 11.0976 3.96509 8.43624 3.96509Z" fill="black"/>
<path d="M15.5013 13.2327C16.4223 11.8763 16.9613 10.2403 16.9613 8.48067C16.9613 3.80433 13.157 0 8.481 0C3.805 0 0 3.80433 0 8.48067C0 13.157 3.80433 16.9613 8.48067 16.9613C10.2403 16.9613 11.8763 16.4223 13.2327 15.5013C14.2677 17.1347 15.6573 18.8997 16.0863 19.328C16.5197 19.7613 17.095 20 17.707 20C18.319 20 18.8947 19.7613 19.328 19.328C20.222 18.4343 20.222 16.98 19.328 16.086C18.8987 15.657 17.1333 14.267 15.501 13.2323L15.5013 13.2327ZM0.666667 8.48067C0.666667 4.172 4.17233 0.666667 8.48067 0.666667C12.789 0.666667 16.2943 4.172 16.2943 8.48067C16.2943 12.7893 12.789 16.2947 8.48067 16.2947C4.17233 16.2947 0.666667 12.7893 0.666667 8.48067ZM18.8567 18.8567C18.549 19.164 18.141 19.3333 17.707 19.3333C17.273 19.3333 16.865 19.164 16.5577 18.8567C16.1433 18.4423 14.7813 16.707 13.7697 15.103C14.2617 14.7093 14.709 14.262 15.1027 13.77C16.706 14.7807 18.4417 16.143 18.8567 16.5577C19.4903 17.1917 19.4903 18.223 18.8567 18.8567Z" fill="black"/>
</svg>
