<svg width="25" height="25" viewBox="0 0 25 25" fill="none" xmlns="http://www.w3.org/2000/svg">
<path d="M9.44 11.18H1.74C0.78 11.18 0 10.4 0 9.44V1.74C0 0.78 0.78 0 1.74 0H9.45C10.41 0 11.19 0.78 11.19 1.74V9.45C11.19 10.41 10.41 11.19 9.45 11.19L9.44 11.18ZM1.74 1.25C1.47 1.25 1.25 1.47 1.25 1.74V9.45C1.25 9.72 1.47 9.94 1.74 9.94H9.45C9.72 9.94 9.94 9.72 9.94 9.45V1.74C9.94 1.47 9.72 1.25 9.45 1.25H1.74Z" fill="black"/>
<path d="M23.2601 11.18H15.5501C14.5901 11.18 13.8101 10.4 13.8101 9.44V1.74C13.8101 0.78 14.5901 0 15.5501 0H23.2601C24.2201 0 25.0001 0.78 25.0001 1.74V9.45C25.0001 10.41 24.2201 11.19 23.2601 11.19V11.18ZM15.5601 1.25C15.2901 1.25 15.0701 1.47 15.0701 1.74V9.45C15.0701 9.72 15.2901 9.94 15.5601 9.94H23.2701C23.5401 9.94 23.7601 9.72 23.7601 9.45V1.74C23.7601 1.47 23.5401 1.25 23.2701 1.25H15.5601Z" fill="black"/>
<path d="M9.44 25.0001H1.74C0.78 25.0001 0 24.2201 0 23.2601V15.5501C0 14.5901 0.78 13.8101 1.74 13.8101H9.45C10.41 13.8101 11.19 14.5901 11.19 15.5501V23.2601C11.19 24.2201 10.41 25.0001 9.45 25.0001H9.44ZM1.74 15.0701C1.47 15.0701 1.25 15.2901 1.25 15.5601V23.2701C1.25 23.5401 1.47 23.7601 1.74 23.7601H9.45C9.72 23.7601 9.94 23.5401 9.94 23.2701V15.5601C9.94 15.2901 9.72 15.0701 9.45 15.0701H1.74Z" fill="black"/>
<path d="M23.2601 25.0001H15.5501C14.5901 25.0001 13.8101 24.2201 13.8101 23.2601V15.5501C13.8101 14.5901 14.5901 13.8101 15.5501 13.8101H23.2601C24.2201 13.8101 25.0001 14.5901 25.0001 15.5501V23.2601C25.0001 24.2201 24.2201 25.0001 23.2601 25.0001ZM15.5601 15.0701C15.2901 15.0701 15.0701 15.2901 15.0701 15.5601V23.2701C15.0701 23.5401 15.2901 23.7601 15.5601 23.7601H23.2701C23.5401 23.7601 23.7601 23.5401 23.7601 23.2701V15.5601C23.7601 15.2901 23.5401 15.0701 23.2701 15.0701H15.5601Z" fill="black"/>
</svg>
