<svg width="20" height="25" viewBox="0 0 20 25" fill="none" xmlns="http://www.w3.org/2000/svg">
<path d="M19.76 20.57C19.62 20.43 19.42 20.34 19.21 20.34C19 20.34 18.8 20.42 18.65 20.57L16.87 22.36V0.77C16.87 0.57 16.79 0.37 16.65 0.23C16.5 0.08 16.3 0 16.1 0C15.9 0 15.69 0.08 15.55 0.23C15.4 0.37 15.32 0.57 15.32 0.77V22.35L13.54 20.56C13.39 20.42 13.19 20.33 12.98 20.33C12.77 20.33 12.58 20.41 12.43 20.56C12.28 20.71 12.2 20.91 12.2 21.11C12.2 21.31 12.28 21.52 12.43 21.67L15.55 24.77C15.63 24.85 15.71 24.9 15.81 24.94C15.9 24.98 16 25 16.11 25C16.21 25 16.31 24.98 16.41 24.94C16.5 24.91 16.58 24.85 16.66 24.77L19.78 21.67C19.93 21.52 20.01 21.32 20.01 21.11C20.01 20.9 19.93 20.71 19.78 20.56L19.76 20.57Z" fill="white"/>
<path d="M7.56 4.43C7.42 4.57 7.22 4.66 7.01 4.66C6.8 4.66 6.6 4.58 6.45 4.43L4.67 2.64V24.22C4.67 24.42 4.59 24.62 4.45 24.76C4.3 24.91 4.1 24.99 3.9 24.99C3.7 24.99 3.49 24.91 3.35 24.76C3.2 24.62 3.12 24.42 3.12 24.22V2.64L1.34 4.43C1.19 4.57 0.99 4.66 0.78 4.66C0.57 4.66 0.38 4.58 0.23 4.43C0.08 4.28 0 4.08 0 3.88C0 3.68 0.08 3.47 0.23 3.32L3.33 0.23C3.41 0.15 3.49 0.1 3.59 0.06C3.68 0.02 3.78 0 3.89 0C3.99 0 4.09 0.02 4.19 0.06C4.28 0.09 4.36 0.15 4.44 0.23L7.56 3.33C7.71 3.48 7.79 3.68 7.79 3.89C7.79 4.1 7.71 4.29 7.56 4.44V4.43Z" fill="white"/>
</svg>
